<svg width="64" height="64" fill="none" xmlns="http://www.w3.org/2000/svg"><g filter="url('#filter0_d_637_23729')"><circle cx="32" cy="32" r="28" fill="#F3FFF6"/></g><path d="M23.263 33c-.366 0-.677-.071-.934-.214-.22-.167-.329-.37-.329-.607V30.82c0-.238.11-.428.33-.571.256-.167.567-.25.933-.25h16.474c.366 0 .659.083.879.25.256.143.384.333.384.571v1.358c0 .238-.128.44-.384.607-.22.143-.513.214-.879.214H23.263Z" fill="#04A427"/><defs><filter id="filter0_d_637_23729" x="0" y="0" width="64" height="64" filterUnits="userSpaceOnUse" color-interpolation-filters="sRGB"><feFlood flood-opacity="0" result="BackgroundImageFix"/><feColorMatrix in="SourceAlpha" values="0 0 0 0 0 0 0 0 0 0 0 0 0 0 0 0 0 0 127 0" result="hardAlpha"/><feOffset/><feGaussianBlur stdDeviation="2"/><feComposite in2="hardAlpha" operator="out"/><feColorMatrix values="0 0 0 0 0.0156863 0 0 0 0 0.643137 0 0 0 0 0.152941 0 0 0 0.17 0"/><feBlend in2="BackgroundImageFix" result="effect1_dropShadow_637_23729"/><feBlend in="SourceGraphic" in2="effect1_dropShadow_637_23729" result="shape"/></filter></defs></svg>