<svg width="11" height="12" fill="none" xmlns="http://www.w3.org/2000/svg"><g clip-path="url('#clip0_637_23876')"><path d="M5.31 1.736a4.422 4.422 0 0 1 4.425 4.42 4.422 4.422 0 0 1-4.425 4.42 4.422 4.422 0 0 1-4.425-4.42 4.422 4.422 0 0 1 4.425-4.42Zm0 .884a3.542 3.542 0 0 0-3.54 3.537 3.534 3.534 0 0 0 3.54 3.536 3.542 3.542 0 0 0 3.54-3.536A3.534 3.534 0 0 0 5.31 2.62Zm0 .884a.443.443 0 0 1 .44.39l.002.052v2.028L6.95 7.17a.442.442 0 0 1-.584.662l-.042-.037L4.997 6.47a.442.442 0 0 1-.126-.255l-.004-.058v-2.21a.442.442 0 0 1 .443-.442Z" fill="#04A427" stroke="#04A427" stroke-width=".133"/></g><defs><clipPath id="clip0_637_23876"><path fill="#fff" transform="translate(0 .852)" d="M0 0h10.62v10.608H0z"/></clipPath></defs></svg>