<svg width="58" height="77" fill="none" xmlns="http://www.w3.org/2000/svg"><g filter="url('#filter0_b_496_4892')"><path d="M28.531 45.205c1.746 0 3.241-.62 4.485-1.86 1.245-1.239 1.866-2.73 1.864-4.474 0-1.741-.621-3.232-1.864-4.471-1.242-1.24-2.737-1.86-4.485-1.862-1.746 0-3.24.62-4.482 1.862-1.242 1.241-1.864 2.732-1.866 4.471l6.348 6.334Zm-3.07-3.275c-.871-.87-1.278-1.853-1.278-3.058.001-1.203.409-2.187 1.28-3.057.87-.87 1.855-1.277 3.067-1.277 1.216.002 2.205.41 3.074 1.278.87.867 1.276 1.85 1.276 3.055v.003c.001 1.206-.405 2.188-1.275 3.055-.872.868-1.86 1.276-3.074 1.276h-.002c-1.209.001-2.195-.405-3.067-1.275ZM47.58 68.538H9.486c-1.214 0-2.2-.407-3.07-1.275-.87-.867-1.277-1.85-1.279-3.06V13.538c0-1.205.407-2.187 1.278-3.054.873-.87 1.861-1.278 3.072-1.28h24.152a1 1 0 0 1 .706.293L51.632 26.74a1 1 0 0 1 .293.708v36.756c0 1.206-.406 2.19-1.277 3.06-.868.867-1.855 1.274-3.069 1.273ZM39.225 55.87H17.837c.03-.808.262-1.533.704-2.212.46-.707 1.096-1.248 1.968-1.628 1.262-.531 2.557-.941 3.886-1.23a19.386 19.386 0 0 1 4.136-.43c1.451 0 2.829.145 4.136.43 1.332.29 2.627.699 3.885 1.23.873.38 1.508.921 1.969 1.628.442.679.674 1.404.704 2.212Zm5.352 10.334a5 5 0 0 0 5-5V30.14a5 5 0 0 0-1.469-3.54L34.472 12.998a5 5 0 0 0-3.531-1.46H12.485a5 5 0 0 0-5 5v44.667a5 5 0 0 0 5 5h32.092Z" stroke="#fff" stroke-opacity=".5" stroke-width="4" stroke-linejoin="round"/></g><defs><filter id="filter0_b_496_4892" x="-36.863" y="-32.795" width="130.788" height="143.333" filterUnits="userSpaceOnUse" color-interpolation-filters="sRGB"><feFlood flood-opacity="0" result="BackgroundImageFix"/><feGaussianBlur in="BackgroundImageFix" stdDeviation="20"/><feComposite in2="SourceAlpha" operator="in" result="effect1_backgroundBlur_496_4892"/><feBlend in="SourceGraphic" in2="effect1_backgroundBlur_496_4892" result="shape"/></filter></defs></svg>