<svg width="15" height="18" fill="none" xmlns="http://www.w3.org/2000/svg"><path d="M14.131 7.657c0 4.826-6.624 9.33-6.624 9.33S.883 12.484.883 7.658c0-1.792.698-3.51 1.94-4.778A6.56 6.56 0 0 1 7.507.9c1.757 0 3.442.712 4.684 1.98a6.826 6.826 0 0 1 1.94 4.777Z" stroke="#095119" stroke-width="1.2" stroke-linecap="round" stroke-linejoin="round"/><path d="M7.507 9.266c.871 0 1.577-.72 1.577-1.608 0-.889-.706-1.61-1.577-1.61S5.93 6.77 5.93 7.659c0 .888.706 1.608 1.577 1.608Z" fill="#095119" stroke="#095119" stroke-width="1.2" stroke-linecap="round" stroke-linejoin="round"/></svg>