<svg width="15" height="18" fill="none" xmlns="http://www.w3.org/2000/svg"><path d="M13.942 7.69c0 4.78-6.56 9.24-6.56 9.24S.825 12.47.825 7.69c0-1.774.69-3.476 1.92-4.73A6.495 6.495 0 0 1 7.384 1c1.74 0 3.408.705 4.638 1.96a6.76 6.76 0 0 1 1.921 4.73Z" stroke="#04A427" stroke-width="1.25" stroke-linecap="round" stroke-linejoin="round"/><path d="M7.382 9.28c.863 0 1.562-.713 1.562-1.592 0-.88-.7-1.593-1.562-1.593-.862 0-1.562.713-1.562 1.593s.7 1.593 1.562 1.593Z" fill="#04A427" stroke="#04A427" stroke-width="1.25" stroke-linecap="round" stroke-linejoin="round"/></svg>