<svg width="68" height="68" fill="none" xmlns="http://www.w3.org/2000/svg"><g filter="url('#filter0_d_637_23823')"><circle cx="33.999" cy="34.004" r="28" fill="#27D045"/></g><path d="M42.812 25.142a12.271 12.271 0 0 0-8.762-3.638c-6.825 0-12.388 5.563-12.388 12.387 0 2.188.575 4.313 1.65 6.188l-1.75 6.425 6.563-1.725a12.39 12.39 0 0 0 5.925 1.512c6.825 0 12.387-5.562 12.387-12.387a12.31 12.31 0 0 0-3.625-8.763Zm-8.762 19.05c-1.85 0-3.663-.5-5.25-1.438l-.376-.225-3.9 1.025 1.038-3.8-.25-.387a10.33 10.33 0 0 1-1.575-5.475c0-5.676 4.625-10.3 10.3-10.3 2.75 0 5.337 1.075 7.275 3.024a10.228 10.228 0 0 1 3.013 7.288c.024 5.675-4.6 10.287-10.276 10.287Zm5.65-7.7c-.313-.15-1.838-.9-2.113-1.013-.288-.1-.488-.15-.7.15-.212.313-.8 1.013-.975 1.213-.175.212-.362.237-.675.075-.313-.15-1.313-.488-2.488-1.538-.925-.825-1.537-1.837-1.725-2.15-.175-.313-.024-.475.138-.637.137-.138.313-.363.463-.538.15-.175.212-.313.312-.513.1-.212.05-.387-.025-.537-.075-.15-.7-1.675-.95-2.3-.25-.6-.512-.525-.7-.538h-.6c-.212 0-.537.075-.825.388-.275.313-1.075 1.063-1.075 2.588 0 1.524 1.113 3 1.262 3.2.15.212 2.188 3.337 5.288 4.675.738.325 1.313.512 1.763.65.737.237 1.412.2 1.95.124.6-.087 1.837-.75 2.087-1.474.262-.725.262-1.338.175-1.475-.087-.138-.275-.2-.587-.35Z" fill="#fff"/><defs><filter id="filter0_d_637_23823" x="0" y=".004" width="68" height="68" filterUnits="userSpaceOnUse" color-interpolation-filters="sRGB"><feFlood flood-opacity="0" result="BackgroundImageFix"/><feColorMatrix in="SourceAlpha" values="0 0 0 0 0 0 0 0 0 0 0 0 0 0 0 0 0 0 127 0" result="hardAlpha"/><feOffset/><feGaussianBlur stdDeviation="3"/><feComposite in2="hardAlpha" operator="out"/><feColorMatrix values="0 0 0 0 0.705882 0 0 0 0 0.682353 0 0 0 0 0.654902 0 0 0 0.25 0"/><feBlend in2="BackgroundImageFix" result="effect1_dropShadow_637_23823"/><feBlend in="SourceGraphic" in2="effect1_dropShadow_637_23823" result="shape"/></filter></defs></svg>