<svg width="68" height="68" fill="none" xmlns="http://www.w3.org/2000/svg"><g filter="url('#filter0_d_637_23817')"><circle cx="33.999" cy="34.004" r="28" fill="#007FFF"/></g><path d="m37.47 36.551 3.313-4.9c.328-.482-.294-1.006-.769-.66l-3.572 2.518a.714.714 0 0 1-.815 0l-2.645-1.846c-.791-.547-1.922-.346-2.454.418l-3.312 4.9c-.328.483.293 1.008.768.662l3.573-2.519a.714.714 0 0 1 .815 0l2.645 1.815c.791.578 1.922.377 2.454-.388Z" fill="#fff"/><path fill-rule="evenodd" clip-rule="evenodd" d="M34 21.816a12.188 12.188 0 0 0-12.188 12.188 12.156 12.156 0 0 0 3.75 8.795v3.08a.937.937 0 0 0 1.234.89l3.475-1.159c1.205.386 2.463.583 3.728.581 6.732 0 12.188-5.456 12.188-12.187 0-6.731-5.456-12.188-12.188-12.188ZM23.686 34.004a10.313 10.313 0 1 1 6.895 9.734.937.937 0 0 0-.608-.005l-2.537.845V42.39a.937.937 0 0 0-.313-.7 10.285 10.285 0 0 1-3.437-7.686Z" fill="#fff"/><defs><filter id="filter0_d_637_23817" x="0" y=".004" width="68" height="68" filterUnits="userSpaceOnUse" color-interpolation-filters="sRGB"><feFlood flood-opacity="0" result="BackgroundImageFix"/><feColorMatrix in="SourceAlpha" values="0 0 0 0 0 0 0 0 0 0 0 0 0 0 0 0 0 0 127 0" result="hardAlpha"/><feOffset/><feGaussianBlur stdDeviation="3"/><feComposite in2="hardAlpha" operator="out"/><feColorMatrix values="0 0 0 0 0.705882 0 0 0 0 0.682353 0 0 0 0 0.654902 0 0 0 0.25 0"/><feBlend in2="BackgroundImageFix" result="effect1_dropShadow_637_23817"/><feBlend in="SourceGraphic" in2="effect1_dropShadow_637_23817" result="shape"/></filter></defs></svg>