<svg width="68" height="68" fill="none" xmlns="http://www.w3.org/2000/svg"><g filter="url('#filter0_d_637_23793')"><circle cx="33.999" cy="34.004" r="28" fill="url('#paint0_linear_637_23793')"/></g><path d="M41.12 25.285a1.6 1.6 0 1 0 0 3.199 1.6 1.6 0 0 0 0-3.199Zm6.133 3.227a10.122 10.122 0 0 0-.613-3.24 6.587 6.587 0 0 0-1.547-2.36 6.267 6.267 0 0 0-2.36-1.534 9.734 9.734 0 0 0-3.24-.626c-1.413-.08-1.867-.08-5.493-.08-3.627 0-4.08 0-5.494.08a9.734 9.734 0 0 0-3.24.627 6.374 6.374 0 0 0-2.36 1.533 6.265 6.265 0 0 0-1.533 2.36 9.734 9.734 0 0 0-.627 3.24c-.08 1.413-.08 1.866-.08 5.493 0 3.627 0 4.08.08 5.493a9.734 9.734 0 0 0 .627 3.24c.326.893.85 1.7 1.534 2.36a6.374 6.374 0 0 0 2.36 1.534 9.732 9.732 0 0 0 3.24.627c1.413.08 1.866.08 5.493.08 3.627 0 4.08 0 5.493-.08a9.732 9.732 0 0 0 3.24-.627c.893-.326 1.7-.85 2.36-1.533a6.465 6.465 0 0 0 1.547-2.36c.38-1.04.587-2.134.613-3.24 0-1.414.08-1.867.08-5.494s0-4.08-.08-5.493Zm-2.4 10.827a7.478 7.478 0 0 1-.453 2.48 4.08 4.08 0 0 1-1 1.533c-.433.44-.956.782-1.533 1a7.48 7.48 0 0 1-2.48.453c-1.334.067-1.827.08-5.334.08-3.506 0-4 0-5.333-.08a7.64 7.64 0 0 1-2.587-.4 4.359 4.359 0 0 1-1.466-1 4.001 4.001 0 0 1-.987-1.533 7.389 7.389 0 0 1-.534-2.533c0-1.334-.08-1.827-.08-5.334 0-3.507 0-4 .08-5.333a7.386 7.386 0 0 1 .467-2.534 4 4 0 0 1 1.053-1.466 4.185 4.185 0 0 1 1.467-1.067 7.637 7.637 0 0 1 2.534-.453c1.333 0 1.826-.08 5.333-.08s4 0 5.333.08c.846.01 1.685.163 2.48.453a4.08 4.08 0 0 1 1.587 1.067c.437.41.778.91 1 1.466.296.813.45 1.67.453 2.534.067 1.333.08 1.826.08 5.333s-.013 4-.08 5.334ZM34 27.165a6.84 6.84 0 1 0 6.853 6.84A6.827 6.827 0 0 0 34 27.165Zm0 11.28a4.44 4.44 0 1 1 0-8.88 4.44 4.44 0 0 1 0 8.88Z" fill="#fff"/><defs><linearGradient id="paint0_linear_637_23793" x1="33.999" y1="62.004" x2="58.499" y2="-11.996" gradientUnits="userSpaceOnUse"><stop stop-color="#F5B25D"/><stop offset=".333" stop-color="#E04C55"/><stop offset=".667" stop-color="#B2388C"/><stop offset="1" stop-color="#8D4E9C"/></linearGradient><filter id="filter0_d_637_23793" x="0" y=".004" width="68" height="68" filterUnits="userSpaceOnUse" color-interpolation-filters="sRGB"><feFlood flood-opacity="0" result="BackgroundImageFix"/><feColorMatrix in="SourceAlpha" values="0 0 0 0 0 0 0 0 0 0 0 0 0 0 0 0 0 0 127 0" result="hardAlpha"/><feOffset/><feGaussianBlur stdDeviation="3"/><feComposite in2="hardAlpha" operator="out"/><feColorMatrix values="0 0 0 0 0.705882 0 0 0 0 0.682353 0 0 0 0 0.654902 0 0 0 0.25 0"/><feBlend in2="BackgroundImageFix" result="effect1_dropShadow_637_23793"/><feBlend in="SourceGraphic" in2="effect1_dropShadow_637_23793" result="shape"/></filter></defs></svg>