<svg width="46" height="55" fill="none" xmlns="http://www.w3.org/2000/svg"><g filter="url('#filter0_b_1051_10443')"><path d="M8.478 0H21.47c2.976 0 4.658.405 6.635 2.222l.229.214 15.096 14.392c1.811 1.74 2.386 3.026 2.529 5.292l.028.588.012.634L46 46.97c0 5.228-2.706 7.92-8.142 8.026l-.336.003H8.478C2.957 55 .116 52.438.004 47.29L0 46.97V8.056C0 2.826 2.732.109 8.144.003L8.478 0Zm12.389 4.13H8.725C5.97 4.13 4.5 5.5 4.407 7.89l-.004.242v38.762c0 2.482 1.383 3.883 4.025 3.97l.269.006h28.606c2.753 0 4.199-1.322 4.29-3.732l.004-.244V23.857H26.008c-3.294 0-5.04-1.5-5.137-4.55l-.004-.273V4.13Zm2.139 34.974c6.118 0 9.932 3.944 9.932 6.802 0 .932-.605 1.429-2.281 1.47l-.235.003H15.59c-1.866 0-2.527-.498-2.527-1.473 0-2.857 3.816-6.802 9.944-6.802Zm0-11.642a4.728 4.728 0 0 1 4.723 4.763c0 2.77-2.184 4.897-4.723 4.897-2.528 0-4.724-2.128-4.724-4.874 0-2.714 2.196-4.786 4.724-4.786Zm1.99-22.537v13.622c0 .966.388 1.386 1.323 1.433l.182.004h14.247L24.997 4.925Z" fill="#fff" fill-opacity=".5"/><path d="M21.017 4.13v-.15H8.725c-1.4 0-2.497.348-3.256 1.021-.761.675-1.164 1.658-1.212 2.882v.003l-.004.243v38.765c0 1.269.354 2.283 1.066 2.99.711.706 1.759 1.086 3.104 1.13h.002l.269.006h28.609c1.399 0 2.489-.336 3.242-1 .756-.665 1.151-1.642 1.198-2.876v-.003l.004-.244V23.707H26.008c-1.627 0-2.845-.37-3.669-1.094-.82-.72-1.27-1.813-1.319-3.309v-.001l-.003-.27V4.13Zm4.083.687-.254-.243V18.547c0 .499.1.891.35 1.163.253.273.63.395 1.115.42h.004l.182.004h14.625l-.27-.259L25.1 4.817ZM8.48.15h12.99c1.482 0 2.628.101 3.646.423 1.014.32 1.91.862 2.886 1.759l.227.213 15.096 14.392c.899.863 1.481 1.604 1.858 2.404.377.799.554 1.666.625 2.788l.028.584.012.629v.003l.002 23.626c0 2.59-.67 4.525-1.988 5.827-1.319 1.303-3.31 1.996-6.006 2.049h-.001l-.333.003H8.478c-2.74 0-4.788-.636-6.165-1.886C.94 51.716.21 49.834.153 47.287v-.001L.15 46.97V8.055c0-2.59.676-4.532 1.998-5.84C3.47.905 5.463.206 8.146.153L8.478.15h.001Zm14.526 39.104c3.026 0 5.477.975 7.168 2.297 1.696 1.326 2.614 2.988 2.614 4.355 0 .428-.136.733-.447.945-.324.221-.858.355-1.687.376l-.232.002H15.589c-.926 0-1.523-.125-1.884-.349-.346-.213-.493-.527-.493-.974 0-1.367.918-3.028 2.616-4.354 1.693-1.322 4.146-2.298 7.178-2.298Zm0-11.642a4.578 4.578 0 0 1 4.573 4.613c0 2.689-2.12 4.747-4.573 4.747-2.443 0-4.574-2.059-4.574-4.724 0-2.63 2.128-4.636 4.574-4.636Z" stroke="#759753" stroke-width=".3"/></g><defs><filter id="filter0_b_1051_10443" x="-10" y="-10" width="66" height="75" filterUnits="userSpaceOnUse" color-interpolation-filters="sRGB"><feFlood flood-opacity="0" result="BackgroundImageFix"/><feGaussianBlur in="BackgroundImageFix" stdDeviation="5"/><feComposite in2="SourceAlpha" operator="in" result="effect1_backgroundBlur_1051_10443"/><feBlend in="SourceGraphic" in2="effect1_backgroundBlur_1051_10443" result="shape"/></filter></defs></svg>