<svg width="68" height="68" fill="none" xmlns="http://www.w3.org/2000/svg"><g filter="url('#filter0_d_637_23829')"><circle cx="33.999" cy="34.004" r="28" fill="#6D3C82"/></g><path d="M28.956 26.756a1.028 1.028 0 0 0-.671.133h-.018a5.136 5.136 0 0 0-1.251 1.029c-.3.346-.463.696-.505 1.033-.025.2-.008.403.051.594l.022.013c.338.99.778 1.945 1.316 2.842a16.722 16.722 0 0 0 2.537 3.469l.03.042.048.035.028.034.035.03a16.958 16.958 0 0 0 3.478 2.55c1.444.786 2.32 1.158 2.846 1.313v.007c.154.048.294.069.435.069a2.012 2.012 0 0 0 1.205-.518c.406-.36.75-.783 1.017-1.255v-.008c.252-.475.167-.923-.196-1.227a15.16 15.16 0 0 0-2.351-1.687c-.56-.304-1.129-.12-1.359.187l-.491.62c-.252.308-.71.265-.71.265l-.012.008c-3.414-.871-4.325-4.328-4.325-4.328s-.043-.47.273-.71l.615-.495c.295-.24.5-.807.184-1.367a14.764 14.764 0 0 0-1.684-2.35.935.935 0 0 0-.55-.329l.003.001Zm5.768-1.502a.625.625 0 0 0 0 1.25c1.58 0 2.893.516 3.932 1.506a5.54 5.54 0 0 1 1.222 1.885c.274.704.399 1.455.367 2.208a.625.625 0 1 0 1.25.052 6.7 6.7 0 0 0-.452-2.712 6.803 6.803 0 0 0-1.505-2.318l-.012-.012c-1.289-1.232-2.919-1.86-4.802-1.86Z" fill="#fff"/><path d="M34.681 27.31a.625.625 0 0 0 0 1.25h.021c1.14.081 1.97.461 2.552 1.085.596.642.905 1.441.88 2.429a.625.625 0 0 0 1.25.028c.03-1.296-.387-2.415-1.214-3.307v-.003c-.846-.907-2.008-1.387-3.405-1.48l-.021-.003h-.063Z" fill="#fff"/><path d="M34.657 29.4a.625.625 0 1 0-.065 1.248c.523.028.856.185 1.066.397.212.212.369.553.398 1.087a.626.626 0 1 0 1.247-.066c-.04-.75-.275-1.413-.756-1.9-.484-.488-1.142-.725-1.89-.765Z" fill="#fff"/><path fill-rule="evenodd" clip-rule="evenodd" d="M27.833 21.983c3.978-.889 8.102-.889 12.08 0l.424.094a6.445 6.445 0 0 1 4.84 4.704 24.648 24.648 0 0 1 0 12.125 6.445 6.445 0 0 1-4.84 4.703l-.425.094a27.682 27.682 0 0 1-7.596.624l-3.317 2.968a.938.938 0 0 1-1.55-.544l-.549-3.278a6.444 6.444 0 0 1-4.33-4.567 24.646 24.646 0 0 1 0-12.125 6.444 6.444 0 0 1 4.84-4.704l.423-.094Zm11.671 1.829a25.812 25.812 0 0 0-11.262 0l-.425.095a4.568 4.568 0 0 0-3.43 3.335 22.77 22.77 0 0 0 0 11.202 4.569 4.569 0 0 0 3.431 3.335l.112.025a.938.938 0 0 1 .72.76l.368 2.198 2.34-2.094a.939.939 0 0 1 .691-.237c2.5.177 5.01-.01 7.455-.556l.424-.096a4.57 4.57 0 0 0 3.431-3.335 22.78 22.78 0 0 0 0-11.202 4.569 4.569 0 0 0-3.431-3.335l-.424-.095Z" fill="#fff"/><defs><filter id="filter0_d_637_23829" x="0" y=".004" width="68" height="68" filterUnits="userSpaceOnUse" color-interpolation-filters="sRGB"><feFlood flood-opacity="0" result="BackgroundImageFix"/><feColorMatrix in="SourceAlpha" values="0 0 0 0 0 0 0 0 0 0 0 0 0 0 0 0 0 0 127 0" result="hardAlpha"/><feOffset/><feGaussianBlur stdDeviation="3"/><feComposite in2="hardAlpha" operator="out"/><feColorMatrix values="0 0 0 0 0.705882 0 0 0 0 0.682353 0 0 0 0 0.654902 0 0 0 0.25 0"/><feBlend in2="BackgroundImageFix" result="effect1_dropShadow_637_23829"/><feBlend in="SourceGraphic" in2="effect1_dropShadow_637_23829" result="shape"/></filter></defs></svg>