<svg width="92" height="92" fill="none" xmlns="http://www.w3.org/2000/svg"><g clip-path="url('#clip0_637_23757')"><path d="M30.665 53.668c2.108 0 3.913-.75 5.416-2.25 1.503-1.5 2.253-3.306 2.25-5.417 0-2.108-.75-3.912-2.25-5.412s-3.305-2.252-5.416-2.254c-2.109 0-3.913.751-5.413 2.254-1.5 1.502-2.251 3.306-2.254 5.412 0 2.109.751 3.914 2.254 5.417 1.503 1.502 3.307 2.252 5.413 2.25ZM15.33 67.001a2 2 0 0 0 2 2h26.667a2 2 0 0 0 2-2v-.204a7.578 7.578 0 0 0-1.246-4.216c-.83-1.278-1.98-2.237-3.45-2.876a28.974 28.974 0 0 0-5.129-1.629 25.796 25.796 0 0 0-5.508-.575c-1.917 0-3.753.192-5.509.575a29.108 29.108 0 0 0-5.129 1.63c-1.47.638-2.62 1.597-3.45 2.874a7.58 7.58 0 0 0-1.246 4.217v.204Zm38.334 17.334h-46c-2.109 0-3.913-.75-5.413-2.25-1.5-1.5-2.251-3.306-2.254-5.417V15.335c0-2.109.751-3.913 2.254-5.413 1.503-1.5 3.307-2.251 5.413-2.254h29.838a2 2 0 0 1 1.414.586l21.829 21.828a2 2 0 0 1 .585 1.414v45.172c0 2.108-.75 3.914-2.25 5.416-1.5 1.503-3.305 2.253-5.416 2.25Zm-2-7.667a2 2 0 0 0 2-2V34.755a2 2 0 0 0-.586-1.415l-17.42-17.42a2 2 0 0 0-1.414-.585H9.665a2 2 0 0 0-2 2v57.333a2 2 0 0 0 2 2h42Z" fill="#04A427" stroke="#FFF8F0" stroke-width="3" stroke-linejoin="round"/></g><defs><clipPath id="clip0_637_23757"><rect x="-.002" width="92" height="92" rx="4" fill="#fff"/></clipPath></defs></svg>