<svg width="68" height="68" fill="none" xmlns="http://www.w3.org/2000/svg"><g filter="url('#filter0_d_637_23797')"><circle cx="33.999" cy="34.004" r="28" fill="#C7F7D3"/></g><path d="M26.166 24.004a4.256 4.256 0 0 0-2.946 1.171A3.92 3.92 0 0 0 22 28.005v.402l12.5 6.462 12.5-6.46v-.404a3.92 3.92 0 0 0-1.22-2.829 4.256 4.256 0 0 0-2.947-1.171H26.166ZM47 30.678l-12.006 6.206a1.077 1.077 0 0 1-.987 0L22 30.678v9.326a3.92 3.92 0 0 0 1.22 2.828 4.256 4.256 0 0 0 2.946 1.172h16.667a4.256 4.256 0 0 0 2.946-1.172A3.92 3.92 0 0 0 47 40.004v-9.326Z" fill="#06631B"/><defs><filter id="filter0_d_637_23797" x="0" y=".004" width="68" height="68" filterUnits="userSpaceOnUse" color-interpolation-filters="sRGB"><feFlood flood-opacity="0" result="BackgroundImageFix"/><feColorMatrix in="SourceAlpha" values="0 0 0 0 0 0 0 0 0 0 0 0 0 0 0 0 0 0 127 0" result="hardAlpha"/><feOffset/><feGaussianBlur stdDeviation="3"/><feComposite in2="hardAlpha" operator="out"/><feColorMatrix values="0 0 0 0 0.705882 0 0 0 0 0.682353 0 0 0 0 0.654902 0 0 0 0.25 0"/><feBlend in2="BackgroundImageFix" result="effect1_dropShadow_637_23797"/><feBlend in="SourceGraphic" in2="effect1_dropShadow_637_23797" result="shape"/></filter></defs></svg>