<svg width="68" height="68" fill="none" xmlns="http://www.w3.org/2000/svg"><g filter="url('#filter0_d_637_23836')"><circle cx="33.999" cy="34.004" r="28" fill="#37AEE2"/></g><g clip-path="url('#clip0_637_23836')"><path fill-rule="evenodd" clip-rule="evenodd" d="M41.72 23.541a1.875 1.875 0 0 1 2.578 2.033L41.463 42.77c-.275 1.659-2.095 2.61-3.616 1.784-1.273-.691-3.163-1.756-4.863-2.868-.85-.556-3.453-2.337-3.133-3.605.275-1.083 4.65-5.156 7.15-7.577.981-.951.534-1.5-.625-.625-2.878 2.172-7.498 5.476-9.025 6.406-1.348.82-2.05.96-2.89.82-1.533-.255-2.954-.65-4.114-1.131-1.568-.65-1.491-2.805-.001-3.433l21.375-9Z" fill="#fff"/></g><defs><clipPath id="clip0_637_23836"><path fill="#fff" transform="translate(17 18.004)" d="M0 0h30v30H0z"/></clipPath><filter id="filter0_d_637_23836" x="0" y=".004" width="68" height="68" filterUnits="userSpaceOnUse" color-interpolation-filters="sRGB"><feFlood flood-opacity="0" result="BackgroundImageFix"/><feColorMatrix in="SourceAlpha" values="0 0 0 0 0 0 0 0 0 0 0 0 0 0 0 0 0 0 127 0" result="hardAlpha"/><feOffset/><feGaussianBlur stdDeviation="3"/><feComposite in2="hardAlpha" operator="out"/><feColorMatrix values="0 0 0 0 0.705882 0 0 0 0 0.682353 0 0 0 0 0.654902 0 0 0 0.25 0"/><feBlend in2="BackgroundImageFix" result="effect1_dropShadow_637_23836"/><feBlend in="SourceGraphic" in2="effect1_dropShadow_637_23836" result="shape"/></filter></defs></svg>