<svg width="34" height="34" fill="none" xmlns="http://www.w3.org/2000/svg"><path d="M25.368 6.733a1.92 1.92 0 1 0 0 3.84 1.92 1.92 0 0 0 0-3.84Zm7.36 3.872a12.142 12.142 0 0 0-.736-3.888 7.903 7.903 0 0 0-1.856-2.832 7.52 7.52 0 0 0-2.832-1.84 11.68 11.68 0 0 0-3.888-.752c-1.696-.096-2.24-.096-6.592-.096-4.352 0-4.896 0-6.592.096a11.68 11.68 0 0 0-3.888.752 7.648 7.648 0 0 0-2.832 1.84 7.52 7.52 0 0 0-1.84 2.832 11.68 11.68 0 0 0-.752 3.888c-.096 1.696-.096 2.24-.096 6.592 0 4.352 0 4.896.096 6.592a11.68 11.68 0 0 0 .752 3.888 7.52 7.52 0 0 0 1.84 2.832 7.649 7.649 0 0 0 2.832 1.84c1.244.47 2.559.725 3.888.752 1.696.096 2.24.096 6.592.096 4.352 0 4.896 0 6.592-.096a11.682 11.682 0 0 0 3.888-.752 7.52 7.52 0 0 0 2.832-1.84 7.76 7.76 0 0 0 1.856-2.832c.457-1.247.705-2.56.736-3.888 0-1.696.096-2.24.096-6.592 0-4.352 0-4.896-.096-6.592Zm-2.88 12.992a8.975 8.975 0 0 1-.544 2.976 4.896 4.896 0 0 1-1.2 1.84 5.103 5.103 0 0 1-1.84 1.2 8.977 8.977 0 0 1-2.976.544c-1.6.08-2.192.096-6.4.096s-4.8 0-6.4-.096a9.17 9.17 0 0 1-3.104-.48 5.233 5.233 0 0 1-1.76-1.2 4.8 4.8 0 0 1-1.184-1.84 8.864 8.864 0 0 1-.64-3.04c0-1.6-.096-2.192-.096-6.4s0-4.8.096-6.4a8.864 8.864 0 0 1 .56-3.04 4.8 4.8 0 0 1 1.264-1.76 5.024 5.024 0 0 1 1.76-1.28 9.168 9.168 0 0 1 3.04-.544c1.6 0 2.192-.096 6.4-.096s4.8 0 6.4.096a8.975 8.975 0 0 1 2.976.544c.727.27 1.38.709 1.904 1.28a4.896 4.896 0 0 1 1.2 1.76c.356.975.54 2.003.544 3.04.08 1.6.096 2.192.096 6.4s-.016 4.8-.096 6.4ZM16.824 8.99a8.208 8.208 0 1 0 8.224 8.208 8.193 8.193 0 0 0-8.224-8.208Zm0 13.536a5.328 5.328 0 1 1 0-10.655 5.328 5.328 0 0 1 0 10.655Z" fill="#04A427"/></svg>