<svg width="52" height="52" fill="none" xmlns="http://www.w3.org/2000/svg"><g filter="url('#filter0_d_858_17074')"><circle cx="26.303" cy="26.098" r="21.099" fill="#fff"/></g><path d="M31.668 19.528a1.206 1.206 0 1 0 0 2.412 1.206 1.206 0 0 0 0-2.412Zm4.622 2.432a7.627 7.627 0 0 0-.462-2.442 4.964 4.964 0 0 0-1.166-1.778 4.722 4.722 0 0 0-1.778-1.155 7.334 7.334 0 0 0-2.441-.473c-1.065-.06-1.407-.06-4.14-.06-2.733 0-3.074 0-4.139.06a7.335 7.335 0 0 0-2.442.473 4.804 4.804 0 0 0-1.778 1.155 4.724 4.724 0 0 0-1.155 1.778 7.335 7.335 0 0 0-.472 2.442c-.06 1.065-.06 1.406-.06 4.139 0 2.733 0 3.074.06 4.14.017.834.177 1.66.472 2.44.245.673.64 1.282 1.155 1.779.5.513 1.107.908 1.779 1.155a7.335 7.335 0 0 0 2.441.473c1.065.06 1.406.06 4.14.06 2.732 0 3.074 0 4.139-.06a7.334 7.334 0 0 0 2.441-.473 4.722 4.722 0 0 0 1.778-1.155c.515-.5.913-1.107 1.166-1.778a7.627 7.627 0 0 0 .462-2.442c0-1.065.06-1.406.06-4.139 0-2.733 0-3.074-.06-4.14Zm-1.809 8.158a5.636 5.636 0 0 1-.341 1.869c-.16.437-.418.832-.754 1.155-.326.332-.72.589-1.155.753-.6.22-1.231.335-1.869.342-1.004.05-1.376.06-4.018.06-2.643 0-3.015 0-4.02-.06a5.758 5.758 0 0 1-1.948-.301 3.286 3.286 0 0 1-1.106-.754 3.013 3.013 0 0 1-.743-1.155 5.564 5.564 0 0 1-.402-1.91c0-1.004-.06-1.376-.06-4.018s0-3.014.06-4.019a5.566 5.566 0 0 1 .352-1.909c.177-.424.448-.802.793-1.105.306-.345.683-.62 1.106-.804a5.757 5.757 0 0 1 1.909-.341c1.004 0 1.376-.06 4.018-.06 2.643 0 3.014 0 4.02.06.637.007 1.269.123 1.868.341.456.17.866.445 1.195.804.33.309.587.686.754 1.105.223.612.339 1.258.341 1.91.05 1.004.06 1.376.06 4.018s-.01 3.014-.06 4.019Zm-8.178-9.173a5.153 5.153 0 1 0 5.164 5.154 5.142 5.142 0 0 0-5.164-5.154Zm0 8.5a3.345 3.345 0 1 1 0-6.69 3.345 3.345 0 0 1 0 6.69Z" fill="#04A427"/><defs><filter id="filter0_d_858_17074" x=".683" y=".478" width="51.239" height="51.239" filterUnits="userSpaceOnUse" color-interpolation-filters="sRGB"><feFlood flood-opacity="0" result="BackgroundImageFix"/><feColorMatrix in="SourceAlpha" values="0 0 0 0 0 0 0 0 0 0 0 0 0 0 0 0 0 0 127 0" result="hardAlpha"/><feOffset/><feGaussianBlur stdDeviation="2.261"/><feComposite in2="hardAlpha" operator="out"/><feColorMatrix values="0 0 0 0 0.705882 0 0 0 0 0.682353 0 0 0 0 0.654902 0 0 0 0.25 0"/><feBlend in2="BackgroundImageFix" result="effect1_dropShadow_858_17074"/><feBlend in="SourceGraphic" in2="effect1_dropShadow_858_17074" result="shape"/></filter></defs></svg>