<svg width="33" height="33" fill="none" xmlns="http://www.w3.org/2000/svg"><path d="M16 9.4a6.6 6.6 0 1 0 6.6 6.6A6.608 6.608 0 0 0 16 9.4Zm0 12a5.4 5.4 0 1 1 0-10.8 5.4 5.4 0 0 1 0 10.8ZM23.2 1H8.8A7.809 7.809 0 0 0 1 8.8v14.4A7.809 7.809 0 0 0 8.8 31h14.4a7.809 7.809 0 0 0 7.8-7.8V8.8A7.809 7.809 0 0 0 23.2 1Zm6.6 22.2a6.608 6.608 0 0 1-6.6 6.6H8.8a6.608 6.608 0 0 1-6.6-6.6V8.8a6.608 6.608 0 0 1 6.6-6.6h14.4a6.608 6.608 0 0 1 6.6 6.6v14.4ZM25 8.2a1.2 1.2 0 1 1-2.4 0 1.2 1.2 0 0 1 2.4 0Z" fill="#05A327" stroke="#05A327"/></svg>