<svg width="30" height="34" fill="none" xmlns="http://www.w3.org/2000/svg"><path d="M10.023 12.833c1.748-.293 3.044-1.861 3.241-3.735.2-1.905.652-9.562-2.265-9.075-7.566 1.265-7.035 13.823-.976 12.81Zm9.955 0c6.058 1.013 6.589-11.545-.977-12.81-2.916-.488-2.465 7.17-2.266 9.075.198 1.874 1.496 3.442 3.243 3.735ZM6.915 18.75c0-.997-.36-1.9-.942-2.557-.956-1.231-3.996-3.721-4.742-3.084-1.558 1.335-1.508 4.62-.57 7.008.483 1.327 1.648 2.26 3.009 2.26 1.792 0 3.245-1.624 3.245-3.627Zm21.853-5.64c-.745-.638-3.784 1.852-4.74 3.083a3.856 3.856 0 0 0-.943 2.557c0 2.003 1.455 3.628 3.245 3.628 1.362 0 2.528-.934 3.01-2.261.936-2.387.988-5.673-.572-7.008ZM22.666 24.4c-2.757-1.354-2.671-3.963-3.298-6.344-.5-1.898-2.265-3.303-4.368-3.303a4.55 4.55 0 0 0-2.706.882 4.44 4.44 0 0 0-1.628 2.305c-.671 2.278-.267 4.93-3.272 6.443-2.442.784-3.43 1.928-3.43 4.634 0 2.198 1.915 4.552 4.386 4.844 2.757.41 4.908-.125 6.65-1.104 1.743.979 3.892 1.513 6.654 1.104 2.47-.292 4.385-2.637 4.385-4.844 0-2.765-.926-3.795-3.373-4.616Zm-3.253 3.308h-2.858l.004 2.956h-3.117l.004-2.957h-3.033v-2.956h3.034l-.004-2.956h3.117l-.004 2.956h2.857v2.956Z" fill="#04A427"/></svg>