<svg width="476" height="415" fill="none" xmlns="http://www.w3.org/2000/svg"><path d="M52.666 346.44c-1.377 7.486-8.972 13.944-16.692 13.944H14.651c-.835 0-.96-.082-.417-.823l36.512-60.837c.417-.411-.083-1.357-.751-1.357H11.48c-5.383 0-6.426-.411-6.01-2.92.084-.329-1.168-.535-1.251-.206L.004 312.34c-.083.411 1.044.617 1.252.329 5.926-12.176 13.604-13.533 35.553-13.533.96 0 .96.082.542.822L.297 361.001c-.418.535 0 1.357.542 1.357 15.732 0 34.801 0 50.533.206.626 0 .96-.617.96-1.028l1.502-15.096c0-.453-1.043-.453-1.168 0ZM100.152 296.172c-17.108 0-37.138 11.106-37.138 33.688 0 18.305 13.186 33.689 33.425 33.689 20.029 0 37.054-15.096 37.054-34.429 0-16.7-12.56-32.948-33.341-32.948Zm-.208 64.827c-13.812 0-23.952-14.562-23.952-34.964 0-16.865 7.052-27.025 19.946-27.025 15.314 0 24.578 14.15 24.578 33.195 0 18.469-8.846 28.794-20.572 28.794ZM180.98 296.172c-17.108 0-37.138 11.106-37.138 33.688 0 18.305 13.186 33.689 33.466 33.689 20.03 0 37.055-15.096 37.055-34.429-.042-16.7-12.602-32.948-33.383-32.948Zm-.208 64.827c-13.812 0-23.952-14.562-23.952-34.964 0-16.865 7.052-27.025 19.946-27.025 15.314 0 24.578 14.15 24.578 33.195 0 18.469-8.847 28.794-20.572 28.794ZM313.844 297.328c-3.589 0-5.508.329-9.389.329-5.3 0-8.137-.329-11.809-.329-.418 0-.418 1.234 0 1.234 5.257 0 7.594 5.512 4.757 12.998l-13.604 35.869-12.643-26.326 3.88-10.283c3.172-8.309 6.969-12.258 11.726-12.258.334 0 .334-1.234 0-1.234-3.171 0-4.757.329-8.221.329-6.342 0-4.757-.329-6.843-.329-.417 0-.417 1.234 0 1.234 3.505 0 3.505 3.743.334 11.97l-2.629 6.993-4.632-9.667c-3.672-7.692-3.797-9.255 0-9.255.417 0 .417-1.234 0-1.234-2.337 0-4.84.329-12.769.329-4.423 0-4.423-.329-6.551-.329-.417 0-.417 1.234 0 1.234 2.545 0 4.548 2.797 6.76 7.404l11.726 24.434-6.635 17.152-18.987-39.735c-3.672-7.692-3.38-9.255 2.421-9.255.417 0 .417-1.234 0-1.234-2.838 0-5.926.329-15.315.329-5.258 0-5.258-.329-7.719-.329-.418 0-.418 1.234 0 1.234 4.005 0 5.049 1.234 8.011 7.404l26.915 56.271c.209.535 2.128.535 2.337 0l10.641-28.176 13.52 28.176c.208.535 2.128.535 2.336 0l19.529-51.376c2.963-7.609 7.804-12.258 12.978-12.258.167-.082.167-1.316-.125-1.316ZM344.639 361.08c-6.551 0-7.511-1.152-7.511-7.199v-47.962c0-5.923 1.043-7.404 7.511-7.404.418 0 .418-1.234 0-1.234-3.588 0-8.137.329-13.52.329-5.049 0-9.806-.329-13.52-.329-.334 0-.334 1.234 0 1.234 6.426 0 7.72 1.234 7.72 7.199v48.167c0 6.047-1.252 7.199-7.72 7.199-.334 0-.334 1.234 0 1.234 3.672 0 8.429-.206 13.52-.206 5.383 0 9.806.206 13.52.206.418 0 .418-1.234 0-1.234ZM403.601 343.398c-2.629 9.79-11.308 16.001-22.241 16.001h-3.588c-5.175 0-6.009-.823-6.009-5.923v-47.633c0-5.923 1.043-7.281 7.511-7.281.417 0 .417-1.234 0-1.234-3.589 0-8.137.329-13.395.329-5.049 0-10.015-.329-13.395-.329-.334 0-.334 1.234 0 1.234 6.426 0 7.595 1.234 7.595 7.199v48.167c0 6.047-1.169 7.198-7.595 7.198-.334 0-.334 1.234 0 1.234h49.782c1.168 0 1.586-.411 1.586-1.563 0-5.429.542-12.587.959-17.152-.041-.453-1.084-.658-1.21-.247ZM439.697 297.125c-4.34 0-11.1.535-16.233.535-5.049 0-9.597-.329-13.311-.329-.417 0-.417 1.234 0 1.234 6.343 0 7.511 1.234 7.511 7.198v48.168c0 6.046-1.252 7.198-7.72 7.198-.334 0-.334 1.234 0 1.234 3.672 0 8.429-.206 13.52-.206 5.592 0 13.186.617 17.735.617 18.903 0 34.801-13.204 34.801-34.017 0-17.893-14.438-31.632-36.303-31.632Zm.417 63.264c-8.847 0-10.766-2.386-10.766-7.61v-46.81c0-5.636 3.171-6.541 11.392-6.541 13.603 0 22.283 13.945 22.283 31.632 0 19.004-9.598 29.329-22.909 29.329Z" fill="#0A7040"/><path d="M422.212 399.707h-2.42l.834 1.81-6.467 13.163h2.378l.376-.7c.083-.164.25-.329.459-.493.208-.165.542-.329.918-.453.375-.164.834-.246 1.335-.37a11.916 11.916 0 0 1 1.794-.123h4.549l.959 2.139h2.421l-7.136-14.973Zm0 10.654c-1.043 0-1.878.082-2.504.246-.626.165-1.043.371-1.335.576l3.297-7.034 3.254 6.212h-2.712Zm-16.107 2.139h-.25c-.167 0-.334 0-.543-.042-.209-.041-.375-.123-.584-.205a3.298 3.298 0 0 1-.626-.494 5.61 5.61 0 0 1-.709-.864l-2.671-3.948 4.924-6.911h-2.629l-3.797 5.512a3.413 3.413 0 0 1-1.377.453c-.501.082-.96.123-1.419.123h-1.002v-6.088h-2.169v14.726h2.169v-6.458h1.252c.376 0 .71-.041 1.085-.082.376-.041.71-.165 1.085-.288l2.879 4.524c.334.535.668.988 1.002 1.276.334.288.626.534.918.699.292.164.626.247.918.288.334.041.626.082 1.001.082h.793v-2.18c-.083-.123-.167-.123-.25-.123Zm-25.413-12.546v14.726h2.129v-14.726h-2.129Zm-12.602 0v5.717a3.004 3.004 0 0 1-1.043.288c-.375.042-.709.083-1.001.083-.334 0-.751-.041-1.21-.083-.459-.041-.918-.082-1.419-.164-.459-.041-.918-.082-1.336-.165-.417-.041-.709-.082-.918-.082-.333 0-.625.041-.959.082-.334.041-.626.165-.918.288v-6.046h-2.17v14.725h2.17v-6.499a2.67 2.67 0 0 1 .918-.288c.334-.082.626-.082.959-.082.209 0 .543.041.918.082.418.042.835.083 1.336.165.459.041.96.082 1.419.164.459.042.876.083 1.21.083.292 0 .626-.041 1.001-.083.376-.041.71-.164 1.002-.287v6.869h2.17v-14.726h-2.129v-.041Zm-23.493 0v14.726h2.128v-14.726h-2.128Zm-21.657 0 .918 2.18h1.711c-.083.74-.167 1.481-.292 2.262a41.28 41.28 0 0 1-.417 2.222c-.167.74-.376 1.439-.668 2.097-.292.658-.584 1.317-1.001 1.975-.292.452-.543.781-.793 1.028-.251.247-.459.453-.668.576a2.247 2.247 0 0 1-.584.247c-.167.041-.376.041-.542.041h-.418v2.18h.418c.208 0 .417 0 .709-.041s.584-.082.876-.165c.292-.082.626-.246.918-.411.334-.165.626-.452.877-.74.584-.7 1.126-1.522 1.543-2.386.418-.905.752-1.81 1.044-2.797.292-.987.5-1.975.709-3.003.167-1.028.292-2.016.417-2.962h4.298v12.546h2.17v-14.726H322.94v-.123ZM312.007 412.5h-.25c-.167 0-.375 0-.542-.042-.167-.041-.376-.123-.585-.205a3.293 3.293 0 0 1-.625-.494 5.609 5.609 0 0 1-.71-.864l-2.67-3.948 4.923-6.911h-2.628l-3.798 5.512c-.459.247-.918.411-1.377.453-.5.082-.96.123-1.419.123h-1.001v-6.088h-2.17v14.726h2.17v-6.458h1.252c.375 0 .709-.041 1.085-.082.375-.041.709-.165 1.085-.288l2.879 4.524c.334.535.668.988 1.001 1.276.334.329.626.534.919.699.292.164.625.247.918.288.333.041.625.082 1.001.082h.793v-2.18c-.125-.123-.209-.123-.251-.123Zm-40.309-12.793h-2.42l.834 1.81-6.468 13.163h2.379l.375-.7c.084-.164.251-.329.459-.493.209-.165.543-.329.918-.453.376-.164.835-.246 1.336-.37a11.907 11.907 0 0 1 1.794-.123h4.548l.96 2.139h2.462l-7.177-14.973Zm0 10.654c-1.043 0-1.878.082-2.504.246-.626.165-1.043.371-1.335.576l3.296-7.034 3.255 6.212h-2.712Zm-18.861-10.407v5.717a3.06 3.06 0 0 1-1.002.288c-.375.042-.709.083-1.001.083-.334 0-.751-.041-1.21-.083-.459-.041-.918-.082-1.419-.164-.459-.041-.918-.082-1.336-.165-.417-.041-.709-.082-.918-.082-.333 0-.625.041-.959.082-.334.041-.626.165-.918.288v-6.046h-2.17v14.725h2.17v-6.499a2.67 2.67 0 0 1 .918-.288c.334-.082.626-.082.959-.082.209 0 .543.041.918.082.418.042.835.083 1.336.165.459.041.96.082 1.419.164.459.042.876.083 1.21.083.292 0 .626-.041 1.001-.083.376-.041.71-.164 1.002-.287v6.869h2.169v-14.726h-2.169v-.041Zm-20.406 2.427a3.656 3.656 0 0 0-.876-1.317 3.308 3.308 0 0 0-1.377-.822c-.542-.206-1.127-.288-1.794-.288h-7.678v14.726h2.17v-5.677a4.469 4.469 0 0 1 1.418-.493 8.68 8.68 0 0 1 1.461-.124h2.629c.667 0 1.252-.082 1.794-.288a3.884 3.884 0 0 0 1.377-.863c.376-.371.668-.823.876-1.358.209-.535.293-1.11.293-1.769 0-.617-.126-1.193-.293-1.727Zm-4.089 3.866h-2.629c-.501 0-.96.041-1.46.083a4.616 4.616 0 0 0-1.377.493v-4.73h5.508c.709 0 1.252.164 1.627.452.376.288.543.823.543 1.563 0 1.44-.751 2.139-2.212 2.139Zm-23.66-6.54h-2.42l.834 1.81-6.467 13.163h2.378l.376-.7c.083-.164.25-.329.459-.493.208-.165.542-.329.918-.453.375-.164.834-.246 1.335-.37a11.916 11.916 0 0 1 1.794-.123h4.549l.959 2.139h2.462l-7.177-14.973Zm0 10.654c-1.043 0-1.878.082-2.462.246-.626.165-1.043.371-1.335.576l3.296-7.034 3.255 6.212h-2.754Zm-18.861-10.407v5.717a3.06 3.06 0 0 1-1.002.288c-.375.042-.709.083-1.001.083-.334 0-.751-.041-1.21-.083-.459-.041-.918-.082-1.419-.164-.459-.041-.918-.082-1.335-.165-.418-.041-.71-.082-.918-.082-.334 0-.626.041-.96.082-.334.041-.626.165-.918.288l.042-6.046h-2.17v14.725h2.17v-6.499a2.67 2.67 0 0 1 .918-.288c.333-.082.626-.082.959-.082.209 0 .543.041.918.082.418.042.835.083 1.336.165.459.041.959.082 1.419.164.459.042.876.083 1.21.083.292 0 .626-.041 1.001-.083.376-.041.709-.164 1.002-.287v6.869h2.169v-14.726h-2.211v-.041Zm-23.493 0-8.763 11.353v-11.353h-2.17v14.726h2.17l8.763-11.353v11.353h2.17v-14.726h-2.17Zm-20.447 2.427a3.682 3.682 0 0 0-.876-1.317 3.32 3.32 0 0 0-1.377-.822 6.054 6.054 0 0 0-1.795-.288h-7.678v14.726h2.17v-5.677a4.466 4.466 0 0 1 1.419-.493c.501-.083.96-.124 1.46-.124h2.629c.668 0 1.252-.082 1.795-.288a3.902 3.902 0 0 0 1.377-.863c.375-.371.667-.823.876-1.358.209-.535.334-1.11.334-1.769-.042-.617-.125-1.193-.334-1.727Zm-4.089 3.866h-2.629c-.501 0-.96.041-1.461.083a4.616 4.616 0 0 0-1.377.493v-4.73h5.467c.709 0 1.251.164 1.627.452.375.288.542.823.542 1.563.042 1.44-.709 2.139-2.169 2.139Zm-26.373 6.253v-3.744c.459-.246.918-.37 1.377-.452.459-.082.96-.123 1.419-.123h3.255v-2.18h-3.255c-.501 0-.96.041-1.461.082-.459.041-.918.205-1.377.493v-4.483h8.346v-2.18h-10.515v14.726h11.391v-2.181h-9.18v.042Zm-23.701-12.546v2.18h5.34v12.546h2.129v-12.546h5.258v-2.18H87.718ZM70.608 412.5v-3.744c.46-.246.919-.37 1.378-.452.459-.082.96-.123 1.419-.123h3.254v-2.18h-3.213c-.5 0-.96.041-1.46.082-.46.041-.918.205-1.377.493v-4.483h8.346v-2.18H68.438v14.726H79.83v-2.181h-9.222v.042Zm-11.975-3.25a5.191 5.191 0 0 0-.46-1.069 3.172 3.172 0 0 0-.667-.782 3.94 3.94 0 0 0-.751-.494 2.374 2.374 0 0 0 1.002-1.192 4.563 4.563 0 0 0 .333-1.728 4.41 4.41 0 0 0-.334-1.728c-.208-.493-.542-.905-.917-1.275-.376-.37-.877-.617-1.42-.781a5.995 5.995 0 0 0-1.752-.247h-7.553v14.726h7.595a8.99 8.99 0 0 0 1.836-.206c.626-.165 1.168-.37 1.669-.699.5-.329.876-.741 1.168-1.234.293-.494.46-1.111.46-1.851 0-.535-.084-1.029-.21-1.44Zm-10.307-7.116h5.383c.667 0 1.168.123 1.585.411.418.288.626.782.626 1.481 0 .699-.208 1.193-.584 1.522-.375.329-.918.494-1.627.494h-2.546c-.5 0-.96.041-1.46.082a4.619 4.619 0 0 0-1.377.494v-4.484Zm8.053 9.173a1.702 1.702 0 0 1-.667.658 2.81 2.81 0 0 1-.877.37 3.783 3.783 0 0 1-.918.123h-5.633v-3.702c.46-.246.918-.411 1.377-.493.5-.082.96-.124 1.419-.124h2.545c.376 0 .71.042 1.085.083.376.082.668.164.96.329.292.164.5.37.668.658.167.288.25.617.25 1.069.084.453-.042.782-.209 1.029ZM377.646 55.201a5.58 5.58 0 0 0 .251-5.8 5.914 5.914 0 0 0-5.175-3.002h-35.594c-5.341.04-10.557 1.07-15.481 3.167-.376.165-.71.288-1.043.453-5.592 2.55-10.474 6.663-14.146 11.887l-6.26 9.255c-.792-.205-1.46-.37-1.585-.411a49.43 49.43 0 0 0-2.379-.535c-.208-.04-.375-.082-.542-.123-5.592-25.256-13.771-45.412-20.405-59.274-1.962-4.113-5.759-7.034-10.266-7.939A152.348 152.348 0 0 0 237.94 0h-4.09c-1.001 0-1.961 0-2.962.041-.96 0-1.92.041-2.921.082-.918.042-1.878.083-2.838.165-.918.082-1.836.123-2.754.206-.918.082-1.794.123-2.712.246-.877.083-1.753.206-2.629.288-.835.083-1.711.206-2.546.33-.834.123-1.627.205-2.462.37l-2.378.37c-.751.123-1.544.247-2.295.411a5.989 5.989 0 0 0-.835.165l-1.252.246c-1.377.33-3.213.988-5.091 2.386-2.253 1.687-3.463 3.62-4.005 4.69-.084.164-.167.37-.251.534-.208.453-.417.864-.626 1.317l-.626 1.357c-.208.452-.459.905-.667 1.357-.209.494-.459.946-.668 1.44-.209.494-.459.987-.668 1.44-.208.493-.459.987-.667 1.48-.209.494-.459 1.029-.668 1.522-.25.494-.459 1.029-.668 1.563-.208.535-.459 1.07-.667 1.605a19.34 19.34 0 0 0-.668 1.645c-.25.576-.459 1.11-.709 1.645-.209.576-.459 1.152-.668 1.728-.209.576-.459 1.152-.668 1.728-.208.576-.459 1.151-.667 1.768-.251.576-.459 1.193-.668 1.77-.25.616-.459 1.233-.668 1.85-.25.617-.459 1.234-.667 1.851-.209.617-.459 1.275-.668 1.892-.209.617-.459 1.276-.668 1.934-.208.658-.459 1.316-.667 1.974-.209.658-.459 1.316-.668 1.974-.208.659-.417 1.358-.626 2.016-.208.7-.417 1.357-.626 2.057l-.626 2.098-.626 2.097c-.208.74-.417 1.44-.625 2.14-.209.74-.418 1.439-.626 2.18-.209.74-.418 1.48-.585 2.22-.208.741-.417 1.481-.584 2.222-.208.74-.375 1.48-.584 2.262a44.6 44.6 0 0 0-.542 2.304c-.167.781-.376 1.563-.543 2.303a4.225 4.225 0 0 1-.167.7c-1.252.287-3.171.74-4.84 1.11l-6.301-9.173c-3.631-5.183-8.513-9.296-14.105-11.846-.333-.165-.709-.33-1.043-.453-4.882-2.098-10.098-3.126-15.481-3.167H97.816c-2.17 0-4.173 1.152-5.175 3.003-1.001 1.85-.918 4.072.21 5.8l22.616 34.675c-.251.124-.501.247-.793.37-4.006 1.851-6.885 5.471-7.72 9.749a148.594 148.594 0 0 0-2.921 26.943 144.602 144.602 0 0 0 0 5.964c.042 1.892.125 3.784.251 5.676.125 1.81.25 3.62.417 5.43.167 1.728.375 3.414.584 5.142.042.452.125.905.167 1.357v.041c.167 1.152.334 2.304.542 3.456.084.411.126.863.209 1.275 0 .041 0 .082.042.164 0 .124.042.247.042.329.459 1.687 1.251 3.949 2.795 6.335 2.087 3.25 4.549 5.347 6.218 6.499.25.123.542.247.793.37l2.378 1.111.584.288c.96.452 1.962.864 2.963 1.316 1.002.453 2.045.864 3.088 1.316 1.085.453 2.17.905 3.213 1.317 1.127.452 2.254.905 3.338 1.316l3.506 1.357c1.21.453 2.42.905 3.63 1.317 1.252.452 2.504.905 3.756 1.316 1.293.452 2.587.905 3.88 1.316 1.336.453 2.671.864 4.006 1.275 1.377.453 2.754.864 4.131 1.275 1.419.412 2.838.823 4.298 1.235 1.461.411 2.921.822 4.382 1.192 1.502.412 3.004.782 4.507 1.152l4.631 1.111a38.84 38.84 0 0 1 2.337.534c5.55 25.174 13.729 45.289 20.322 59.151a14.752 14.752 0 0 0 10.474 8.103 151.023 151.023 0 0 0 26.914 2.838c2.003.041 4.006.041 6.051 0a133.58 133.58 0 0 0 5.759-.247c1.836-.123 3.672-.246 5.508-.411 1.752-.164 3.463-.37 5.216-.576 1.627-.205 3.296-.452 4.924-.699 1.544-.247 3.046-.494 4.59-.823.459-.082.876-.164 1.293-.246.167-.042.334-.083.543-.124 1.168-.288 3.255-.987 5.049-2.632a11.77 11.77 0 0 0 1.711-1.975 71.38 71.38 0 0 0 .876-1.769c.084-.205.209-.411.292-.617v-.041c.334-.658.626-1.316.96-1.974l.876-1.851c.126-.288.292-.576.418-.905.459-.946.876-1.933 1.335-2.879.459-1.029.918-2.016 1.335-3.044.459-1.07.918-2.098 1.377-3.168.459-1.11.918-2.18 1.377-3.29l1.377-3.456 1.377-3.578c.459-1.234.918-2.468 1.336-3.702.459-1.275.918-2.551 1.335-3.826.459-1.316.876-2.632 1.335-3.949.459-1.357.877-2.714 1.294-4.113l1.252-4.196c.417-1.439.834-2.879 1.21-4.319.417-1.48.793-2.961 1.168-4.442l1.127-4.566c.209-.823.375-1.645.584-2.468 26.372-5.676 47.32-14.109 61.424-20.772a11.828 11.828 0 0 0 6.593-8.35c1.628-7.857 2.963-17.277 3.13-27.93l.042-1.029v-3.002c0-.988-.042-1.934-.042-2.921-.042-.946-.042-1.892-.125-2.838a63.951 63.951 0 0 0-.167-2.797 59.03 59.03 0 0 0-.209-2.715c-.083-.864-.167-1.769-.25-2.674-.084-.864-.209-1.727-.292-2.591a52.383 52.383 0 0 0-.334-2.509c-.125-.823-.25-1.604-.376-2.427l-.375-2.345a36.19 36.19 0 0 0-.417-2.262c-.042-.329-.126-.658-.167-.987l-.251-1.234-.25-1.234v-.041a12.064 12.064 0 0 0-2.295-4.196c-.876-1.029-1.836-1.81-2.712-2.427h-.042a13.94 13.94 0 0 0-1.127-.535c-.417-.205-.876-.411-1.293-.617-.251-.123-.501-.247-.752-.329l22.617-35.005ZM270.655 207.52l-.209.412c-.334.74-.751 1.439-1.168 2.18h-.042c-6.009 9.173-15.982 15.631-26.915 17.646-.417.082-.834.124-1.252.206-.334.041-.626.082-.959.123-.126 0-.251.041-.376.041-.876.083-1.753.165-2.629.206-.459.041-.918.041-1.377.041H233.767c-.209 0-.459 0-.668-.041-.375-.041-.751-.041-1.168-.082-13.228-1.275-25.079-10.695-32.34-21.924-.041-.042-.041-.042-.041-.083l-.084-.205-99.439-152.606h33.174c4.34.04 8.763.946 12.686 2.591l.876.37c4.423 2.016 8.304 5.306 11.225 9.42l13.144 19.168c.71-2.056 1.67-4.36 3.088-6.705.459-.699 1.127-1.727 1.211-1.768 1.71-2.51 3.546-4.443 5.174-5.965 6.301-6.376 15.022-12.381 25.371-15.795 9.305-3.044 33.674-8.72 58.628 4.977 7.762 4.278 14.188 10.86 18.736 17.482.042.041.084.123.167.206l.042.04a59.194 59.194 0 0 1 5.758 9.708c.334.7.626 1.44.96 2.18.876 2.098 1.544 4.073 2.128 5.965l19.946-29.452c2.921-4.155 6.802-7.445 11.225-9.46.292-.124.584-.248.877-.37a34.232 34.232 0 0 1 12.685-2.592h33.216l-99.689 154.086Z" fill="#0B5594"/><path d="M267.567 178.518c-1.002 3.743-2.754 6.787-4.715 9.214-3.881 4.771-9.431 7.897-15.523 9.173-9.598 2.015-27.875 3.907-45.735-5.512-4.548-2.386-14.02-7.528-20.864-18.469-11.851-18.881-6.217-39.406-5.007-43.479 3.088 7.075 9.722 19.21 23.159 28.136 4.256 2.797 21.49 11.065 37.514 8.638 3.296-.494 9.973-2.962 11.308-9.338 1.002-4.689-1.711-9.584-2.754-10.941 2.003.288 11.183 1.728 17.693 9.913.96 1.234 8.137 10.571 4.924 22.665Z" fill="url('#paint0_linear_637_21888')"/><path d="M222.208 93.498c-.626-.946-2.838-.617-5.049.74-2.17 1.317-3.464 3.209-2.838 4.155.626.946 2.838.617 5.008-.7 2.211-1.398 3.505-3.249 2.879-4.195Zm71.856 12.587c-.5-.864-1.085-1.728-1.669-2.633a10.072 10.072 0 0 1-.501-.699 5.585 5.585 0 0 0-.626-.864c-.083-.123-.208-.288-.292-.411-.459-.617-.918-1.275-1.46-1.892a38.396 38.396 0 0 0-1.21-1.481 37.546 37.546 0 0 0-2.003-2.263v-.082c-.251-.905-.543-1.81-.835-2.756-.042-.082-.041-.205-.083-.288-.042-.04-.042-.123-.042-.164-.209-.617-.417-1.234-.668-1.81-.041-.123-.083-.206-.125-.33v-.04c-.292-.782-.626-1.522-.876-2.263 0 0 0-.04-.042-.082-.459-.987-.918-1.933-1.377-2.756-3.839-7.157-10.599-15.795-20.071-20.978-23.159-12.71-45.818-7.445-54.456-4.607a58.585 58.585 0 0 0-15.94 8.186c-.417.329-.876.617-1.294.946l-.375.246c-1.92 1.44-4.298 3.538-6.635 6.294-.125.164-.25.288-.375.452-.167.165-.293.37-.459.576a1.245 1.245 0 0 0-.209.288s0 .041-.042.041c-.083.083-.125.165-.209.247-.25.33-.5.7-.792 1.07-.084.123-.167.205-.209.329-.125.164-.209.329-.334.493-.042.041-.083.124-.125.165-.083.123-.167.206-.25.329l-.376.617c-.375.617-.751 1.234-1.168 1.933 0 .041-.042.041-.042.083 0 .04-.042.04-.042.082l-.125.247-.125.246a1.217 1.217 0 0 0-.167.33 37.782 37.782 0 0 0-.918 1.85c-1.002 2.18-1.711 4.278-2.253 6.13a37.066 37.066 0 0 0-.626 2.55 51.057 51.057 0 0 0-.501 2.838v.164c-.292 2.715-.334 5.471 0 8.268.668 6.211 2.837 11.271 5.007 15.014 1.461-1.069 3.213-1.604 7.72-3.99 1.252-.658 4.382-2.098 5.717-2.797-.835-2.262 0-4.813 1.919-6.335a94.274 94.274 0 0 0 6.468-5.717 73.186 73.186 0 0 0 5.884-6.54c2.42-3.044 5.466-5.553 8.972-7.24.041 0 .041-.041.083-.041 3.505-1.728 6.718-2.427 8.93-2.756 5.425-1.028 27.582-4.772 49.531 8.391 16.65 9.996 24.203 24.269 26.874 30.028-1.294-4.566-3.422-10.448-7.178-16.618Zm1.002 37.02c-2.42-12.34-9.389-20.361-12.769-23.734-13.145-13.163-29.878-14.109-33.884-14.273 2.755-.535 5.884-.946 9.264-1.193a75.457 75.457 0 0 1 13.562.329c-4.382-1.522-12.727-3.784-22.951-2.18-.834.123-1.669.288-2.462.452-5.091 1.07-9.848 3.25-14.187 6.129-7.553 5.018-14.313 7.199-18.611 8.227 0 0-11.684 2.797-17.818-.905-.292-.165-.584-.206-1.169-.864-2.42 1.358-4.715 2.797-7.219 4.237-1.877 1.069-4.089 2.262-5.967 3.126a48.958 48.958 0 0 0 2.796 3.62c10.682 12.834 25.872 15.425 33.341 16.7 10.599 1.81 19.863.782 26.581-.74 12.936.699 24.161 8.432 28.751 19.662 5.508 13.656-1.461 25.955-2.379 27.518 3.13-1.234 16.65-6.869 22.993-21.39 4.757-10.735 2.962-20.525 2.128-24.721Zm-113.084-24.022c-.96.247-1.961.617-2.796.658.543.946 1.127 1.81 1.627 2.55.418-.493 1.127-1.192 1.67-1.686.542-.494 3.88-3.003 4.339-3.291-.208.124-3.421 1.44-4.84 1.769Z" fill="url('#paint1_linear_637_21888')"/><path d="M178.936 81.86c-.125.246-.251.452-.376.699.084-.165.167-.33.292-.535 0-.082.042-.124.084-.165ZM181.398 77.988c-.292.453-.626.864-.918 1.317.292-.453.626-.905.918-1.317ZM183.067 75.77c-.292.37-.584.781-.918 1.151.334-.411.626-.822.918-1.152Z" fill="#fff"/><defs><linearGradient id="paint0_linear_637_21888" x1="90.04" y1="198.547" x2="249.717" y2="150.732" gradientUnits="userSpaceOnUse"><stop offset=".047" stop-color="#0B5594"/><stop offset=".59" stop-color="#0A7040"/><stop offset="1" stop-color="#DBB14F"/></linearGradient><linearGradient id="paint1_linear_637_21888" x1="192.901" y1="46.873" x2="291.209" y2="195.189" gradientUnits="userSpaceOnUse"><stop offset=".047" stop-color="#0B5594"/><stop offset=".59" stop-color="#0A7040"/><stop offset="1" stop-color="#DBB14F"/></linearGradient></defs></svg>