<svg width="145" height="47" fill="none" xmlns="http://www.w3.org/2000/svg"><path d="M69.41 22.008c-.244 1.33-1.595 2.48-2.968 2.48H62.65c-.148 0-.17-.015-.074-.147l6.493-10.819c.074-.073-.015-.241-.133-.241h-6.85c-.957 0-1.142-.073-1.068-.52.015-.058-.208-.095-.223-.036l-.75 3.219c-.014.073.186.11.223.058 1.054-2.165 2.42-2.407 6.323-2.407.17 0 .17.015.096.147l-6.59 10.855c-.074.095 0 .241.097.241 2.798 0 6.189 0 8.986.037.112 0 .171-.11.171-.183l.267-2.684c0-.081-.185-.081-.207 0ZM77.856 13.069c-3.042 0-6.604 1.974-6.604 5.99 0 3.255 2.345 5.991 5.944 5.991 3.562 0 6.59-2.684 6.59-6.122 0-2.97-2.234-5.86-5.93-5.86Zm-.037 11.528c-2.456 0-4.26-2.59-4.26-6.218 0-2.999 1.255-4.806 3.548-4.806 2.723 0 4.37 2.517 4.37 5.903 0 3.285-1.573 5.12-3.658 5.12ZM92.23 13.068c-3.043 0-6.605 1.975-6.605 5.991 0 3.255 2.345 5.991 5.951 5.991 3.562 0 6.59-2.684 6.59-6.122-.008-2.97-2.241-5.86-5.937-5.86Zm-.038 11.529c-2.456 0-4.26-2.59-4.26-6.218 0-3 1.255-4.806 3.548-4.806 2.723 0 4.37 2.516 4.37 5.903 0 3.285-1.573 5.12-3.658 5.12ZM115.857 13.274c-.638 0-.98.059-1.67.059-.942 0-1.447-.059-2.1-.059-.074 0-.074.22 0 .22.935 0 1.351.98.846 2.311l-2.419 6.379-2.248-4.682.69-1.828c.564-1.478 1.239-2.18 2.085-2.18.059 0 .059-.22 0-.22-.564 0-.846.059-1.462.059-1.128 0-.846-.059-1.217-.059-.074 0-.074.22 0 .22.623 0 .623.665.059 2.129l-.467 1.243-.824-1.719c-.653-1.368-.675-1.646 0-1.646.074 0 .074-.22 0-.22-.415 0-.861.06-2.27.06-.787 0-.787-.06-1.166-.06-.074 0-.074.22 0 .22.453 0 .809.498 1.203 1.317l2.085 4.345-1.18 3.05-3.376-7.066c-.653-1.368-.602-1.646.43-1.646.074 0 .074-.22 0-.22-.505 0-1.054.06-2.723.06-.935 0-.935-.06-1.373-.06-.074 0-.074.22 0 .22.712 0 .898.22 1.425 1.317l4.786 10.007c.037.095.378.095.415 0l1.893-5.011 2.404 5.01c.037.096.378.096.415 0l3.473-9.136c.527-1.353 1.388-2.18 2.308-2.18.03-.014.03-.234-.022-.234ZM121.333 24.611c-1.165 0-1.336-.205-1.336-1.28V14.8c0-1.053.185-1.316 1.336-1.316.074 0 .074-.22 0-.22-.639 0-1.447.06-2.405.06-.898 0-1.744-.06-2.404-.06-.059 0-.059.22 0 .22 1.143 0 1.373.22 1.373 1.28v8.566c0 1.075-.223 1.28-1.373 1.28-.059 0-.059.22 0 .22.653 0 1.499-.037 2.404-.037.958 0 1.744.036 2.405.036.074 0 .074-.219 0-.219ZM131.818 21.467c-.467 1.741-2.011 2.846-3.955 2.846h-.638c-.92 0-1.069-.147-1.069-1.054v-8.47c0-1.054.186-1.295 1.336-1.295.074 0 .074-.22 0-.22-.638 0-1.447.059-2.382.059-.898 0-1.781-.059-2.382-.059-.059 0-.059.22 0 .22 1.143 0 1.351.22 1.351 1.28v8.566c0 1.075-.208 1.28-1.351 1.28-.059 0-.059.22 0 .22h8.853c.208 0 .282-.074.282-.279 0-.965.096-2.238.171-3.05-.008-.08-.193-.117-.216-.044ZM138.237 13.236c-.772 0-1.974.095-2.887.095-.898 0-1.707-.058-2.367-.058-.074 0-.074.22 0 .22 1.128 0 1.336.219 1.336 1.28v8.565c0 1.075-.223 1.28-1.373 1.28-.059 0-.059.22 0 .22.653 0 1.499-.037 2.404-.037.995 0 2.345.11 3.154.11 3.361 0 6.189-2.348 6.189-6.05 0-3.182-2.568-5.625-6.456-5.625Zm.074 11.25c-1.573 0-1.915-.424-1.915-1.353V14.81c0-1.002.564-1.163 2.026-1.163 2.419 0 3.963 2.48 3.963 5.625 0 3.38-1.707 5.215-4.074 5.215ZM139.955 29.933h-.495l.17.37-1.322 2.69h.486l.077-.142a.334.334 0 0 1 .094-.101.647.647 0 0 1 .188-.093c.077-.033.17-.05.273-.075a2.43 2.43 0 0 1 .367-.026h.929l.197.438h.494l-1.458-3.061Zm0 2.178a2.08 2.08 0 0 0-.512.05.836.836 0 0 0-.273.118l.674-1.438.665 1.27h-.554Zm-3.293.437h-.051c-.035 0-.069 0-.111-.008-.043-.009-.077-.026-.12-.042a.7.7 0 0 1-.128-.101 1.196 1.196 0 0 1-.145-.177l-.546-.807L136.568 30h-.537l-.777 1.127a.69.69 0 0 1-.281.092 1.761 1.761 0 0 1-.29.026h-.205V30h-.444v3.01h.444v-1.32h.256c.077 0 .145-.008.222-.017.076-.008.145-.033.221-.058l.589.925a1.173 1.173 0 0 0 .392.403c.06.034.128.05.188.06.068.008.128.016.205.016h.162v-.446c-.017-.025-.034-.025-.051-.025Zm-5.195-2.565v3.01h.435v-3.01h-.435Zm-2.577 0v1.17a.615.615 0 0 1-.213.058c-.077.008-.145.017-.205.017-.068 0-.153-.009-.247-.017a3.826 3.826 0 0 1-.29-.034 2.673 2.673 0 0 1-.273-.033c-.085-.009-.145-.017-.188-.017-.068 0-.128.008-.196.017-.068.008-.128.033-.188.059v-1.237h-.443v3.01h.443v-1.328a.544.544 0 0 1 .188-.059c.068-.016.128-.016.196-.016.043 0 .111.008.188.016.085.009.171.017.273.034.094.008.196.017.29.034.094.008.179.016.247.016.06 0 .128-.008.205-.016a.73.73 0 0 0 .205-.06v1.405h.443v-3.01h-.435v-.009Zm-4.802 0v3.01h.435v-3.01h-.435Zm-4.428 0 .188.446h.35c-.018.151-.035.303-.06.462-.026.152-.051.303-.085.455a2.34 2.34 0 0 1-.137.428c-.06.135-.119.27-.205.404-.059.093-.111.16-.162.21a.81.81 0 0 1-.136.118.466.466 0 0 1-.12.05c-.034.009-.076.009-.111.009h-.085v.446h.085c.043 0 .086 0 .145-.009.06-.008.12-.017.18-.034a.916.916 0 0 0 .187-.084.613.613 0 0 0 .179-.151c.12-.143.231-.311.316-.488.085-.185.154-.37.213-.572a6.82 6.82 0 0 0 .145-.613c.034-.21.06-.412.086-.606h.878v2.565h.444v-3.01h-2.295v-.026Zm-2.235 2.565h-.051c-.034 0-.077 0-.111-.008a1.009 1.009 0 0 1-.119-.042.639.639 0 0 1-.128-.101 1.136 1.136 0 0 1-.145-.177l-.546-.807L117.331 30h-.537l-.777 1.127a.73.73 0 0 1-.281.092 1.752 1.752 0 0 1-.29.026h-.205V30h-.443v3.01h.443v-1.32h.256c.077 0 .145-.008.222-.017.077-.008.145-.033.222-.058l.588.925c.069.109.137.201.205.26.068.068.128.11.188.143.059.034.128.05.187.06.069.008.128.016.205.016h.162v-.446c-.025-.025-.042-.025-.051-.025Zm-8.241-2.615h-.494l.17.37-1.322 2.69h.486l.077-.142a.334.334 0 0 1 .094-.101.64.64 0 0 1 .187-.093c.077-.033.171-.05.273-.075a2.44 2.44 0 0 1 .367-.026h.93l.196.438h.504l-1.468-3.061Zm0 2.178c-.213 0-.383.017-.511.05a.826.826 0 0 0-.273.118l.673-1.438.666 1.27h-.555Zm-3.855-2.128v1.17a.637.637 0 0 1-.205.058c-.077.008-.145.017-.205.017-.068 0-.154-.009-.247-.017a3.826 3.826 0 0 1-.29-.034 2.673 2.673 0 0 1-.273-.033c-.086-.009-.145-.017-.188-.017-.068 0-.128.008-.196.017-.069.008-.128.033-.188.059v-1.237h-.444v3.01h.444v-1.328a.544.544 0 0 1 .188-.059c.068-.016.128-.016.196-.016.043 0 .111.008.188.016.085.009.17.017.273.034.093.008.196.017.29.034.093.008.179.016.247.016.06 0 .128-.008.205-.016a.73.73 0 0 0 .205-.06v1.405h.443v-3.01h-.443v-.009Zm-4.172.496a.75.75 0 0 0-.179-.269.682.682 0 0 0-.282-.168 1.013 1.013 0 0 0-.366-.059h-1.57v3.01h.444v-1.16a.916.916 0 0 1 .29-.1c.102-.018.196-.026.298-.026h.538c.136 0 .255-.017.366-.059a.8.8 0 0 0 .282-.176.785.785 0 0 0 .179-.278.97.97 0 0 0 .06-.361c0-.127-.026-.244-.06-.354Zm-.836.79h-.537c-.103 0-.197.01-.299.018a.947.947 0 0 0-.281.1v-.966h1.126c.145 0 .255.033.332.092.077.059.111.168.111.32 0 .294-.153.437-.452.437Zm-4.837-1.336h-.495l.17.37-1.321 2.69h.486l.077-.142a.338.338 0 0 1 .094-.101.644.644 0 0 1 .187-.093c.077-.033.17-.05.273-.075.111-.017.23-.026.367-.026h.93l.196.438h.503l-1.467-3.061Zm0 2.178a1.96 1.96 0 0 0-.503.05.833.833 0 0 0-.273.118l.674-1.438.665 1.27h-.563Zm-3.856-2.128v1.17a.63.63 0 0 1-.204.058c-.077.008-.146.017-.205.017-.069 0-.154-.009-.248-.017a3.862 3.862 0 0 1-.29-.034 2.687 2.687 0 0 1-.273-.033c-.085-.009-.145-.017-.187-.017-.069 0-.128.008-.197.017-.068.008-.127.033-.187.059l.008-1.237h-.443v3.01h.443v-1.328a.542.542 0 0 1 .188-.059c.068-.016.128-.016.196-.016.043 0 .111.008.188.016.085.009.17.017.273.034.094.008.196.017.29.034.094.008.179.016.247.016.06 0 .128-.008.205-.016a.727.727 0 0 0 .205-.06v1.405h.443v-3.01h-.452v-.009Zm-4.803 0-1.791 2.321v-2.32h-.444v3.01h.444l1.791-2.321v2.32h.444v-3.01h-.444Zm-4.18.496a.75.75 0 0 0-.46-.437 1.237 1.237 0 0 0-.367-.059h-1.57v3.01h.444v-1.16a.917.917 0 0 1 .29-.1 1.79 1.79 0 0 1 .298-.026h.538c.136 0 .256-.017.367-.059.11-.042.204-.1.281-.176a.784.784 0 0 0 .18-.278.977.977 0 0 0 .068-.361 1.183 1.183 0 0 0-.069-.354Zm-.836.79h-.537c-.103 0-.196.01-.299.018a.949.949 0 0 0-.281.1v-.966h1.117c.145 0 .256.033.333.092.077.059.11.168.11.32.01.294-.144.437-.443.437Zm-5.391 1.279v-.765a.925.925 0 0 1 .281-.093 1.69 1.69 0 0 1 .29-.025h.666v-.446h-.665c-.103 0-.197.009-.3.017a.635.635 0 0 0-.28.101v-.916h1.706v-.446h-2.15v3.01h2.329v-.445h-1.877v.008Zm-4.846-2.565v.446h1.092v2.565h.436v-2.565h1.074v-.446h-2.602Zm-3.497 2.565v-.765a.925.925 0 0 1 .281-.093c.094-.017.197-.025.29-.025h.666v-.446h-.657c-.102 0-.196.009-.299.017a.635.635 0 0 0-.281.101v-.916h1.706v-.446h-2.15v3.01h2.33v-.445h-1.886v.008Zm-2.448-.664a1.063 1.063 0 0 0-.094-.219.65.65 0 0 0-.137-.16.804.804 0 0 0-.153-.1.485.485 0 0 0 .205-.245.933.933 0 0 0 0-.706.82.82 0 0 0-.188-.26.695.695 0 0 0-.29-.16c-.111-.034-.23-.05-.359-.05h-1.544v3.01h1.553c.128 0 .256-.017.375-.042.128-.034.24-.076.341-.143a.733.733 0 0 0 .333-.63c0-.11-.017-.211-.042-.295Zm-2.107-1.455h1.1c.136 0 .239.025.324.084.085.059.128.16.128.303s-.043.244-.12.31c-.076.068-.187.102-.332.102h-.52c-.103 0-.197.008-.299.017a.945.945 0 0 0-.282.1v-.916Zm1.646 1.875a.347.347 0 0 1-.137.135.573.573 0 0 1-.179.075.767.767 0 0 1-.187.026H63.51v-.757a.95.95 0 0 1 .281-.101c.103-.017.197-.025.29-.025h.52c.078 0 .146.008.223.016a.675.675 0 0 1 .196.068c.06.033.102.075.136.134a.416.416 0 0 1 .052.219.27.27 0 0 1-.043.21ZM50.807 9.817a.992.992 0 0 0 .044-1.032 1.051 1.051 0 0 0-.92-.534h-6.33c-.95.007-1.877.19-2.753.563-.066.03-.126.052-.185.08a6.276 6.276 0 0 0-2.516 2.115l-1.113 1.646c-.14-.037-.26-.066-.282-.073a8.68 8.68 0 0 0-.423-.096c-.037-.007-.067-.014-.096-.022a49.003 49.003 0 0 0-3.629-10.54A2.574 2.574 0 0 0 30.78.512 27.095 27.095 0 0 0 25.963 0h-.728c-.178 0-.348 0-.526.007-.171 0-.342.008-.52.015-.163.007-.334.015-.505.03-.163.014-.326.021-.49.036-.162.014-.318.022-.482.044-.155.014-.311.036-.467.05a9.575 9.575 0 0 0-.453.06c-.148.021-.29.036-.438.065l-.423.066c-.133.022-.274.044-.408.073a1.064 1.064 0 0 0-.148.03l-.223.043a2.468 2.468 0 0 0-.905.425c-.4.3-.616.643-.712.834-.015.029-.03.065-.045.095-.037.08-.074.153-.111.234l-.112.241c-.037.08-.081.161-.118.241-.037.088-.082.169-.119.256-.037.088-.082.176-.119.256-.037.088-.081.176-.119.264-.037.088-.081.183-.118.27-.045.088-.082.183-.119.278-.037.096-.082.19-.119.286-.044.095-.081.19-.118.292-.045.103-.082.198-.127.293-.037.102-.081.205-.118.307-.037.103-.082.205-.119.307-.037.103-.082.205-.119.315-.044.102-.081.212-.119.314-.044.11-.081.22-.118.33-.045.11-.082.22-.119.329-.037.11-.082.227-.119.336-.037.11-.081.227-.118.344-.038.117-.082.234-.12.351-.036.117-.08.234-.118.351l-.111.359c-.037.124-.074.241-.112.365l-.11.374-.112.373a25.5 25.5 0 0 1-.111.38c-.037.132-.075.256-.112.388-.037.131-.074.263-.104.395a7.799 7.799 0 0 0-.103.395c-.038.131-.067.263-.104.402a8.06 8.06 0 0 0-.097.41c-.03.139-.067.278-.096.41a.759.759 0 0 1-.03.124c-.223.05-.564.131-.86.197L12.82 11.01a6.245 6.245 0 0 0-2.694-2.187 7.067 7.067 0 0 0-2.753-.564h-6.33c-.386 0-.742.205-.92.534-.178.33-.163.725.037 1.032l4.022 6.166c-.044.022-.089.044-.14.066a2.429 2.429 0 0 0-1.374 1.734 26.423 26.423 0 0 0-.52 4.791 22.96 22.96 0 0 0 .045 2.07c.023.322.045.644.075.966.03.307.066.607.103.914.008.08.023.16.03.241v.008c.03.204.06.41.097.614.014.073.022.154.037.227 0 .007 0 .015.007.03 0 .021.008.043.008.058.081.3.222.702.497 1.126.37.578.809.951 1.105 1.156.045.022.097.044.141.066l.423.197.104.051c.171.08.35.154.527.235.178.08.364.153.55.234.192.08.385.16.57.234.201.08.401.16.594.234l.624.241c.215.08.43.161.645.234.223.08.445.161.668.234.23.08.46.161.69.234.238.08.475.154.713.227.245.08.49.154.734.227l.764.22c.26.072.52.146.78.212.267.073.534.139.801.204l.824.198c.14.029.282.058.415.095a49.13 49.13 0 0 0 3.614 10.519 2.623 2.623 0 0 0 1.863 1.44c1.365.271 2.976.476 4.786.505a23.846 23.846 0 0 0 2.1-.044c.327-.021.653-.043.98-.073.311-.029.616-.066.927-.102.29-.037.587-.08.876-.124.274-.044.542-.088.816-.147.082-.014.156-.029.23-.044l.097-.021c.207-.052.578-.176.898-.469.126-.117.23-.241.304-.35.052-.103.104-.206.156-.315.014-.037.037-.074.052-.11v-.007c.059-.117.11-.234.17-.352l.156-.329c.022-.05.052-.102.074-.16.082-.169.156-.344.238-.513.081-.182.163-.358.237-.54l.245-.564.245-.585.245-.615.245-.636c.081-.22.163-.44.237-.659.082-.226.163-.453.238-.68.081-.234.155-.468.237-.702.082-.241.156-.483.23-.731l.223-.747c.074-.256.148-.512.215-.768.074-.263.14-.526.208-.79l.2-.812c.037-.146.067-.292.104-.438a50.52 50.52 0 0 0 10.923-3.694 2.103 2.103 0 0 0 1.172-1.486c.29-1.397.527-3.072.557-4.966l.008-.183v-.534c0-.176-.008-.344-.008-.52-.007-.168-.007-.336-.022-.504-.008-.168-.015-.33-.03-.498-.007-.16-.022-.322-.037-.482l-.044-.476c-.015-.154-.038-.307-.052-.46a9.209 9.209 0 0 0-.06-.447l-.067-.431-.066-.417a6.4 6.4 0 0 0-.075-.403c-.007-.058-.022-.117-.03-.175l-.044-.22-.044-.22v-.006a2.144 2.144 0 0 0-.408-.747 2.562 2.562 0 0 0-.483-.431h-.007c-.067-.037-.134-.066-.2-.095-.075-.037-.156-.073-.23-.11-.045-.022-.09-.044-.134-.059l4.022-6.224ZM31.78 36.904l-.037.073c-.06.131-.133.256-.207.387h-.008c-1.069 1.632-2.842 2.78-4.786 3.138-.074.015-.149.022-.223.037l-.17.022c-.023 0-.045.007-.067.007-.156.015-.312.03-.468.037-.081.007-.163.007-.245.007h-.348c-.038 0-.082 0-.12-.007-.066-.008-.133-.008-.207-.015-2.352-.227-4.46-1.902-5.75-3.899-.008-.007-.008-.007-.008-.014l-.015-.037L1.437 9.502h5.9a6.058 6.058 0 0 1 2.256.46l.156.067a5.032 5.032 0 0 1 1.996 1.675l2.337 3.409c.126-.366.297-.776.55-1.193.081-.124.2-.307.215-.314.304-.447.63-.79.92-1.061a11.508 11.508 0 0 1 4.511-2.809c1.655-.541 5.989-1.55 10.426.885 1.38.76 2.523 1.931 3.332 3.109.008.007.015.022.03.037l.007.007c.342.468.705 1.046 1.024 1.726.06.124.112.256.171.388.156.373.275.724.379 1.06l3.547-5.237a4.992 4.992 0 0 1 1.996-1.682l.156-.066a6.089 6.089 0 0 1 2.255-.461h5.907L31.78 36.903Z" fill="#fff"/><path d="M31.23 31.747a4.405 4.405 0 0 1-.838 1.639c-.69.848-1.677 1.404-2.76 1.63-1.707.36-4.957.696-8.133-.98-.81-.424-2.494-1.338-3.71-3.284-2.108-3.357-1.106-7.007-.891-7.732.55 1.259 1.729 3.416 4.118 5.004.757.497 3.822 1.968 6.672 1.536.586-.088 1.773-.527 2.01-1.66.179-.834-.304-1.705-.49-1.946.357.051 1.99.307 3.147 1.763.17.22 1.447 1.88.876 4.03Z" fill="url('#paint0_linear_819_7381')"/><path d="M23.165 16.626c-.112-.168-.505-.11-.898.131-.386.235-.616.571-.505.74.111.168.505.11.89-.125.394-.249.624-.578.513-.746Zm12.778 2.238c-.09-.153-.193-.307-.297-.468-.03-.037-.06-.08-.089-.124a1.002 1.002 0 0 0-.111-.154l-.052-.073c-.082-.11-.163-.227-.26-.337a6.73 6.73 0 0 0-.215-.263 6.629 6.629 0 0 0-.356-.402v-.015c-.045-.16-.097-.322-.149-.49-.007-.015-.007-.037-.015-.051-.007-.007-.007-.022-.007-.03-.037-.11-.074-.219-.119-.321-.007-.022-.015-.037-.022-.059v-.007c-.052-.139-.111-.27-.156-.402 0 0 0-.008-.007-.015a7.632 7.632 0 0 0-.245-.49c-.683-1.273-1.885-2.809-3.57-3.73-4.118-2.261-8.147-1.325-9.683-.82a10.42 10.42 0 0 0-2.835 1.456c-.074.058-.156.11-.23.168l-.067.044a7.38 7.38 0 0 0-1.18 1.119c-.022.03-.044.051-.067.08-.03.03-.051.066-.081.103a.223.223 0 0 0-.037.051s0 .007-.008.007c-.015.015-.022.03-.037.044-.044.059-.089.125-.14.19-.016.022-.03.037-.038.059-.022.03-.037.059-.06.088-.007.007-.014.022-.021.029-.015.022-.03.037-.045.059l-.067.11-.208.343c0 .007-.007.007-.007.015 0 .007-.008.007-.008.014l-.022.044-.022.044a.22.22 0 0 0-.03.059c-.059.11-.111.22-.163.329-.178.388-.304.76-.4 1.09a6.566 6.566 0 0 0-.112.453 9.22 9.22 0 0 0-.089.505v.03c-.052.482-.06.972 0 1.47a6.752 6.752 0 0 0 .89 2.67c.26-.19.572-.286 1.373-.71.223-.117.78-.373 1.017-.498-.149-.402 0-.855.341-1.126.364-.293.75-.63 1.15-1.017.401-.395.75-.79 1.047-1.163.43-.541.972-.987 1.595-1.287.008 0 .008-.008.015-.008a5.364 5.364 0 0 1 1.588-.49c.965-.182 4.905-.848 8.808 1.493 2.961 1.777 4.304 4.315 4.78 5.34a11.89 11.89 0 0 0-1.277-2.956Zm.178 6.584c-.43-2.195-1.67-3.621-2.27-4.221-2.338-2.34-5.314-2.51-6.026-2.538a13.423 13.423 0 0 1 4.06-.154c-.78-.27-2.265-.673-4.083-.388a7.756 7.756 0 0 0-.437.08c-.906.191-1.752.579-2.523 1.09a10.298 10.298 0 0 1-3.31 1.464s-2.078.497-3.169-.161c-.052-.03-.104-.037-.207-.154-.43.242-.839.498-1.284.754-.334.19-.727.402-1.061.556.2.285.378.504.497.643 1.9 2.282 4.6 2.743 5.929 2.97 1.885.322 3.532.14 4.727-.132 2.3.125 4.296 1.5 5.113 3.497.98 2.428-.26 4.616-.423 4.893.556-.219 2.96-1.221 4.088-3.803.846-1.91.527-3.65.379-4.396Zm-20.11-4.272c-.17.044-.349.11-.497.117.096.168.2.322.29.453.073-.087.2-.212.296-.3.097-.087.69-.534.772-.585a6.881 6.881 0 0 1-.86.315Z" fill="url('#paint1_linear_819_7381')"/><path d="M15.47 14.558c-.022.043-.044.08-.067.124.015-.03.03-.059.052-.095 0-.015.008-.022.015-.03ZM15.907 13.868c-.052.08-.11.154-.163.234.052-.08.111-.16.163-.234ZM16.204 13.475c-.052.065-.104.139-.163.204.06-.073.111-.146.163-.204Z" fill="#fff"/><defs><linearGradient id="paint0_linear_819_7381" x1="-.339" y1="35.309" x2="28.056" y2="26.806" gradientUnits="userSpaceOnUse"><stop offset="1" stop-color="#fff"/></linearGradient><linearGradient id="paint1_linear_819_7381" x1="17.953" y1="8.335" x2="35.435" y2="34.71" gradientUnits="userSpaceOnUse"><stop offset=".59" stop-color="#fff"/></linearGradient></defs></svg>