<svg width="240" height="77" fill="none" xmlns="http://www.w3.org/2000/svg"><path d="M114.84 36.402c-.405 2.201-2.639 4.1-4.909 4.1h-6.272c-.245 0-.282-.023-.122-.241l10.738-17.893c.123-.121-.024-.4-.22-.4h-11.329c-1.583 0-1.89-.12-1.767-.858.025-.097-.343-.158-.368-.061l-1.24 5.323c-.024.121.307.182.369.097 1.742-3.581 4.001-3.98 10.456-3.98.283 0 .283.024.16.242L99.437 40.684c-.122.158 0 .4.16.4 4.627 0 10.236 0 14.863.06.184 0 .282-.181.282-.302l.442-4.44c0-.133-.307-.133-.344 0ZM128.807 21.617c-5.032 0-10.923 3.267-10.923 9.909 0 5.383 3.878 9.908 9.831 9.908 5.891 0 10.898-4.44 10.898-10.126 0-4.912-3.694-9.69-9.806-9.69Zm-.062 19.067c-4.062 0-7.044-4.283-7.044-10.284 0-4.96 2.074-7.948 5.866-7.948 4.504 0 7.229 4.162 7.229 9.763 0 5.432-2.602 8.469-6.051 8.469ZM152.58 21.617c-5.032 0-10.923 3.267-10.923 9.909 0 5.383 3.878 9.908 9.843 9.908 5.891 0 10.898-4.44 10.898-10.126-.012-4.912-3.706-9.69-9.818-9.69Zm-.062 19.067c-4.062 0-7.044-4.283-7.044-10.284 0-4.96 2.074-7.948 5.866-7.948 4.504 0 7.229 4.162 7.229 9.763 0 5.432-2.602 8.469-6.051 8.469ZM191.657 21.957c-1.055 0-1.62.097-2.761.097-1.559 0-2.393-.097-3.473-.097-.123 0-.123.363 0 .363 1.546 0 2.233 1.621 1.399 3.823l-4.001 10.55-3.719-7.743 1.141-3.025c.933-2.444 2.05-3.605 3.449-3.605.098 0 .098-.363 0-.363-.933 0-1.399.097-2.418.097-1.865 0-1.399-.097-2.013-.097-.122 0-.122.363 0 .363 1.031 0 1.031 1.1.099 3.52l-.774 2.057-1.362-2.843c-1.08-2.262-1.117-2.722 0-2.722.123 0 .123-.363 0-.363-.687 0-1.424.097-3.755.097-1.301 0-1.301-.097-1.927-.097-.123 0-.123.363 0 .363.748 0 1.337.823 1.988 2.178l3.449 7.186-1.952 5.045-5.584-11.687c-1.08-2.262-.994-2.722.712-2.722.123 0 .123-.363 0-.363-.835 0-1.743.097-4.504.097-1.547 0-1.547-.097-2.271-.097-.123 0-.123.363 0 .363 1.178 0 1.485.363 2.357 2.178l7.916 16.55c.061.157.626.157.687 0l3.13-8.287 3.976 8.287c.061.157.626.157.687 0l5.744-15.11c.872-2.239 2.295-3.606 3.817-3.606.049-.024.049-.387-.037-.387ZM200.715 40.708c-1.927 0-2.21-.34-2.21-2.118V24.484c0-1.742.307-2.178 2.21-2.178.122 0 .122-.363 0-.363-1.056 0-2.394.097-3.977.097-1.485 0-2.884-.097-3.976-.097-.099 0-.099.363 0 .363 1.89 0 2.27.363 2.27 2.117V38.59c0 1.779-.368 2.118-2.27 2.118-.099 0-.099.363 0 .363 1.08 0 2.479-.061 3.976-.061 1.583 0 2.884.06 3.977.06.122 0 .122-.362 0-.362ZM218.056 35.507c-.773 2.88-3.326 4.706-6.541 4.706h-1.056c-1.521 0-1.767-.242-1.767-1.742v-14.01c0-1.742.307-2.141 2.209-2.141.123 0 .123-.363 0-.363-1.055 0-2.393.097-3.939.097-1.485 0-2.946-.097-3.94-.097-.098 0-.098.363 0 .363 1.89 0 2.234.363 2.234 2.117v14.167c0 1.779-.344 2.117-2.234 2.117-.098 0-.098.363 0 .363h14.642c.343 0 .466-.12.466-.46 0-1.596.16-3.702.282-5.044-.012-.133-.319-.194-.356-.073ZM228.672 21.895c-1.276 0-3.264.157-4.774.157-1.485 0-2.823-.097-3.915-.097-.123 0-.123.363 0 .363 1.866 0 2.209.363 2.209 2.117v14.167c0 1.779-.368 2.117-2.27 2.117-.098 0-.098.363 0 .363 1.08 0 2.479-.06 3.976-.06 1.645 0 3.879.181 5.216.181 5.56 0 10.236-3.883 10.236-10.005 0-5.263-4.246-9.303-10.678-9.303Zm.123 18.607c-2.602 0-3.166-.702-3.166-2.239V24.496c0-1.658.932-1.924 3.35-1.924 4.001 0 6.554 4.101 6.554 9.303 0 5.59-2.823 8.627-6.738 8.627ZM231.515 49.508h-.818l.282.612-2.187 4.45h.804l.127-.236a.563.563 0 0 1 .155-.167c.071-.056.184-.111.311-.153.127-.056.282-.084.451-.125.184-.028.381-.042.607-.042h1.538l.324.723h.819l-2.413-5.062Zm0 3.602c-.353 0-.635.028-.847.083a1.39 1.39 0 0 0-.451.195l1.115-2.378 1.1 2.1h-.917Zm-5.446.723h-.085c-.056 0-.113 0-.183-.014-.071-.014-.127-.041-.198-.07a1.107 1.107 0 0 1-.211-.166 1.872 1.872 0 0 1-.24-.292l-.903-1.335 1.665-2.337h-.889l-1.284 1.864a1.152 1.152 0 0 1-.466.153 2.903 2.903 0 0 1-.479.041h-.339V49.62h-.734v4.98h.734v-2.184h.423c.127 0 .24-.014.367-.028s.24-.056.367-.098l.973 1.53c.113.181.226.334.339.431a2.1 2.1 0 0 0 .31.237.896.896 0 0 0 .311.097c.113.014.211.028.338.028h.269v-.737c-.029-.042-.057-.042-.085-.042Zm-8.593-4.242v4.98h.72v-4.98h-.72Zm-4.26 0v1.934a1.026 1.026 0 0 1-.353.097c-.127.014-.24.028-.339.028-.113 0-.254-.014-.409-.028-.155-.014-.31-.028-.48-.056a4.44 4.44 0 0 1-.451-.055c-.141-.014-.24-.028-.311-.028-.112 0-.211.014-.324.028a1.14 1.14 0 0 0-.31.097v-2.045h-.734v4.98h.734v-2.198a.885.885 0 0 1 .31-.097c.113-.028.212-.028.324-.028.071 0 .184.014.311.028.141.014.282.028.451.055.156.014.325.028.48.056.155.014.296.028.409.028.099 0 .212-.014.339-.028.127-.014.24-.056.338-.097v2.322h.734v-4.979h-.719v-.014Zm-7.944 0v4.98h.72v-4.98h-.72Zm-7.322 0 .31.737h.578c-.028.25-.056.501-.098.765-.043.25-.085.501-.141.751-.057.25-.127.487-.226.71a5.001 5.001 0 0 1-.339.667 2.036 2.036 0 0 1-.268.348c-.085.083-.155.153-.226.195a.756.756 0 0 1-.197.083c-.057.014-.127.014-.184.014h-.141v.737h.141c.071 0 .142 0 .24-.014a2.23 2.23 0 0 0 .297-.055 1.54 1.54 0 0 0 .31-.14 1 1 0 0 0 .296-.25c.198-.236.381-.514.522-.806a6.93 6.93 0 0 0 .353-.946c.099-.334.169-.668.24-1.016.056-.347.099-.681.141-1h1.453v4.241h.734v-4.979h-3.795v-.042Zm-3.697 4.242h-.085c-.056 0-.127 0-.183-.014-.057-.014-.127-.041-.198-.07a1.107 1.107 0 0 1-.211-.166 1.93 1.93 0 0 1-.24-.292l-.903-1.335 1.665-2.337h-.889l-1.284 1.864a1.22 1.22 0 0 1-.466.153 2.903 2.903 0 0 1-.479.041h-.339V49.62h-.734v4.98h.734v-2.184h.423c.127 0 .24-.014.367-.028s.24-.056.367-.098l.974 1.53c.112.181.225.334.338.431.113.112.212.181.311.237a.885.885 0 0 0 .31.097c.113.014.212.028.339.028h.268v-.737c-.043-.042-.071-.042-.085-.042Zm-13.629-4.325h-.819l.282.612-2.186 4.45h.804l.127-.236a.55.55 0 0 1 .155-.167c.071-.056.183-.111.31-.153.127-.056.283-.084.452-.125.183-.028.381-.042.607-.042h1.537l.325.723h.832l-2.426-5.062Zm0 3.602c-.353 0-.635.028-.847.083a1.37 1.37 0 0 0-.451.195l1.114-2.378 1.101 2.1h-.917Zm-6.378-3.519v1.934a1.036 1.036 0 0 1-.338.097c-.127.014-.24.028-.339.028-.113 0-.254-.014-.409-.028-.155-.014-.31-.028-.48-.056a4.44 4.44 0 0 1-.451-.055c-.141-.014-.24-.028-.311-.028-.113 0-.211.014-.324.028-.113.014-.212.055-.311.097v-2.045h-.733v4.98h.733v-2.198a.896.896 0 0 1 .311-.097c.113-.028.211-.028.324-.028.071 0 .184.014.311.028.141.014.282.028.451.055.155.014.325.028.48.056.155.014.296.028.409.028.099 0 .212-.014.339-.028.127-.014.24-.056.338-.097v2.322h.734v-4.979h-.734v-.014Zm-6.899.82a1.244 1.244 0 0 0-.296-.444 1.12 1.12 0 0 0-.466-.278 1.682 1.682 0 0 0-.607-.098h-2.596v4.98h.734v-1.92c.155-.083.31-.14.48-.167.169-.028.324-.042.494-.042h.888c.226 0 .424-.027.607-.097.184-.07.339-.167.466-.292.127-.125.225-.278.296-.459.071-.18.099-.376.099-.598 0-.209-.043-.403-.099-.584Zm-1.383 1.308h-.889c-.169 0-.324.014-.493.028a1.559 1.559 0 0 0-.466.167v-1.6h1.862c.24 0 .424.056.551.154.127.097.183.278.183.528 0 .487-.254.723-.748.723Zm-8-2.211h-.818l.282.612-2.187 4.45h.805l.127-.236a.55.55 0 0 1 .155-.167c.07-.056.183-.111.31-.153.127-.056.282-.084.452-.125.183-.028.381-.042.606-.042h1.538l.325.723h.832l-2.427-5.062Zm0 3.602c-.352 0-.634.028-.832.083a1.37 1.37 0 0 0-.451.195l1.114-2.378 1.101 2.1h-.932Zm-6.377-3.519v1.934a1.043 1.043 0 0 1-.338.097c-.127.014-.24.028-.339.028-.113 0-.254-.014-.409-.028-.155-.014-.311-.028-.48-.056-.155-.014-.31-.028-.451-.055-.141-.014-.24-.028-.311-.028-.113 0-.211.014-.324.028-.113.014-.212.055-.311.097l.014-2.045h-.733v4.98h.733v-2.198a.896.896 0 0 1 .311-.097c.113-.028.211-.028.324-.028.071 0 .184.014.311.028.141.014.282.028.451.055.155.014.325.028.48.056.155.014.296.028.409.028.099 0 .212-.014.339-.028.127-.014.24-.056.338-.097v2.322h.734v-4.979h-.748v-.014Zm-7.943 0-2.963 3.839V49.59h-.734v4.98h.734l2.963-3.84v3.84h.733v-4.98h-.733Zm-6.914.82a1.23 1.23 0 0 0-.762-.722 2.043 2.043 0 0 0-.606-.098h-2.596v4.98h.733v-1.92c.156-.083.311-.14.48-.167.169-.028.325-.042.494-.042h.889c.226 0 .423-.027.606-.097.184-.07.339-.167.466-.292.127-.125.226-.278.296-.459.071-.18.113-.376.113-.598a1.938 1.938 0 0 0-.113-.584Zm-1.382 1.308h-.889c-.169 0-.325.014-.494.028-.155.028-.31.084-.466.167v-1.6h1.849c.24 0 .423.056.55.154.127.097.183.278.183.528.014.487-.239.723-.733.723Zm-8.917 2.114v-1.265c.155-.084.31-.126.465-.153.156-.028.325-.042.48-.042h1.101v-.737h-1.101c-.169 0-.324.014-.494.027a1.05 1.05 0 0 0-.465.168v-1.517h2.821v-.737h-3.555v4.98h3.852v-.738h-3.104v.014Zm-8.014-4.242v.737h1.806v4.242h.719v-4.242h1.778v-.737h-4.303Zm-5.785 4.242v-1.265c.155-.084.311-.126.466-.153.155-.028.324-.042.479-.042h1.101v-.737h-1.086c-.17 0-.325.014-.494.027-.155.015-.311.07-.466.168v-1.517h2.822v-.737h-3.556v4.98h3.852v-.738h-3.118v.014Zm-4.049-1.099a1.814 1.814 0 0 0-.155-.361 1.073 1.073 0 0 0-.226-.264 1.328 1.328 0 0 0-.254-.167.806.806 0 0 0 .339-.404c.07-.166.112-.375.112-.584a1.5 1.5 0 0 0-.112-.584 1.361 1.361 0 0 0-.311-.431 1.149 1.149 0 0 0-.48-.264 2.03 2.03 0 0 0-.592-.084h-2.554v4.98h2.568c.212 0 .423-.029.621-.07.211-.056.395-.125.564-.237.169-.11.296-.25.395-.417a1.21 1.21 0 0 0 .155-.626 1.7 1.7 0 0 0-.07-.486Zm-3.485-2.406h1.82c.226 0 .395.042.536.14.141.097.212.264.212.5 0 .237-.071.403-.198.515-.127.111-.31.167-.55.167h-.861c-.169 0-.324.014-.494.028a1.56 1.56 0 0 0-.465.166v-1.516Zm2.723 3.102a.578.578 0 0 1-.226.222.939.939 0 0 1-.296.126 1.28 1.28 0 0 1-.311.041h-1.904v-1.251c.155-.084.31-.14.465-.167.17-.028.325-.042.48-.042h.861c.127 0 .24.014.367.028.127.028.225.055.324.111a.578.578 0 0 1 .226.223.692.692 0 0 1 .084.361.446.446 0 0 1-.07.348ZM84.073 16.236a1.641 1.641 0 0 0 .073-1.706 1.74 1.74 0 0 0-1.522-.883H72.155c-1.57.012-3.105.314-4.553.931-.11.049-.209.085-.307.133-1.644.75-3.08 1.96-4.16 3.497l-1.841 2.722c-.233-.06-.43-.11-.467-.121-.233-.06-.466-.11-.7-.158a3.285 3.285 0 0 1-.159-.036 81.046 81.046 0 0 0-6.001-17.433 4.257 4.257 0 0 0-3.02-2.335A44.812 44.812 0 0 0 42.983 0H41.78c-.295 0-.577 0-.872.012-.282 0-.564.012-.859.024-.27.012-.552.024-.834.049-.27.024-.54.036-.81.06s-.528.036-.798.073c-.258.024-.516.06-.773.084-.246.025-.504.06-.75.097-.245.037-.478.06-.723.11l-.7.108c-.22.036-.454.073-.675.121a1.76 1.76 0 0 0-.245.048l-.368.073c-.405.097-.945.29-1.498.702a4.042 4.042 0 0 0-1.178 1.379c-.024.048-.049.109-.074.157-.06.133-.122.254-.184.387l-.184.4c-.061.133-.135.266-.196.399-.062.145-.135.278-.197.423-.06.145-.134.29-.196.424-.061.145-.135.29-.196.435-.062.145-.135.303-.197.448-.073.145-.135.302-.196.46-.061.157-.135.314-.196.471a5.704 5.704 0 0 0-.197.484c-.073.17-.135.327-.208.484-.062.17-.135.339-.197.508-.061.17-.135.34-.196.508-.061.17-.135.34-.196.52-.074.17-.136.351-.197.52-.074.182-.135.364-.196.545a9.73 9.73 0 0 0-.197.545c-.06.181-.135.375-.196.556-.061.182-.135.375-.196.569-.062.193-.135.387-.197.58-.061.194-.135.388-.196.581-.061.194-.123.4-.184.593-.061.206-.123.4-.184.605a1110.727 1110.727 0 0 0-.368 1.234c-.062.218-.123.423-.184.63l-.185.64c-.061.218-.122.436-.171.654-.062.217-.123.435-.172.653-.062.218-.11.435-.172.665-.061.23-.11.448-.16.678-.049.23-.11.46-.16.677a1.245 1.245 0 0 1-.048.206c-.369.085-.933.218-1.424.327l-1.853-2.698c-1.068-1.525-2.504-2.734-4.148-3.485a3.359 3.359 0 0 0-.307-.133 11.69 11.69 0 0 0-4.554-.931H1.77c-.638 0-1.227.339-1.521.883a1.667 1.667 0 0 0 .061 1.706l6.652 10.198c-.074.037-.147.073-.233.11a4.017 4.017 0 0 0-2.27 2.867 43.7 43.7 0 0 0-.86 7.924 37.96 37.96 0 0 0 .074 3.424c.037.532.073 1.064.123 1.597.049.508.11 1.004.171 1.512.013.133.037.266.05.4v.011c.049.339.098.678.159 1.017.025.12.037.254.061.375 0 .012 0 .024.013.048 0 .036.012.073.012.097.135.496.368 1.161.822 1.863a6.816 6.816 0 0 0 1.829 1.911c.074.037.16.073.233.11l.7.326.171.085c.283.133.577.254.872.387.294.133.601.254.908.387.32.133.638.266.945.387.332.133.663.266.982.387l1.03.4c.357.133.713.266 1.069.387.368.133.736.266 1.104.387.38.133.761.266 1.142.387.392.133.785.254 1.178.375.405.133.81.254 1.215.375.417.12.834.242 1.264.363.43.12.86.242 1.289.35.442.122.883.23 1.325.34l1.362.326c.234.049.467.097.688.157a81.26 81.26 0 0 0 5.977 17.397 4.338 4.338 0 0 0 3.08 2.384 44.43 44.43 0 0 0 7.916.835 39.62 39.62 0 0 0 3.473-.073c.54-.036 1.08-.073 1.62-.121.516-.048 1.02-.109 1.535-.17.478-.06.97-.132 1.448-.205.454-.073.896-.145 1.35-.242.135-.024.258-.048.38-.073.05-.012.099-.024.16-.036.344-.085.957-.29 1.485-.774.209-.194.38-.4.503-.58.086-.17.172-.34.258-.521.025-.06.061-.121.086-.181v-.013c.098-.193.184-.387.282-.58l.258-.545c.037-.084.086-.17.123-.266.135-.278.257-.569.392-.847.135-.302.27-.593.393-.895.135-.315.27-.617.405-.932.135-.326.27-.64.405-.968l.405-1.016.405-1.052c.135-.363.27-.726.393-1.09.135-.374.27-.75.393-1.124.135-.387.257-.774.392-1.162.135-.399.258-.798.38-1.21l.37-1.233c.122-.424.245-.847.355-1.27.123-.436.233-.872.344-1.307l.331-1.343c.061-.242.11-.484.172-.726a83.553 83.553 0 0 0 18.066-6.11 3.478 3.478 0 0 0 1.939-2.456c.479-2.31.871-5.08.92-8.214l.013-.303v-.883c0-.29-.013-.569-.013-.859-.012-.278-.012-.556-.036-.835a18.594 18.594 0 0 0-.05-.822 17.446 17.446 0 0 0-.06-.799l-.075-.786c-.024-.254-.06-.508-.085-.762a15.264 15.264 0 0 0-.099-.738c-.036-.242-.073-.472-.11-.714l-.11-.69c-.037-.23-.074-.447-.123-.665-.013-.097-.037-.194-.05-.29l-.073-.363-.074-.363v-.012c-.11-.363-.319-.811-.675-1.235a4.239 4.239 0 0 0-.797-.713h-.013c-.11-.06-.22-.11-.331-.157-.123-.061-.258-.121-.38-.182-.074-.036-.148-.073-.221-.097l6.652-10.295Zm-31.468 44.8-.062.12c-.098.218-.22.424-.343.641h-.013c-1.767 2.698-4.7 4.598-7.916 5.19-.123.025-.245.037-.368.06l-.282.037c-.037 0-.074.012-.11.012-.259.025-.516.049-.774.06-.135.013-.27.013-.405.013h-.577c-.061 0-.135 0-.196-.012-.11-.012-.221-.012-.344-.024-3.89-.376-7.376-3.146-9.512-6.449-.012-.012-.012-.012-.012-.024l-.024-.06L2.42 15.715h9.757c1.276.013 2.577.279 3.731.763l.258.109c1.3.592 2.442 1.56 3.301 2.77l3.866 5.638c.209-.605.491-1.283.908-1.972.135-.206.332-.508.356-.52a10.445 10.445 0 0 1 1.522-1.755c1.853-1.875 4.419-3.641 7.462-4.645 2.737-.896 9.905-2.565 17.244 1.463 2.283 1.259 4.173 3.194 5.51 5.142.013.012.025.037.05.06l.012.013c.564.774 1.166 1.73 1.694 2.855.098.206.184.423.282.641.258.617.454 1.198.626 1.754l5.866-8.662c.86-1.222 2-2.19 3.302-2.782l.257-.11a10.069 10.069 0 0 1 3.731-.761h9.77l-29.32 45.32Z" fill="#fff"/><path d="M51.697 52.507a7.284 7.284 0 0 1-1.387 2.71c-1.142 1.404-2.774 2.323-4.566 2.698-2.823.593-8.198 1.15-13.451-1.621-1.338-.702-4.124-2.214-6.137-5.432-3.485-5.553-1.828-11.59-1.473-12.788.909 2.081 2.86 5.65 6.812 8.275 1.252.823 6.32 3.255 11.034 2.541.97-.145 2.933-.871 3.325-2.746.295-1.38-.503-2.82-.81-3.218.59.084 3.29.508 5.204 2.915.283.363 2.394 3.11 1.449 6.666Z" fill="url('#paint0_linear_637_14394')"/><path d="M38.356 27.498c-.184-.278-.835-.181-1.485.218-.639.387-1.02.944-.835 1.222.184.278.835.182 1.473-.205.65-.412 1.03-.956.847-1.235Zm21.134 3.703c-.148-.255-.32-.509-.491-.775-.05-.06-.098-.133-.147-.205a1.65 1.65 0 0 0-.184-.255c-.025-.036-.062-.084-.086-.12-.135-.182-.27-.375-.43-.557-.11-.145-.233-.29-.356-.436-.196-.242-.393-.46-.589-.665v-.024c-.074-.266-.16-.532-.245-.81-.013-.025-.013-.061-.025-.085-.012-.012-.012-.037-.012-.049a6.866 6.866 0 0 0-.197-.532c-.012-.036-.024-.06-.036-.097v-.012c-.086-.23-.184-.448-.258-.665 0 0 0-.013-.012-.025-.136-.29-.27-.568-.405-.81-1.13-2.105-3.118-4.646-5.904-6.17-6.811-3.738-13.476-2.19-16.016-1.355a17.23 17.23 0 0 0-4.688 2.407c-.123.097-.258.182-.38.279l-.111.072a12.194 12.194 0 0 0-1.952 1.851c-.037.049-.073.085-.11.133-.05.049-.086.11-.135.17a.367.367 0 0 0-.062.084s0 .012-.012.012c-.024.025-.037.049-.061.073-.074.097-.147.206-.233.315-.025.036-.05.06-.062.096-.037.049-.061.097-.098.146-.012.012-.024.036-.037.048-.024.036-.049.06-.073.097a176.208 176.208 0 0 0-.454.75c0 .012-.013.012-.013.024s-.012.012-.012.024l-.037.073-.037.072a.36.36 0 0 0-.049.097c-.098.182-.184.363-.27.545a13.158 13.158 0 0 0-.663 1.802c-.073.266-.135.508-.184.75-.061.303-.11.581-.147.835v.048c-.086.799-.098 1.61 0 2.432.196 1.827.835 3.315 1.473 4.416.43-.315.945-.472 2.27-1.173.368-.194 1.289-.617 1.682-.823-.246-.666 0-1.416.564-1.863.602-.484 1.24-1.04 1.903-1.682a21.54 21.54 0 0 0 1.73-1.924 7.595 7.595 0 0 1 2.639-2.129c.012 0 .012-.012.024-.012a8.862 8.862 0 0 1 2.627-.81c1.595-.303 8.112-1.404 14.568 2.467 4.897 2.94 7.118 7.138 7.904 8.832a19.668 19.668 0 0 0-2.111-4.887Zm.294 10.888c-.712-3.63-2.761-5.989-3.755-6.98-3.866-3.872-8.788-4.15-9.966-4.199.81-.157 1.73-.278 2.725-.35a22.202 22.202 0 0 1 3.989.096c-1.29-.447-3.744-1.113-6.75-.641-.246.036-.492.085-.725.133-1.497.314-2.896.956-4.173 1.803-2.221 1.476-4.21 2.117-5.473 2.42 0 0-3.437.822-5.241-.267-.086-.048-.172-.06-.344-.254-.712.4-1.387.823-2.123 1.246-.552.315-1.203.666-1.755.92.331.471.626.834.822 1.064 3.142 3.775 7.61 4.537 9.806 4.912 3.118.532 5.843.23 7.818-.218 3.805.206 7.106 2.48 8.457 5.783 1.62 4.017-.43 7.634-.7 8.094.92-.363 4.897-2.02 6.762-6.291 1.4-3.158.872-6.037.626-7.271Zm-33.26-7.066c-.282.073-.576.182-.822.194.16.278.331.532.479.75.122-.145.331-.35.49-.496.16-.145 1.142-.883 1.277-.968-.061.037-1.006.424-1.424.52Z" fill="url('#paint1_linear_637_14394')"/><path d="M25.628 24.076c-.036.073-.073.133-.11.206.025-.049.05-.097.086-.157 0-.025.012-.037.024-.049ZM26.353 22.938c-.086.133-.185.254-.27.387.085-.133.184-.267.27-.387ZM26.843 22.285c-.086.109-.172.23-.27.339.098-.121.184-.242.27-.339Z" fill="#fff"/><defs><linearGradient id="paint0_linear_637_14394" x1="-.517" y1="58.398" x2="46.447" y2="44.335" gradientUnits="userSpaceOnUse"><stop offset="1" stop-color="#fff"/></linearGradient><linearGradient id="paint1_linear_637_14394" x1="29.736" y1="13.785" x2="58.65" y2="57.408" gradientUnits="userSpaceOnUse"><stop offset=".59" stop-color="#fff"/></linearGradient></defs></svg>