<svg width="136" height="44" fill="none" xmlns="http://www.w3.org/2000/svg"><path d="M48.508 9.372a.948.948 0 0 0 .043-.984 1.004 1.004 0 0 0-.879-.51H41.63A6.801 6.801 0 0 0 39 8.416c-.063.028-.12.049-.177.076a5.992 5.992 0 0 0-2.401 2.019l-1.063 1.571c-.135-.035-.248-.063-.27-.07a8.393 8.393 0 0 0-.403-.09c-.036-.007-.064-.014-.092-.021a46.786 46.786 0 0 0-3.465-10.064A2.458 2.458 0 0 0 29.386.489 25.869 25.869 0 0 0 24.788 0h-.694c-.17 0-.333 0-.503.007-.163 0-.326.007-.496.014-.156.007-.319.014-.482.028-.156.014-.312.02-.468.035-.155.014-.304.02-.46.042-.149.014-.298.035-.446.049-.142.014-.29.035-.433.055-.141.021-.276.035-.418.063l-.404.063c-.127.021-.262.042-.39.07-.049.007-.091.014-.14.028l-.213.042a2.357 2.357 0 0 0-.865.405 2.335 2.335 0 0 0-.68.796c-.014.028-.028.063-.042.09-.036.078-.071.148-.107.224l-.106.23c-.035.078-.078.154-.113.231-.036.084-.078.161-.114.245-.035.084-.078.167-.113.244-.035.084-.078.168-.113.252-.036.083-.078.174-.114.258a2.996 2.996 0 0 0-.113.265c-.035.091-.078.182-.113.273-.043.09-.078.181-.114.28-.042.097-.078.188-.12.279-.036.097-.078.195-.114.293-.035.098-.078.195-.113.293-.035.098-.078.196-.113.3-.043.098-.078.203-.114.3-.042.106-.078.21-.113.315-.043.105-.078.21-.113.314-.036.105-.078.217-.114.322-.035.104-.078.216-.113.328-.036.112-.078.223-.114.335-.035.112-.077.224-.113.335-.035.112-.07.23-.106.343-.036.118-.071.23-.106.349l-.107.356a480.62 480.62 0 0 1-.212.72l-.107.37c-.035.125-.07.25-.099.377-.035.125-.07.25-.099.377-.035.125-.064.251-.1.384a7.9 7.9 0 0 0-.091.39c-.028.134-.064.266-.092.392a.72.72 0 0 1-.029.119c-.212.049-.538.125-.822.188l-1.07-1.557A5.963 5.963 0 0 0 9.67 8.423a6.748 6.748 0 0 0-2.629-.538H.997a.996.996 0 0 0-.879.51.962.962 0 0 0 .036.984l3.84 5.888a2.453 2.453 0 0 1-.135.063 2.319 2.319 0 0 0-1.31 1.655 25.229 25.229 0 0 0-.496 4.574 21.903 21.903 0 0 0 .043 1.977c.02.307.042.615.07.922.028.293.064.58.1.873.006.077.02.153.027.23v.007c.029.196.057.391.093.587.014.07.02.146.035.216 0 .007 0 .014.007.028 0 .021.007.042.007.056.078.287.213.67.475 1.076.354.551.772.908 1.056 1.103.042.021.092.042.134.063l.404.189.1.049c.162.076.332.146.502.223.17.077.347.147.524.223.185.077.369.154.546.224.191.077.383.154.567.223l.595.23c.205.078.41.154.616.224.213.077.425.154.638.224.22.077.44.154.659.223.227.077.453.147.68.217.234.077.468.146.701.216.241.07.482.14.73.21.248.07.496.14.744.202.255.07.51.133.765.196l.787.189c.134.027.269.055.397.09a46.903 46.903 0 0 0 3.45 10.043c.34.713.999 1.222 1.778 1.376a25.65 25.65 0 0 0 4.57.482 22.663 22.663 0 0 0 2.005-.042c.312-.02.623-.042.935-.07.298-.028.588-.063.886-.098.276-.035.56-.076.836-.118.262-.042.517-.084.78-.14a11.653 11.653 0 0 0 .31-.063 1.99 1.99 0 0 0 .858-.447c.12-.111.22-.23.29-.335.05-.098.1-.196.15-.3.014-.035.035-.07.049-.105v-.007c.057-.112.106-.224.163-.335l.149-.315c.021-.049.05-.097.07-.153.079-.16.15-.328.227-.49.078-.174.156-.341.227-.516.078-.181.156-.356.234-.538l.234-.558.233-.587.234-.608c.078-.21.156-.419.227-.628.078-.217.156-.433.227-.65.078-.223.148-.447.226-.67.078-.23.15-.461.22-.699l.213-.712c.07-.244.141-.489.205-.733.07-.252.135-.503.198-.755l.192-.775c.035-.14.063-.28.099-.419a48.235 48.235 0 0 0 10.429-3.527c.58-.272.992-.796 1.12-1.417.276-1.334.502-2.934.53-4.742l.008-.175v-.51c0-.168-.007-.328-.007-.496-.008-.16-.007-.321-.022-.482-.007-.16-.014-.314-.028-.475a9.923 9.923 0 0 0-.035-.46c-.015-.147-.029-.3-.043-.454-.014-.147-.035-.294-.05-.44a8.765 8.765 0 0 0-.056-.426l-.064-.413-.064-.398a6.238 6.238 0 0 0-.07-.384c-.008-.056-.022-.111-.029-.167l-.042-.21-.043-.21v-.006a2.047 2.047 0 0 0-.39-.713 2.45 2.45 0 0 0-.46-.412h-.007c-.064-.035-.128-.063-.191-.09-.071-.036-.15-.07-.22-.105a1.009 1.009 0 0 0-.128-.056l3.84-5.944ZM30.343 35.234l-.036.07c-.056.125-.127.244-.198.37h-.007c-1.02 1.557-2.714 2.654-4.57 2.996-.07.014-.142.021-.212.035l-.163.021c-.022 0-.043.007-.064.007a9.563 9.563 0 0 1-.447.035c-.078.007-.155.007-.233.007H24.08c-.036 0-.078 0-.114-.007-.064-.007-.127-.007-.198-.014-2.246-.217-4.258-1.816-5.49-3.722-.008-.007-.008-.007-.008-.014l-.014-.035L1.372 9.073h5.633c.737.006 1.488.16 2.154.44l.149.062c.75.342 1.41.9 1.905 1.6l2.232 3.254c.12-.35.284-.74.524-1.139.078-.118.192-.293.206-.3.29-.426.602-.754.878-1.013a10.987 10.987 0 0 1 4.308-2.681c1.58-.517 5.718-1.481 9.954.845 1.318.726 2.41 1.843 3.181 2.968.008.007.015.02.029.035l.007.007c.326.447.673.998.978 1.648.056.119.106.244.163.37.148.356.262.691.36 1.013l3.387-5a4.766 4.766 0 0 1 1.906-1.607l.15-.063a5.813 5.813 0 0 1 2.153-.44h5.64L30.343 35.234Z" fill="#0B5594"/><path d="M29.819 30.31a4.203 4.203 0 0 1-.8 1.565c-.66.81-1.602 1.34-2.636 1.557-1.63.342-4.733.663-7.765-.936-.773-.405-2.381-1.278-3.543-3.136-2.012-3.205-1.056-6.69-.85-7.382.524 1.201 1.65 3.262 3.932 4.777.723.475 3.649 1.879 6.37 1.467.559-.084 1.693-.503 1.92-1.585.17-.797-.291-1.628-.468-1.858.34.049 1.899.293 3.004 1.683.163.21 1.381 1.795.836 3.848Z" fill="url('#paint0_linear_858_19181')"/><path d="M22.117 15.874c-.106-.16-.482-.105-.857.126-.368.223-.588.544-.482.705.107.16.482.105.85-.119.376-.237.596-.551.49-.712Zm12.2 2.137c-.085-.146-.184-.293-.283-.447-.028-.035-.057-.077-.085-.119a.959.959 0 0 0-.106-.146l-.05-.07c-.078-.105-.156-.217-.248-.321-.064-.084-.134-.168-.205-.252a6.397 6.397 0 0 0-.34-.384v-.014c-.043-.153-.092-.307-.142-.468-.007-.014-.007-.035-.014-.049-.007-.007-.007-.02-.007-.028-.036-.104-.071-.21-.114-.307-.007-.02-.014-.035-.02-.056v-.007c-.05-.132-.107-.258-.15-.384 0 0 0-.007-.007-.014a7.228 7.228 0 0 0-.234-.468c-.651-1.215-1.8-2.682-3.407-3.562-3.933-2.158-7.78-1.264-9.246-.782a9.95 9.95 0 0 0-2.707 1.39c-.07.056-.148.105-.22.16-.02.015-.042.029-.063.043-.326.244-.73.6-1.127 1.068-.02.028-.042.049-.063.077-.029.028-.05.063-.078.098a.215.215 0 0 0-.036.049s0 .007-.007.007c-.014.014-.021.027-.035.041-.043.056-.085.12-.135.182-.014.021-.028.035-.035.056-.021.028-.036.056-.057.084-.007.007-.014.02-.021.028-.014.02-.028.035-.043.056-.02.035-.042.07-.063.104l-.199.329c0 .007-.007.007-.007.014 0 .006-.007.006-.007.013l-.021.042a16.251 16.251 0 0 1-.05.098c-.056.105-.106.21-.156.315-.17.37-.29.726-.382 1.04a6.38 6.38 0 0 0-.107.433 8.813 8.813 0 0 0-.085.482v.028a6.2 6.2 0 0 0 0 1.404 6.448 6.448 0 0 0 .85 2.549c.249-.182.546-.273 1.311-.678.213-.111.744-.356.971-.474-.142-.385 0-.818.326-1.076.347-.28.715-.6 1.098-.97.383-.378.716-.755.999-1.111.41-.517.928-.943 1.523-1.23.007 0 .007-.006.014-.006a5.117 5.117 0 0 1 1.517-.468c.92-.175 4.683-.81 8.41 1.424 2.826 1.697 4.109 4.12 4.562 5.099a11.358 11.358 0 0 0-1.218-2.822Zm.17 6.286c-.41-2.096-1.594-3.457-2.168-4.03-2.231-2.235-5.072-2.395-5.752-2.424a12.808 12.808 0 0 1 3.875-.147 8.067 8.067 0 0 0-4.315-.292c-.864.181-1.672.551-2.409 1.04a9.832 9.832 0 0 1-3.16 1.397s-1.983.475-3.025-.154c-.05-.028-.099-.035-.198-.146-.411.23-.8.474-1.226.719-.319.181-.694.384-1.013.53.191.273.361.483.475.615 1.813 2.18 4.392 2.62 5.66 2.836 1.8.307 3.373.133 4.514-.126 2.196.119 4.102 1.432 4.881 3.338.935 2.32-.248 4.407-.404 4.673.532-.21 2.827-1.167 3.904-3.632.808-1.823.503-3.485.361-4.197Zm-19.2-4.079c-.163.042-.333.105-.474.112.092.16.191.307.276.433a3.59 3.59 0 0 1 .283-.287c.092-.083.66-.51.737-.558-.035.02-.58.244-.822.3Z" fill="url('#paint1_linear_858_19181')"/><path d="M14.77 13.9c-.02.041-.042.076-.063.118.014-.028.028-.056.05-.09 0-.015.006-.022.013-.029ZM15.188 13.242c-.05.076-.106.146-.156.223.05-.077.107-.153.156-.223ZM15.472 12.865c-.05.063-.1.133-.156.196.057-.07.106-.14.156-.196Z" fill="#fff"/><path d="M63.383 20.62c-.233 1.272-1.523 2.368-2.834 2.368h-3.62c-.142 0-.163-.014-.07-.14l6.198-10.329c.071-.07-.014-.23-.127-.23h-6.54c-.913 0-1.09-.07-1.02-.496.014-.056-.198-.09-.212-.035l-.716 3.073c-.014.07.177.105.213.056 1.006-2.067 2.31-2.298 6.036-2.298.163 0 .163.014.092.14l-6.291 10.364c-.071.09 0 .23.092.23 2.67 0 5.909 0 8.58.035.106 0 .163-.104.163-.174l.255-2.563c0-.077-.177-.077-.199 0ZM71.446 12.085c-2.905 0-6.305 1.886-6.305 5.72 0 3.108 2.238 5.72 5.675 5.72 3.4 0 6.291-2.563 6.291-5.845 0-2.836-2.132-5.595-5.66-5.595Zm-.035 11.007c-2.345 0-4.067-2.472-4.067-5.936 0-2.864 1.197-4.589 3.387-4.589 2.6 0 4.173 2.403 4.173 5.636 0 3.136-1.502 4.89-3.493 4.89ZM85.17 12.085c-2.906 0-6.306 1.886-6.306 5.72 0 3.108 2.239 5.72 5.682 5.72 3.4 0 6.291-2.563 6.291-5.845-.007-2.836-2.14-5.595-5.668-5.595Zm-.036 11.007c-2.345 0-4.067-2.472-4.067-5.936 0-2.864 1.198-4.589 3.387-4.589 2.6 0 4.173 2.403 4.173 5.636 0 3.136-1.502 4.89-3.493 4.89ZM107.728 12.283c-.609 0-.935.055-1.594.055-.9 0-1.382-.055-2.005-.055-.071 0-.071.209 0 .209.892 0 1.289.936.807 2.207l-2.309 6.09-2.147-4.47.659-1.746c.538-1.41 1.183-2.081 1.991-2.081.056 0 .056-.21 0-.21-.539 0-.808.056-1.396.056-1.077 0-.808-.055-1.162-.055-.071 0-.071.209 0 .209.595 0 .595.635.057 2.032l-.447 1.188-.786-1.642c-.624-1.306-.645-1.571 0-1.571.07 0 .07-.21 0-.21-.397 0-.822.056-2.168.056-.751 0-.751-.056-1.112-.056-.071 0-.071.21 0 .21.432 0 .772.475 1.147 1.257l1.991 4.148-1.126 2.913-3.224-6.747c-.623-1.306-.574-1.571.411-1.571.07 0 .07-.21 0-.21-.482 0-1.006.056-2.6.056-.893 0-.893-.056-1.31-.056-.072 0-.072.21 0 .21.68 0 .856.21 1.36 1.257l4.57 9.554c.035.09.36.09.396 0l1.807-4.784 2.295 4.784c.036.09.362.09.397 0l3.316-8.723c.503-1.292 1.325-2.081 2.203-2.081.028-.014.028-.223-.021-.223ZM112.957 23.107c-1.113 0-1.276-.196-1.276-1.222V13.74c0-1.005.178-1.257 1.276-1.257.071 0 .071-.21 0-.21-.61 0-1.382.057-2.296.057-.857 0-1.665-.056-2.295-.056-.057 0-.057.21 0 .21 1.091 0 1.31.209 1.31 1.221v8.179c0 1.026-.212 1.222-1.31 1.222-.057 0-.057.21 0 .21.623 0 1.431-.036 2.295-.036.914 0 1.665.035 2.296.035.071 0 .071-.21 0-.21ZM122.968 20.105c-.447 1.662-1.92 2.716-3.777 2.716h-.609c-.878 0-1.02-.14-1.02-1.005v-8.088c0-1.005.177-1.236 1.275-1.236.071 0 .071-.21 0-.21-.609 0-1.381.056-2.274.056-.857 0-1.701-.055-2.274-.055-.057 0-.057.209 0 .209 1.091 0 1.289.21 1.289 1.222v8.178c0 1.027-.198 1.223-1.289 1.223-.057 0-.057.21 0 .21h8.452c.198 0 .269-.07.269-.266 0-.922.092-2.137.163-2.913-.007-.076-.184-.111-.205-.041ZM129.096 12.246c-.737 0-1.885.09-2.757.09-.857 0-1.629-.055-2.26-.055-.07 0-.07.21 0 .21 1.077 0 1.276.21 1.276 1.222v8.178c0 1.027-.213 1.222-1.311 1.222-.057 0-.057.21 0 .21.623 0 1.431-.035 2.295-.035.95 0 2.239.104 3.012.104 3.209 0 5.908-2.241 5.908-5.775 0-3.038-2.451-5.37-6.163-5.37Zm.07 10.741c-1.502 0-1.828-.405-1.828-1.292v-7.947c0-.957.539-1.11 1.935-1.11 2.309 0 3.783 2.367 3.783 5.37 0 3.226-1.63 4.98-3.89 4.98Z" fill="#0A7040"/><path d="M126.127 29.662h-.411l.142.307-1.098 2.235h.404l.064-.118a.28.28 0 0 1 .077-.084.555.555 0 0 1 .156-.077c.064-.028.142-.042.227-.063a2.01 2.01 0 0 1 .305-.02h.772l.163.362h.411l-1.212-2.542Zm0 1.809c-.177 0-.318.014-.425.042a.686.686 0 0 0-.226.098l.559-1.195.553 1.055h-.461Zm-2.734.363h-.043c-.028 0-.057 0-.092-.007-.035-.007-.064-.02-.099-.035a.56.56 0 0 1-.107-.084 1.029 1.029 0 0 1-.12-.146l-.453-.67.836-1.174h-.447l-.644.936a.579.579 0 0 1-.234.077c-.085.014-.163.02-.241.02h-.17v-1.033h-.369v2.5h.369v-1.096h.212c.064 0 .121-.007.185-.014.063-.007.12-.028.184-.05l.489.77a.943.943 0 0 0 .326.334.443.443 0 0 0 .155.05c.057.006.107.013.17.013h.135v-.37c-.014-.02-.028-.02-.042-.02Zm-4.315-2.13v2.5h.361v-2.5h-.361Zm-2.14 0v.97a.509.509 0 0 1-.177.05c-.064.007-.12.014-.17.014-.057 0-.127-.007-.205-.014-.078-.007-.156-.014-.241-.028a2.207 2.207 0 0 1-.227-.028c-.071-.007-.12-.014-.156-.014-.057 0-.106.007-.163.014-.057.007-.106.028-.156.049V29.69h-.368v2.5h.368v-1.103a.454.454 0 0 1 .156-.049c.057-.014.106-.014.163-.014.036 0 .092.007.156.014.071.007.142.014.227.028.078.007.163.014.241.028.078.007.148.014.205.014.05 0 .106-.007.17-.014a.595.595 0 0 0 .17-.05v1.167h.369v-2.5h-.362v-.007Zm-3.989 0v2.5h.362v-2.5h-.362Zm-3.677 0 .156.37h.291c-.015.126-.029.252-.05.384-.021.126-.042.252-.071.377a1.924 1.924 0 0 1-.113.357c-.05.111-.099.223-.17.335a1.014 1.014 0 0 1-.248.272.393.393 0 0 1-.099.042c-.029.007-.064.007-.092.007h-.071v.37h.071c.035 0 .07 0 .12-.007.05-.007.099-.014.149-.028a.789.789 0 0 0 .156-.07.507.507 0 0 0 .148-.125c.1-.119.192-.259.263-.405.07-.154.127-.308.177-.475.049-.168.085-.335.12-.51.028-.175.05-.342.071-.503h.73v2.13h.368v-2.5h-1.906v-.021Zm-1.856 2.13h-.042c-.029 0-.064 0-.093-.007-.028-.007-.063-.02-.099-.035a.555.555 0 0 1-.106-.084.965.965 0 0 1-.12-.146l-.454-.67.836-1.174h-.446l-.645.936a.616.616 0 0 1-.234.077c-.085.014-.163.02-.241.02h-.17v-1.033h-.368v2.5h.368v-1.096h.213c.064 0 .12-.007.184-.014s.121-.028.184-.05l.489.77a1 1 0 0 0 .17.216c.057.056.106.09.156.118.05.028.106.042.156.05.057.006.106.013.17.013h.135v-.37c-.022-.02-.036-.02-.043-.02Zm-6.844-2.172h-.411l.142.307-1.098 2.235h.404l.063-.118a.281.281 0 0 1 .078-.084.536.536 0 0 1 .156-.077c.064-.028.142-.042.227-.063.092-.014.191-.02.304-.02h.773l.163.362h.418l-1.219-2.542Zm0 1.809c-.177 0-.319.014-.425.042a.697.697 0 0 0-.227.098l.56-1.195.553 1.055h-.461Zm-3.202-1.767v.97a.523.523 0 0 1-.17.05c-.064.007-.12.014-.17.014-.057 0-.128-.007-.206-.014-.078-.007-.156-.014-.24-.028a2.201 2.201 0 0 1-.228-.028c-.07-.007-.12-.014-.155-.014-.057 0-.107.007-.163.014a.578.578 0 0 0-.156.049V29.69h-.369v2.5h.369v-1.103a.447.447 0 0 1 .156-.049c.056-.014.106-.014.163-.014.035 0 .092.007.156.014.07.007.141.014.226.028.078.007.163.014.241.028.078.007.149.014.206.014.05 0 .106-.007.17-.014a.603.603 0 0 0 .17-.05v1.167h.368v-2.5h-.368v-.007Zm-3.465.412a.622.622 0 0 0-.383-.363.844.844 0 0 0-.304-.049h-1.304v2.5h.369v-.963a.759.759 0 0 1 .24-.084c.086-.014.163-.021.249-.021h.446a.842.842 0 0 0 .304-.05.663.663 0 0 0 .234-.146.652.652 0 0 0 .15-.23.81.81 0 0 0 .049-.3.977.977 0 0 0-.05-.294Zm-.694.657h-.447c-.085 0-.162.006-.248.014a.787.787 0 0 0-.233.083v-.803h.935c.12 0 .212.028.276.077.064.049.092.14.092.265 0 .245-.127.364-.375.364Zm-4.017-1.11h-.411l.141.306-1.098 2.235h.404l.064-.118a.283.283 0 0 1 .078-.084.536.536 0 0 1 .156-.077c.063-.028.141-.042.226-.063.093-.014.192-.02.305-.02h.772l.163.362h.418l-1.218-2.542Zm0 1.808c-.178 0-.32.014-.418.042a.694.694 0 0 0-.227.098l.56-1.195.552 1.055h-.467Zm-3.203-1.767v.97a.523.523 0 0 1-.17.05c-.064.007-.12.014-.17.014-.056 0-.127-.007-.205-.014-.078-.007-.156-.014-.241-.028a2.2 2.2 0 0 1-.227-.028c-.07-.007-.12-.014-.156-.014-.056 0-.106.007-.163.014a.576.576 0 0 0-.156.049l.007-1.027h-.368v2.5h.368v-1.103a.447.447 0 0 1 .156-.049c.057-.014.107-.014.163-.014.036 0 .093.007.156.014.071.007.142.014.227.028.078.007.163.014.24.028.079.007.15.014.206.014.05 0 .107-.007.17-.014a.603.603 0 0 0 .17-.05v1.167h.369v-2.5h-.376v-.007Zm-3.989 0-1.487 1.928v-1.928h-.369v2.5h.369l1.487-1.927v1.927h.369v-2.5h-.368Zm-3.471.412a.622.622 0 0 0-.383-.363 1.03 1.03 0 0 0-.304-.049H76.54v2.5h.368v-.963a.76.76 0 0 1 .241-.084c.085-.014.163-.021.248-.021h.447a.843.843 0 0 0 .304-.05.663.663 0 0 0 .234-.146.652.652 0 0 0 .149-.23.812.812 0 0 0 .057-.3.982.982 0 0 0-.057-.294Zm-.694.657h-.447c-.085 0-.163.006-.248.014a.788.788 0 0 0-.234.083v-.803h.929c.12 0 .212.028.276.077.064.049.092.14.092.265.007.245-.12.364-.368.364Zm-4.478 1.061V31.2a.763.763 0 0 1 .234-.077 1.4 1.4 0 0 1 .24-.021h.553v-.37h-.552c-.085 0-.163.007-.248.014a.528.528 0 0 0-.234.083v-.76h1.417v-.371h-1.786v2.5h1.935v-.37h-1.56v.007Zm-4.024-2.13v.37h.907v2.13h.36v-2.13h.894v-.37h-2.161Zm-2.905 2.13V31.2a.764.764 0 0 1 .234-.077c.078-.014.163-.021.24-.021h.553v-.37h-.545c-.085 0-.163.007-.248.014a.528.528 0 0 0-.234.083v-.76h1.417v-.371H66.06v2.5h1.935v-.37H66.43v.007Zm-2.034-.552a.878.878 0 0 0-.078-.181.535.535 0 0 0-.113-.133.667.667 0 0 0-.127-.084.402.402 0 0 0 .17-.202.775.775 0 0 0 0-.587.68.68 0 0 0-.156-.216.579.579 0 0 0-.241-.133 1.022 1.022 0 0 0-.298-.042h-1.282v2.5h1.29c.106 0 .212-.014.311-.035a.93.93 0 0 0 .284-.118.609.609 0 0 0 .276-.524.85.85 0 0 0-.035-.245Zm-1.75-1.208h.914c.114 0 .199.021.27.07.07.049.106.133.106.251 0 .12-.035.203-.1.259-.063.056-.155.084-.276.084h-.432c-.085 0-.163.007-.248.014a.787.787 0 0 0-.233.083v-.76Zm1.368 1.558a.289.289 0 0 1-.113.111.475.475 0 0 1-.15.063.638.638 0 0 1-.155.021h-.957V31.2a.784.784 0 0 1 .234-.084c.085-.014.163-.021.241-.021h.432c.064 0 .12.007.184.014a.556.556 0 0 1 .163.056c.05.028.085.063.114.111a.346.346 0 0 1 .042.182.224.224 0 0 1-.035.175Z" fill="#0B5594"/><defs><linearGradient id="paint0_linear_858_19181" x1="-.323" y1="33.711" x2="26.788" y2="25.592" gradientUnits="userSpaceOnUse"><stop offset=".047" stop-color="#0B5594"/><stop offset=".59" stop-color="#0A7040"/><stop offset="1" stop-color="#DBB14F"/></linearGradient><linearGradient id="paint1_linear_858_19181" x1="17.141" y1="7.958" x2="33.833" y2="33.14" gradientUnits="userSpaceOnUse"><stop offset=".047" stop-color="#0B5594"/><stop offset=".59" stop-color="#0A7040"/><stop offset="1" stop-color="#DBB14F"/></linearGradient></defs></svg>