<svg width="158" height="87" fill="none" xmlns="http://www.w3.org/2000/svg"><mask id="path-1-inside-1_637_18599" fill="#fff"><path d="M.263 20.381C.263 9.125 9.388 0 20.643 0h116.683c11.256 0 20.381 9.125 20.381 20.381v46.145c0 11.256-9.125 20.38-20.381 20.38H20.644C9.388 86.907.263 77.783.263 66.527V20.38Z"/></mask><path d="M.263 20.381C.263 8.703 9.73-.764 21.408-.764h115.153c11.679 0 21.146 9.467 21.146 21.145 0-10.834-9.125-19.617-20.381-19.617H20.644C9.388.764.263 9.547.263 20.381Zm157.444 46.145c0 11.678-9.467 21.145-21.146 21.145H21.408C9.73 87.671.263 78.204.263 66.526c0 10.834 9.125 19.617 20.38 19.617h116.683c11.256 0 20.381-8.783 20.381-19.617ZM.263 86.906V0v86.907ZM157.707 0v86.907V0Z" fill="#04A427" fill-opacity=".4" mask="url('#path-1-inside-1_637_18599')"/><path fill-rule="evenodd" clip-rule="evenodd" d="M25.7 32.677c5.836.128 5.836.128 6.091 1.197.17.598.128 1.495-.085 2.05-.17.514-1.874 3.163-3.748 5.856-1.874 2.692-3.407 5-3.407 5.128 0 .128.852.214 1.916.214 1.619 0 1.917-.128 1.917-.855 0-.47.085-1.154.213-1.496.142-.427.78-.64 1.916-.64s1.775.213 1.917.64c.128.342.213 1.453.213 2.48 0 .982-.17 2.05-.34 2.35-.214.427-1.449.598-4.558.598-2.343 0-5.281 0-6.517-.043-2.172-.042-2.214-.085-2.214-1.325 0-.897 1.107-2.863 3.833-6.838 2.13-3.077 3.833-5.64 3.833-5.769 0-.128-.766-.214-1.703-.214-1.534 0-1.747.129-2.13 1.282-.383 1.112-.639 1.283-1.917 1.283-1.405 0-1.49-.086-1.576-1.582 0-.897 0-2.008.043-2.478 0-.47.128-1.112.256-1.41.17-.385 1.618-.514 6.048-.428Zm52.303.128.128 1.41c.043 1.069-.085 1.41-.766 1.582-.469.128-.852.555-.852.983 0 .384.596 2.65 1.32 5 .682 2.35 1.363 4.188 1.448 4.06.085-.128.724-2.35 1.448-4.915.725-2.564 1.32-4.744 1.32-4.786 0-.086-.468-.214-1.064-.342-.767-.171-1.065-.513-1.065-1.154-.042-.556.213-1.24.511-1.496.384-.385 1.746-.513 7.795-.342l.127 1.41c.043 1.069-.085 1.41-.766 1.582-.469.128-.852.342-.852.555 0 .171.383 1.453.81 2.864.425 1.41 1.021 3.376 1.277 4.401.255.983.596 1.796.81 1.796.17 0 .808-1.924 1.49-4.274.639-2.35 1.15-4.488 1.15-4.701 0-.214-.469-.513-1.065-.641-.894-.171-1.065-.428-.852-2.992h7.667l.127 1.41c.043 1.069-.127 1.453-.851 1.753-.81.299-1.236 1.239-2.428 5.855-.81 3.034-1.704 6.154-2.598 8.29l-5.75-.213-1.108-3.42c-1.064-3.204-1.15-3.333-1.575-2.35-.256.599-.767 2.18-1.79 5.983l-6.09-.213-1.193-3.846c-.638-2.095-1.575-5.172-2.044-6.838-.639-2.223-1.107-3.12-1.831-3.42-.554-.213-1.023-.769-1.065-1.153-.085-.428.085-1.069.34-1.41.427-.556 1.278-.642 7.838-.428Zm26.493-.214c3.279 0 3.577.086 3.918.983.213.513.213 1.24 0 1.71-.213.385-.681.726-1.022.726-.554 0-.639.898-.639 5.556 0 5.257.043 5.556.852 5.556.511 0 .937.385 1.107.983.171.513.171 1.197 0 1.496-.17.342-1.49.513-4.301.513-3.493 0-4.089-.086-4.217-.727-.085-.427 0-1.111.213-1.496.213-.427.681-.77 1.022-.77.341 0 .724-.298.852-.64s.213-2.607.213-5c0-2.436-.17-4.616-.341-4.872-.17-.257-.639-.599-1.022-.727-.469-.17-.809-.812-.852-1.496-.042-.683.085-1.367.298-1.495.213-.171 1.959-.3 3.919-.3Zm13.97.214.128 1.41c.042 1.069-.086 1.41-.767 1.582-.809.213-.852.555-.852 11.325l1.619-.086c1.363-.128 1.576-.256 1.703-1.282.086-1.068.256-1.196 3.493-1.196v5.556l-4.132.128c-2.299.042-5.238 0-6.516-.128-1.917-.171-2.343-.385-2.47-1.069-.086-.513.298-1.24.937-1.795 1.064-.94 1.107-1.197 1.107-5.47 0-2.479-.17-4.872-.426-5.342-.255-.47-.724-.855-1.065-.855-.383 0-.681-.47-.724-1.197-.042-.683.128-1.367.298-1.538.213-.171 2.002-.214 7.667-.043Zm13.161-.17c4.259.127 5.409.341 6.644 1.068.809.47 1.874 1.538 2.3 2.35.469.812.937 2.607 1.022 4.017.128 1.41 0 3.547-.255 4.701-.384 1.582-.937 2.565-2.087 3.676-1.534 1.41-1.832 1.538-5.239 1.752-2.002.17-4.685.128-5.963 0-2.002-.256-2.342-.427-2.428-1.24a1.506 1.506 0 0 1 .724-1.495c.767-.513.852-1.026.852-5.983 0-3.377-.17-5.47-.426-5.47-.255 0-.596-.385-.852-.855-.298-.599-.255-1.154.043-1.753.469-.854.767-.897 5.665-.769Zm.383 9.572c.085 3.89.171 4.274.937 4.402.469.086 1.235.043 1.704-.043.468-.128 1.107-.726 1.405-1.325.256-.598.511-2.435.511-4.102 0-2.436-.17-3.163-.851-3.847-.469-.47-1.406-.854-2.087-.854-.852 0-1.335.256-1.448.769-.128.385-.171 2.65-.171 5Z" fill="#06631B"/><path fill-rule="evenodd" clip-rule="evenodd" d="M36.715 26.234c.847-.043 2.456.463 3.768 1.096 1.27.674 2.752 1.686 3.302 2.361.55.632.89 1.307.762 1.56-.127.253-.72.422-1.397.422-.635 0-2.159.295-3.386.632-1.186.337-2.837 1.18-3.599 1.898-.72.674-1.481 1.222-1.693 1.264-.17 0-.339-1.981-.381-4.385-.085-3.5.042-4.427.508-4.595.339-.127 1.312-.253 2.117-.253Zm28.914-.043c1.27 0 1.65.211 1.99 1.055.211.59.423 2.656.423 8.221l-1.143-.253c-1.143-.295-1.143-.252-.508.506.38.422.931 1.476 1.27 2.277.296.801.55 2.53.55 3.795-.042 1.265-.38 2.994-.804 3.795-.381.8-1.143 1.94-1.651 2.445-.466.548-1.651 1.392-2.582 1.855-1.355.675-2.16.801-4.022.633-1.27-.127-2.71-.38-3.175-.548-.635-.211-1.143.126-3.387 2.782l.847.886c.466.464 1.355.843 2.032.801.635 0 1.82-.295 2.625-.632.804-.338 1.65-.97 1.862-1.35.17-.421.72-.885 1.143-1.012.466-.168 1.1-.126 1.44.043.55.295.55.548.127 1.433-.297.59-1.44 1.687-2.54 2.361-1.524.97-2.54 1.265-4.022 1.265-1.143 0-2.71-.337-3.514-.716-1.397-.717-1.566-.717-2.963 0-.804.379-2.37.716-3.471.716-1.524 0-2.54-.295-3.937-1.18-1.059-.675-2.16-1.518-2.413-1.898-.296-.38-.466-1.012-.339-1.349.127-.337.55-.632.974-.632.38.042 1.354.59 2.116 1.264.72.717 1.99 1.392 2.752 1.518.72.17 1.863.17 2.54 0 .635-.126 1.228-.548 1.355-.885.127-.337-.297-1.391-.932-2.319-.804-1.138-1.397-1.602-1.82-1.391-.339.126-1.482.421-2.54.674-1.058.253-2.582.295-3.386.169-.805-.169-2.244-.928-3.133-1.645-.89-.758-1.99-2.108-2.413-2.951-.508-1.054-.804-2.53-.804-4.216-.043-2.108.211-3.163 1.142-4.933.805-1.518 1.651-2.53 2.668-3.078.804-.422 2.243-.886 3.175-1.012 1.058-.169 2.497-.043 3.81.38 1.27.42 2.624 1.222 3.386 2.065.72.76 1.566 2.32 1.863 3.5.338 1.138.762 2.319.973 2.53.212.253.339-.043.339-.76 0-.632 0-1.264.042-1.475.043-.169.381-.97.805-1.771.423-.801 1.312-1.982 1.99-2.572.634-.59 1.82-1.307 2.582-1.56 1.227-.464 1.312-.59.846-1.35-.465-.716-.38-.97.72-2.15.72-.716 2.244-1.77 3.387-2.319 1.185-.548 2.836-1.012 3.725-1.012ZM37.985 37.955c-.423.59-.889 1.687-1.058 2.361-.17.675-.212 1.898-.042 2.657.127.716.72 1.94 1.312 2.614.593.716 1.736 1.433 2.625 1.686.889.211 1.65.338 1.735.295.043-.042-.211-.632-.55-1.349-.338-.675-.635-2.192-.635-3.373 0-1.138.254-2.572.55-3.162.382-.76.89-1.054 1.778-1.054 1.143 0 1.313.21 1.82 2.108.424 1.476.509 2.656.255 3.879-.212 1.012-.254 1.813-.085 1.813.212 0 .72-.633 1.185-1.35.466-.758.847-2.15.847-3.077 0-.928-.254-2.404-.635-3.247-.466-1.18-1.1-1.813-2.455-2.445-.974-.464-2.075-.844-2.413-.844-.339 0-1.27.338-2.032.717-.762.38-1.778 1.18-2.201 1.771Zm17.653-.042c-.592.843-1.143 2.024-1.185 2.614-.042.59-.042 1.56-.042 2.235.042.632.635 1.77 1.354 2.53l1.228 1.349c-.635-2.277-.804-3.5-.804-4.217 0-.674.38-1.897.846-2.614.508-.843 1.186-1.391 1.694-1.391.465 0 1.185.506 1.566 1.18.423.717.677 1.94.677 3.247-.042 1.18-.254 2.614-.508 3.289-.423 1.054-.38 1.138.635 1.138.593 0 1.609-.506 2.244-1.138.677-.675 1.397-1.94 1.65-2.867.255-.928.34-2.235.213-2.952-.127-.674-.762-1.897-1.355-2.656-.635-.843-1.736-1.56-2.582-1.813-.805-.21-1.567-.38-1.694-.337-.127 0-.804.21-1.566.421-.762.253-1.736 1.054-2.37 1.982Zm-6.646 9.234-1.27 1.813c4.91 0 6.35-.084 6.35-.211s-.466-.97-1.058-1.897c-.593-.928-1.186-2.277-1.397-2.994-.17-.717-.424-1.391-.55-1.476-.128-.084-.382.548-.551 1.392-.127.885-.804 2.403-1.524 3.415v-.042Z" fill="#F2CB15"/></svg>