<svg width="140" height="121" fill="none" xmlns="http://www.w3.org/2000/svg"><path d="M15.49 101.893c-.405 2.202-2.639 4.101-4.91 4.101H4.31c-.246 0-.283-.024-.124-.242l10.74-17.893c.122-.121-.025-.4-.222-.4H3.376c-1.583 0-1.89-.12-1.767-.858.025-.097-.344-.157-.368-.06L0 91.862c-.024.121.307.182.368.097 1.743-3.58 4.002-3.98 10.457-3.98.282 0 .282.024.16.242L.087 106.176c-.123.157 0 .399.16.399 4.627 0 10.236 0 14.862.06.184 0 .283-.181.283-.302l.442-4.44c0-.133-.307-.133-.344 0ZM29.457 87.108c-5.032 0-10.923 3.267-10.923 9.909 0 5.383 3.878 9.908 9.83 9.908 5.891 0 10.899-4.44 10.899-10.126 0-4.912-3.694-9.69-9.806-9.69Zm-.062 19.067c-4.062 0-7.044-4.283-7.044-10.283 0-4.96 2.074-7.949 5.866-7.949 4.504 0 7.229 4.162 7.229 9.763 0 5.432-2.602 8.469-6.05 8.469ZM53.23 87.108c-5.032 0-10.923 3.267-10.923 9.909 0 5.383 3.878 9.908 9.843 9.908 5.89 0 10.898-4.44 10.898-10.126-.012-4.912-3.706-9.69-9.818-9.69Zm-.062 19.067c-4.062 0-7.044-4.283-7.044-10.283 0-4.96 2.074-7.949 5.866-7.949 4.504 0 7.229 4.162 7.229 9.763 0 5.432-2.602 8.469-6.05 8.469ZM92.307 87.447c-1.055 0-1.62.097-2.761.097-1.559 0-2.394-.097-3.474-.097-.122 0-.122.363 0 .363 1.547 0 2.234 1.621 1.4 3.823l-4.001 10.55-3.72-7.743 1.142-3.025c.933-2.443 2.05-3.605 3.449-3.605.098 0 .098-.363 0-.363-.933 0-1.4.097-2.418.097-1.865 0-1.399-.097-2.013-.097-.122 0-.122.363 0 .363 1.031 0 1.031 1.101.099 3.52l-.774 2.057-1.362-2.843c-1.08-2.262-1.117-2.722 0-2.722.123 0 .123-.363 0-.363-.687 0-1.424.097-3.755.097-1.302 0-1.302-.097-1.927-.097-.123 0-.123.363 0 .363.748 0 1.337.823 1.988 2.178l3.449 7.186-1.952 5.045-5.584-11.687c-1.08-2.262-.994-2.722.712-2.722.122 0 .122-.363 0-.363-.835 0-1.743.097-4.504.097-1.547 0-1.547-.097-2.271-.097-.123 0-.123.363 0 .363 1.178 0 1.485.363 2.356 2.178l7.917 16.55c.06.157.626.157.687 0l3.13-8.287 3.976 8.287c.061.157.626.157.687 0l5.744-15.11c.871-2.239 2.295-3.606 3.817-3.606.05-.024.05-.387-.037-.387ZM101.364 106.2c-1.926 0-2.209-.339-2.209-2.117V89.976c0-1.742.307-2.178 2.209-2.178.123 0 .123-.362 0-.362-1.055 0-2.393.096-3.976.096-1.485 0-2.884-.096-3.977-.096-.098 0-.098.362 0 .362 1.89 0 2.271.363 2.271 2.118v14.167c0 1.778-.368 2.117-2.27 2.117-.099 0-.099.363 0 .363 1.08 0 2.479-.061 3.976-.061 1.583 0 2.884.061 3.976.061.123 0 .123-.363 0-.363ZM118.706 100.997c-.773 2.88-3.326 4.706-6.541 4.706h-1.056c-1.522 0-1.767-.242-1.767-1.742v-14.01c0-1.742.307-2.14 2.209-2.14.123 0 .123-.364 0-.364-1.055 0-2.393.097-3.94.097-1.485 0-2.945-.097-3.939-.097-.098 0-.098.363 0 .363 1.89 0 2.233.363 2.233 2.117v14.167c0 1.779-.343 2.117-2.233 2.117-.098 0-.098.363 0 .363h14.642c.343 0 .466-.121.466-.459 0-1.597.159-3.702.282-5.045-.012-.133-.319-.194-.356-.073ZM129.322 87.387c-1.276 0-3.264.157-4.774.157-1.485 0-2.823-.097-3.915-.097-.123 0-.123.363 0 .363 1.866 0 2.209.363 2.209 2.117v14.167c0 1.779-.368 2.117-2.27 2.117-.098 0-.098.363 0 .363 1.08 0 2.479-.06 3.976-.06 1.645 0 3.878.181 5.216.181 5.56 0 10.236-3.883 10.236-10.005 0-5.263-4.247-9.303-10.678-9.303Zm.123 18.607c-2.602 0-3.166-.702-3.166-2.239V89.988c0-1.658.932-1.924 3.35-1.924 4.001 0 6.554 4.102 6.554 9.304 0 5.589-2.823 8.626-6.738 8.626ZM132.165 115h-.818l.282.612-2.187 4.451h.804l.127-.237a.563.563 0 0 1 .155-.167c.071-.055.184-.111.311-.153.127-.055.282-.083.451-.125.184-.028.381-.042.607-.042h1.538l.324.724h.819L132.165 115Zm0 3.602c-.353 0-.635.028-.847.084a1.387 1.387 0 0 0-.451.194l1.114-2.378 1.101 2.1h-.917Zm-5.446.723h-.085c-.056 0-.113 0-.183-.014-.071-.013-.127-.041-.198-.069a1.1 1.1 0 0 1-.211-.167 1.852 1.852 0 0 1-.24-.292l-.903-1.335 1.665-2.337h-.889l-1.284 1.864a1.16 1.16 0 0 1-.466.153 2.895 2.895 0 0 1-.48.042h-.338v-2.059h-.734v4.979h.734v-2.183h.423c.127 0 .24-.014.367-.028s.24-.056.367-.097l.973 1.529c.113.181.226.334.339.432.113.097.212.18.31.236a.869.869 0 0 0 .311.097c.113.014.211.028.338.028h.268v-.737c-.028-.042-.056-.042-.084-.042Zm-8.593-4.242v4.98h.72v-4.98h-.72Zm-4.261 0v1.934a1.03 1.03 0 0 1-.352.097c-.127.014-.24.028-.339.028-.113 0-.254-.014-.409-.028-.155-.014-.31-.028-.48-.056-.155-.014-.31-.027-.451-.055-.141-.014-.24-.028-.311-.028-.113 0-.211.014-.324.028a1.15 1.15 0 0 0-.311.097v-2.044h-.733v4.979h.733v-2.198a.91.91 0 0 1 .311-.097c.113-.028.211-.028.324-.028.071 0 .184.014.311.028.141.014.282.028.451.056.155.013.325.027.48.055.155.014.296.028.409.028.099 0 .212-.014.339-.028.127-.014.24-.055.338-.097v2.322h.734v-4.979h-.72v-.014Zm-7.943 0v4.98h.72v-4.98h-.72Zm-7.323 0 .31.738h.58c-.029.25-.057.5-.1.765-.042.25-.084.5-.14.751-.057.25-.127.486-.226.709-.099.222-.198.445-.339.667a2.02 2.02 0 0 1-.268.348 1.307 1.307 0 0 1-.226.195.752.752 0 0 1-.197.083c-.057.014-.127.014-.184.014h-.14v.737h.14c.07 0 .141 0 .24-.014.099-.013.198-.027.296-.055a1.57 1.57 0 0 0 .31-.139 1.01 1.01 0 0 0 .297-.251c.198-.236.381-.514.522-.806.141-.306.254-.612.353-.946.099-.334.17-.668.24-1.015.056-.348.099-.682.141-1.002h1.453v4.242h.734v-4.979h-3.796v-.042Zm-3.696 4.242h-.085c-.056 0-.127 0-.183-.014a1.53 1.53 0 0 1-.198-.069 1.104 1.104 0 0 1-.211-.167 1.915 1.915 0 0 1-.24-.292l-.903-1.335 1.665-2.337h-.89l-1.283 1.864c-.155.083-.31.139-.466.153-.169.028-.324.042-.48.042h-.338v-2.059h-.734v4.979h.734v-2.183h.423c.127 0 .24-.014.367-.028s.24-.056.367-.097l.973 1.529c.113.181.226.334.339.432.113.111.212.18.31.236a.866.866 0 0 0 .31.097c.114.014.213.028.34.028h.267v-.737c-.042-.042-.07-.042-.084-.042ZM81.273 115h-.818l.282.612-2.186 4.451h.804l.127-.237a.559.559 0 0 1 .155-.167c.07-.055.183-.111.31-.153.127-.055.282-.083.452-.125a3.99 3.99 0 0 1 .606-.042h1.538l.325.724h.832L81.273 115Zm0 3.602c-.352 0-.634.028-.846.084a1.381 1.381 0 0 0-.452.194l1.115-2.378 1.1 2.1h-.916Zm-6.377-3.519v1.934a1.055 1.055 0 0 1-.338.097c-.127.014-.24.028-.339.028-.113 0-.254-.014-.41-.028a6.34 6.34 0 0 1-.479-.056c-.155-.014-.31-.027-.451-.055-.142-.014-.24-.028-.31-.028-.114 0-.212.014-.325.028a1.146 1.146 0 0 0-.31.097v-2.044H71.2v4.979h.733v-2.198a.908.908 0 0 1 .31-.097c.114-.028.212-.028.325-.028.07 0 .184.014.31.028.142.014.283.028.452.056.155.013.325.027.48.055.155.014.296.028.409.028.099 0 .212-.014.339-.028.127-.014.24-.055.338-.097v2.322h.734v-4.979h-.734v-.014Zm-6.9.821c-.07-.181-.168-.32-.295-.445a1.118 1.118 0 0 0-.466-.278 1.671 1.671 0 0 0-.607-.098h-2.596v4.98h.734v-1.92a1.53 1.53 0 0 1 .48-.167 2.94 2.94 0 0 1 .494-.041h.888c.226 0 .424-.028.607-.098.183-.069.339-.167.466-.292.127-.125.225-.278.296-.459.07-.181.099-.375.099-.598 0-.208-.043-.403-.1-.584Zm-1.382 1.307h-.889c-.169 0-.324.014-.493.028-.156.028-.31.084-.466.167v-1.599h1.862c.24 0 .424.055.55.153.128.097.184.278.184.528 0 .487-.254.723-.748.723Zm-8-2.211h-.818l.282.612-2.187 4.451h.805l.127-.237a.561.561 0 0 1 .155-.167c.07-.055.183-.111.31-.153.127-.055.282-.083.452-.125.183-.028.38-.042.606-.042h1.538l.325.724h.832L58.614 115Zm0 3.602c-.352 0-.634.028-.832.084a1.38 1.38 0 0 0-.451.194l1.114-2.378 1.1 2.1h-.93Zm-6.377-3.519v1.934a1.056 1.056 0 0 1-.339.097c-.127.014-.24.028-.338.028-.113 0-.254-.014-.41-.028-.154-.014-.31-.028-.479-.056-.155-.014-.31-.027-.452-.055-.14-.014-.24-.028-.31-.028-.113 0-.212.014-.324.028a1.145 1.145 0 0 0-.31.097l.013-2.044h-.733v4.979h.733v-2.198a.907.907 0 0 1 .31-.097c.114-.028.212-.028.325-.028.07 0 .184.014.31.028.142.014.283.028.452.056.155.013.325.027.48.055.155.014.296.028.409.028.099 0 .212-.014.339-.028.127-.014.24-.055.338-.097v2.322h.734v-4.979h-.748v-.014Zm-7.943 0-2.963 3.839v-3.839h-.734v4.98h.734l2.963-3.839v3.839h.733v-4.98h-.733Zm-6.914.821c-.07-.181-.169-.32-.296-.445a1.118 1.118 0 0 0-.466-.278 2.038 2.038 0 0 0-.606-.098h-2.596v4.98h.733v-1.92a1.53 1.53 0 0 1 .48-.167c.17-.028.325-.041.494-.041h.889c.225 0 .423-.028.606-.098.184-.069.339-.167.466-.292.127-.125.226-.278.296-.459.07-.181.113-.375.113-.598a1.96 1.96 0 0 0-.113-.584Zm-1.382 1.307h-.89c-.169 0-.324.014-.493.028-.155.028-.31.084-.466.167v-1.599h1.849c.24 0 .423.055.55.153.127.097.183.278.183.528.014.487-.24.723-.733.723Zm-8.917 2.114v-1.265c.155-.084.31-.125.465-.153.155-.028.325-.042.48-.042h1.1v-.737h-1.1c-.17 0-.325.014-.494.028-.155.014-.31.069-.465.167v-1.516h2.821v-.737h-3.555v4.979h3.852v-.738H27.08v.014Zm-8.014-4.242v.738h1.806v4.242h.72v-4.242h1.777v-.738h-4.303Zm-5.785 4.242v-1.265c.155-.084.31-.125.466-.153.155-.028.324-.042.48-.042h1.1v-.737H14.24c-.169 0-.324.014-.493.028-.156.014-.31.069-.466.167v-1.516h2.822v-.737h-3.556v4.979H16.4v-.738h-3.118v.014Zm-4.05-1.098a1.75 1.75 0 0 0-.154-.362 1.063 1.063 0 0 0-.226-.264 1.32 1.32 0 0 0-.254-.167.803.803 0 0 0 .338-.403c.071-.167.113-.376.113-.585a1.49 1.49 0 0 0-.113-.584 1.35 1.35 0 0 0-.31-.431 1.156 1.156 0 0 0-.48-.264 2.02 2.02 0 0 0-.592-.084H5v4.98h2.568c.211 0 .423-.028.62-.07.212-.056.396-.125.565-.236.17-.112.296-.251.395-.418.099-.167.155-.375.155-.626 0-.18-.028-.347-.07-.486Zm-3.484-2.406h1.82c.226 0 .395.041.536.139.141.097.212.264.212.5 0 .237-.07.404-.198.515-.127.111-.31.167-.55.167h-.86c-.17 0-.325.014-.495.028-.155.027-.31.083-.465.167v-1.516Zm2.723 3.101a.58.58 0 0 1-.226.223.967.967 0 0 1-.296.125 1.264 1.264 0 0 1-.31.041H5.733v-1.251c.155-.084.31-.139.465-.167.17-.028.325-.042.48-.042h.86c.128 0 .24.014.367.028.127.028.226.056.325.111.099.056.17.125.226.223a.685.685 0 0 1 .084.361.447.447 0 0 1-.07.348ZM111.072 16.236a1.64 1.64 0 0 0 .074-1.706 1.74 1.74 0 0 0-1.522-.883H99.155a11.78 11.78 0 0 0-4.553.931c-.11.049-.209.085-.307.133-1.644.75-3.08 1.96-4.16 3.497l-1.841 2.722c-.234-.06-.43-.11-.467-.121-.233-.06-.466-.11-.7-.158a3.264 3.264 0 0 1-.159-.036 81.04 81.04 0 0 0-6.001-17.433 4.257 4.257 0 0 0-3.02-2.335A44.812 44.812 0 0 0 69.982 0H68.78c-.295 0-.577 0-.872.012-.282 0-.564.012-.859.024-.27.012-.552.024-.835.049-.27.024-.54.036-.81.06s-.527.036-.797.073c-.258.024-.516.06-.774.084-.245.025-.503.06-.748.097-.246.037-.479.06-.724.11l-.7.108c-.22.036-.454.073-.675.121a1.76 1.76 0 0 0-.245.048l-.369.073c-.405.097-.945.29-1.497.702a4.045 4.045 0 0 0-1.178 1.379c-.025.048-.05.109-.074.157-.061.133-.122.254-.184.387l-.184.4c-.061.133-.135.266-.196.399-.062.145-.135.278-.197.423-.061.145-.135.29-.196.424-.061.145-.135.29-.196.435-.062.145-.135.303-.197.448a5.187 5.187 0 0 0-.196.46c-.061.157-.135.314-.197.471a5.737 5.737 0 0 0-.196.484c-.073.17-.135.327-.209.484-.06.17-.135.339-.196.508-.061.17-.135.34-.196.508-.062.17-.135.34-.197.52-.073.17-.135.351-.196.52-.074.182-.135.364-.196.545a9.65 9.65 0 0 0-.197.545c-.061.181-.135.375-.196.556-.062.182-.135.375-.197.569-.06.193-.135.387-.196.58-.061.194-.135.388-.196.581-.062.194-.123.4-.184.593-.062.206-.123.4-.184.605l-.184.617-.185.617c-.06.218-.122.423-.184.63-.061.217-.122.422-.184.64-.061.218-.122.436-.172.654-.061.217-.122.435-.171.653-.062.218-.11.435-.172.665-.062.23-.11.448-.16.678-.049.23-.11.46-.16.677a1.255 1.255 0 0 1-.048.206c-.369.085-.933.218-1.424.327l-1.853-2.698c-1.068-1.525-2.504-2.734-4.149-3.485a3.36 3.36 0 0 0-.306-.133 11.69 11.69 0 0 0-4.554-.931H28.77c-.638 0-1.227.339-1.521.883a1.667 1.667 0 0 0 .06 1.706l6.653 10.198c-.074.037-.147.073-.233.11a4.017 4.017 0 0 0-2.27 2.867 43.7 43.7 0 0 0-.86 7.924 37.882 37.882 0 0 0 .074 3.424c.037.532.073 1.064.122 1.597.05.508.11 1.004.172 1.512.012.133.037.266.05.4v.011c.048.339.098.678.159 1.017.024.12.037.254.061.375 0 .012 0 .024.012.048 0 .036.013.073.013.097.135.496.368 1.161.822 1.863a6.816 6.816 0 0 0 1.829 1.911c.073.037.16.073.233.11l.7.326.171.085c.283.133.577.254.872.387.294.133.601.254.908.387.319.133.638.266.945.387.331.133.663.266.982.387l1.03.4c.357.133.712.266 1.069.387.368.133.736.266 1.104.387.38.133.761.266 1.141.387.393.133.786.254 1.179.375.405.133.81.254 1.215.375.417.12.834.242 1.264.363.43.12.859.242 1.288.35.442.122.884.23 1.326.34l1.362.326c.233.049.467.097.688.157a81.26 81.26 0 0 0 5.976 17.397 4.338 4.338 0 0 0 3.081 2.384c2.258.447 4.922.786 7.916.835a39.633 39.633 0 0 0 3.473-.073c.54-.036 1.08-.073 1.62-.121.516-.048 1.02-.109 1.535-.17.478-.06.97-.132 1.448-.205.454-.073.896-.145 1.35-.242.135-.024.258-.048.38-.073.05-.012.098-.024.16-.036.344-.085.957-.29 1.485-.774.209-.194.38-.4.503-.58.086-.17.172-.34.258-.521.024-.06.061-.121.086-.181v-.013c.098-.193.184-.387.282-.58l.258-.545c.037-.084.086-.17.123-.266.135-.278.257-.569.392-.847.135-.302.27-.593.393-.895.135-.315.27-.617.405-.932.135-.326.27-.64.405-.968l.405-1.016.405-1.052c.135-.363.27-.726.393-1.09.135-.374.27-.75.392-1.124.135-.387.258-.774.393-1.162.135-.399.258-.798.38-1.21l.369-1.233c.123-.424.245-.847.356-1.27.123-.436.233-.872.344-1.307l.33-1.343c.062-.242.111-.484.173-.726a83.57 83.57 0 0 0 18.066-6.11 3.48 3.48 0 0 0 1.939-2.456 43.86 43.86 0 0 0 .92-8.214l.013-.303v-.883c0-.29-.013-.569-.013-.859-.012-.278-.012-.556-.037-.835a17.45 17.45 0 0 0-.049-.822 16.504 16.504 0 0 0-.061-.799c-.025-.254-.049-.52-.074-.786-.024-.254-.061-.508-.086-.762a14.324 14.324 0 0 0-.098-.738l-.11-.714-.111-.69c-.037-.23-.073-.447-.122-.665-.013-.097-.037-.194-.05-.29l-.073-.363-.074-.363v-.012a3.537 3.537 0 0 0-.675-1.235 4.24 4.24 0 0 0-.798-.713h-.012c-.11-.06-.221-.11-.331-.157-.123-.061-.258-.121-.381-.182a1.691 1.691 0 0 0-.221-.097l6.652-10.295Zm-31.468 44.8-.061.12c-.098.218-.221.424-.344.641h-.012c-1.767 2.698-4.7 4.598-7.916 5.19-.123.025-.246.037-.368.06l-.283.037c-.036 0-.073.012-.11.012-.258.025-.516.049-.773.06-.135.013-.27.013-.405.013h-.578c-.06 0-.134 0-.195-.012-.11-.012-.221-.012-.344-.024-3.89-.376-7.376-3.146-9.512-6.449-.012-.012-.012-.012-.012-.024l-.025-.06L29.42 15.715h9.757a10.018 10.018 0 0 1 3.989.872c1.3.592 2.442 1.56 3.301 2.77l3.866 5.638c.209-.605.491-1.283.908-1.972.135-.206.332-.508.356-.52a10.44 10.44 0 0 1 1.522-1.755c1.853-1.875 4.418-3.641 7.462-4.645 2.737-.896 9.904-2.565 17.244 1.463 2.282 1.259 4.173 3.194 5.51 5.142.013.012.025.037.05.06l.012.013c.564.774 1.166 1.73 1.693 2.855.099.206.184.423.283.641.257.617.454 1.198.626 1.754l5.866-8.662c.86-1.222 2-2.19 3.302-2.782l.257-.11a10.068 10.068 0 0 1 3.731-.761h9.77l-29.32 45.32Z" fill="#fff"/><path d="M78.696 52.506a7.283 7.283 0 0 1-1.386 2.71c-1.142 1.404-2.774 2.323-4.566 2.698-2.823.593-8.198 1.15-13.451-1.621-1.338-.702-4.124-2.214-6.137-5.432-3.485-5.553-1.829-11.59-1.473-12.788.909 2.081 2.86 5.65 6.812 8.275 1.252.823 6.32 3.255 11.033 2.541.97-.145 2.934-.871 3.326-2.746.295-1.38-.503-2.82-.81-3.218.59.084 3.29.508 5.204 2.915.282.363 2.393 3.11 1.448 6.666Z" fill="url('#paint0_linear_637_21990')"/><path d="M65.356 27.5c-.185-.279-.835-.182-1.486.217-.638.387-1.018.944-.834 1.222.184.278.834.182 1.473-.206.65-.41 1.03-.955.847-1.234ZM86.49 31.2c-.148-.254-.32-.508-.491-.774-.05-.06-.098-.133-.147-.206-.05-.084-.111-.169-.185-.253-.024-.037-.061-.085-.085-.122-.135-.181-.27-.375-.43-.556-.11-.145-.233-.29-.356-.436-.196-.241-.393-.46-.59-.665v-.024c-.073-.266-.159-.532-.245-.81-.012-.025-.012-.061-.024-.085-.012-.012-.012-.037-.012-.049-.062-.181-.123-.363-.197-.532-.012-.036-.024-.06-.037-.097v-.012c-.085-.23-.184-.448-.257-.665 0 0 0-.012-.013-.025a12.64 12.64 0 0 0-.405-.81c-1.129-2.105-3.117-4.646-5.903-6.17-6.811-3.739-13.476-2.19-16.016-1.355a17.232 17.232 0 0 0-4.689 2.407c-.122.097-.257.182-.38.279l-.11.072a12.19 12.19 0 0 0-1.952 1.851c-.037.049-.074.085-.11.133-.05.049-.086.11-.135.17a.37.37 0 0 0-.062.084s0 .012-.012.012c-.025.025-.037.049-.061.073-.074.097-.148.206-.234.315-.024.036-.049.06-.06.096-.038.049-.062.097-.1.145-.011.013-.024.037-.036.049-.024.036-.049.06-.074.097l-.11.181c-.11.182-.221.363-.344.569 0 .012-.012.012-.012.024s-.012.012-.012.024l-.037.073-.037.072a.362.362 0 0 0-.049.097c-.098.182-.184.363-.27.544a13.158 13.158 0 0 0-.663 1.803c-.073.266-.135.508-.184.75-.061.303-.11.581-.147.835v.048a10.74 10.74 0 0 0 0 2.432c.196 1.827.834 3.315 1.473 4.416.43-.315.945-.472 2.27-1.174.368-.193 1.289-.617 1.682-.822-.246-.666 0-1.416.564-1.863.601-.484 1.24-1.04 1.902-1.682a21.556 21.556 0 0 0 1.731-1.924 7.594 7.594 0 0 1 2.639-2.129c.012 0 .012-.012.024-.012a8.866 8.866 0 0 1 2.627-.81c1.595-.303 8.112-1.404 14.568 2.468 4.897 2.94 7.118 7.137 7.904 8.831a19.667 19.667 0 0 0-2.111-4.887Zm.294 10.889c-.712-3.63-2.761-5.989-3.755-6.98-3.866-3.872-8.788-4.15-9.966-4.199.81-.157 1.73-.278 2.725-.35a22.2 22.2 0 0 1 3.988.096c-1.288-.448-3.743-1.113-6.75-.641a12.9 12.9 0 0 0-.724.133c-1.497.314-2.896.956-4.173 1.803-2.221 1.476-4.21 2.117-5.474 2.42 0 0-3.436.822-5.24-.267-.086-.048-.172-.06-.344-.254-.712.4-1.387.823-2.123 1.246-.552.315-1.203.666-1.755.92.331.471.626.834.822 1.064 3.142 3.775 7.61 4.537 9.806 4.912 3.118.532 5.842.23 7.818-.218 3.805.206 7.106 2.48 8.456 5.783 1.62 4.017-.43 7.634-.7 8.094.921-.363 4.898-2.02 6.763-6.291 1.4-3.158.872-6.037.626-7.271Zm-33.26-7.066c-.282.073-.577.182-.822.194.16.278.331.532.479.75.122-.145.331-.35.49-.496.16-.145 1.142-.883 1.277-.968-.061.037-1.007.424-1.424.52Z" fill="url('#paint1_linear_637_21990')"/><path d="M52.628 24.075c-.037.073-.074.133-.11.206.024-.048.049-.097.086-.157 0-.024.012-.037.024-.049ZM53.352 22.939c-.085.133-.184.253-.27.387.086-.134.184-.267.27-.387ZM53.843 22.285c-.086.109-.172.23-.27.339.098-.121.184-.242.27-.339Z" fill="#fff"/><defs><linearGradient id="paint0_linear_637_21990" x1="26.483" y1="58.397" x2="73.446" y2="44.334" gradientUnits="userSpaceOnUse"><stop offset="1" stop-color="#fff"/></linearGradient><linearGradient id="paint1_linear_637_21990" x1="56.736" y1="13.786" x2="85.65" y2="57.409" gradientUnits="userSpaceOnUse"><stop offset=".59" stop-color="#fff"/></linearGradient></defs></svg>