<svg width="15" height="18" fill="none" xmlns="http://www.w3.org/2000/svg"><path d="M14.004 8.186c0 4.558-6.183 8.812-6.183 8.812S1.64 12.744 1.64 8.186c0-1.692.651-3.316 1.81-4.512a6.087 6.087 0 0 1 4.372-1.87c1.64 0 3.213.673 4.372 1.87a6.487 6.487 0 0 1 1.811 4.512Z" stroke="#04A427" stroke-width=".796" stroke-linecap="round" stroke-linejoin="round"/><path d="M7.822 9.707c.813 0 1.472-.68 1.472-1.52 0-.839-.66-1.519-1.472-1.519-.813 0-1.472.68-1.472 1.52 0 .838.659 1.519 1.472 1.519Z" fill="#04A427" stroke="#04A427" stroke-width=".796" stroke-linecap="round" stroke-linejoin="round"/></svg>