<svg width="14" height="13" fill="none" xmlns="http://www.w3.org/2000/svg"><path d="M12.832 5.728c.05 0 .089.076.114.228.05.152.076.317.076.494s-.025.355-.076.532c-.025.152-.063.228-.114.228h-5.51v5.51c0 .05-.101.101-.304.152a4.04 4.04 0 0 1-.57.038c-.43 0-.646-.038-.646-.114V7.21H.292c-.05 0-.101-.076-.152-.228a4.036 4.036 0 0 1-.038-.57c0-.177.013-.33.038-.456.05-.152.089-.228.114-.228h5.548V.218c0-.05.076-.089.228-.114.177-.05.355-.076.532-.076.177 0 .342.025.494.076.177.025.266.063.266.114v5.51h5.51Z" fill="#04A427"/></svg>