<svg width="101" height="90" fill="none" xmlns="http://www.w3.org/2000/svg"><path d="M28.27 47.576c.885-2.074 1.855-4.394 1.439-6.344-.284-1.332-1.44-2.524-2.732-3.297-.356-.213-.787-.426-1.322-.41-.124.005-.268.018-.338.13-.341.538-.045 2.425-.032 2.575.412 4.52.806 9.771 4.293 13.078.677.642 2.35 2.295 3.762 2.192 1.563-.115 1.795-2.966 1.469-3.483-.897-1.424-5.484 2.43-6.318 3.152-.15.13-.29.264-.43.398-.227.22-.195.203.122.015 1.835-1.09 3.578-2.42 5.217-3.665 2.788-2.115 5.753-4.316 8.105-6.706.571-.58.823-.953.71-1.513-.114-.566-1.686-1.166-1.888-.062-.165.898.043 1.799.382 2.557.183.41.853 1.304 1.211.843 1.013-1.304.897-3.604.938-4.782.064-1.842-.17-3.583-.368-5.359-.094-.845 1.178 1.27 1.678 1.954 2.076 2.845 4.3 5.671 5.828 8.792.688 1.406 1.445 2.921-1.275 4.097-2.445 1.057-5.599 1.63-8.044 1.655-5.557.059-6.512-3.361-4.882-7.271 1.785-4.282 4.477-8.518 6.458-12.789 1.535-3.31 2.813-6.624 3.5-9.923.175-.842.568-3.165-.185-2.405-.375.38.227.752.382 1.111a618.45 618.45 0 0 0 3.585 8.159c.323.72.65 1.439.98 2.156.156.34.297.687.48 1.015.03.055.08.178.156.127.321-.213.419-2.157.438-2.272.077-.471-.04-3.555 1.031-1.472 3.286 6.393 5.57 13.37 8.211 20.023 2.555 6.43 5.72 12.924 7.195 19.773.227 1.052.525 1.936-1.226 2.22-2.01.327-3.876-.099-5.407-.671-3.57-1.334-4.404-4.15-3.996-7.45.33-2.665 1.337-5.398 2.003-8.089.359-1.447.503-2.839.712-4.267" stroke="#04A427" stroke-width=".816" stroke-linecap="round"/><path d="M50.956 37.498c-.384-.521-2.391-2.612-3.775-1.566-.744.564-1.186 1.602-1.461 2.266-.55 1.324-.276 2.576 1.058 3.22 2.195 1.057 3.743-3.39 3.76-3.385.858.182 1.551.982 2.224-.1 3.048-4.9 4.654-10.511 4.7-15.311.014-1.46-.267-3.938-2.543-4.192-.947-.106.976 1.125 1.524 1.649 5.71 5.448 10.585 11.409 15.99 17.047.884.922 1.534.813-.385 1.693-5.099 2.339-10.249 4.64-15.474 6.708-3.067 1.214-7.33 3.086-10.617 3.117-1.663.016-2.512-.818-2.426-2.085.197-2.892 2.533-6.357 4.215-9.165 1.992-3.328 4.328-6.594 6.311-9.92.774-1.3 1.402-2.567 1.546-3.868.142-1.27-.153-1.01.134-2.242.799-3.43 2.949-9.832 9.015-10.241 1.25-.084 2.415.127 3.524.332.493.091 1.254.16 1.535.494.586.695-.587 2.769-.877 3.408-3.24 7.12-7.405 14.188-10.495 21.318-.35.805.424.776 1.115 1.05 3.792 1.502 6.323 4.614 8.837 7.078a145.475 145.475 0 0 1 5.534 5.718c.17.186.333.375.5.563.182.206.27.444.259.044-.365-12.732-.337-25.564-1.18-38.188-.24-3.574-.703-7.046-1.156-10.558-.118-.912.194-.12.31.116 1.74 3.541 2.487 7.498 4.025 11.124.842 1.987 1.78 3.712 3.796 5.01.905.582 1.952.982 2.933 1.486.643.33-.119 1.923-.21 2.47-.419 2.512-.303 4.702.21 6.99" stroke="#04A427" stroke-width=".816" stroke-linecap="round"/><path d="M83.305 29.649c-.532-1.329.654-2.972 1.462-4.39.363-.637 1.004-1.07 1.486-1.657.102-.125.117-.272.29-.341M19.41 50.046c-1.437-1.49-6.049.803-7.29 2.219-3.439 3.923-.474 8.076 1.904 10.556 3.312 3.453 8.417 7.046 14.772 7.532 1.09.083 2.59.218 3.807-.46 1.157-.644 1.445-1.722 1.69-2.555.878-2.985.111-5.577-1.056-8.03-.637-1.338-1.34-2.834-2.373-3.988-.26-.29-.43-.008-.698.241" stroke="#04A427" stroke-width=".816" stroke-linecap="round"/></svg>