<svg width="48" height="48" fill="none" xmlns="http://www.w3.org/2000/svg"><circle cx="24" cy="24" r="17" fill="#fff" fill-opacity=".75" shape-rendering="crispEdges"/><path d="M19.303 25.214c-.222 0-.411-.043-.567-.13-.133-.101-.2-.224-.2-.369v-.824c0-.144.067-.26.2-.347.156-.1.345-.151.567-.151h10.002c.222 0 .4.05.534.151.155.087.233.203.233.347v.824c0 .145-.078.268-.233.369-.134.087-.312.13-.534.13H19.303Z" fill="#04A427"/><path d="M25.215 29.303c0 .223-.043.412-.13.567a.45.45 0 0 1-.369.2h-.824a.397.397 0 0 1-.347-.2 1.017 1.017 0 0 1-.151-.567V19.301c0-.222.05-.4.151-.533.087-.156.203-.233.347-.233h.824c.145 0 .268.077.369.233.087.133.13.311.13.533v10.003Z" fill="#04A427"/></svg>