<svg width="129" height="24" fill="none" xmlns="http://www.w3.org/2000/svg"><path d="M11.37 3.467c.271-.977 1.655-.977 1.927 0l1.236 4.447a1 1 0 0 0 1.006.732l4.612-.2c1.012-.043 1.44 1.274.596 1.833l-3.848 2.55a1 1 0 0 0-.385 1.184l1.614 4.324c.355.95-.765 1.763-1.558 1.133l-3.615-2.872a1 1 0 0 0-1.244 0L8.097 19.47c-.793.63-1.913-.183-1.559-1.133l1.614-4.324a1 1 0 0 0-.384-1.184L3.92 10.28c-.845-.56-.417-1.876.595-1.832l4.612.199a1 1 0 0 0 1.007-.732l1.236-4.447ZM37.37 3.467c.271-.977 1.656-.977 1.927 0l1.236 4.447a1 1 0 0 0 1.006.732l4.612-.2c1.012-.043 1.44 1.274.596 1.833l-3.848 2.55a1 1 0 0 0-.385 1.184l1.614 4.324c.355.95-.765 1.763-1.559 1.133l-3.614-2.872a1 1 0 0 0-1.244 0l-3.614 2.872c-.793.63-1.913-.183-1.559-1.133l1.614-4.324a1 1 0 0 0-.384-1.184l-3.848-2.55c-.845-.56-.417-1.876.595-1.832l4.612.199a1 1 0 0 0 1.007-.732l1.236-4.447ZM63.37 3.467c.271-.977 1.655-.977 1.927 0l1.236 4.447a1 1 0 0 0 1.006.732l4.612-.2c1.013-.043 1.44 1.274.596 1.833l-3.848 2.55a1 1 0 0 0-.385 1.184l1.615 4.324c.354.95-.766 1.763-1.56 1.133l-3.614-2.872a1 1 0 0 0-1.244 0l-3.614 2.872c-.793.63-1.913-.183-1.559-1.133l1.614-4.324a1 1 0 0 0-.384-1.184l-3.848-2.55c-.845-.56-.417-1.876.596-1.832l4.611.199a1 1 0 0 0 1.007-.732l1.236-4.447ZM89.37 3.467c.271-.977 1.655-.977 1.927 0l1.236 4.447a1 1 0 0 0 1.006.732l4.612-.2c1.013-.043 1.44 1.274.596 1.833l-3.848 2.55a1 1 0 0 0-.385 1.184l1.615 4.324c.354.95-.766 1.763-1.56 1.133l-3.614-2.872a1 1 0 0 0-1.244 0l-3.614 2.872c-.793.63-1.913-.183-1.559-1.133l1.614-4.324a1 1 0 0 0-.384-1.184l-3.848-2.55c-.845-.56-.417-1.876.596-1.832l4.611.199a1 1 0 0 0 1.007-.732l1.236-4.447Z" fill="#04A427"/><path d="M115.37 3.467c.271-.977 1.655-.977 1.927 0l1.236 4.447a1 1 0 0 0 1.006.732l4.612-.2c1.013-.043 1.44 1.274.596 1.833l-3.848 2.55a1 1 0 0 0-.385 1.184l1.614 4.324c.355.95-.765 1.763-1.558 1.133l-3.615-2.872a1 1 0 0 0-1.244 0l-3.614 2.872c-.793.63-1.913-.183-1.559-1.133l1.614-4.324a1 1 0 0 0-.384-1.184l-3.848-2.55c-.845-.56-.417-1.876.595-1.832l4.612.199a1 1 0 0 0 1.007-.732l1.236-4.447Z" fill="#E9E9E9"/></svg>