<svg width="33" height="33" fill="none" xmlns="http://www.w3.org/2000/svg"><rect x="1.824" y="1.197" width="30" height="30" rx="8" stroke="#04A427" stroke-width="2"/><path fill-rule="evenodd" clip-rule="evenodd" d="M24.086 7.81a1.585 1.585 0 0 1 1.503.191c.21.155.371.36.468.592.096.233.124.486.08.733l-2.256 12.82c-.219 1.236-1.668 1.945-2.879 1.33-1.013-.516-2.517-1.31-3.87-2.139-.677-.414-2.75-1.742-2.495-2.687.219-.808 3.701-3.844 5.692-5.649.78-.71.424-1.118-.498-.466-2.29 1.62-5.968 4.083-7.184 4.776-1.073.611-1.632.716-2.301.611-1.22-.19-2.351-.484-3.275-.843-1.248-.485-1.187-2.091 0-2.559l17.015-6.71Z" fill="#04A427"/></svg>