<svg width="52" height="52" fill="none" xmlns="http://www.w3.org/2000/svg"><g filter="url('#filter0_d_858_17082')"><circle cx="25.901" cy="26.099" r="21.099" fill="#fff"/></g><g clip-path="url('#clip0_858_17082')"><path fill-rule="evenodd" clip-rule="evenodd" d="M31.656 18.215a1.412 1.412 0 0 1 1.942 1.532l-2.136 12.958c-.207 1.25-1.578 1.966-2.725 1.344-.959-.521-2.383-1.324-3.664-2.161-.64-.42-2.602-1.761-2.361-2.716.207-.817 3.504-3.886 5.387-5.71.74-.717.403-1.13-.47-.471-2.169 1.637-5.65 4.126-6.8 4.827-1.016.618-1.546.723-2.179.618-1.154-.192-2.225-.49-3.1-.852-1.18-.49-1.123-2.114 0-2.587l16.106-6.782Z" fill="#04A427"/></g><defs><clipPath id="clip0_858_17082"><path fill="#fff" transform="translate(13.091 14.042)" d="M0 0h22.606v22.606H0z"/></clipPath><filter id="filter0_d_858_17082" x=".282" y=".479" width="51.239" height="51.239" filterUnits="userSpaceOnUse" color-interpolation-filters="sRGB"><feFlood flood-opacity="0" result="BackgroundImageFix"/><feColorMatrix in="SourceAlpha" values="0 0 0 0 0 0 0 0 0 0 0 0 0 0 0 0 0 0 127 0" result="hardAlpha"/><feOffset/><feGaussianBlur stdDeviation="2.261"/><feComposite in2="hardAlpha" operator="out"/><feColorMatrix values="0 0 0 0 0.705882 0 0 0 0 0.682353 0 0 0 0 0.654902 0 0 0 0.25 0"/><feBlend in2="BackgroundImageFix" result="effect1_dropShadow_858_17082"/><feBlend in="SourceGraphic" in2="effect1_dropShadow_858_17082" result="shape"/></filter></defs></svg>