<svg width="11" height="11" fill="none" xmlns="http://www.w3.org/2000/svg"><g clip-path="url('#clip0_637_23931')"><path d="M5.5.916a4.583 4.583 0 1 1 0 9.166 4.583 4.583 0 0 1 0-9.166Zm0 .917a3.667 3.667 0 1 0 0 7.333 3.667 3.667 0 0 0 0-7.333Zm0 .916a.458.458 0 0 1 .455.405l.003.054V5.31L7.2 6.55a.458.458 0 0 1-.605.686l-.043-.038-1.375-1.375a.458.458 0 0 1-.13-.264l-.004-.06V3.208a.458.458 0 0 1 .458-.459Z" fill="#F3FFF6" stroke="#F3FFF6" stroke-width=".084"/></g><defs><clipPath id="clip0_637_23931"><path fill="#fff" d="M0 0h11v11H0z"/></clipPath></defs></svg>