<svg width="29" height="32" fill="none" xmlns="http://www.w3.org/2000/svg"><path fill-rule="evenodd" clip-rule="evenodd" d="M15.807 9.558c2.32-1.148 2.693-4.2 1.555-6.475C16.168.633 13.704-.383 11.496.678c-2.285 1.093-2.902 3.807-1.748 6.08 1.034 2.26 3.775 3.91 6.06 2.8Zm8.698-4.266c-1.006-.425-2.134-.426-3.177-.007-2.29.929-3.216 3.425-2.208 5.928.912 2.362 3.484 4.089 5.868 3.128 2.374-.964 3.018-4.044 2.045-6.334-.513-1.28-1.415-2.242-2.528-2.715ZM8.47 14.102c-.798.617-1.79.864-2.842.73-3.93-.493-6.653-5.875-3.193-8.542 3.353-2.556 7.486.93 7.483 4.636.002 1.3-.523 2.456-1.448 3.177Zm5.06.03c-3.79 2.416-2.425 12.562-.907 15.395 2.348 3.762 6.357 1.49 9.992-.823l.006-.004c.283-.183.566-.361.845-.538 2.393-1.515 4.574-2.895 4.936-5.279.106-.886-.123-1.793-.686-2.702-1.834-2.595-10.372-8.368-14.187-6.05ZM8.352 17.95c1.011 1.138 1.542 2.574 1.457 3.946-.065 1.08-.518 2.042-1.268 2.707-1.926 1.7-4.967.91-6.581-.991-.915-1.041-1.381-2.273-1.308-3.48a4.114 4.114 0 0 1 1.409-2.847c1.848-1.643 4.496-1.36 6.291.665Z" fill="#06631B"/></svg>