<svg width="55" height="54" fill="none" xmlns="http://www.w3.org/2000/svg"><g filter="url('#filter0_d_2066_660')"><ellipse cx="27.283" cy="27" rx="21.283" ry="21" fill="#F3FFF6"/><path d="M48.065 27c0 11.316-9.298 20.5-20.782 20.5C15.798 47.5 6.5 38.316 6.5 27S15.798 6.5 27.283 6.5c11.484 0 20.782 9.184 20.782 20.5Z" stroke="#04A427" stroke-opacity=".15"/></g><path d="M21.402 28.5c-.278 0-.515-.054-.71-.16-.167-.126-.25-.277-.25-.456v-1.018c0-.178.083-.321.25-.428.195-.125.432-.188.71-.188h12.522c.278 0 .5.063.668.188.194.107.292.25.292.428v1.018c0 .178-.098.33-.292.455-.167.107-.39.161-.668.161H21.402Z" fill="#04A427"/><path d="M28.803 33.553c0 .274-.054.508-.163.7-.127.165-.28.247-.462.247h-1.031a.498.498 0 0 1-.434-.247 1.245 1.245 0 0 1-.19-.7V21.197c0-.274.063-.494.19-.659.108-.192.253-.288.434-.288h1.032c.18 0 .334.096.461.288.109.165.163.385.163.66v12.355Z" fill="#04A427"/><defs><filter id="filter0_d_2066_660" x="0" y="0" width="54.565" height="54" filterUnits="userSpaceOnUse" color-interpolation-filters="sRGB"><feFlood flood-opacity="0" result="BackgroundImageFix"/><feColorMatrix in="SourceAlpha" values="0 0 0 0 0 0 0 0 0 0 0 0 0 0 0 0 0 0 127 0" result="hardAlpha"/><feOffset/><feGaussianBlur stdDeviation="3"/><feComposite in2="hardAlpha" operator="out"/><feColorMatrix values="0 0 0 0 0.0156863 0 0 0 0 0.643137 0 0 0 0 0.152941 0 0 0 0.24 0"/><feBlend in2="BackgroundImageFix" result="effect1_dropShadow_2066_660"/><feBlend in="SourceGraphic" in2="effect1_dropShadow_2066_660" result="shape"/></filter></defs></svg>