<svg width="23" height="30" fill="none" xmlns="http://www.w3.org/2000/svg"><path d="M8.875 2.48A1.435 1.435 0 0 1 10.264.996c.603-.023 1.206-.051 1.81-.085a1.423 1.423 0 0 1 1.507 1.353l.41 9.847a2.6 2.6 0 0 0 .403 1.284l7.472 11.781a1.4 1.4 0 0 1-.395 1.908l-1.613 1.097a1.4 1.4 0 0 1-1.97-.407l-4.07-6.407c-1.01-1.59-3.323-1.612-4.363-.04L4.94 28.155a1.4 1.4 0 0 1-1.984.366l-1.643-1.178a1.4 1.4 0 0 1-.353-1.91l7.897-11.95a2.6 2.6 0 0 0 .428-1.546l-.41-9.457Z" fill="#fff" stroke="#2E2E1F" stroke-width="1.2"/></svg>