<svg width="830" height="266" fill="none" xmlns="http://www.w3.org/2000/svg"><g filter="url('#filter0_d_136_621')"><path d="M395.347 245.211c-25.015 0-28.68-4.398-28.68-27.486V34.592c0-22.617 3.984-28.271 28.68-28.271 1.593 0 1.593-4.712 0-4.712-13.702 0-31.07 1.256-51.624 1.256-19.279 0-37.443-1.256-51.623-1.256-1.275 0-1.275 4.712 0 4.712 24.537 0 29.476 4.712 29.476 27.485v183.919c0 23.088-4.78 27.486-29.476 27.486-1.275 0-1.275 4.712 0 4.712 14.021 0 32.185-.785 51.623-.785 20.554 0 37.444.785 51.624.785 1.593 0 1.593-4.712 0-4.712Z" fill="#fff"/></g><g filter="url('#filter1_d_136_621')"><path d="M677.381.981c-16.571 0-42.382 2.042-61.98 2.042-19.279 0-36.646-1.256-50.827-1.256-1.593 0-1.593 4.712 0 4.712 24.218 0 28.68 4.712 28.68 27.485v183.919c0 23.088-4.78 27.486-29.477 27.486-1.274 0-1.274 4.712 0 4.712 14.022 0 32.185-.786 51.624-.786 21.35 0 50.349 2.356 67.716 2.356 72.178 0 132.883-50.416 132.883-129.889C816 53.44 760.871.982 677.381.982Zm1.593 241.561c-33.778 0-41.107-9.11-41.107-29.057V34.75c0-21.518 12.109-24.973 43.497-24.973 51.943 0 85.084 53.244 85.084 120.78 0 72.562-36.647 111.985-87.474 111.985Z" fill="#fff"/></g><g filter="url('#filter2_d_136_621')"><path d="M616.196 177.955c-10.038 37.381-43.179 61.097-84.924 61.097h-13.703c-19.757 0-22.944-3.141-22.944-22.617V34.558c0-22.617 3.984-27.8 28.68-27.8 1.594 0 1.594-4.712 0-4.712-13.702 0-31.069 1.257-51.145 1.257-19.28 0-38.24-1.257-51.146-1.257-1.275 0-1.275 4.712 0 4.712 24.537 0 28.998 4.712 28.998 27.486v183.919c0 23.088-4.461 27.486-28.998 27.486-1.275 0-1.275 4.711 0 4.711h190.083c4.462 0 6.055-1.57 6.055-5.968 0-20.732 2.071-48.061 3.664-65.495-.159-1.727-4.142-2.512-4.62-.942Z" fill="#fff"/></g><g filter="url('#filter3_d_136_621')"><path d="M368.585.982c-13.702 0-21.032 1.256-35.85 1.256-20.235 0-31.069-1.256-45.09-1.256-1.594 0-1.594 4.712 0 4.712 20.075 0 28.998 21.046 18.163 49.63l-51.942 136.958-48.277-100.519 14.817-39.265c12.11-31.727 26.609-46.804 44.773-46.804 1.274 0 1.274-4.712 0-4.712-12.11 0-18.164 1.256-31.389 1.256-24.218 0-18.164-1.256-26.13-1.256-1.594 0-1.594 4.712 0 4.712 13.384 0 13.384 14.292 1.274 45.704l-10.038 26.7-17.685-36.909c-14.022-29.37-14.5-35.338 0-35.338 1.593 0 1.593-4.712 0-4.712-8.923 0-18.483 1.256-48.756 1.256-16.889 0-16.889-1.256-25.015-1.256-1.593 0-1.593 4.712 0 4.712 9.719 0 17.367 10.68 25.812 28.27l44.772 93.295-25.334 65.495L80.194 41.189C66.173 11.82 67.288 5.851 89.435 5.851c1.594 0 1.594-4.712 0-4.712-10.834 0-22.625 1.256-58.475 1.256-20.075 0-20.075-1.256-29.476-1.256-1.593 0-1.593 4.712 0 4.712 15.296 0 19.28 4.711 30.592 28.27l102.769 214.86c.797 2.042 8.126 2.042 8.923 0l40.629-107.587 51.624 107.587c.797 2.042 8.126 2.042 8.922 0l74.568-196.169c11.313-29.056 29.795-46.804 49.552-46.804.638-.315.637-5.026-.478-5.026Z" fill="#fff"/></g><defs><filter id="filter0_d_136_621" x="291.144" y="1.609" width="119.249" height="262.164" filterUnits="userSpaceOnUse" color-interpolation-filters="sRGB"><feFlood flood-opacity="0" result="BackgroundImageFix"/><feColorMatrix in="SourceAlpha" values="0 0 0 0 0 0 0 0 0 0 0 0 0 0 0 0 0 0 127 0" result="hardAlpha"/><feOffset dx="9.589" dy="9.589"/><feGaussianBlur stdDeviation="2.131"/><feComposite in2="hardAlpha" operator="out"/><feColorMatrix values="0 0 0 0 0.13839 0 0 0 0 0.255833 0 0 0 0 0.0390145 0 0 0 0.4 0"/><feBlend in2="BackgroundImageFix" result="effect1_dropShadow_136_621"/><feBlend in="SourceGraphic" in2="effect1_dropShadow_136_621" result="shape"/></filter><filter id="filter1_d_136_621" x="562.821" y=".981" width="267.029" height="264.52" filterUnits="userSpaceOnUse" color-interpolation-filters="sRGB"><feFlood flood-opacity="0" result="BackgroundImageFix"/><feColorMatrix in="SourceAlpha" values="0 0 0 0 0 0 0 0 0 0 0 0 0 0 0 0 0 0 127 0" result="hardAlpha"/><feOffset dx="9.589" dy="9.589"/><feGaussianBlur stdDeviation="2.131"/><feComposite in2="hardAlpha" operator="out"/><feColorMatrix values="0 0 0 0 0.13839 0 0 0 0 0.255833 0 0 0 0 0.0390145 0 0 0 0.4 0"/><feBlend in2="BackgroundImageFix" result="effect1_dropShadow_136_621"/><feBlend in="SourceGraphic" in2="effect1_dropShadow_136_621" result="shape"/></filter><filter id="filter2_d_136_621" x="420.058" y="2.046" width="214.609" height="262.164" filterUnits="userSpaceOnUse" color-interpolation-filters="sRGB"><feFlood flood-opacity="0" result="BackgroundImageFix"/><feColorMatrix in="SourceAlpha" values="0 0 0 0 0 0 0 0 0 0 0 0 0 0 0 0 0 0 127 0" result="hardAlpha"/><feOffset dx="9.589" dy="9.589"/><feGaussianBlur stdDeviation="2.131"/><feComposite in2="hardAlpha" operator="out"/><feColorMatrix values="0 0 0 0 0.13839 0 0 0 0 0.255833 0 0 0 0 0.0390145 0 0 0 0.4 0"/><feBlend in2="BackgroundImageFix" result="effect1_dropShadow_136_621"/><feBlend in="SourceGraphic" in2="effect1_dropShadow_136_621" result="shape"/></filter><filter id="filter3_d_136_621" x=".289" y=".982" width="383.055" height="263.381" filterUnits="userSpaceOnUse" color-interpolation-filters="sRGB"><feFlood flood-opacity="0" result="BackgroundImageFix"/><feColorMatrix in="SourceAlpha" values="0 0 0 0 0 0 0 0 0 0 0 0 0 0 0 0 0 0 127 0" result="hardAlpha"/><feOffset dx="9.589" dy="9.589"/><feGaussianBlur stdDeviation="2.131"/><feComposite in2="hardAlpha" operator="out"/><feColorMatrix values="0 0 0 0 0.13839 0 0 0 0 0.255833 0 0 0 0 0.0390145 0 0 0 0.4 0"/><feBlend in2="BackgroundImageFix" result="effect1_dropShadow_136_621"/><feBlend in="SourceGraphic" in2="effect1_dropShadow_136_621" result="shape"/></filter></defs></svg>