<svg width="52" height="52" fill="none" xmlns="http://www.w3.org/2000/svg"><g filter="url('#filter0_d_858_17078')"><circle cx="25.634" cy="26.099" r="21.099" fill="#fff"/></g><path d="M36.12 26.049c0 .052 0 .11-.003.179-.002.19-.007.405-.011.633a35.42 35.42 0 0 1-.104 1.929c-.07.85-.174 1.559-.316 2.09a3.285 3.285 0 0 1-2.314 2.32c-.667.18-1.971.29-3.808.358-.874.033-1.808.054-2.743.066-.328.005-.631.007-.905.01h-.692c-.273-.003-.577-.005-.904-.01-.935-.012-1.87-.033-2.743-.066-1.837-.07-3.144-.181-3.808-.358a3.281 3.281 0 0 1-2.315-2.32c-.143-.531-.245-1.24-.315-2.09a35.523 35.523 0 0 1-.104-1.929c-.007-.228-.01-.442-.012-.633l-.002-.18v-.131c0-.052 0-.11.002-.179l.012-.633c.019-.657.052-1.312.104-1.929.07-.85.174-1.559.315-2.09a3.281 3.281 0 0 1 2.315-2.32c.664-.18 1.97-.29 3.808-.358.873-.033 1.808-.055 2.743-.066.327-.005.631-.007.904-.01h.692c.274.003.577.005.905.01.934.012 1.87.033 2.743.066 1.837.07 3.144.181 3.808.358a3.277 3.277 0 0 1 2.314 2.32c.144.531.245 1.24.316 2.09.052.617.085 1.272.103 1.929.008.228.01.442.012.633 0 .068.003.127.003.179v.132Zm-1.696-.123c0-.049 0-.103-.002-.167-.002-.183-.007-.386-.012-.605a31.718 31.718 0 0 0-.099-1.834c-.063-.759-.153-1.38-.264-1.797a1.585 1.585 0 0 0-1.116-1.119c-.494-.131-1.74-.237-3.433-.3a107.415 107.415 0 0 0-3.591-.074h-.673l-.89.007c-.921.012-1.842.033-2.701.066-1.694.066-2.942.17-3.434.301-.541.146-.97.575-1.116 1.119-.11.417-.2 1.038-.264 1.797-.049.581-.08 1.208-.099 1.834-.006.22-.009.424-.011.605 0 .064-.003.12-.003.167v.114c0 .049 0 .103.003.167.002.183.007.386.011.605.017.626.05 1.253.1 1.834.063.758.153 1.38.263 1.797.146.544.575.975 1.116 1.118.495.132 1.74.238 3.434.302a107.415 107.415 0 0 0 3.59.073h.674l.89-.007c.92-.012 1.841-.033 2.701-.066 1.693-.066 2.941-.17 3.433-.302.542-.146.97-.574 1.116-1.118.111-.417.2-1.039.264-1.797.05-.581.08-1.208.099-1.834.007-.22.01-.424.012-.605l.002-.168v-.113Zm-10.95-3.098 5.464 3.178-5.463 3.132v-6.31Z" fill="#04A427"/><defs><filter id="filter0_d_858_17078" x=".014" y=".479" width="51.239" height="51.239" filterUnits="userSpaceOnUse" color-interpolation-filters="sRGB"><feFlood flood-opacity="0" result="BackgroundImageFix"/><feColorMatrix in="SourceAlpha" values="0 0 0 0 0 0 0 0 0 0 0 0 0 0 0 0 0 0 127 0" result="hardAlpha"/><feOffset/><feGaussianBlur stdDeviation="2.261"/><feComposite in2="hardAlpha" operator="out"/><feColorMatrix values="0 0 0 0 0.705882 0 0 0 0 0.682353 0 0 0 0 0.654902 0 0 0 0.25 0"/><feBlend in2="BackgroundImageFix" result="effect1_dropShadow_858_17078"/><feBlend in="SourceGraphic" in2="effect1_dropShadow_858_17078" result="shape"/></filter></defs></svg>