<svg width="639" height="280" fill="none" xmlns="http://www.w3.org/2000/svg"><g filter="url('#filter0_d_136_626')"><path d="M497.65 8.523c-65.326 0-141.805 42.407-141.805 128.634 0 69.892 50.348 128.633 127.784 128.633 76.479 0 141.487-57.642 141.487-131.46-.16-63.767-48.119-125.807-127.466-125.807Zm-.797 247.529c-52.738 0-91.456-55.6-91.456-133.502 0-64.395 26.927-103.19 76.16-103.19 58.475 0 93.847 54.03 93.847 126.749 0 70.521-33.778 109.943-78.551 109.943Z" fill="#fff"/></g><g filter="url('#filter1_d_136_626')"><path d="M273.915 8.523c-65.326 0-141.805 42.407-141.805 128.634 0 69.892 50.349 128.633 127.625 128.633 76.479 0 141.487-57.642 141.487-131.46 0-63.767-47.959-125.807-127.307-125.807Zm-.796 247.529c-52.739 0-91.457-55.6-91.457-133.502 0-64.395 26.927-103.19 76.161-103.19 58.475 0 93.846 54.03 93.846 126.749 0 70.521-33.778 109.943-78.55 109.943Z" fill="#fff"/></g><g filter="url('#filter2_d_136_626')"><path d="M201.094 199.947c-5.258 28.585-34.256 53.244-63.733 53.244H55.942c-3.186 0-3.664-.314-1.593-3.141L193.765 17.756c1.593-1.57-.319-5.183-2.868-5.183H43.833c-20.554 0-24.537-1.57-22.944-11.151.319-1.257-4.461-2.042-4.78-.786L.017 69.744C-.302 71.313 4 72.099 4.797 71c22.625-46.49 51.942-51.673 135.751-51.673 3.664 0 3.664.314 2.071 3.14L1.132 255.548c-1.593 2.042 0 5.183 2.071 5.183 60.069 0 132.883 0 192.952.785 2.39 0 3.664-2.356 3.664-3.926l5.736-57.642c0-1.727-3.983-1.727-4.461 0Z" fill="#fff"/></g><defs><filter id="filter0_d_136_626" x="355.845" y="8.523" width="283.122" height="271.117" filterUnits="userSpaceOnUse" color-interpolation-filters="sRGB"><feFlood flood-opacity="0" result="BackgroundImageFix"/><feColorMatrix in="SourceAlpha" values="0 0 0 0 0 0 0 0 0 0 0 0 0 0 0 0 0 0 127 0" result="hardAlpha"/><feOffset dx="9.589" dy="9.589"/><feGaussianBlur stdDeviation="2.131"/><feComposite in2="hardAlpha" operator="out"/><feColorMatrix values="0 0 0 0 0.13839 0 0 0 0 0.255833 0 0 0 0 0.0390145 0 0 0 0.4 0"/><feBlend in2="BackgroundImageFix" result="effect1_dropShadow_136_626"/><feBlend in="SourceGraphic" in2="effect1_dropShadow_136_626" result="shape"/></filter><filter id="filter1_d_136_626" x="132.11" y="8.523" width="282.962" height="271.117" filterUnits="userSpaceOnUse" color-interpolation-filters="sRGB"><feFlood flood-opacity="0" result="BackgroundImageFix"/><feColorMatrix in="SourceAlpha" values="0 0 0 0 0 0 0 0 0 0 0 0 0 0 0 0 0 0 127 0" result="hardAlpha"/><feOffset dx="9.589" dy="9.589"/><feGaussianBlur stdDeviation="2.131"/><feComposite in2="hardAlpha" operator="out"/><feColorMatrix values="0 0 0 0 0.13839 0 0 0 0 0.255833 0 0 0 0 0.0390145 0 0 0 0.4 0"/><feBlend in2="BackgroundImageFix" result="effect1_dropShadow_136_626"/><feBlend in="SourceGraphic" in2="effect1_dropShadow_136_626" result="shape"/></filter><filter id="filter2_d_136_626" x="0" y="0" width="219.405" height="275.366" filterUnits="userSpaceOnUse" color-interpolation-filters="sRGB"><feFlood flood-opacity="0" result="BackgroundImageFix"/><feColorMatrix in="SourceAlpha" values="0 0 0 0 0 0 0 0 0 0 0 0 0 0 0 0 0 0 127 0" result="hardAlpha"/><feOffset dx="9.589" dy="9.589"/><feGaussianBlur stdDeviation="2.131"/><feComposite in2="hardAlpha" operator="out"/><feColorMatrix values="0 0 0 0 0.13839 0 0 0 0 0.255833 0 0 0 0 0.0390145 0 0 0 0.4 0"/><feBlend in2="BackgroundImageFix" result="effect1_dropShadow_136_626"/><feBlend in="SourceGraphic" in2="effect1_dropShadow_136_626" result="shape"/></filter></defs></svg>