<svg width="56" height="56" viewBox="0 0 56 56" fill="none" xmlns="http://www.w3.org/2000/svg">
<g filter="url(#filter0_d_858_19238)">
<circle cx="28" cy="28" r="19" fill="white"/>
</g>
<path fill-rule="evenodd" clip-rule="evenodd" d="M28.0636 29.54L34.0736 35.55C34.274 35.7435 34.5424 35.8506 34.8209 35.8482C35.0995 35.8458 35.366 35.7341 35.5629 35.5371C35.7599 35.3401 35.8716 35.0736 35.8741 34.7951C35.8765 34.5165 35.7694 34.2481 35.5759 34.0478L29.5659 28.0378L35.5759 22.0278C35.7694 21.8274 35.8765 21.559 35.8741 21.2805C35.8716 21.0019 35.7599 20.7354 35.5629 20.5385C35.366 20.3415 35.0995 20.2298 34.8209 20.2273C34.5424 20.2249 34.274 20.332 34.0736 20.5255L28.0636 26.5355L22.0536 20.5255C21.8524 20.3368 21.5855 20.2338 21.3097 20.2382C21.0338 20.2427 20.7704 20.3544 20.5754 20.5495C20.3804 20.7447 20.2689 21.0081 20.2646 21.284C20.2603 21.5599 20.3636 21.8266 20.5525 22.0278L26.5614 28.0378L20.5514 34.0478C20.4499 34.1458 20.369 34.263 20.3133 34.3926C20.2576 34.5222 20.2283 34.6617 20.2271 34.8027C20.2259 34.9438 20.2527 35.0837 20.3062 35.2142C20.3596 35.3448 20.4385 35.4634 20.5382 35.5632C20.638 35.6629 20.7566 35.7418 20.8872 35.7952C21.0177 35.8487 21.1576 35.8755 21.2987 35.8743C21.4397 35.8731 21.5792 35.8438 21.7088 35.7881C21.8384 35.7324 21.9556 35.6515 22.0536 35.55L28.0636 29.54Z" fill="#04A427"/>
<defs>
<filter id="filter0_d_858_19238" x="0" y="0" width="56" height="56" filterUnits="userSpaceOnUse" color-interpolation-filters="sRGB">
<feFlood flood-opacity="0" result="BackgroundImageFix"/>
<feColorMatrix in="SourceAlpha" type="matrix" values="0 0 0 0 0 0 0 0 0 0 0 0 0 0 0 0 0 0 127 0" result="hardAlpha"/>
<feOffset/>
<feGaussianBlur stdDeviation="4.5"/>
<feComposite in2="hardAlpha" operator="out"/>
<feColorMatrix type="matrix" values="0 0 0 0 0.143914 0 0 0 0 0.1525 0 0 0 0 0.133056 0 0 0 0.08 0"/>
<feBlend mode="normal" in2="BackgroundImageFix" result="effect1_dropShadow_858_19238"/>
<feBlend mode="normal" in="SourceGraphic" in2="effect1_dropShadow_858_19238" result="shape"/>
</filter>
</defs>
</svg>
