<svg width="11" height="12" viewBox="0 0 11 12" fill="none" xmlns="http://www.w3.org/2000/svg">
<g clip-path="url(#clip0_637_23876)">
<path d="M5.30986 1.73633C7.75371 1.73633 9.73472 3.71524 9.73472 6.1565C9.73472 8.59777 7.75371 10.5767 5.30986 10.5767C2.86602 10.5767 0.88501 8.59777 0.88501 6.1565C0.88501 3.71524 2.86602 1.73633 5.30986 1.73633ZM5.30986 2.62036C4.37103 2.62036 3.47065 2.99292 2.80679 3.65608C2.14293 4.31923 1.76998 5.21866 1.76998 6.1565C1.76998 7.09435 2.14293 7.99378 2.80679 8.65693C3.47065 9.32009 4.37103 9.69265 5.30986 9.69265C6.2487 9.69265 7.14908 9.32009 7.81294 8.65693C8.4768 7.99378 8.84975 7.09435 8.84975 6.1565C8.84975 5.21866 8.4768 4.31923 7.81294 3.65608C7.14908 2.99292 6.2487 2.62036 5.30986 2.62036ZM5.30986 3.5044C5.41824 3.50441 5.52285 3.54416 5.60384 3.6161C5.68483 3.68805 5.73657 3.78718 5.74925 3.8947L5.75235 3.94642V5.97351L6.95016 7.17005C7.02952 7.2496 7.07559 7.35633 7.07902 7.46858C7.08245 7.58083 7.04299 7.69018 6.96863 7.77441C6.89428 7.85864 6.79062 7.91145 6.67871 7.9221C6.56679 7.93275 6.45501 7.90045 6.36608 7.83175L6.32448 7.79506L4.99703 6.46901C4.92826 6.40025 4.88409 6.31077 4.87136 6.21441L4.86738 6.1565V3.94642C4.86738 3.82919 4.914 3.71676 4.99698 3.63386C5.07996 3.55097 5.19251 3.5044 5.30986 3.5044Z" fill="#04A427" stroke="#04A427" stroke-width="0.132605"/>
</g>
<defs>
<clipPath id="clip0_637_23876">
<rect width="10.6197" height="10.6084" fill="white" transform="translate(0 0.851562)"/>
</clipPath>
</defs>
</svg>
