<svg width="58" height="77" viewBox="0 0 58 77" fill="none" xmlns="http://www.w3.org/2000/svg">
<g filter="url(#filter0_b_496_4892)">
<path d="M28.5311 45.2046C30.277 45.2046 31.772 44.585 33.0164 43.3458C34.2607 42.1065 34.8818 40.615 34.8797 38.8713C34.8797 37.1296 34.2586 35.6391 33.0164 34.3999C31.7742 33.1607 30.2791 32.54 28.5311 32.5379C26.7853 32.5379 25.2912 33.1586 24.049 34.3999C22.8069 35.6413 22.1847 37.1317 22.1826 38.8713L28.5311 45.2046ZM25.4616 41.9298C24.5897 41.0601 24.1828 40.0767 24.1826 38.8722C24.1844 37.6688 24.5917 36.6851 25.4628 35.8146C26.3322 34.9458 27.3185 34.5381 28.5302 34.5379C29.7464 34.5397 30.7347 34.9488 31.6038 35.8158C32.4731 36.683 32.8797 37.6653 32.8797 38.8713L32.8797 38.8737C32.8811 40.0805 32.4749 41.0623 31.605 41.9286C30.7331 42.797 29.7445 43.2046 28.5311 43.2046H28.5287C27.3201 43.2061 26.3337 42.7999 25.4616 41.9298ZM47.5791 68.5379H47.5767H9.4855C8.27224 68.5379 7.28533 68.1305 6.41595 67.2632C5.5469 66.3962 5.13867 65.4124 5.13696 64.2033V13.5379C5.13696 12.3331 5.54376 11.3511 6.41474 10.4837C7.28754 9.61447 8.27597 9.2063 9.48683 9.20459H33.6391C33.9039 9.20459 34.1579 9.30962 34.3454 9.49664L51.6315 26.7414C51.8196 26.929 51.9253 27.1837 51.9253 27.4493V64.2046C51.9253 65.4107 51.5186 66.3947 50.6483 67.2644C49.7797 68.1323 48.7933 68.5394 47.5791 68.5379ZM39.2249 55.8713H17.8373C17.8669 55.0627 18.0989 54.338 18.5414 53.6589C19.0019 52.9522 19.637 52.411 20.5094 52.0308C21.771 51.4999 23.0659 51.09 24.3953 50.8004C25.7004 50.5162 27.0776 50.3713 28.5311 50.3713C29.9823 50.3713 31.3598 50.5161 32.6675 50.8006C33.999 51.0902 35.2935 51.5 36.5523 52.0306C37.425 52.4108 38.0603 52.952 38.5209 53.6589C38.9633 54.338 39.1953 55.0627 39.2249 55.8713ZM44.5767 66.2046C47.3381 66.2046 49.5767 63.966 49.5767 61.2046V30.141C49.5767 28.8128 49.0483 27.5393 48.108 26.6012L34.4723 12.9982C33.5349 12.0631 32.265 11.5379 30.941 11.5379H12.4855C9.72407 11.5379 7.4855 13.7765 7.4855 16.5379V61.2046C7.4855 63.966 9.72408 66.2046 12.4855 66.2046H44.5767Z" stroke="white" stroke-opacity="0.5" stroke-width="4" stroke-linejoin="round"/>
</g>
<defs>
<filter id="filter0_b_496_4892" x="-36.863" y="-32.7954" width="130.788" height="143.333" filterUnits="userSpaceOnUse" color-interpolation-filters="sRGB">
<feFlood flood-opacity="0" result="BackgroundImageFix"/>
<feGaussianBlur in="BackgroundImageFix" stdDeviation="20"/>
<feComposite in2="SourceAlpha" operator="in" result="effect1_backgroundBlur_496_4892"/>
<feBlend mode="normal" in="SourceGraphic" in2="effect1_backgroundBlur_496_4892" result="shape"/>
</filter>
</defs>
</svg>
