<svg width="33" height="33" viewBox="0 0 33 33" fill="none" xmlns="http://www.w3.org/2000/svg">
<rect x="1.82422" y="1.19727" width="30" height="30" rx="8" stroke="#04A427" stroke-width="2"/>
<path d="M13.7685 12.8164H13.9185V12.6664V10.1878C13.9185 10.1789 13.9185 10.169 13.9184 10.1583C13.9175 9.89503 13.9147 9.09765 14.3714 8.35277C14.8385 7.59077 15.8082 6.85117 17.8634 6.85117H20.6742V9.70657H18.6485C18.3866 9.70657 18.1358 9.83085 17.9536 9.9906C17.7757 10.1465 17.6305 10.366 17.6305 10.5838V12.6538V12.8038H17.7805H20.658C20.5977 13.5354 20.5119 14.2284 20.4391 14.7501C20.4001 15.0299 20.3649 15.2602 20.3394 15.4204C20.3317 15.4688 20.3249 15.5108 20.3192 15.5458H17.7651H17.6151V15.6958V24.5512H13.9185V15.6958V15.5458H13.7685H11.9742V12.8164H13.7685Z" fill="#04A427" stroke="#04A427" stroke-width="0.3"/>
</svg>
