<svg width="15" height="18" viewBox="0 0 15 18" fill="none" xmlns="http://www.w3.org/2000/svg">
<path d="M14.1313 7.65714C14.1313 12.4834 7.50708 16.9879 7.50708 16.9879C7.50708 16.9879 0.882812 12.4834 0.882812 7.65714C0.882812 5.86514 1.58072 4.14653 2.82301 2.8794C4.06531 1.61226 5.75021 0.900391 7.50708 0.900391C9.26394 0.900391 10.9488 1.61226 12.1911 2.8794C13.4334 4.14653 14.1313 5.86514 14.1313 7.65714Z" stroke="#095119" stroke-width="1.2" stroke-linecap="round" stroke-linejoin="round"/>
<path d="M7.50689 9.26633C8.37796 9.26633 9.0841 8.54607 9.0841 7.65758C9.0841 6.76909 8.37796 6.04883 7.50689 6.04883C6.63583 6.04883 5.92969 6.76909 5.92969 7.65758C5.92969 8.54607 6.63583 9.26633 7.50689 9.26633Z" fill="#095119" stroke="#095119" stroke-width="1.2" stroke-linecap="round" stroke-linejoin="round"/>
</svg>
