<svg width="15" height="18" viewBox="0 0 15 18" fill="none" xmlns="http://www.w3.org/2000/svg">
<path d="M13.9421 7.69037C13.9421 12.4692 7.38291 16.9294 7.38291 16.9294C7.38291 16.9294 0.82373 12.4692 0.82373 7.69037C0.82373 5.91597 1.51479 4.21425 2.74487 2.95956C3.97496 1.70488 5.64331 1 7.38291 1C9.12252 1 10.7909 1.70488 12.021 2.95956C13.251 4.21425 13.9421 5.91597 13.9421 7.69037Z" stroke="#04A427" stroke-width="1.25" stroke-linecap="round" stroke-linejoin="round"/>
<path d="M7.38202 9.28062C8.24453 9.28062 8.94373 8.56743 8.94373 7.68767C8.94373 6.80791 8.24453 6.09473 7.38202 6.09473C6.51951 6.09473 5.82031 6.80791 5.82031 7.68767C5.82031 8.56743 6.51951 9.28062 7.38202 9.28062Z" fill="#04A427" stroke="#04A427" stroke-width="1.25" stroke-linecap="round" stroke-linejoin="round"/>
</svg>
