<svg width="68" height="68" viewBox="0 0 68 68" fill="none" xmlns="http://www.w3.org/2000/svg">
<g filter="url(#filter0_d_637_23793)">
<circle cx="33.9995" cy="34.0039" r="28" fill="url(#paint0_linear_637_23793)"/>
</g>
<path d="M41.1198 25.2852C40.8034 25.2852 40.494 25.379 40.2309 25.5549C39.9678 25.7307 39.7627 25.9806 39.6416 26.2729C39.5205 26.5653 39.4888 26.887 39.5506 27.1974C39.6123 27.5077 39.7647 27.7928 39.9885 28.0166C40.2122 28.2403 40.4973 28.3927 40.8077 28.4545C41.1181 28.5162 41.4398 28.4845 41.7321 28.3634C42.0245 28.2423 42.2744 28.0372 42.4502 27.7741C42.626 27.511 42.7198 27.2017 42.7198 26.8852C42.7198 26.4609 42.5513 26.0539 42.2512 25.7538C41.9511 25.4538 41.5442 25.2852 41.1198 25.2852ZM47.2532 28.5119C47.2272 27.4056 47.02 26.3111 46.6398 25.2719C46.3008 24.3827 45.7731 23.5776 45.0932 22.9119C44.4329 22.2284 43.6259 21.7041 42.7332 21.3785C41.6967 20.9868 40.601 20.7748 39.4932 20.7519C38.0798 20.6719 37.6265 20.6719 33.9998 20.6719C30.3732 20.6719 29.9198 20.6719 28.5065 20.7519C27.3987 20.7748 26.303 20.9868 25.2665 21.3785C24.3754 21.7074 23.5691 22.2313 22.9065 22.9119C22.2231 23.5721 21.6987 24.3791 21.3732 25.2719C20.9814 26.3083 20.7695 27.4041 20.7465 28.5119C20.6665 29.9252 20.6665 30.3785 20.6665 34.0052C20.6665 37.6319 20.6665 38.0852 20.7465 39.4985C20.7695 40.6063 20.9814 41.7021 21.3732 42.7385C21.6987 43.6313 22.2231 44.4383 22.9065 45.0985C23.5691 45.7791 24.3754 46.303 25.2665 46.6319C26.303 47.0237 27.3987 47.2356 28.5065 47.2585C29.9198 47.3385 30.3732 47.3385 33.9998 47.3385C37.6265 47.3385 38.0798 47.3385 39.4932 47.2585C40.601 47.2356 41.6967 47.0237 42.7332 46.6319C43.6259 46.3063 44.4329 45.782 45.0932 45.0985C45.7762 44.4353 46.3043 43.6295 46.6398 42.7385C47.02 41.6993 47.2272 40.6048 47.2532 39.4985C47.2532 38.0852 47.3332 37.6319 47.3332 34.0052C47.3332 30.3785 47.3332 29.9252 47.2532 28.5119ZM44.8532 39.3385C44.8435 40.1849 44.6902 41.0235 44.3998 41.8185C44.1869 42.3988 43.845 42.9231 43.3998 43.3519C42.9674 43.7925 42.4441 44.1338 41.8665 44.3519C41.0714 44.6422 40.2329 44.7955 39.3865 44.8052C38.0532 44.8719 37.5598 44.8852 34.0532 44.8852C30.5465 44.8852 30.0532 44.8852 28.7198 44.8052C27.841 44.8217 26.966 44.6863 26.1332 44.4052C25.5809 44.176 25.0816 43.8356 24.6665 43.4052C24.224 42.9769 23.8863 42.4521 23.6798 41.8719C23.3543 41.0654 23.1738 40.2078 23.1465 39.3385C23.1465 38.0052 23.0665 37.5119 23.0665 34.0052C23.0665 30.4985 23.0665 30.0052 23.1465 28.6719C23.1525 27.8066 23.3104 26.9491 23.6132 26.1385C23.8479 25.5758 24.2082 25.0741 24.6665 24.6719C25.0716 24.2134 25.5722 23.8493 26.1332 23.6052C26.9459 23.3119 27.8025 23.1586 28.6665 23.1519C29.9998 23.1519 30.4932 23.0719 33.9998 23.0719C37.5065 23.0719 37.9998 23.0719 39.3332 23.1519C40.1795 23.1616 41.0181 23.3149 41.8132 23.6052C42.4191 23.8301 42.9629 24.1957 43.3998 24.6719C43.8368 25.0814 44.1782 25.5822 44.3998 26.1385C44.6962 26.9505 44.8496 27.8076 44.8532 28.6719C44.9198 30.0052 44.9332 30.4985 44.9332 34.0052C44.9332 37.5119 44.9198 38.0052 44.8532 39.3385ZM33.9998 27.1652C32.6476 27.1678 31.3265 27.5712 30.2034 28.3244C29.0803 29.0776 28.2057 30.1468 27.69 31.3969C27.1744 32.647 27.0408 34.0218 27.3062 35.3478C27.5717 36.6737 28.2242 37.8913 29.1813 38.8465C30.1384 39.8018 31.3572 40.4519 32.6836 40.7147C34.0101 40.9776 35.3847 40.8413 36.6338 40.3233C37.8829 39.8052 38.9503 38.9285 39.7013 37.8039C40.4523 36.6794 40.8532 35.3575 40.8532 34.0052C40.8549 33.1053 40.6788 32.214 40.3348 31.3825C39.9909 30.5509 39.4859 29.7956 38.849 29.1599C38.2121 28.5243 37.4558 28.0208 36.6236 27.6784C35.7914 27.3361 34.8997 27.1617 33.9998 27.1652ZM33.9998 38.4452C33.1217 38.4452 32.2633 38.1848 31.5331 37.6969C30.8029 37.2091 30.2339 36.5156 29.8978 35.7043C29.5618 34.893 29.4738 34.0003 29.6452 33.139C29.8165 32.2777 30.2393 31.4866 30.8603 30.8657C31.4812 30.2447 32.2724 29.8218 33.1336 29.6505C33.9949 29.4792 34.8876 29.5671 35.699 29.9032C36.5103 30.2392 37.2037 30.8083 37.6916 31.5385C38.1794 32.2686 38.4398 33.1271 38.4398 34.0052C38.4398 34.5883 38.325 35.1656 38.1019 35.7043C37.8787 36.243 37.5517 36.7325 37.1394 37.1448C36.7271 37.5571 36.2376 37.8841 35.699 38.1072C35.1603 38.3304 34.5829 38.4452 33.9998 38.4452Z" fill="white"/>
<defs>
<filter id="filter0_d_637_23793" x="-0.000488281" y="0.00390625" width="68" height="68" filterUnits="userSpaceOnUse" color-interpolation-filters="sRGB">
<feFlood flood-opacity="0" result="BackgroundImageFix"/>
<feColorMatrix in="SourceAlpha" type="matrix" values="0 0 0 0 0 0 0 0 0 0 0 0 0 0 0 0 0 0 127 0" result="hardAlpha"/>
<feOffset/>
<feGaussianBlur stdDeviation="3"/>
<feComposite in2="hardAlpha" operator="out"/>
<feColorMatrix type="matrix" values="0 0 0 0 0.705882 0 0 0 0 0.682353 0 0 0 0 0.654902 0 0 0 0.25 0"/>
<feBlend mode="normal" in2="BackgroundImageFix" result="effect1_dropShadow_637_23793"/>
<feBlend mode="normal" in="SourceGraphic" in2="effect1_dropShadow_637_23793" result="shape"/>
</filter>
<linearGradient id="paint0_linear_637_23793" x1="33.9995" y1="62.0039" x2="58.4995" y2="-11.9961" gradientUnits="userSpaceOnUse">
<stop stop-color="#F5B25D"/>
<stop offset="0.333333" stop-color="#E04C55"/>
<stop offset="0.666667" stop-color="#B2388C"/>
<stop offset="1" stop-color="#8D4E9C"/>
</linearGradient>
</defs>
</svg>
