<svg width="46" height="55" viewBox="0 0 46 55" fill="none" xmlns="http://www.w3.org/2000/svg">
<g filter="url(#filter0_b_1051_10443)">
<path d="M8.47842 0H21.4691C24.4446 0 26.1272 0.404975 28.1039 2.22189L28.3326 2.43642L43.4294 16.8284C45.2404 18.5687 45.8145 19.8536 45.958 22.1204L45.986 22.7082L45.9977 23.3419L46 46.9706C46 52.1991 43.2941 54.8916 37.8576 54.9967L37.5216 55H8.47842C2.95683 55 0.11552 52.4377 0.00350089 47.2891L0 46.9706V8.05463C0 2.82607 2.73162 0.109453 8.14353 0.0032836L8.47842 0ZM20.867 4.12965H8.72462C5.97083 4.12965 4.50058 5.5 4.40724 7.88935L4.40257 8.13234V46.8939C4.40257 49.3763 5.78646 50.7773 8.42824 50.8649L8.69662 50.8703H37.3034C40.056 50.8703 41.5018 49.5482 41.5928 47.138L41.5974 46.8939V23.8574H26.0082C22.7141 23.8574 20.9673 22.3568 20.8705 19.3075L20.867 19.0338V4.12965ZM23.0058 39.1042C29.1237 39.1042 32.9382 43.0478 32.9382 45.9056C32.9382 46.8381 32.3326 47.335 30.6569 47.3766L30.4224 47.3788H15.5893C13.7235 47.3788 13.0618 46.8808 13.0618 45.9056C13.0618 43.0489 16.8775 39.1042 23.0058 39.1042ZM23.0058 27.4617C25.5333 27.4617 27.7293 29.4888 27.7293 32.2251C27.7293 34.9942 25.5449 37.122 23.0058 37.122C20.4784 37.122 18.2824 34.9942 18.2824 32.2481C18.2824 29.5336 20.4784 27.4617 23.0058 27.4617ZM24.9965 4.92537V18.5468C24.9965 19.5132 25.3839 19.9335 26.3186 19.9795L26.5006 19.9839H40.748L24.9965 4.92537Z" fill="white" fill-opacity="0.5"/>
<path d="M21.017 4.12965V3.97965H20.867H8.72462C7.3243 3.97965 6.22817 4.32812 5.46877 5.00124C4.70754 5.67598 4.3052 6.65866 4.25735 7.8835L4.25732 7.8835L4.25726 7.88647L4.2526 8.12946H4.25257V8.13234V46.8939C4.25257 48.1628 4.60682 49.1766 5.31904 49.8839C6.03036 50.5903 7.078 50.9702 8.42327 51.0148L8.42518 51.0148L8.69356 51.0203L8.69356 51.0204H8.69662H37.3034C38.7019 51.0204 39.7919 50.6845 40.5454 50.0205C41.3009 49.3546 41.696 48.378 41.7427 47.1437L41.7427 47.1409L41.7474 46.8968H41.7474V46.8939V23.8574V23.7074H41.5974H26.0082C24.3814 23.7074 23.1625 23.3367 22.3394 22.6133C21.5192 21.8924 21.0682 20.8002 21.0204 19.3041C21.0204 19.3036 21.0204 19.3032 21.0204 19.3027L21.017 19.0338V19.0328V4.12965ZM25.1002 4.81695L24.8465 4.57445V4.92537V18.5468C24.8465 19.0459 24.9459 19.438 25.1968 19.71C25.4487 19.9831 25.8258 20.1054 26.3112 20.1293L26.3112 20.1294L26.315 20.1295L26.497 20.1338V20.1339H26.5006H40.748H41.1219L40.8516 19.8755L25.1002 4.81695ZM8.47915 0.15H21.4691C22.9517 0.15 24.0981 0.251197 25.1159 0.572638C26.1303 0.893024 27.0263 1.4353 28.0018 2.33179C28.002 2.33197 28.0022 2.33215 28.0023 2.33233L28.2291 2.54499L28.2299 2.54582L43.3255 16.9365C44.2237 17.7997 44.8062 18.5414 45.1833 19.341C45.5601 20.1397 45.7371 21.0068 45.8082 22.1287C45.8083 22.1291 45.8083 22.1295 45.8083 22.1299L45.8361 22.7131L45.8477 23.3419L45.8477 23.3447L45.85 46.9706C45.85 49.5601 45.1802 51.4958 43.862 52.7982C42.5432 54.1013 40.5511 54.7945 37.8557 54.8467C37.8554 54.8467 37.8551 54.8467 37.8547 54.8467L37.5216 54.85H37.5209H8.47842C5.73836 54.85 3.68993 54.2141 2.31319 52.9642C0.93866 51.7164 0.209052 49.834 0.153483 47.2866C0.153477 47.2863 0.153471 47.2861 0.153465 47.2858L0.15 46.9706V46.9697V8.05463C0.15 5.4654 0.826026 3.52343 2.14784 2.21465C3.4703 0.905223 5.46291 0.20602 8.14573 0.153269C8.14598 0.153264 8.14622 0.15326 8.14647 0.153255L8.47842 0.15H8.47915ZM23.0058 39.2542C26.0321 39.2542 28.4825 40.2294 30.1738 41.5514C31.8704 42.8775 32.7882 44.5387 32.7882 45.9056C32.7882 46.3343 32.6522 46.6394 32.3414 46.8513C32.0173 47.0722 31.4833 47.2059 30.6545 47.2266C30.6541 47.2266 30.6537 47.2267 30.6532 47.2267L30.4224 47.2288H30.4218H15.5893C14.6631 47.2288 14.0665 47.1039 13.7047 46.8803C13.3593 46.6668 13.2118 46.3527 13.2118 45.9056C13.2118 44.5393 14.1298 42.8781 15.828 41.5518C17.521 40.2297 19.9743 39.2542 23.0058 39.2542ZM23.0058 27.6117C25.4531 27.6117 27.5793 29.5743 27.5793 32.2251C27.5793 34.9138 25.4597 36.972 23.0058 36.972C20.5629 36.972 18.4324 34.9131 18.4324 32.2481C18.4324 29.6177 20.56 27.6117 23.0058 27.6117Z" stroke="#759753" stroke-width="0.3"/>
</g>
<defs>
<filter id="filter0_b_1051_10443" x="-10" y="-10" width="66" height="75" filterUnits="userSpaceOnUse" color-interpolation-filters="sRGB">
<feFlood flood-opacity="0" result="BackgroundImageFix"/>
<feGaussianBlur in="BackgroundImageFix" stdDeviation="5"/>
<feComposite in2="SourceAlpha" operator="in" result="effect1_backgroundBlur_1051_10443"/>
<feBlend mode="normal" in="SourceGraphic" in2="effect1_backgroundBlur_1051_10443" result="shape"/>
</filter>
</defs>
</svg>
