<svg width="68" height="68" viewBox="0 0 68 68" fill="none" xmlns="http://www.w3.org/2000/svg">
<g filter="url(#filter0_d_637_23797)">
<circle cx="33.9995" cy="34.0039" r="28" fill="#C7F7D3"/>
</g>
<path d="M26.1662 24.0039C25.0611 24.0039 24.0013 24.4253 23.2199 25.1755C22.4385 25.9256 21.9995 26.943 21.9995 28.0039V28.4059L34.4995 34.8679L46.9995 28.4079V28.0039C46.9995 26.943 46.5605 25.9256 45.7791 25.1755C44.9977 24.4253 43.9379 24.0039 42.8328 24.0039H26.1662ZM46.9995 30.6779L34.9933 36.8839C34.8415 36.9623 34.6719 37.0034 34.4995 37.0034C34.3272 37.0034 34.1575 36.9623 34.0058 36.8839L21.9995 30.6779V40.0039C21.9995 41.0648 22.4385 42.0822 23.2199 42.8323C24.0013 43.5825 25.0611 44.0039 26.1662 44.0039H42.8328C43.9379 44.0039 44.9977 43.5825 45.7791 42.8323C46.5605 42.0822 46.9995 41.0648 46.9995 40.0039V30.6779Z" fill="#06631B"/>
<defs>
<filter id="filter0_d_637_23797" x="-0.000488281" y="0.00390625" width="68" height="68" filterUnits="userSpaceOnUse" color-interpolation-filters="sRGB">
<feFlood flood-opacity="0" result="BackgroundImageFix"/>
<feColorMatrix in="SourceAlpha" type="matrix" values="0 0 0 0 0 0 0 0 0 0 0 0 0 0 0 0 0 0 127 0" result="hardAlpha"/>
<feOffset/>
<feGaussianBlur stdDeviation="3"/>
<feComposite in2="hardAlpha" operator="out"/>
<feColorMatrix type="matrix" values="0 0 0 0 0.705882 0 0 0 0 0.682353 0 0 0 0 0.654902 0 0 0 0.25 0"/>
<feBlend mode="normal" in2="BackgroundImageFix" result="effect1_dropShadow_637_23797"/>
<feBlend mode="normal" in="SourceGraphic" in2="effect1_dropShadow_637_23797" result="shape"/>
</filter>
</defs>
</svg>
