<svg width="68" height="68" viewBox="0 0 68 68" fill="none" xmlns="http://www.w3.org/2000/svg">
<g filter="url(#filter0_d_637_23829)">
<circle cx="33.9995" cy="34.0039" r="28" fill="#6D3C82"/>
</g>
<path d="M28.9558 26.7564C28.7234 26.7226 28.4866 26.7694 28.2845 26.8889H28.267C27.7983 27.1639 27.3758 27.5102 27.0158 27.9177C26.7158 28.2639 26.5533 28.6139 26.5108 28.9514C26.4858 29.1514 26.5033 29.3539 26.562 29.5452L26.5845 29.5577C26.922 30.5489 27.362 31.5027 27.8995 32.4002C28.5926 33.6608 29.4455 34.8266 30.437 35.8689L30.467 35.9114L30.5145 35.9464L30.5433 35.9802L30.5783 36.0102C31.6242 37.0047 32.7928 37.8616 34.0558 38.5602C35.4995 39.3464 36.3758 39.7177 36.902 39.8727V39.8802C37.0558 39.9277 37.1958 39.9489 37.337 39.9489C37.7852 39.9158 38.2094 39.7336 38.542 39.4314C38.9483 39.0714 39.292 38.6477 39.5595 38.1764V38.1677C39.8108 37.6927 39.7258 37.2452 39.3633 36.9414C38.6351 36.3052 37.8478 35.7401 37.012 35.2539C36.452 34.9502 35.8833 35.1339 35.6533 35.4414L35.162 36.0614C34.9095 36.3689 34.452 36.3264 34.452 36.3264L34.4395 36.3339C31.0258 35.4627 30.1145 32.0064 30.1145 32.0064C30.1145 32.0064 30.072 31.5364 30.3883 31.2964L31.0033 30.8014C31.2983 30.5614 31.5033 29.9939 31.187 29.4339C30.704 28.5974 30.1401 27.8103 29.5033 27.0839C29.3644 26.913 29.1696 26.7965 28.9533 26.7552L28.9558 26.7564ZM34.7245 25.2539C34.5587 25.2539 34.3998 25.3198 34.2826 25.437C34.1654 25.5542 34.0995 25.7131 34.0995 25.8789C34.0995 26.0447 34.1654 26.2036 34.2826 26.3208C34.3998 26.4381 34.5587 26.5039 34.7245 26.5039C36.3045 26.5039 37.617 27.0202 38.6558 28.0102C39.1895 28.5514 39.6058 29.1927 39.8783 29.8952C40.152 30.5989 40.277 31.3502 40.2445 32.1027C40.2375 32.2684 40.2967 32.4302 40.409 32.5523C40.5213 32.6744 40.6775 32.7469 40.8433 32.7539C41.009 32.7609 41.1708 32.7017 41.2929 32.5894C41.415 32.4771 41.4875 32.3209 41.4945 32.1552C41.5333 31.2295 41.3796 30.3059 41.0433 29.4427C40.7054 28.5753 40.1932 27.7866 39.5383 27.1252L39.5258 27.1127C38.237 25.8814 36.607 25.2539 34.7245 25.2539Z" fill="white"/>
<path d="M34.6812 27.3098C34.5154 27.3098 34.3564 27.3757 34.2392 27.4929C34.122 27.6101 34.0562 27.7691 34.0562 27.9348C34.0562 28.1006 34.122 28.2596 34.2392 28.3768C34.3564 28.494 34.5154 28.5598 34.6812 28.5598H34.7024C35.8424 28.6411 36.6724 29.0211 37.2537 29.6448C37.8499 30.2873 38.1587 31.0861 38.1349 32.0736C38.1311 32.2394 38.1933 32.3998 38.3078 32.5197C38.4223 32.6397 38.5798 32.7092 38.7455 32.713C38.9113 32.7168 39.0718 32.6546 39.1917 32.5401C39.3116 32.4256 39.3811 32.2681 39.3849 32.1023C39.4149 30.8061 38.9974 29.6873 38.1699 28.7948V28.7923C37.3237 27.8848 36.1624 27.4048 34.7649 27.3111L34.7437 27.3086L34.6812 27.3098Z" fill="white"/>
<path d="M34.657 29.4009C34.5733 29.3935 34.4891 29.403 34.4092 29.4289C34.3293 29.4548 34.2555 29.4966 34.1921 29.5517C34.1287 29.6067 34.0771 29.674 34.0403 29.7495C34.0035 29.8249 33.9823 29.9071 33.9779 29.9909C33.9735 30.0748 33.9861 30.1586 34.0149 30.2375C34.0436 30.3164 34.088 30.3887 34.1453 30.4501C34.2026 30.5114 34.2717 30.5606 34.3485 30.5947C34.4252 30.6287 34.508 30.647 34.592 30.6484C35.1145 30.6759 35.4482 30.8334 35.6582 31.0446C35.8695 31.2571 36.027 31.5984 36.0557 32.1321C36.0573 32.216 36.0757 32.2987 36.1099 32.3753C36.1441 32.4519 36.1934 32.5208 36.2548 32.578C36.3162 32.6351 36.3885 32.6793 36.4673 32.708C36.5462 32.7366 36.63 32.7491 36.7138 32.7446C36.7975 32.7402 36.8796 32.7189 36.9549 32.6821C37.0303 32.6453 37.0975 32.5936 37.1525 32.5303C37.2075 32.467 37.2492 32.3932 37.2751 32.3134C37.301 32.2336 37.3106 32.1494 37.3032 32.0659C37.2632 31.3159 37.0282 30.6534 36.547 30.1659C36.0632 29.6784 35.4045 29.4409 34.657 29.4009Z" fill="white"/>
<path fill-rule="evenodd" clip-rule="evenodd" d="M27.833 21.9832C31.8106 21.0941 35.9354 21.0941 39.913 21.9832L40.3368 22.077C41.4995 22.3369 42.5674 22.9142 43.4219 23.7445C44.2763 24.5749 44.8837 25.6259 45.1768 26.7807C46.1864 30.7594 46.1864 34.9271 45.1768 38.9057C44.8837 40.0606 44.2763 41.1116 43.4219 41.942C42.5674 42.7723 41.4995 43.3496 40.3368 43.6095L39.9118 43.7032C37.4206 44.2604 34.8643 44.4703 32.3155 44.327L28.9993 47.2945C28.8742 47.4064 28.7215 47.4828 28.5569 47.5155C28.3923 47.5483 28.2219 47.5362 28.0636 47.4807C27.9052 47.4251 27.7647 47.3281 27.6566 47.1997C27.5486 47.0713 27.477 46.9163 27.4493 46.7507L26.9005 43.4732C25.8483 43.1458 24.8975 42.554 24.1392 41.7543C23.3809 40.9547 22.8404 39.9739 22.5693 38.9057C21.5596 34.9271 21.5596 30.7594 22.5693 26.7807C22.8623 25.6259 23.4698 24.5749 24.3242 23.7445C25.1786 22.9142 26.2465 22.3369 27.4093 22.077L27.833 21.9832ZM39.5043 23.812C35.7959 22.983 31.9502 22.983 28.2418 23.812L27.8168 23.907C26.9927 24.0916 26.2359 24.5009 25.6304 25.0897C25.0249 25.6784 24.5944 26.4234 24.3868 27.242C23.4539 30.9179 23.4539 34.7686 24.3868 38.4445C24.5945 39.2632 25.0252 40.0084 25.6309 40.5971C26.2366 41.1858 26.9937 41.5951 27.818 41.7795L27.9305 41.8045C28.1125 41.8452 28.2782 41.9393 28.4065 42.0746C28.5347 42.21 28.6197 42.3806 28.6505 42.5645L29.018 44.762L31.358 42.6682C31.4515 42.5844 31.5608 42.5202 31.6796 42.4794C31.7983 42.4386 31.924 42.422 32.0493 42.4307C34.5481 42.608 37.0594 42.4206 39.5043 41.8745L39.928 41.7795C40.7524 41.5951 41.5094 41.1858 42.1152 40.5971C42.7209 40.0084 43.1515 39.2632 43.3593 38.4445C44.2918 34.7695 44.2918 30.9182 43.3593 27.242C43.1515 26.4232 42.7209 25.6781 42.1152 25.0894C41.5094 24.5006 40.7524 24.0914 39.928 23.907L39.5043 23.812Z" fill="white"/>
<defs>
<filter id="filter0_d_637_23829" x="-0.000488281" y="0.00390625" width="68" height="68" filterUnits="userSpaceOnUse" color-interpolation-filters="sRGB">
<feFlood flood-opacity="0" result="BackgroundImageFix"/>
<feColorMatrix in="SourceAlpha" type="matrix" values="0 0 0 0 0 0 0 0 0 0 0 0 0 0 0 0 0 0 127 0" result="hardAlpha"/>
<feOffset/>
<feGaussianBlur stdDeviation="3"/>
<feComposite in2="hardAlpha" operator="out"/>
<feColorMatrix type="matrix" values="0 0 0 0 0.705882 0 0 0 0 0.682353 0 0 0 0 0.654902 0 0 0 0.25 0"/>
<feBlend mode="normal" in2="BackgroundImageFix" result="effect1_dropShadow_637_23829"/>
<feBlend mode="normal" in="SourceGraphic" in2="effect1_dropShadow_637_23829" result="shape"/>
</filter>
</defs>
</svg>
