<svg width="68" height="68" viewBox="0 0 68 68" fill="none" xmlns="http://www.w3.org/2000/svg">
<g filter="url(#filter0_d_637_23817)">
<circle cx="33.9995" cy="34.0039" r="28" fill="#007FFF"/>
</g>
<path d="M37.4708 36.5515L40.7833 31.6515C41.1108 31.169 40.4895 30.6452 40.0145 30.9902L36.442 33.509C36.3224 33.5921 36.1802 33.6367 36.0345 33.6367C35.8888 33.6367 35.7466 33.5921 35.627 33.509L32.982 31.6627C32.1908 31.1165 31.0595 31.3165 30.5283 32.0815L27.2158 36.9815C26.8883 37.464 27.5095 37.989 27.9845 37.6427L31.557 35.124C31.6766 35.0408 31.8188 34.9962 31.9645 34.9962C32.1102 34.9962 32.2524 35.0408 32.372 35.124L35.017 36.939C35.8083 37.5165 36.9395 37.3165 37.4708 36.5515Z" fill="white"/>
<path fill-rule="evenodd" clip-rule="evenodd" d="M33.9995 21.8164C30.7672 21.8164 27.6672 23.1004 25.3816 25.386C23.096 27.6716 21.812 30.7716 21.812 34.0039C21.8101 35.6473 22.1414 37.2739 22.7859 38.7856C23.4305 40.2973 24.3749 41.6626 25.562 42.7989V45.8789C25.5619 46.0275 25.5972 46.174 25.6648 46.3062C25.7324 46.4385 25.8305 46.5528 25.951 46.6398C26.0715 46.7267 26.211 46.7837 26.3578 46.8062C26.5047 46.8286 26.6548 46.8159 26.7958 46.7689L30.2708 45.6102C31.4759 45.9964 32.7339 46.1925 33.9995 46.1914C40.7308 46.1914 46.187 40.7352 46.187 34.0039C46.187 27.2727 40.7308 21.8164 33.9995 21.8164ZM23.687 34.0039C23.6879 31.8159 24.3846 29.6848 25.6765 27.9189C26.9684 26.153 28.7885 24.8438 30.8736 24.1806C32.9587 23.5173 35.2007 23.5345 37.2754 24.2295C39.3501 24.9246 41.1499 26.2615 42.4147 28.0469C43.6794 29.8324 44.3435 31.9738 44.3109 34.1616C44.2782 36.3494 43.5506 38.4701 42.2332 40.2171C40.9158 41.964 39.0769 43.2467 36.9824 43.8796C34.8879 44.5125 32.6464 44.4628 30.582 43.7377C30.3857 43.6686 30.172 43.6668 29.9745 43.7327L27.437 44.5777V42.3902C27.4372 42.258 27.4094 42.1274 27.3556 42.0068C27.3017 41.8861 27.223 41.7782 27.1245 41.6902C26.0417 40.724 25.1756 39.5396 24.5832 38.2149C23.9907 36.8902 23.6853 35.4551 23.687 34.0039Z" fill="white"/>
<defs>
<filter id="filter0_d_637_23817" x="-0.000488281" y="0.00390625" width="68" height="68" filterUnits="userSpaceOnUse" color-interpolation-filters="sRGB">
<feFlood flood-opacity="0" result="BackgroundImageFix"/>
<feColorMatrix in="SourceAlpha" type="matrix" values="0 0 0 0 0 0 0 0 0 0 0 0 0 0 0 0 0 0 127 0" result="hardAlpha"/>
<feOffset/>
<feGaussianBlur stdDeviation="3"/>
<feComposite in2="hardAlpha" operator="out"/>
<feColorMatrix type="matrix" values="0 0 0 0 0.705882 0 0 0 0 0.682353 0 0 0 0 0.654902 0 0 0 0.25 0"/>
<feBlend mode="normal" in2="BackgroundImageFix" result="effect1_dropShadow_637_23817"/>
<feBlend mode="normal" in="SourceGraphic" in2="effect1_dropShadow_637_23817" result="shape"/>
</filter>
</defs>
</svg>
