<svg width="68" height="68" viewBox="0 0 68 68" fill="none" xmlns="http://www.w3.org/2000/svg">
<g filter="url(#filter0_d_637_23823)">
<circle cx="33.9995" cy="34.0039" r="28" fill="#27D045"/>
</g>
<path d="M42.812 25.1415C41.666 23.9839 40.301 23.0661 38.7966 22.4415C37.2921 21.817 35.6784 21.4983 34.0495 21.504C27.2245 21.504 21.662 27.0665 21.662 33.8915C21.662 36.079 22.237 38.204 23.312 40.079L21.562 46.504L28.1245 44.779C29.937 45.7665 31.9745 46.2915 34.0495 46.2915C40.8745 46.2915 46.437 40.729 46.437 33.904C46.437 30.5915 45.1495 27.479 42.812 25.1415ZM34.0495 44.1915C32.1995 44.1915 30.387 43.6915 28.7995 42.754L28.4245 42.529L24.5245 43.554L25.562 39.754L25.312 39.3665C24.2842 37.7252 23.7384 35.828 23.737 33.8915C23.737 28.2165 28.362 23.5915 34.037 23.5915C36.787 23.5915 39.3745 24.6665 41.312 26.6165C42.2714 27.5714 43.0316 28.7073 43.5488 29.9583C44.0659 31.2092 44.3296 32.5504 44.3245 33.904C44.3495 39.579 39.7245 44.1915 34.0495 44.1915ZM39.6995 36.4915C39.387 36.3415 37.862 35.5915 37.587 35.479C37.2995 35.379 37.0995 35.329 36.887 35.629C36.6745 35.9415 36.087 36.6415 35.912 36.8415C35.737 37.054 35.5495 37.079 35.237 36.9165C34.9245 36.7665 33.9245 36.429 32.7495 35.379C31.8245 34.554 31.212 33.5415 31.0245 33.229C30.8495 32.9165 30.9995 32.754 31.162 32.5915C31.2995 32.454 31.4745 32.229 31.6245 32.054C31.7745 31.879 31.837 31.7415 31.937 31.5415C32.037 31.329 31.987 31.154 31.912 31.004C31.837 30.854 31.212 29.329 30.962 28.704C30.712 28.104 30.4495 28.179 30.262 28.1665H29.662C29.4495 28.1665 29.1245 28.2415 28.837 28.554C28.562 28.8665 27.762 29.6165 27.762 31.1415C27.762 32.6665 28.8745 34.1415 29.0245 34.3415C29.1745 34.554 31.212 37.679 34.312 39.0165C35.0495 39.3415 35.6245 39.529 36.0745 39.6665C36.812 39.904 37.487 39.8665 38.0245 39.7915C38.6245 39.704 39.862 39.0415 40.112 38.3165C40.3745 37.5915 40.3745 36.979 40.287 36.8415C40.1995 36.704 40.012 36.6415 39.6995 36.4915Z" fill="white"/>
<defs>
<filter id="filter0_d_637_23823" x="-0.000488281" y="0.00390625" width="68" height="68" filterUnits="userSpaceOnUse" color-interpolation-filters="sRGB">
<feFlood flood-opacity="0" result="BackgroundImageFix"/>
<feColorMatrix in="SourceAlpha" type="matrix" values="0 0 0 0 0 0 0 0 0 0 0 0 0 0 0 0 0 0 127 0" result="hardAlpha"/>
<feOffset/>
<feGaussianBlur stdDeviation="3"/>
<feComposite in2="hardAlpha" operator="out"/>
<feColorMatrix type="matrix" values="0 0 0 0 0.705882 0 0 0 0 0.682353 0 0 0 0 0.654902 0 0 0 0.25 0"/>
<feBlend mode="normal" in2="BackgroundImageFix" result="effect1_dropShadow_637_23823"/>
<feBlend mode="normal" in="SourceGraphic" in2="effect1_dropShadow_637_23823" result="shape"/>
</filter>
</defs>
</svg>
