<svg width="92" height="92" viewBox="0 0 92 92" fill="none" xmlns="http://www.w3.org/2000/svg">
<g clip-path="url(#clip0_637_23757)">
<path d="M30.6647 53.668C32.773 53.668 34.5785 52.9179 36.0812 51.4178C37.5839 49.9177 38.3339 48.1122 38.3314 46.0013C38.3314 43.893 37.5813 42.0887 36.0812 40.5886C34.5811 39.0885 32.7756 38.3372 30.6647 38.3346C28.5564 38.3346 26.7522 39.086 25.252 40.5886C23.7519 42.0913 23.0006 43.8955 22.998 46.0013C22.998 48.1096 23.7494 49.9151 25.252 51.4178C26.7547 52.9205 28.5589 53.6705 30.6647 53.668ZM15.3314 67.0013C15.3314 68.1059 16.2268 69.0013 17.3314 69.0013H43.998C45.1026 69.0013 45.998 68.1059 45.998 67.0013V66.7971C45.998 65.2638 45.5828 63.8582 44.7522 62.5805C43.9217 61.3027 42.7717 60.3444 41.3022 59.7055C39.6411 59.0027 37.9314 58.4596 36.1732 58.0763C34.415 57.693 32.5788 57.5013 30.6647 57.5013C28.748 57.5013 26.9119 57.693 25.1562 58.0763C23.4005 58.4596 21.6909 59.0027 20.0272 59.7055C18.5578 60.3444 17.4078 61.3027 16.5772 62.5805C15.7467 63.8582 15.3314 65.2638 15.3314 66.7971V67.0013ZM53.6647 84.3346H7.66471C5.55638 84.3346 3.75216 83.5846 2.25205 82.0845C0.751935 80.5844 0.00060243 78.7789 -0.00195312 76.668V15.3346C-0.00195312 13.2263 0.74938 11.4221 2.25205 9.92197C3.75471 8.42186 5.55894 7.67052 7.66471 7.66797H37.503C38.0334 7.66797 38.5421 7.87868 38.9172 8.25376L60.7456 30.0822C61.1207 30.4573 61.3314 30.966 61.3314 31.4964V76.668C61.3314 78.7763 60.5813 80.5818 59.0812 82.0845C57.5811 83.5871 55.7756 84.3372 53.6647 84.3346ZM51.6647 76.668C52.7693 76.668 53.6647 75.7725 53.6647 74.668V34.7547C53.6647 34.2243 53.454 33.7156 53.0789 33.3405L35.6588 15.9204C35.2838 15.5453 34.7751 15.3346 34.2446 15.3346H9.66471C8.56014 15.3346 7.66471 16.2301 7.66471 17.3346V74.668C7.66471 75.7725 8.56014 76.668 9.66471 76.668H51.6647Z" fill="#04A427" stroke="#FFF8F0" stroke-width="3" stroke-linejoin="round"/>
</g>
<defs>
<clipPath id="clip0_637_23757">
<rect x="-0.00195312" width="92" height="92" rx="4" fill="white"/>
</clipPath>
</defs>
</svg>
