<svg width="33" height="33" viewBox="0 0 33 33" fill="none" xmlns="http://www.w3.org/2000/svg">
<path d="M16 9.4C14.6946 9.4 13.4186 9.78708 12.3332 10.5123C11.2479 11.2375 10.4019 12.2683 9.9024 13.4743C9.40286 14.6803 9.27216 16.0073 9.52682 17.2876C9.78148 18.5679 10.4101 19.7439 11.3331 20.6669C12.2561 21.5899 13.4321 22.2185 14.7124 22.4732C15.9927 22.7278 17.3197 22.5971 18.5257 22.0976C19.7317 21.5981 20.7625 20.7521 21.4877 19.6668C22.2129 18.5814 22.6 17.3054 22.6 16C22.598 14.2502 21.902 12.5726 20.6647 11.3353C19.4274 10.098 17.7498 9.40199 16 9.4ZM16 21.4C14.932 21.4 13.8879 21.0833 12.9999 20.4899C12.1119 19.8966 11.4198 19.0532 11.0111 18.0665C10.6023 17.0798 10.4954 15.994 10.7038 14.9465C10.9121 13.899 11.4264 12.9368 12.1816 12.1816C12.9368 11.4264 13.899 10.9121 14.9465 10.7038C15.994 10.4954 17.0798 10.6023 18.0665 11.0111C19.0532 11.4198 19.8966 12.1119 20.4899 12.9999C21.0833 13.8879 21.4 14.932 21.4 16C21.4 17.4322 20.8311 18.8057 19.8184 19.8184C18.8057 20.8311 17.4322 21.4 16 21.4ZM23.2 1H8.8C6.73204 1.00238 4.74947 1.82493 3.2872 3.2872C1.82493 4.74947 1.00238 6.73204 1 8.8V23.2C1.00238 25.268 1.82493 27.2505 3.2872 28.7128C4.74947 30.1751 6.73204 30.9976 8.8 31H23.2C25.268 30.9976 27.2505 30.1751 28.7128 28.7128C30.1751 27.2505 30.9976 25.268 31 23.2V8.8C30.9976 6.73204 30.1751 4.74947 28.7128 3.2872C27.2505 1.82493 25.268 1.00238 23.2 1ZM29.8 23.2C29.798 24.9498 29.102 26.6274 27.8647 27.8647C26.6274 29.102 24.9498 29.798 23.2 29.8H8.8C7.05018 29.798 5.3726 29.102 4.13529 27.8647C2.89798 26.6274 2.20199 24.9498 2.2 23.2V8.8C2.20199 7.05018 2.89798 5.3726 4.13529 4.13529C5.3726 2.89798 7.05018 2.20199 8.8 2.2H23.2C24.9498 2.20199 26.6274 2.89798 27.8647 4.13529C29.102 5.3726 29.798 7.05018 29.8 8.8V23.2ZM25 8.2C25 8.43734 24.9296 8.66935 24.7978 8.86669C24.6659 9.06402 24.4785 9.21783 24.2592 9.30866C24.0399 9.39948 23.7987 9.42325 23.5659 9.37694C23.3331 9.33064 23.1193 9.21635 22.9515 9.04853C22.7836 8.88071 22.6694 8.66689 22.6231 8.43411C22.5768 8.20133 22.6005 7.96005 22.6913 7.74078C22.7822 7.52151 22.936 7.33409 23.1333 7.20224C23.3307 7.07038 23.5627 7 23.8 7C24.1183 7 24.4235 7.12643 24.6485 7.35147C24.8736 7.57652 25 7.88174 25 8.2Z" fill="#05A327" stroke="#05A327" stroke-width="1"/>
</svg>
