<svg width="34" height="34" viewBox="0 0 34 34" fill="none" xmlns="http://www.w3.org/2000/svg">
    <path
        d="M25.3682 6.73327C24.9885 6.73327 24.6173 6.84587 24.3015 7.05684C23.9858 7.26782 23.7397 7.56768 23.5944 7.91851C23.449 8.26935 23.411 8.6554 23.4851 9.02784C23.5592 9.40028 23.7421 9.74239 24.0106 10.0109C24.2791 10.2794 24.6212 10.4623 24.9936 10.5364C25.3661 10.6105 25.7521 10.5724 26.103 10.4271C26.4538 10.2818 26.7537 10.0357 26.9646 9.71996C27.1756 9.40422 27.2882 9.03301 27.2882 8.65327C27.2882 8.14405 27.0859 7.65569 26.7259 7.29562C26.3658 6.93555 25.8774 6.73327 25.3682 6.73327ZM32.7282 10.6053C32.6971 9.27774 32.4485 7.96431 31.9922 6.71727C31.5854 5.65028 30.9522 4.68411 30.1362 3.88527C29.3439 3.06515 28.3755 2.43595 27.3042 2.04527C26.0605 1.57512 24.7456 1.3208 23.4162 1.29327C21.7202 1.19727 21.1762 1.19727 16.8242 1.19727C12.4722 1.19727 11.9282 1.19727 10.2322 1.29327C8.90286 1.3208 7.58797 1.57512 6.34422 2.04527C5.2749 2.4399 4.30731 3.06856 3.51222 3.88527C2.6921 4.67755 2.0629 5.64597 1.67222 6.71727C1.20208 7.96101 0.947755 9.27591 0.920219 10.6053C0.824219 12.3013 0.824219 12.8453 0.824219 17.1973C0.824219 21.5493 0.824219 22.0933 0.920219 23.7893C0.947755 25.1186 1.20208 26.4335 1.67222 27.6773C2.0629 28.7486 2.6921 29.717 3.51222 30.5093C4.30731 31.326 5.2749 31.9546 6.34422 32.3493C7.58797 32.8194 8.90286 33.0737 10.2322 33.1013C11.9282 33.1973 12.4722 33.1973 16.8242 33.1973C21.1762 33.1973 21.7202 33.1973 23.4162 33.1013C24.7456 33.0737 26.0605 32.8194 27.3042 32.3493C28.3755 31.9586 29.3439 31.3294 30.1362 30.5093C30.9558 29.7134 31.5896 28.7464 31.9922 27.6773C32.4485 26.4302 32.6971 25.1168 32.7282 23.7893C32.7282 22.0933 32.8242 21.5493 32.8242 17.1973C32.8242 12.8453 32.8242 12.3013 32.7282 10.6053ZM29.8482 23.5973C29.8366 24.6129 29.6526 25.6192 29.3042 26.5733C29.0488 27.2696 28.6384 27.8987 28.1042 28.4133C27.5853 28.9421 26.9574 29.3516 26.2642 29.6133C25.3101 29.9617 24.3039 30.1456 23.2882 30.1573C21.6882 30.2373 21.0962 30.2533 16.8882 30.2533C12.6802 30.2533 12.0882 30.2533 10.4882 30.1573C9.43364 30.177 8.38357 30.0146 7.38422 29.6773C6.72147 29.4022 6.12239 28.9937 5.62422 28.4773C5.09316 27.9633 4.68797 27.3336 4.44022 26.6373C4.04959 25.6695 3.83293 24.6404 3.80022 23.5973C3.80022 21.9973 3.70422 21.4053 3.70422 17.1973C3.70422 12.9893 3.70422 12.3973 3.80022 10.7973C3.80739 9.75896 3.99694 8.72998 4.36022 7.75727C4.64189 7.08192 5.07424 6.47992 5.62422 5.99727C6.11032 5.44713 6.71108 5.01022 7.38422 4.71727C8.3595 4.36534 9.38741 4.18139 10.4242 4.17327C12.0242 4.17327 12.6162 4.07727 16.8242 4.07727C21.0322 4.07727 21.6242 4.07727 23.2242 4.17327C24.2399 4.18491 25.2461 4.36886 26.2002 4.71727C26.9273 4.98711 27.5799 5.42582 28.1042 5.99727C28.6285 6.48875 29.0382 7.08964 29.3042 7.75727C29.6598 8.73156 29.8439 9.76011 29.8482 10.7973C29.9282 12.3973 29.9442 12.9893 29.9442 17.1973C29.9442 21.4053 29.9282 21.9973 29.8482 23.5973ZM16.8242 8.98927C15.2015 8.99243 13.6162 9.47651 12.2685 10.3803C10.9208 11.2842 9.87122 12.5672 9.25243 14.0673C8.63364 15.5674 8.47338 17.2172 8.79189 18.8084C9.1104 20.3995 9.8934 21.8605 11.0419 23.0068C12.1905 24.1531 13.653 24.9333 15.2448 25.2487C16.8366 25.5641 18.4861 25.4006 19.985 24.7789C21.4839 24.1572 22.7648 23.1052 23.666 21.7557C24.5672 20.4063 25.0482 18.82 25.0482 17.1973C25.0503 16.1174 24.8389 15.0478 24.4262 14.05C24.0135 13.0522 23.4075 12.1458 22.6432 11.3829C21.8789 10.6201 20.9713 10.016 19.9727 9.60515C18.9741 9.19435 17.904 8.98505 16.8242 8.98927ZM16.8242 22.5253C15.7704 22.5253 14.7403 22.2128 13.8641 21.6273C12.988 21.0419 12.3051 20.2098 11.9018 19.2362C11.4985 18.2626 11.393 17.1914 11.5986 16.1578C11.8042 15.1243 12.3116 14.1749 13.0568 13.4298C13.8019 12.6847 14.7512 12.1772 15.7848 11.9716C16.8183 11.7661 17.8896 11.8716 18.8632 12.2748C19.8367 12.6781 20.6688 13.361 21.2543 14.2372C21.8397 15.1134 22.1522 16.1435 22.1522 17.1973C22.1522 17.8969 22.0144 18.5898 21.7466 19.2362C21.4789 19.8826 21.0864 20.47 20.5917 20.9647C20.0969 21.4595 19.5096 21.8519 18.8632 22.1197C18.2167 22.3875 17.5239 22.5253 16.8242 22.5253Z"
        fill="#04A427" />
</svg>