<svg width="52" height="52" viewBox="0 0 52 52" fill="none" xmlns="http://www.w3.org/2000/svg">
<g filter="url(#filter0_d_858_17074)">
<circle cx="26.3027" cy="26.0976" r="21.0986" fill="white"/>
</g>
<path d="M31.6684 19.5282C31.4299 19.5282 31.1968 19.599 30.9986 19.7314C30.8003 19.8639 30.6458 20.0522 30.5545 20.2725C30.4633 20.4928 30.4394 20.7352 30.4859 20.9691C30.5324 21.203 30.6472 21.4178 30.8159 21.5864C30.9845 21.755 31.1993 21.8698 31.4332 21.9163C31.667 21.9629 31.9094 21.939 32.1297 21.8477C32.35 21.7565 32.5383 21.602 32.6708 21.4037C32.8033 21.2054 32.874 20.9723 32.874 20.7339C32.874 20.4141 32.747 20.1075 32.5209 19.8814C32.2948 19.6553 31.9881 19.5282 31.6684 19.5282ZM36.29 21.9596C36.2704 21.126 36.1143 20.3013 35.8278 19.5182C35.5723 18.8482 35.1747 18.2415 34.6624 17.7399C34.1649 17.2249 33.5567 16.8298 32.884 16.5845C32.1031 16.2893 31.2774 16.1296 30.4426 16.1123C29.3777 16.052 29.0361 16.052 26.3033 16.052C23.5705 16.052 23.2289 16.052 22.164 16.1123C21.3292 16.1296 20.5035 16.2893 19.7225 16.5845C19.0511 16.8323 18.4435 17.2271 17.9442 17.7399C17.4293 18.2374 17.0342 18.8455 16.7888 19.5182C16.4936 20.2992 16.3339 21.1249 16.3166 21.9596C16.2563 23.0246 16.2563 23.3662 16.2563 26.099C16.2563 28.8317 16.2563 29.1733 16.3166 30.2383C16.3339 31.073 16.4936 31.8987 16.7888 32.6797C17.0342 33.3524 17.4293 33.9605 17.9442 34.458C18.4435 34.9708 19.0511 35.3656 19.7225 35.6134C20.5035 35.9086 21.3292 36.0683 22.164 36.0856C23.2289 36.1459 23.5705 36.1459 26.3033 36.1459C29.0361 36.1459 29.3777 36.1459 30.4426 36.0856C31.2774 36.0683 32.1031 35.9086 32.884 35.6134C33.5567 35.3681 34.1649 34.973 34.6624 34.458C35.177 33.9583 35.575 33.351 35.8278 32.6797C36.1143 31.8966 36.2704 31.0719 36.29 30.2383C36.29 29.1733 36.3502 28.8317 36.3502 26.099C36.3502 23.3662 36.3502 23.0246 36.29 21.9596ZM34.4815 30.1177C34.4742 30.7555 34.3587 31.3874 34.1399 31.9865C33.9795 32.4237 33.7218 32.8188 33.3864 33.1419C33.0605 33.4739 32.6663 33.731 32.231 33.8954C31.6319 34.1142 31 34.2297 30.3623 34.237C29.3576 34.2872 28.9858 34.2973 26.3435 34.2973C23.7011 34.2973 23.3294 34.2973 22.3247 34.237C21.6625 34.2494 21.0031 34.1474 20.3756 33.9356C19.9594 33.7628 19.5832 33.5063 19.2704 33.182C18.937 32.8593 18.6825 32.4639 18.527 32.0266C18.2817 31.419 18.1456 30.7727 18.1251 30.1177C18.1251 29.113 18.0648 28.7413 18.0648 26.099C18.0648 23.4566 18.0648 23.0849 18.1251 22.0802C18.1296 21.4282 18.2486 20.7821 18.4767 20.1713C18.6536 19.7472 18.9251 19.3692 19.2704 19.0661C19.5757 18.7206 19.9529 18.4463 20.3756 18.2623C20.988 18.0413 21.6335 17.9258 22.2845 17.9207C23.2892 17.9207 23.6609 17.8605 26.3033 17.8605C28.9456 17.8605 29.3174 17.8605 30.3221 17.9207C30.9598 17.928 31.5917 18.0436 32.1908 18.2623C32.6474 18.4318 33.0571 18.7073 33.3864 19.0661C33.7156 19.3747 33.9729 19.752 34.1399 20.1713C34.3632 20.783 34.4788 21.4289 34.4815 22.0802C34.5317 23.0849 34.5418 23.4566 34.5418 26.099C34.5418 28.7413 34.5317 29.113 34.4815 30.1177ZM26.3033 20.9449C25.2843 20.9469 24.2888 21.2508 23.4426 21.8184C22.5963 22.3859 21.9373 23.1916 21.5487 24.1335C21.1602 25.0755 21.0595 26.1115 21.2595 27.1106C21.4595 28.1097 21.9512 29.0272 22.6724 29.747C23.3936 30.4668 24.312 30.9567 25.3115 31.1547C26.311 31.3528 27.3468 31.2501 28.288 30.8597C29.2292 30.4693 30.0336 29.8087 30.5995 28.9614C31.1654 28.114 31.4674 27.1179 31.4674 26.099C31.4688 25.4209 31.336 24.7492 31.0768 24.1227C30.8177 23.4961 30.4372 22.9269 29.9572 22.4479C29.4773 21.9689 28.9074 21.5896 28.2803 21.3316C27.6532 21.0736 26.9814 20.9422 26.3033 20.9449ZM26.3033 29.4446C25.6416 29.4446 24.9947 29.2484 24.4446 28.8807C23.8944 28.5131 23.4656 27.9906 23.2123 27.3793C22.9591 26.7679 22.8929 26.0952 23.0219 25.4462C23.151 24.7973 23.4697 24.2011 23.9376 23.7332C24.4055 23.2653 25.0016 22.9467 25.6506 22.8176C26.2996 22.6885 26.9723 22.7548 27.5836 23.008C28.1949 23.2612 28.7175 23.69 29.0851 24.2402C29.4527 24.7904 29.6489 25.4372 29.6489 26.099C29.6489 26.5383 29.5624 26.9734 29.3943 27.3793C29.2261 27.7852 28.9797 28.154 28.669 28.4647C28.3583 28.7753 27.9895 29.0218 27.5836 29.1899C27.1777 29.358 26.7427 29.4446 26.3033 29.4446Z" fill="#04A427"/>
<defs>
<filter id="filter0_d_858_17074" x="0.682975" y="0.477897" width="51.2395" height="51.2395" filterUnits="userSpaceOnUse" color-interpolation-filters="sRGB">
<feFlood flood-opacity="0" result="BackgroundImageFix"/>
<feColorMatrix in="SourceAlpha" type="matrix" values="0 0 0 0 0 0 0 0 0 0 0 0 0 0 0 0 0 0 127 0" result="hardAlpha"/>
<feOffset/>
<feGaussianBlur stdDeviation="2.26056"/>
<feComposite in2="hardAlpha" operator="out"/>
<feColorMatrix type="matrix" values="0 0 0 0 0.705882 0 0 0 0 0.682353 0 0 0 0 0.654902 0 0 0 0.25 0"/>
<feBlend mode="normal" in2="BackgroundImageFix" result="effect1_dropShadow_858_17074"/>
<feBlend mode="normal" in="SourceGraphic" in2="effect1_dropShadow_858_17074" result="shape"/>
</filter>
</defs>
</svg>
