<svg width="30" height="34" viewBox="0 0 30 34" fill="none" xmlns="http://www.w3.org/2000/svg">
<path d="M10.0232 12.8331C11.7708 12.5404 13.0668 10.972 13.264 9.0984C13.4643 7.193 13.9158 -0.464095 10.999 0.0229727C3.43289 1.28758 3.9639 13.8457 10.0232 12.8331ZM19.9781 12.8331C26.036 13.8457 26.567 1.28758 19.0009 0.0222337C16.0848 -0.464835 16.5356 7.19226 16.7351 9.09767C16.9331 10.972 18.2306 12.5404 19.9781 12.8331ZM6.9152 18.7496C6.9152 17.7533 6.55444 16.8501 5.97318 16.193C5.01692 14.9617 1.97712 12.4717 1.23086 13.1095C-0.326909 14.4443 -0.276658 17.7296 0.661605 20.1169C1.14386 21.4444 2.30863 22.3779 3.6699 22.3779C5.46167 22.3779 6.9152 20.7533 6.9152 18.7496ZM28.7683 13.1095C28.0235 12.4717 24.9837 14.9617 24.0274 16.193C23.4462 16.8501 23.0847 17.7533 23.0847 18.7496C23.0847 20.7533 24.5397 22.3779 26.33 22.3779C27.692 22.3779 28.8575 21.4444 29.3398 20.1169C30.2758 17.7296 30.3275 14.4443 28.7683 13.1095ZM22.6662 24.4008C19.9091 23.046 19.9946 20.437 19.3676 18.0563C18.8689 16.1576 17.1026 14.7533 15.0003 14.7533C14.0252 14.7507 13.0755 15.06 12.294 15.6347C11.5124 16.2093 10.9412 17.0184 10.666 17.9403C9.99474 20.2182 10.399 22.8701 7.3937 24.383C4.95242 25.1672 3.9639 26.3114 3.9639 29.0172C3.9639 31.2153 5.87868 33.5686 8.34997 33.8613C11.107 34.2707 13.258 33.7356 15.0003 32.7571C16.7426 33.7356 18.8921 34.27 21.6537 33.8613C24.1234 33.5686 26.039 31.2242 26.039 29.0172C26.0382 26.2522 25.1127 25.2219 22.6662 24.4008ZM19.4134 27.7075H16.5551L16.5588 30.6639H13.4418L13.4463 27.7075H10.4132V24.7511H13.447L13.4425 21.7947H16.5596L16.5558 24.7511H19.4134V27.7075Z" fill="#04A427"/>
</svg>
