<svg width="158" height="87" viewBox="0 0 158 87" fill="none" xmlns="http://www.w3.org/2000/svg">
<mask id="path-1-inside-1_637_18599" fill="white">
<path d="M0.262695 20.3811C0.262695 9.12496 9.38764 0 20.6438 0H137.326C148.582 0 157.707 9.12494 157.707 20.3811V66.5257C157.707 77.7819 148.582 86.9068 137.326 86.9068H20.6438C9.38761 86.9068 0.262695 77.7819 0.262695 66.5257V20.3811Z"/>
</mask>
<path d="M0.262695 20.3811C0.262695 8.70283 9.72982 -0.764292 21.4081 -0.764292H136.561C148.24 -0.764292 157.707 8.70283 157.707 20.3811C157.707 9.54705 148.582 0.764292 137.326 0.764292H20.6438C9.38764 0.764292 0.262695 9.54705 0.262695 20.3811ZM157.707 66.5257C157.707 78.204 148.24 87.6711 136.561 87.6711H21.4081C9.72982 87.6711 0.262695 78.204 0.262695 66.5257C0.262695 77.3598 9.38764 86.1425 20.6438 86.1425H137.326C148.582 86.1425 157.707 77.3598 157.707 66.5257ZM0.262695 86.9068V0V86.9068ZM157.707 0V86.9068V0Z" fill="#04A427" fill-opacity="0.4" mask="url(#path-1-inside-1_637_18599)"/>
<path fill-rule="evenodd" clip-rule="evenodd" d="M25.7006 32.6769C31.5357 32.8051 31.5357 32.8051 31.7913 33.8735C31.9616 34.4719 31.919 35.3693 31.7061 35.9249C31.5357 36.4377 29.832 39.0874 27.958 41.7798C26.0839 44.4722 24.5506 46.78 24.5506 46.9082C24.5506 47.0364 25.4025 47.1219 26.4673 47.1219C28.0858 47.1219 28.3839 46.9937 28.3839 46.2672C28.3839 45.7971 28.4691 45.1133 28.5969 44.7714C28.7388 44.344 29.3777 44.1304 30.5135 44.1304C31.6493 44.1304 32.2882 44.344 32.4301 44.7714C32.5579 45.1133 32.6431 46.2244 32.6431 47.2501C32.6431 48.2331 32.4727 49.3015 32.3024 49.6006C32.0894 50.028 30.8542 50.199 27.745 50.199C25.4025 50.199 22.4636 50.199 21.2285 50.1562C19.0563 50.1135 19.0137 50.0708 19.0137 48.8314C19.0137 47.9339 20.1211 45.968 22.8469 41.9935C24.9765 38.9165 26.6802 36.3523 26.6802 36.2241C26.6802 36.0959 25.9136 36.0104 24.9765 36.0104C23.4432 36.0104 23.2303 36.1386 22.8469 37.2925C22.4636 38.4036 22.2081 38.5746 20.9303 38.5746C19.5248 38.5746 19.4396 38.4891 19.3544 36.9933C19.3544 36.0959 19.3544 34.9847 19.397 34.5146C19.397 34.0445 19.5248 33.4034 19.6526 33.1043C19.8229 32.7197 21.271 32.5914 25.7006 32.6769ZM78.0035 32.8051L78.1313 34.2154C78.1739 35.2839 78.0461 35.6258 77.3647 35.7967C76.8961 35.9249 76.5128 36.3523 76.5128 36.7796C76.5128 37.1643 77.1091 39.4293 77.8332 41.7798C78.5146 44.1304 79.1961 45.968 79.2813 45.8398C79.3665 45.7116 80.0054 43.4893 80.7294 40.9251C81.4535 38.3609 82.0498 36.1813 82.0498 36.1386C82.0498 36.0531 81.5813 35.9249 80.985 35.7967C80.2183 35.6258 79.9202 35.2839 79.9202 34.6428C79.8776 34.0872 80.1331 33.4034 80.4313 33.147C80.8146 32.7624 82.1775 32.6342 88.2256 32.8051L88.3534 34.2154C88.396 35.2839 88.2682 35.6258 87.5867 35.7967C87.1182 35.9249 86.7349 36.1386 86.7349 36.3523C86.7349 36.5232 87.1182 37.8053 87.5441 39.2156C87.9701 40.6259 88.5663 42.5918 88.8219 43.6175C89.0774 44.6005 89.4182 45.4125 89.6311 45.4125C89.8015 45.4125 90.4404 43.4893 91.1219 41.1388C91.7607 38.7883 92.2718 36.6514 92.2718 36.4377C92.2718 36.2241 91.8033 35.9249 91.207 35.7967C90.3126 35.6258 90.1422 35.3693 90.3552 32.8051H98.0218L98.1495 34.2154C98.1921 35.2839 98.0218 35.6685 97.2977 35.9676C96.4884 36.2668 96.0625 37.207 94.87 41.8226C94.0607 44.8569 93.1663 47.9767 92.2718 50.1135L86.5219 49.8998L85.4145 46.4809C84.3497 43.2756 84.2645 43.1474 83.8386 44.1304C83.5831 44.7287 83.072 46.3099 82.0498 50.1135L75.9591 49.8998L74.7665 46.0535C74.1277 43.9594 73.1906 40.8824 72.7221 39.2156C72.0833 36.9933 71.6147 36.0959 70.8907 35.7967C70.337 35.583 69.8685 35.0274 69.8259 34.6428C69.7407 34.2154 69.9111 33.5744 70.1666 33.2325C70.5925 32.6769 71.4444 32.5914 78.0035 32.8051ZM104.496 32.5914C107.775 32.5914 108.073 32.6769 108.414 33.5744C108.627 34.0872 108.627 34.8138 108.414 35.2839C108.201 35.6685 107.733 36.0104 107.392 36.0104C106.838 36.0104 106.753 36.9079 106.753 41.5662C106.753 46.8228 106.796 47.1219 107.605 47.1219C108.116 47.1219 108.542 47.5065 108.712 48.1049C108.883 48.6177 108.883 49.3015 108.712 49.6006C108.542 49.9425 107.222 50.1135 104.411 50.1135C100.918 50.1135 100.322 50.028 100.194 49.387C100.109 48.9596 100.194 48.2758 100.407 47.8912C100.62 47.4638 101.088 47.1219 101.429 47.1219C101.77 47.1219 102.153 46.8228 102.281 46.4809C102.409 46.139 102.494 43.8739 102.494 41.4807C102.494 39.0447 102.324 36.8651 102.153 36.6087C101.983 36.3523 101.514 36.0104 101.131 35.8822C100.662 35.7112 100.322 35.0702 100.279 34.3864C100.237 33.7026 100.364 33.0188 100.577 32.8906C100.79 32.7197 102.536 32.5914 104.496 32.5914ZM118.466 32.8051L118.594 34.2154C118.636 35.2839 118.508 35.6258 117.827 35.7967C117.018 36.0104 116.975 36.3523 116.975 47.1219L118.594 47.0364C119.957 46.9082 120.17 46.78 120.297 45.7543C120.383 44.6859 120.553 44.5577 123.79 44.5577V50.1135L119.658 50.2417C117.359 50.2844 114.42 50.2417 113.142 50.1135C111.225 49.9425 110.799 49.7289 110.672 49.0451C110.586 48.5322 110.97 47.8057 111.609 47.2501C112.673 46.3099 112.716 46.0535 112.716 41.7798C112.716 39.3011 112.546 36.9079 112.29 36.4377C112.035 35.9676 111.566 35.583 111.225 35.583C110.842 35.583 110.544 35.1129 110.501 34.3864C110.459 33.7026 110.629 33.0188 110.799 32.8479C111.012 32.6769 112.801 32.6342 118.466 32.8051ZM131.627 32.6342C135.886 32.7624 137.036 32.9761 138.271 33.7026C139.08 34.1727 140.145 35.2411 140.571 36.0531C141.04 36.8651 141.508 38.6601 141.593 40.0704C141.721 41.4807 141.593 43.6175 141.338 44.7714C140.954 46.3527 140.401 47.3356 139.251 48.4468C137.717 49.8571 137.419 49.9853 134.012 50.199C132.01 50.3699 129.327 50.3272 128.049 50.199C126.047 49.9425 125.707 49.7716 125.621 48.9596C125.536 48.3613 125.834 47.763 126.345 47.4638C127.112 46.951 127.197 46.4381 127.197 41.4807C127.197 38.1045 127.027 36.0104 126.771 36.0104C126.516 36.0104 126.175 35.6258 125.919 35.1556C125.621 34.5573 125.664 34.0018 125.962 33.4034C126.431 32.5487 126.729 32.506 131.627 32.6342ZM132.01 42.2072C132.095 46.0962 132.181 46.4809 132.947 46.6091C133.416 46.6946 134.182 46.6518 134.651 46.5663C135.119 46.4381 135.758 45.8398 136.056 45.2415C136.312 44.6432 136.567 42.8055 136.567 41.1388C136.567 38.7028 136.397 37.9763 135.716 37.2925C135.247 36.8224 134.31 36.4377 133.629 36.4377C132.777 36.4377 132.294 36.6942 132.181 37.207C132.053 37.5916 132.01 39.8567 132.01 42.2072Z" fill="#06631B"/>
<path fill-rule="evenodd" clip-rule="evenodd" d="M36.7155 26.2336C37.5622 26.1914 39.1708 26.6974 40.4831 27.3298C41.7531 28.0044 43.2348 29.0164 43.7851 29.691C44.3354 30.3234 44.6741 30.9981 44.5471 31.251C44.4201 31.504 43.8274 31.6727 43.1501 31.6727C42.5151 31.6727 40.9911 31.9678 39.7635 32.3051C38.5782 32.6425 36.9272 33.4857 36.1652 34.2025C35.4455 34.8771 34.6835 35.4253 34.4719 35.4674C34.3025 35.4674 34.1332 33.4857 34.0909 31.0824C34.0062 27.5828 34.1332 26.6552 34.5989 26.4866C34.9375 26.3601 35.9112 26.2336 36.7155 26.2336ZM65.6289 26.1914C66.8989 26.1914 67.2799 26.4022 67.6185 27.2455C67.8302 27.8358 68.0419 29.9018 68.0419 35.4674L66.8989 35.2144C65.7559 34.9193 65.7559 34.9615 66.3909 35.7204C66.7719 36.142 67.3222 37.1961 67.6609 37.9972C67.9572 38.7984 68.2112 40.5271 68.2112 41.792C68.1689 43.0569 67.8302 44.7856 67.4069 45.5867C67.0259 46.3878 66.2639 47.5262 65.7559 48.0322C65.2902 48.5803 64.1049 49.4236 63.1736 49.8874C61.8189 50.562 61.0146 50.6885 59.1519 50.5199C57.882 50.3934 56.4426 50.1404 55.977 49.9717C55.342 49.7609 54.834 50.0982 52.5903 52.7545L53.437 53.64C53.9027 54.1038 54.7917 54.4832 55.469 54.4411C56.104 54.4411 57.2893 54.1459 58.0936 53.8086C58.898 53.4713 59.7446 52.8389 59.9563 52.4594C60.1256 52.0378 60.6759 51.574 61.0993 51.4475C61.5649 51.2788 62.1999 51.321 62.5386 51.4896C63.0889 51.7848 63.0889 52.0378 62.6656 52.9232C62.3692 53.5135 61.2263 54.6097 60.1256 55.2844C58.6016 56.2541 57.5856 56.5493 56.104 56.5493C54.961 56.5493 53.3947 56.212 52.5903 55.8325C51.1934 55.1157 51.024 55.1157 49.627 55.8325C48.8227 56.212 47.2564 56.5493 46.1557 56.5493C44.6318 56.5493 43.6158 56.2541 42.2188 55.3687C41.1605 54.6941 40.0598 53.8508 39.8058 53.4713C39.5095 53.0918 39.3402 52.4594 39.4672 52.1221C39.5941 51.7848 40.0175 51.4896 40.4408 51.4896C40.8218 51.5318 41.7955 52.0799 42.5575 52.7545C43.2771 53.4713 44.5471 54.1459 45.3091 54.2724C46.0287 54.4411 47.1717 54.4411 47.8491 54.2724C48.4841 54.1459 49.0767 53.7243 49.2037 53.387C49.3307 53.0497 48.9074 51.9956 48.2724 51.068C47.4681 49.9296 46.8754 49.4658 46.4521 49.6766C46.1134 49.8031 44.9704 50.0982 43.9121 50.3512C42.8538 50.6042 41.3298 50.6464 40.5255 50.5199C39.7211 50.3512 38.2818 49.5923 37.3928 48.8755C36.5038 48.1165 35.4032 46.7673 34.9799 45.924C34.4719 44.8699 34.1755 43.3942 34.1755 41.7076C34.1332 39.5995 34.3872 38.5454 35.3185 36.7745C36.1229 35.2566 36.9695 34.2447 37.9855 33.6965C38.7898 33.2749 40.2291 32.8111 41.1605 32.6846C42.2188 32.516 43.6581 32.6425 44.9704 33.0641C46.2404 33.4857 47.5951 34.2868 48.3571 35.1301C49.0767 35.8891 49.9234 37.4491 50.2197 38.6297C50.5584 39.7681 50.9817 40.9487 51.1934 41.1595C51.405 41.4125 51.532 41.1174 51.532 40.4006C51.532 39.7681 51.532 39.1357 51.5744 38.9248C51.6167 38.7562 51.9554 37.9551 52.3787 37.154C52.802 36.3529 53.691 35.1723 54.3683 34.582C55.0033 33.9917 56.1886 33.2749 56.9506 33.0219C58.1783 32.5581 58.263 32.4316 57.7973 31.6727C57.3316 30.9559 57.4163 30.7029 58.517 29.5223C59.2366 28.8056 60.7606 27.7515 61.9036 27.2033C63.0889 26.6552 64.7399 26.1914 65.6289 26.1914ZM37.9855 37.9551C37.5622 38.5454 37.0965 39.6416 36.9272 40.3162C36.7578 40.9909 36.7155 42.2136 36.8848 42.9726C37.0118 43.6893 37.6045 44.9121 38.1972 45.5867C38.7898 46.3035 39.9328 47.0203 40.8218 47.2733C41.7108 47.4841 42.4728 47.6106 42.5575 47.5684C42.5998 47.5262 42.3458 46.9359 42.0071 46.2192C41.6685 45.5445 41.3721 44.0266 41.3721 42.8461C41.3721 41.7076 41.6261 40.2741 41.9225 39.6838C42.3035 38.9248 42.8114 38.6297 43.7004 38.6297C44.8434 38.6297 45.0128 38.8405 45.5208 40.7379C45.9441 42.2136 46.0288 43.3942 45.7748 44.6169C45.5631 45.6289 45.5208 46.43 45.6901 46.43C45.9018 46.43 46.4097 45.7975 46.8754 45.0807C47.3411 44.3218 47.7221 42.9304 47.7221 42.0028C47.7221 41.0752 47.4681 39.5995 47.0871 38.7562C46.6214 37.5756 45.9864 36.9431 44.6318 36.3107C43.6581 35.8469 42.5575 35.4674 42.2188 35.4674C41.8801 35.4674 40.9488 35.8047 40.1868 36.1842C39.4248 36.5637 38.4088 37.3648 37.9855 37.9551ZM55.6383 37.9129C55.0457 38.7562 54.4953 39.9368 54.453 40.5271C54.4107 41.1174 54.4107 42.0871 54.4107 42.7617C54.453 43.3942 55.0457 44.5326 55.7653 45.2916L56.993 46.6408C56.358 44.364 56.1886 43.1412 56.1886 42.4244C56.1886 41.7498 56.5696 40.5271 57.0353 39.8103C57.5433 38.967 58.2206 38.4189 58.7286 38.4189C59.1943 38.4189 59.9139 38.9248 60.2949 39.5995C60.7183 40.3162 60.9723 41.539 60.9723 42.8461C60.9299 44.0266 60.7183 45.4602 60.4643 46.1348C60.0409 47.1889 60.0833 47.2733 61.0993 47.2733C61.6919 47.2733 62.7079 46.7673 63.3429 46.1348C64.0202 45.4602 64.7399 44.1953 64.9939 43.2677C65.2479 42.3401 65.3326 41.033 65.2056 40.3162C65.0786 39.6416 64.4436 38.4189 63.8509 37.6599C63.2159 36.8167 62.1152 36.0999 61.2686 35.8469C60.4643 35.6361 59.7023 35.4674 59.5753 35.5096C59.4483 35.5096 58.771 35.7204 58.009 35.9312C57.247 36.1842 56.2733 36.9853 55.6383 37.9129ZM48.9921 47.1468L47.7221 48.9598C52.6327 48.9598 54.072 48.8755 54.072 48.749C54.072 48.6225 53.6063 47.7792 53.0137 46.8516C52.421 45.924 51.8284 44.5748 51.6167 43.858C51.4474 43.1412 51.1934 42.4666 51.0664 42.3823C50.9394 42.2979 50.6854 42.9304 50.516 43.7737C50.389 44.6591 49.7117 46.177 48.9921 47.1889V47.1468Z" fill="#F2CB15"/>
</svg>
