<svg width="140" height="121" viewBox="0 0 140 121" fill="none" xmlns="http://www.w3.org/2000/svg">
<path d="M15.4899 101.893C15.0849 104.095 12.8512 105.994 10.5807 105.994H4.30914C4.06368 105.994 4.02686 105.97 4.18641 105.752L14.9253 87.8589C15.0481 87.7379 14.9008 87.4597 14.7044 87.4597H3.37639C1.79316 87.4597 1.48634 87.3387 1.60907 86.6007C1.63361 86.5039 1.26542 86.4435 1.24088 86.5402L0.00129653 91.8634C-0.0232496 91.9844 0.308123 92.0449 0.369488 91.9602C2.11226 88.3791 4.37051 87.9799 10.8261 87.9799C11.1084 87.9799 11.1084 88.0041 10.9857 88.2219L0.0872094 106.176C-0.0355211 106.333 0.0872079 106.575 0.246758 106.575C4.8737 106.575 10.4825 106.575 15.1094 106.635C15.2935 106.635 15.3917 106.454 15.3917 106.333L15.8335 101.893C15.8335 101.76 15.5267 101.76 15.4899 101.893Z" fill="white"/>
<path d="M29.4567 87.1084C24.4248 87.1084 18.5337 90.3749 18.5337 97.0168C18.5337 102.4 22.412 106.925 28.3644 106.925C34.2555 106.925 39.2629 102.485 39.2629 96.799C39.2629 91.8872 35.5687 87.1084 29.4567 87.1084ZM29.3953 106.175C25.333 106.175 22.3506 101.892 22.3506 95.8916C22.3506 90.9314 24.4248 87.9432 28.2171 87.9432C32.7213 87.9432 35.446 92.1049 35.446 97.7064C35.446 103.138 32.8441 106.175 29.3953 106.175Z" fill="white"/>
<path d="M53.2297 87.1084C48.1977 87.1084 42.3066 90.3749 42.3066 97.0168C42.3066 102.4 46.1849 106.925 52.1496 106.925C58.0407 106.925 63.0481 102.485 63.0481 96.799C63.0358 91.8872 59.3416 87.1084 53.2297 87.1084ZM53.1683 106.175C49.1059 106.175 46.1236 101.892 46.1236 95.8916C46.1236 90.9314 48.1977 87.9432 51.9901 87.9432C56.4943 87.9432 59.2189 92.1049 59.2189 97.7064C59.2189 103.138 56.617 106.175 53.1683 106.175Z" fill="white"/>
<path d="M92.3071 87.4473C91.2517 87.4473 90.6871 87.544 89.5457 87.544C87.987 87.544 87.1525 87.4473 86.0724 87.4473C85.9497 87.4473 85.9497 87.8102 86.0724 87.8102C87.6188 87.8102 88.3061 89.4314 87.4716 91.6332L83.4705 102.183L79.7518 94.44L80.8932 91.4154C81.826 88.9716 82.9428 87.8102 84.3419 87.8102C84.4401 87.8102 84.4401 87.4473 84.3419 87.4473C83.4092 87.4473 82.9428 87.544 81.9241 87.544C80.0586 87.544 80.525 87.4473 79.9114 87.4473C79.7886 87.4473 79.7886 87.8102 79.9114 87.8102C80.9423 87.8102 80.9423 88.9111 80.0096 91.3308L79.2363 93.3874L77.874 90.5444C76.794 88.282 76.7572 87.8223 77.874 87.8223C77.9968 87.8223 77.9968 87.4594 77.874 87.4594C77.1867 87.4594 76.4504 87.5561 74.1185 87.5561C72.8175 87.5561 72.8175 87.4594 72.1916 87.4594C72.0689 87.4594 72.0689 87.8223 72.1916 87.8223C72.9403 87.8223 73.5294 88.645 74.1799 90L77.6286 97.1863L75.6772 102.231L70.0929 90.5444C69.0129 88.282 69.0988 87.8223 70.8048 87.8223C70.9275 87.8223 70.9275 87.4594 70.8048 87.4594C69.9702 87.4594 69.062 87.5561 66.3006 87.5561C64.7541 87.5561 64.7541 87.4594 64.03 87.4594C63.9073 87.4594 63.9073 87.8223 64.03 87.8223C65.2082 87.8223 65.5151 88.1852 66.3865 90L74.3026 106.55C74.3639 106.707 74.9285 106.707 74.9899 106.55L78.1195 98.263L82.096 106.55C82.1573 106.707 82.7219 106.707 82.7833 106.55L88.5271 91.4397C89.3984 89.2015 90.8221 87.8344 92.344 87.8344C92.3931 87.8102 92.3931 87.4473 92.3071 87.4473Z" fill="white"/>
<path d="M101.364 106.2C99.4376 106.2 99.1553 105.861 99.1553 104.083V89.9761C99.1553 88.234 99.4622 87.7984 101.364 87.7984C101.487 87.7984 101.487 87.4355 101.364 87.4355C100.309 87.4355 98.9712 87.5323 97.388 87.5323C95.903 87.5323 94.5038 87.4355 93.4115 87.4355C93.3133 87.4355 93.3133 87.7984 93.4115 87.7984C95.3016 87.7984 95.682 88.1614 95.682 89.9156V104.083C95.682 105.861 95.3139 106.2 93.4115 106.2C93.3133 106.2 93.3133 106.563 93.4115 106.563C94.4916 106.563 95.8907 106.502 97.388 106.502C98.9712 106.502 100.272 106.563 101.364 106.563C101.487 106.563 101.487 106.2 101.364 106.2Z" fill="white"/>
<path d="M118.706 100.997C117.933 103.877 115.38 105.703 112.165 105.703H111.109C109.587 105.703 109.342 105.461 109.342 103.961V89.9516C109.342 88.2094 109.649 87.8102 111.551 87.8102C111.674 87.8102 111.674 87.4473 111.551 87.4473C110.496 87.4473 109.158 87.544 107.611 87.544C106.126 87.544 104.666 87.4473 103.672 87.4473C103.574 87.4473 103.574 87.8102 103.672 87.8102C105.562 87.8102 105.905 88.1732 105.905 89.9274V104.094C105.905 105.873 105.562 106.211 103.672 106.211C103.574 106.211 103.574 106.574 103.672 106.574H118.314C118.657 106.574 118.78 106.453 118.78 106.115C118.78 104.518 118.939 102.413 119.062 101.07C119.05 100.937 118.743 100.876 118.706 100.997Z" fill="white"/>
<path d="M129.322 87.3867C128.046 87.3867 126.058 87.544 124.548 87.544C123.063 87.544 121.725 87.4472 120.633 87.4472C120.51 87.4472 120.51 87.8102 120.633 87.8102C122.499 87.8102 122.842 88.1731 122.842 89.9273V104.094C122.842 105.873 122.474 106.211 120.572 106.211C120.474 106.211 120.474 106.574 120.572 106.574C121.652 106.574 123.051 106.514 124.548 106.514C126.193 106.514 128.426 106.695 129.764 106.695C135.324 106.695 140 102.812 140 96.6902C140 91.4275 135.753 87.3867 129.322 87.3867ZM129.445 105.994C126.843 105.994 126.279 105.292 126.279 103.755V89.9878C126.279 88.3304 127.211 88.0642 129.629 88.0642C133.63 88.0642 136.183 92.1655 136.183 97.3677C136.183 102.957 133.36 105.994 129.445 105.994Z" fill="white"/>
<path d="M132.165 115H131.347L131.629 115.612L129.442 120.063H130.246L130.373 119.826C130.401 119.77 130.458 119.715 130.528 119.659C130.599 119.604 130.712 119.548 130.839 119.506C130.966 119.451 131.121 119.423 131.29 119.381C131.474 119.353 131.671 119.339 131.897 119.339H133.435L133.759 120.063H134.578L132.165 115ZM132.165 118.602C131.812 118.602 131.53 118.63 131.318 118.686C131.107 118.741 130.966 118.811 130.867 118.88L131.981 116.502L133.082 118.602H132.165ZM126.719 119.325C126.691 119.325 126.662 119.325 126.634 119.325C126.578 119.325 126.521 119.325 126.451 119.311C126.38 119.298 126.324 119.27 126.253 119.242C126.183 119.2 126.112 119.145 126.042 119.075C125.971 119.006 125.886 118.908 125.802 118.783L124.899 117.448L126.564 115.111H125.675L124.391 116.975C124.25 117.058 124.08 117.114 123.925 117.128C123.756 117.156 123.601 117.17 123.445 117.17H123.107V115.111H122.373V120.09H123.107V117.907H123.53C123.657 117.907 123.77 117.893 123.897 117.879C124.024 117.865 124.137 117.823 124.264 117.782L125.237 119.311C125.35 119.492 125.463 119.645 125.576 119.743C125.689 119.84 125.788 119.923 125.886 119.979C125.985 120.035 126.098 120.063 126.197 120.076C126.31 120.09 126.408 120.104 126.535 120.104H126.803V119.367C126.775 119.325 126.747 119.325 126.719 119.325ZM118.126 115.083V120.063H118.846V115.083H118.126ZM113.865 115.083V117.017C113.753 117.072 113.64 117.1 113.513 117.114C113.386 117.128 113.273 117.142 113.174 117.142C113.061 117.142 112.92 117.128 112.765 117.114C112.61 117.1 112.455 117.086 112.285 117.058C112.13 117.044 111.975 117.031 111.834 117.003C111.693 116.989 111.594 116.975 111.523 116.975C111.41 116.975 111.312 116.989 111.199 117.003C111.086 117.017 110.987 117.058 110.888 117.1V115.056H110.155V120.035H110.888V117.837C110.987 117.782 111.1 117.754 111.199 117.74C111.312 117.712 111.41 117.712 111.523 117.712C111.594 117.712 111.707 117.726 111.834 117.74C111.975 117.754 112.116 117.768 112.285 117.796C112.44 117.809 112.61 117.823 112.765 117.851C112.92 117.865 113.061 117.879 113.174 117.879C113.273 117.879 113.386 117.865 113.513 117.851C113.64 117.837 113.753 117.796 113.851 117.754V120.076H114.585V115.097H113.865V115.083ZM105.922 115.083V120.063H106.642V115.083H105.922ZM98.5994 115.083L98.9098 115.821H99.4883C99.4601 116.071 99.4319 116.321 99.3895 116.586C99.3472 116.836 99.3049 117.086 99.2485 117.337C99.192 117.587 99.1215 117.823 99.0227 118.046C98.924 118.268 98.8252 118.491 98.6841 118.713C98.5853 118.866 98.5007 118.978 98.416 119.061C98.3314 119.145 98.2608 119.214 98.1903 119.256C98.1197 119.298 98.0492 119.325 97.9928 119.339C97.9363 119.353 97.8658 119.353 97.8093 119.353H97.6683V120.09H97.8093C97.8799 120.09 97.9504 120.09 98.0492 120.076C98.148 120.063 98.2467 120.049 98.3455 120.021C98.4442 119.993 98.5571 119.937 98.6559 119.882C98.7688 119.826 98.8675 119.729 98.9522 119.631C99.1497 119.395 99.3331 119.117 99.4742 118.825C99.6153 118.519 99.7282 118.213 99.8269 117.879C99.9257 117.545 99.9962 117.211 100.067 116.864C100.123 116.516 100.166 116.182 100.208 115.862H101.661V120.104H102.395V115.125H98.5994V115.083ZM94.9029 119.325C94.8746 119.325 94.8464 119.325 94.8182 119.325C94.7618 119.325 94.6912 119.325 94.6348 119.311C94.5784 119.298 94.5078 119.27 94.4373 119.242C94.3667 119.2 94.2962 119.145 94.2256 119.075C94.1551 119.006 94.0704 118.908 93.9858 118.783L93.0828 117.448L94.7477 115.111H93.8588L92.5749 116.975C92.4197 117.058 92.2645 117.114 92.1093 117.128C91.94 117.156 91.7848 117.17 91.6296 117.17H91.291V115.111H90.5573V120.09H91.291V117.907H91.7142C91.8412 117.907 91.9541 117.893 92.0811 117.879C92.208 117.865 92.3209 117.823 92.4479 117.782L93.4214 119.311C93.5343 119.492 93.6472 119.645 93.76 119.743C93.8729 119.854 93.9717 119.923 94.0704 119.979C94.1692 120.035 94.2821 120.063 94.3808 120.076C94.4937 120.09 94.5925 120.104 94.7195 120.104H94.9875V119.367C94.9452 119.325 94.917 119.325 94.9029 119.325ZM81.2735 115H80.4552L80.7374 115.612L78.5505 120.063H79.3547L79.4817 119.826C79.5099 119.77 79.5663 119.715 79.6369 119.659C79.7074 119.604 79.8203 119.548 79.9473 119.506C80.0743 119.451 80.2295 119.423 80.3988 119.381C80.5822 119.353 80.7797 119.339 81.0055 119.339H82.5433L82.8679 120.063H83.7003L81.2735 115ZM81.2735 118.602C80.9208 118.602 80.6386 118.63 80.427 118.686C80.2153 118.741 80.0743 118.811 79.9755 118.88L81.0901 116.502L82.1906 118.602H81.2735ZM74.8962 115.083V117.017C74.7834 117.072 74.6705 117.1 74.5576 117.114C74.4306 117.128 74.3178 117.142 74.219 117.142C74.1061 117.142 73.965 117.128 73.8098 117.114C73.6546 117.1 73.4995 117.086 73.3301 117.058C73.1749 117.044 73.0197 117.031 72.8786 117.003C72.7375 116.989 72.6388 116.975 72.5683 116.975C72.4554 116.975 72.3566 116.989 72.2437 117.003C72.1309 117.017 72.0321 117.058 71.9333 117.1V115.056H71.1997V120.035H71.9333V117.837C72.0321 117.782 72.145 117.754 72.2437 117.74C72.3566 117.712 72.4554 117.712 72.5683 117.712C72.6388 117.712 72.7517 117.726 72.8786 117.74C73.0197 117.754 73.1608 117.768 73.3301 117.796C73.4853 117.809 73.6546 117.823 73.8098 117.851C73.965 117.865 74.1061 117.879 74.219 117.879C74.3178 117.879 74.4306 117.865 74.5576 117.851C74.6846 117.837 74.7975 117.796 74.8962 117.754V120.076H75.6299V115.097H74.8962V115.083ZM67.9969 115.904C67.9264 115.723 67.8276 115.584 67.7006 115.459C67.5736 115.334 67.4184 115.236 67.235 115.181C67.0516 115.111 66.8541 115.083 66.6283 115.083H64.0323V120.063H64.7659V118.143C64.9211 118.06 65.0763 118.004 65.2456 117.976C65.415 117.948 65.5702 117.935 65.7395 117.935H66.6283C66.8541 117.935 67.0516 117.907 67.235 117.837C67.4184 117.768 67.5736 117.67 67.7006 117.545C67.8276 117.42 67.9264 117.267 67.9969 117.086C68.0675 116.905 68.0957 116.711 68.0957 116.488C68.0957 116.28 68.0533 116.085 67.9969 115.904ZM66.6142 117.211H65.7254C65.5561 117.211 65.4009 117.225 65.2315 117.239C65.0763 117.267 64.9211 117.323 64.7659 117.406V115.807H66.6283C66.8682 115.807 67.0516 115.862 67.1786 115.96C67.3056 116.057 67.362 116.238 67.362 116.488C67.362 116.975 67.108 117.211 66.6142 117.211ZM58.6144 115H57.7961L58.0783 115.612L55.8913 120.063H56.6956L56.8225 119.826C56.8508 119.77 56.9072 119.715 56.9777 119.659C57.0483 119.604 57.1612 119.548 57.2881 119.506C57.4151 119.451 57.5703 119.423 57.7396 119.381C57.923 119.353 58.1206 119.339 58.3463 119.339H59.8842L60.2087 120.063H61.0412L58.6144 115ZM58.6144 118.602C58.2617 118.602 57.9795 118.63 57.782 118.686C57.5703 118.741 57.4292 118.811 57.3305 118.88L58.4451 116.502L59.5456 118.602H58.6144ZM52.2371 115.083V117.017C52.1242 117.072 52.0114 117.1 51.8985 117.114C51.7715 117.128 51.6586 117.142 51.5599 117.142C51.447 117.142 51.3059 117.128 51.1507 117.114C50.9955 117.1 50.8403 117.086 50.671 117.058C50.5158 117.044 50.3606 117.031 50.2195 117.003C50.0784 116.989 49.9797 116.975 49.9091 116.975C49.7962 116.975 49.6975 116.989 49.5846 117.003C49.4717 117.017 49.373 117.058 49.2742 117.1L49.2883 115.056H48.5546V120.035H49.2883V117.837C49.3871 117.782 49.4999 117.754 49.5987 117.74C49.7116 117.712 49.8103 117.712 49.9232 117.712C49.9938 117.712 50.1066 117.726 50.2336 117.74C50.3747 117.754 50.5158 117.768 50.6851 117.796C50.8403 117.809 51.0096 117.823 51.1648 117.851C51.32 117.865 51.4611 117.879 51.574 117.879C51.6727 117.879 51.7856 117.865 51.9126 117.851C52.0396 117.837 52.1525 117.796 52.2512 117.754V120.076H52.9849V115.097H52.2371V115.083ZM44.2937 115.083L41.3308 118.922V115.083H40.5971V120.063H41.3308L44.2937 116.224V120.063H45.0274V115.083H44.2937ZM37.3803 115.904C37.3097 115.723 37.211 115.584 37.084 115.459C36.957 115.334 36.8018 115.236 36.6184 115.181C36.435 115.125 36.2374 115.083 36.0117 115.083H33.4156V120.063H34.1493V118.143C34.3045 118.06 34.4597 118.004 34.629 117.976C34.7983 117.948 34.9535 117.935 35.1228 117.935H36.0117C36.2374 117.935 36.435 117.907 36.6184 117.837C36.8018 117.768 36.957 117.67 37.084 117.545C37.211 117.42 37.3097 117.267 37.3803 117.086C37.4508 116.905 37.4931 116.711 37.4931 116.488C37.479 116.28 37.4508 116.085 37.3803 115.904ZM35.9976 117.211H35.1087C34.9394 117.211 34.7842 117.225 34.6149 117.239C34.4597 117.267 34.3045 117.323 34.1493 117.406V115.807H35.9976C36.2374 115.807 36.4209 115.862 36.5478 115.96C36.6748 116.057 36.7313 116.238 36.7313 116.488C36.7454 116.975 36.4914 117.211 35.9976 117.211ZM27.0807 119.325V118.06C27.2359 117.976 27.3911 117.935 27.5463 117.907C27.7015 117.879 27.8708 117.865 28.026 117.865H29.1265V117.128H28.026C27.8567 117.128 27.7015 117.142 27.5322 117.156C27.377 117.17 27.2218 117.225 27.0666 117.323V115.807H29.8884V115.07H26.3329V120.049H30.1847V119.311H27.0807V119.325ZM19.0667 115.083V115.821H20.8727V120.063H21.5922V115.821H23.37V115.083H19.0667ZM13.282 119.325V118.06C13.4372 117.976 13.5924 117.935 13.7476 117.907C13.9028 117.879 14.0721 117.865 14.2273 117.865H15.3278V117.128H14.2414C14.0721 117.128 13.9169 117.142 13.7476 117.156C13.5924 117.17 13.4372 117.225 13.282 117.323V115.807H16.1038V115.07H12.5483V120.049H16.4001V119.311H13.282V119.325ZM9.23272 118.227C9.19039 118.088 9.13396 117.962 9.07752 117.865C9.00697 117.754 8.93642 117.67 8.85177 117.601C8.76711 117.531 8.68246 117.476 8.59781 117.434C8.75301 117.337 8.86588 117.211 8.93643 117.031C9.00697 116.864 9.0493 116.655 9.0493 116.446C9.0493 116.224 9.00697 116.029 8.93643 115.862C8.86588 115.695 8.75301 115.556 8.62603 115.431C8.49905 115.306 8.32973 115.223 8.14632 115.167C7.9629 115.111 7.76537 115.083 7.55373 115.083H5V120.063H7.56785C7.77948 120.063 7.99112 120.035 8.18864 119.993C8.40028 119.937 8.5837 119.868 8.753 119.757C8.92231 119.645 9.0493 119.506 9.14806 119.339C9.24683 119.172 9.30326 118.964 9.30326 118.713C9.30326 118.533 9.27504 118.366 9.23272 118.227ZM5.74778 115.821H7.56785C7.79359 115.821 7.9629 115.862 8.10399 115.96C8.24508 116.057 8.31563 116.224 8.31563 116.46C8.31563 116.697 8.24508 116.864 8.1181 116.975C7.99112 117.086 7.8077 117.142 7.56785 117.142H6.70719C6.53788 117.142 6.38268 117.156 6.21337 117.17C6.05818 117.197 5.90298 117.253 5.74778 117.337V115.821ZM8.47082 118.922C8.41439 119.019 8.34385 119.089 8.24508 119.145C8.16043 119.2 8.06167 119.242 7.9488 119.27C7.83592 119.298 7.73716 119.311 7.63839 119.311H5.73367V118.06C5.88887 117.976 6.04407 117.921 6.19927 117.893C6.36858 117.865 6.52378 117.851 6.67898 117.851H7.53963C7.66661 117.851 7.77948 117.865 7.90646 117.879C8.03344 117.907 8.13221 117.935 8.23098 117.99C8.32974 118.046 8.40028 118.115 8.45672 118.213C8.51315 118.31 8.54137 118.421 8.54137 118.574C8.56959 118.727 8.52726 118.839 8.47082 118.922Z" fill="white"/>
<path d="M111.072 16.2357C111.416 15.7276 111.441 15.0622 111.146 14.5299C110.839 13.9855 110.262 13.6467 109.624 13.6467H99.1553C97.5843 13.6588 96.0502 13.9613 94.602 14.5783C94.4915 14.6267 94.3933 14.663 94.2952 14.7113C92.6506 15.4614 91.2146 16.6712 90.1346 18.2077L88.2936 20.9298C88.0604 20.8693 87.8641 20.8209 87.8273 20.8088C87.5941 20.7483 87.3609 20.6999 87.1277 20.6515C87.0663 20.6394 87.0172 20.6273 86.9681 20.6152C85.3236 13.187 82.918 7.25889 80.9666 3.18181C80.3898 1.972 79.2729 1.11303 77.9474 0.84687C75.6769 0.399239 73.0014 0.0483926 69.9822 0C69.8841 0 69.7736 0 69.6754 0C69.3809 0 69.0863 0 68.7795 0C68.4849 0 68.2026 7.38232e-07 67.9081 0.0120989C67.6258 0.0120989 67.3435 0.0241985 67.049 0.0362966C66.779 0.0483948 66.4967 0.0604922 66.2144 0.0846885C65.9444 0.108885 65.6744 0.120983 65.4044 0.145179C65.1344 0.169375 64.8767 0.181474 64.6066 0.217769C64.3489 0.241965 64.0912 0.278257 63.8334 0.302454C63.588 0.32665 63.3302 0.362946 63.0848 0.399241C62.8393 0.435535 62.6061 0.459731 62.3607 0.508123C62.1275 0.544418 61.8943 0.580711 61.6611 0.617006C61.4402 0.6533 61.207 0.689595 60.9861 0.737987C60.9002 0.750085 60.8265 0.762183 60.7406 0.786379C60.6179 0.810575 60.4952 0.834772 60.3724 0.858969C59.9674 0.955754 59.4274 1.14933 58.8751 1.56066C58.2124 2.05669 57.8565 2.6253 57.6969 2.93985C57.6724 2.98824 57.6478 3.04873 57.6233 3.09712C57.5619 3.2302 57.5005 3.35119 57.4392 3.48427C57.3778 3.61735 57.3165 3.75042 57.2551 3.8835C57.1937 4.01658 57.1201 4.14966 57.0587 4.28274C56.9974 4.42792 56.9237 4.561 56.8623 4.70618C56.801 4.85136 56.7273 4.99653 56.666 5.12961C56.6046 5.27479 56.531 5.41997 56.4696 5.56514C56.4082 5.71032 56.3346 5.8676 56.2732 6.01278C56.1996 6.15795 56.1382 6.31523 56.0769 6.47251C56.0155 6.62978 55.9419 6.78706 55.8805 6.94434C55.8069 7.10161 55.7455 7.25889 55.6841 7.42826C55.6105 7.59764 55.5491 7.75491 55.4755 7.91219C55.4141 8.08156 55.3405 8.25094 55.2791 8.42031C55.2178 8.58968 55.1441 8.75905 55.0828 8.92843C55.0214 9.0978 54.9478 9.26718 54.8864 9.44865C54.8127 9.61803 54.7514 9.7995 54.69 9.96887C54.6164 10.1503 54.555 10.3318 54.4936 10.5133C54.42 10.6948 54.3586 10.8762 54.2973 11.0577C54.2359 11.2392 54.1623 11.4327 54.1009 11.6142C54.0395 11.7957 53.9659 11.9893 53.9045 12.1828C53.8432 12.3764 53.7695 12.57 53.7082 12.7635C53.6468 12.9571 53.5732 13.1507 53.5118 13.3442C53.4504 13.5378 53.3891 13.7435 53.3277 13.9371C53.2663 14.1427 53.205 14.3363 53.1436 14.542C53.0822 14.7476 53.0209 14.9533 52.9595 15.159C52.8982 15.3646 52.8368 15.5703 52.7754 15.776C52.7141 15.9937 52.6527 16.1994 52.5913 16.4051C52.53 16.6228 52.4686 16.8285 52.4072 17.0463C52.3459 17.264 52.2845 17.4818 52.2354 17.6996C52.174 17.9173 52.1127 18.1351 52.0636 18.3529C52.0022 18.5706 51.9531 18.7884 51.8918 19.0183C51.8304 19.2481 51.7813 19.4659 51.7322 19.6958C51.6831 19.9256 51.6218 20.1555 51.5727 20.3733C51.5604 20.4459 51.5481 20.5064 51.5236 20.5789C51.1554 20.6636 50.5908 20.7967 50.0999 20.9056L48.2467 18.2077C47.1789 16.6833 45.743 15.4735 44.0984 14.7234C44.0002 14.675 43.8897 14.6267 43.7915 14.5904C42.3556 13.9734 40.8215 13.6709 39.2382 13.6588H28.7693C28.1311 13.6588 27.542 13.9976 27.2475 14.542C26.9529 15.0864 26.9775 15.7397 27.3088 16.2478L33.9608 26.4465C33.8872 26.4828 33.8136 26.5191 33.7276 26.5554C32.5494 27.0998 31.7026 28.1645 31.4571 29.4227C31.003 31.6729 30.6471 34.3466 30.598 37.347C30.5857 37.9277 30.5857 38.5084 30.598 39.1012C30.6103 39.6577 30.6348 40.2142 30.6717 40.7707C30.7085 41.3031 30.7453 41.8354 30.7944 42.3677C30.8435 42.8758 30.9048 43.3718 30.9662 43.88C30.9785 44.013 31.003 44.1461 31.0153 44.2792C31.0153 44.2792 31.0153 44.2792 31.0153 44.2913C31.0644 44.63 31.1135 44.9688 31.1748 45.3075C31.1994 45.4285 31.2117 45.5616 31.2362 45.6826C31.2362 45.6947 31.2362 45.7068 31.2485 45.731C31.2485 45.7673 31.2608 45.8036 31.2608 45.8278C31.3958 46.3238 31.629 46.9892 32.0831 47.6909C32.6967 48.6466 33.4208 49.2636 33.9117 49.6024C33.9854 49.6387 34.0713 49.675 34.1449 49.7113C34.3781 49.8201 34.6113 49.929 34.8445 50.0379L35.0163 50.1226C35.2986 50.2557 35.5932 50.3767 35.8877 50.5097C36.1823 50.6428 36.4891 50.7638 36.7959 50.8969C37.115 51.03 37.4341 51.163 37.7409 51.284C38.0723 51.4171 38.4037 51.5502 38.7228 51.6712C39.0664 51.8042 39.4101 51.9373 39.7537 52.0704C40.1096 52.2035 40.4655 52.3366 40.8215 52.4575C41.1897 52.5906 41.5578 52.7237 41.926 52.8447C42.3065 52.9778 42.687 53.1108 43.0674 53.2318C43.4602 53.3649 43.8529 53.4859 44.2456 53.6069C44.6507 53.7399 45.0557 53.8609 45.4607 53.9819C45.878 54.1029 46.2952 54.2239 46.7248 54.3448C47.1544 54.4658 47.5839 54.5868 48.0135 54.6957C48.4553 54.8167 48.8971 54.9256 49.339 55.0344C49.7931 55.1433 50.2472 55.2522 50.7013 55.3611C50.9345 55.4095 51.1677 55.4579 51.3886 55.5184C53.0209 62.9224 55.4264 68.8384 57.3655 72.9155C57.9547 74.1495 59.096 75.0327 60.4461 75.2988C62.7043 75.7465 65.3676 76.0852 68.3622 76.1336C68.9513 76.1457 69.5404 76.1457 70.1418 76.1336C70.7063 76.1215 71.2709 76.0973 71.8355 76.061C72.3755 76.0247 72.9155 75.9884 73.4555 75.94C73.971 75.8916 74.4742 75.8311 74.9896 75.7707C75.4683 75.7102 75.9592 75.6376 76.4379 75.565C76.892 75.4924 77.3338 75.4198 77.7879 75.323C77.9229 75.2988 78.0456 75.2746 78.1684 75.2504C78.2175 75.2383 78.2665 75.2262 78.3279 75.2141C78.6716 75.1295 79.2852 74.9238 79.813 74.4399C80.0216 74.2463 80.1934 74.0406 80.3162 73.8592C80.4021 73.6898 80.488 73.5204 80.5739 73.3389C80.5984 73.2784 80.6352 73.2179 80.6598 73.1575V73.1454C80.758 72.9518 80.8439 72.7582 80.9421 72.5646C81.028 72.3832 81.1139 72.2017 81.1998 72.0202C81.2366 71.9355 81.2857 71.8509 81.3225 71.7541C81.4575 71.4758 81.5803 71.1855 81.7153 70.9072C81.8503 70.6048 81.9853 70.3144 82.108 70.0119C82.243 69.6974 82.378 69.3949 82.513 69.0804C82.648 68.7537 82.783 68.4392 82.918 68.1125C83.053 67.7738 83.188 67.435 83.323 67.0963C83.4581 66.7454 83.593 66.3946 83.7281 66.0437C83.8631 65.6808 83.9981 65.3179 84.1208 64.9549C84.2558 64.5799 84.3908 64.2048 84.5135 63.8298C84.6485 63.4427 84.7713 63.0555 84.9063 62.6684C85.0413 62.2691 85.164 61.8699 85.2867 61.4586C85.4095 61.0472 85.5322 60.6359 85.6549 60.2245C85.7777 59.8011 85.9004 59.3777 86.0108 58.9542C86.1336 58.5187 86.244 58.0832 86.3545 57.6476C86.4649 57.2 86.5754 56.7524 86.6859 56.3047C86.7472 56.0628 86.7963 55.8208 86.8577 55.5789C94.6143 53.9093 100.775 51.4292 104.924 49.4693C105.93 48.9975 106.642 48.0901 106.863 47.0134C107.341 44.7026 107.734 41.9322 107.783 38.7987L107.796 38.4963C107.796 38.2059 107.796 37.9156 107.796 37.6131C107.796 37.3228 107.783 37.0445 107.783 36.7542C107.771 36.4759 107.771 36.1976 107.746 35.9194C107.734 35.6411 107.722 35.375 107.697 35.0967C107.685 34.8306 107.661 34.5644 107.636 34.2982C107.611 34.0442 107.587 33.778 107.562 33.5118C107.538 33.2578 107.501 33.0037 107.476 32.7497C107.452 32.5077 107.415 32.2536 107.378 32.0117C107.341 31.7697 107.305 31.5399 107.268 31.2979C107.231 31.068 107.194 30.8382 107.157 30.6083C107.12 30.3784 107.084 30.1607 107.035 29.9429C107.022 29.8461 106.998 29.7493 106.985 29.6525C106.961 29.5316 106.936 29.4106 106.912 29.2896C106.887 29.1686 106.863 29.0476 106.838 28.9267V28.9146C106.728 28.5516 106.519 28.104 106.163 27.6805C105.905 27.3781 105.623 27.1482 105.365 26.9668H105.353C105.243 26.9063 105.132 26.8579 105.022 26.8095C104.899 26.749 104.764 26.6885 104.641 26.628C104.568 26.5917 104.494 26.5554 104.42 26.5312L111.072 16.2357ZM79.6043 61.0351L79.5429 61.1561C79.4448 61.3739 79.322 61.5795 79.1993 61.7973C79.1993 61.7973 79.1993 61.7973 79.187 61.7973C77.4197 64.4952 74.4865 66.3946 71.2709 66.9874C71.1482 67.0116 71.0254 67.0237 70.9027 67.0479C70.8045 67.06 70.7186 67.0721 70.6204 67.0842C70.5836 67.0842 70.5468 67.0963 70.51 67.0963C70.2522 67.1205 69.9945 67.1447 69.7368 67.1568C69.6018 67.1689 69.4668 67.1689 69.3318 67.1689H68.9636C68.8899 67.1689 68.8286 67.1689 68.7549 67.1689C68.6936 67.1689 68.6199 67.1689 68.5586 67.1568C68.4481 67.1447 68.3376 67.1447 68.2149 67.1326C64.3244 66.7575 60.8388 63.9871 58.7033 60.6843C58.691 60.6722 58.691 60.6722 58.691 60.6601L58.6665 60.5996L29.4198 15.7155H39.1769C40.4533 15.7276 41.7542 15.9937 42.9079 16.4777C42.9938 16.514 43.0797 16.5503 43.1656 16.5866C44.4666 17.1794 45.608 18.1472 46.4671 19.357L50.3331 24.9948C50.5417 24.3899 50.824 23.7124 51.2413 23.0228C51.3763 22.8171 51.5727 22.5146 51.5972 22.5025C52.1004 21.7646 52.6404 21.1959 53.1191 20.7483C54.9723 18.8731 57.5374 17.1068 60.5811 16.1026C63.318 15.2074 70.4854 13.5378 77.8247 17.5665C80.1075 18.8247 81.9976 20.7604 83.3353 22.7082C83.3476 22.7203 83.3599 22.7445 83.3844 22.7687L83.3967 22.7808C83.9612 23.5551 84.5626 24.5108 85.0904 25.636C85.1886 25.8416 85.2745 26.0594 85.3726 26.2772C85.6304 26.8942 85.8267 27.4749 85.9986 28.0314L91.8651 19.3691C92.7242 18.1472 93.8656 17.1794 95.1665 16.5866C95.2525 16.5503 95.3384 16.514 95.4243 16.4777C96.5902 15.9937 97.8789 15.7276 99.1553 15.7155H108.925L79.6043 61.0351Z" fill="white"/>
<path d="M78.6963 52.5063C78.4018 53.6073 77.8863 54.5025 77.3095 55.2163C76.1681 56.6197 74.5358 57.5392 72.7439 57.9142C69.9211 58.507 64.5455 59.0635 59.2926 56.293C57.9549 55.5913 55.1689 54.0791 53.1561 50.861C49.6706 45.3079 51.3274 39.271 51.6833 38.0732C52.5916 40.1541 54.543 43.7231 58.4949 46.3484C59.7467 47.171 64.8155 49.6028 69.5284 48.889C70.4979 48.7438 72.4616 48.0179 72.8544 46.1427C73.1489 44.7635 72.3512 43.3238 72.0443 42.9246C72.6334 43.0093 75.3335 43.4327 77.2481 45.8402C77.5304 46.2032 79.6414 48.9495 78.6963 52.5063Z" fill="url(#paint0_linear_637_21990)"/>
<path d="M65.3555 27.4994C65.1714 27.2212 64.5209 27.318 63.8704 27.7172C63.2322 28.1044 62.8518 28.6609 63.0359 28.9391C63.22 29.2174 63.8704 29.1206 64.5086 28.7335C65.1591 28.3221 65.5396 27.7777 65.3555 27.4994ZM86.4897 31.2015C86.3424 30.9474 86.1706 30.6934 85.9987 30.4272C85.9496 30.3667 85.9006 30.2941 85.8515 30.2215C85.8024 30.1368 85.741 30.0522 85.6674 29.9675C85.6428 29.9312 85.606 29.8828 85.5815 29.8465C85.4465 29.665 85.3115 29.4714 85.1519 29.29C85.0414 29.1448 84.9187 28.9996 84.796 28.8544C84.5996 28.6125 84.4032 28.3947 84.2069 28.189C84.2069 28.1769 84.2069 28.1769 84.2069 28.1648C84.1332 27.8987 84.0473 27.6325 83.9614 27.3543C83.9491 27.3301 83.9491 27.2938 83.9369 27.2696C83.9246 27.2575 83.9246 27.2333 83.9246 27.2212C83.8632 27.0397 83.8019 26.8583 83.7282 26.6889C83.7159 26.6526 83.7037 26.6284 83.6914 26.5921V26.58C83.6055 26.3501 83.5073 26.1324 83.4337 25.9146C83.4337 25.9146 83.4337 25.9025 83.4214 25.8904C83.2864 25.6 83.1514 25.3218 83.0164 25.0798C81.8873 22.9747 79.899 20.4341 77.1131 18.9098C70.3015 15.1714 63.6372 16.72 61.0967 17.5548C59.3417 18.1355 57.7584 18.9824 56.4084 19.9623C56.2857 20.0591 56.1507 20.1438 56.0279 20.2406C55.9911 20.2648 55.9543 20.289 55.9175 20.3132C55.3529 20.7366 54.6534 21.3536 53.9661 22.1642C53.9293 22.2126 53.8924 22.2489 53.8556 22.2972C53.8065 22.3456 53.7697 22.4061 53.7206 22.4666C53.6961 22.4908 53.6715 22.5271 53.6592 22.5513C53.6592 22.5513 53.6592 22.5634 53.647 22.5634C53.6224 22.5876 53.6102 22.6118 53.5856 22.636C53.512 22.7328 53.4383 22.8417 53.3524 22.9505C53.3279 22.9868 53.3033 23.011 53.2911 23.0473C53.2542 23.0957 53.2297 23.1441 53.1929 23.1925C53.1806 23.2046 53.1683 23.2288 53.156 23.2409C53.1315 23.2772 53.107 23.3014 53.0824 23.3377C53.0456 23.3982 53.0088 23.4587 52.972 23.5192C52.8615 23.7006 52.751 23.8821 52.6283 24.0878C52.6283 24.0999 52.616 24.0999 52.616 24.112C52.616 24.1241 52.6038 24.1241 52.6038 24.1362C52.5915 24.1604 52.5792 24.1846 52.5669 24.2088C52.5547 24.233 52.5424 24.2571 52.5301 24.2813C52.5056 24.3176 52.4933 24.3418 52.481 24.3781C52.3828 24.5596 52.2969 24.7411 52.211 24.9225C51.9165 25.5637 51.7078 26.1808 51.5483 26.7252C51.4746 26.9913 51.4133 27.2333 51.3642 27.4753C51.3028 27.7777 51.2537 28.056 51.2169 28.31C51.2169 28.3221 51.2169 28.3342 51.2169 28.3584C51.131 29.1569 51.1187 29.9675 51.2169 30.7901C51.4133 32.617 52.0515 34.105 52.6897 35.206C53.1192 34.8914 53.6347 34.7341 54.9602 34.0324C55.3284 33.8389 56.2489 33.4154 56.6416 33.2098C56.3961 32.5444 56.6416 31.7943 57.2062 31.3467C57.8075 30.8627 58.4457 30.3062 59.1085 29.665C59.7712 29.0117 60.3481 28.3584 60.839 27.7414C61.5508 26.8461 62.4468 26.1082 63.4777 25.6121C63.49 25.6121 63.49 25.6 63.5022 25.6C64.5332 25.0919 65.4782 24.8863 66.1287 24.7895C67.7242 24.487 74.2412 23.3861 80.6968 27.2575C85.5937 30.1973 87.8152 34.3954 88.6006 36.0891C88.2202 34.7462 87.5942 33.0162 86.4897 31.2015ZM86.7842 42.0898C86.0724 38.4604 84.0228 36.1012 83.0287 35.1092C79.1626 31.2378 74.2412 30.9595 73.0629 30.9111C73.873 30.7538 74.7934 30.6329 75.7876 30.5603C77.2849 30.4635 78.6349 30.524 79.7763 30.6571C78.4876 30.2094 76.033 29.544 73.0261 30.0159C72.7807 30.0522 72.5352 30.1006 72.302 30.1489C70.8047 30.4635 69.4056 31.1047 68.1292 31.9516C65.9078 33.4275 63.9195 34.0687 62.6554 34.3712C62.6554 34.3712 59.2189 35.1939 57.4148 34.105C57.3289 34.0566 57.243 34.0445 57.0712 33.851C56.3593 34.2502 55.6843 34.6737 54.9479 35.0971C54.3956 35.4116 53.7452 35.7625 53.1929 36.0165C53.5242 36.4884 53.8188 36.8513 54.0152 37.0812C57.1571 40.8558 61.6245 41.618 63.8213 41.993C66.9387 42.5253 69.6633 42.2229 71.6393 41.7753C75.4439 41.9809 78.7454 44.2554 80.0954 47.5582C81.7154 51.5748 79.6658 55.1921 79.3958 55.6518C80.3163 55.2889 84.2928 53.6314 86.1583 49.3608C87.5574 46.2032 87.0297 43.3238 86.7842 42.0898ZM53.5242 35.0245C53.242 35.0971 52.9474 35.206 52.702 35.2181C52.8615 35.4963 53.0333 35.7504 53.1806 35.9681C53.3033 35.823 53.512 35.6173 53.6715 35.4721C53.8311 35.3269 54.8129 34.589 54.9479 34.5043C54.8866 34.5406 53.9415 34.9277 53.5242 35.0245Z" fill="url(#paint1_linear_637_21990)"/>
<path d="M52.6282 24.0753C52.5913 24.1479 52.5545 24.2084 52.5177 24.281C52.5422 24.2326 52.5668 24.1842 52.6036 24.1237C52.6036 24.0995 52.6159 24.0874 52.6282 24.0753Z" fill="white"/>
<path d="M53.3524 22.9385C53.2665 23.0716 53.1683 23.1925 53.0824 23.3256C53.1683 23.1925 53.2665 23.0595 53.3524 22.9385Z" fill="white"/>
<path d="M53.8431 22.2852C53.7572 22.394 53.6713 22.515 53.5731 22.6239C53.6713 22.5029 53.7572 22.3819 53.8431 22.2852Z" fill="white"/>
<defs>
<linearGradient id="paint0_linear_637_21990" x1="26.4825" y1="58.3972" x2="73.4463" y2="44.334" gradientUnits="userSpaceOnUse">
<stop offset="1" stop-color="white"/>
</linearGradient>
<linearGradient id="paint1_linear_637_21990" x1="56.7357" y1="13.7863" x2="85.6499" y2="57.4086" gradientUnits="userSpaceOnUse">
<stop offset="0.5901" stop-color="white"/>
</linearGradient>
</defs>
</svg>
