<svg width="136" height="44" viewBox="0 0 136 44" fill="none" xmlns="http://www.w3.org/2000/svg">
<path d="M48.5084 9.37245C48.7068 9.07913 48.7209 8.69501 48.5509 8.38772C48.3738 8.07344 48.0408 7.87789 47.6724 7.87789H41.6289C40.7221 7.88487 39.8365 8.05947 39.0004 8.41565C38.9367 8.44359 38.88 8.46454 38.8233 8.49248C37.8739 8.92548 37.045 9.62387 36.4215 10.5108L35.3588 12.0822C35.2242 12.0473 35.1108 12.0194 35.0896 12.0124C34.9549 11.9775 34.8203 11.9495 34.6857 11.9216C34.6503 11.9146 34.622 11.9076 34.5936 11.9006C33.6442 7.6125 32.2556 4.19037 31.1291 1.83678C30.7961 1.13838 30.1514 0.642523 29.3862 0.488876C28.0755 0.23047 26.531 0.0279358 24.7881 0C24.7314 0 24.6677 0 24.611 0C24.4409 0 24.2709 0 24.0938 0C23.9237 0 23.7608 4.26162e-07 23.5907 0.00698437C23.4278 0.00698437 23.2648 0.0139692 23.0948 0.0209531C22.9389 0.027937 22.776 0.0349206 22.613 0.0488884C22.4572 0.0628563 22.3013 0.0698403 22.1454 0.0838082C21.9896 0.097776 21.8408 0.10476 21.6849 0.125712C21.5361 0.13968 21.3873 0.160631 21.2386 0.174599C21.0969 0.188566 20.9481 0.20952 20.8064 0.230471C20.6647 0.251423 20.5301 0.265391 20.3884 0.293326C20.2537 0.314278 20.1191 0.33523 19.9845 0.356181C19.857 0.377133 19.7224 0.398085 19.5949 0.426021C19.5453 0.433005 19.5028 0.439988 19.4532 0.453956C19.3823 0.467924 19.3115 0.481892 19.2406 0.49586C19.0068 0.551732 18.6951 0.663476 18.3762 0.90093C17.9937 1.18727 17.7882 1.51552 17.6961 1.6971C17.6819 1.72503 17.6678 1.75995 17.6536 1.78789C17.6182 1.86471 17.5827 1.93455 17.5473 2.01138C17.5119 2.0882 17.4765 2.16502 17.441 2.24185C17.4056 2.31867 17.3631 2.39549 17.3277 2.47232C17.2923 2.55612 17.2497 2.63295 17.2143 2.71676C17.1789 2.80056 17.1364 2.88437 17.101 2.96119C17.0655 3.045 17.023 3.12881 16.9876 3.21261C16.9522 3.29642 16.9097 3.38721 16.8742 3.47102C16.8317 3.55483 16.7963 3.64562 16.7609 3.73641C16.7255 3.8272 16.683 3.91799 16.6475 4.00878C16.605 4.09958 16.5696 4.19037 16.5342 4.28814C16.4917 4.38592 16.4562 4.47671 16.4137 4.5675C16.3783 4.66527 16.3358 4.76305 16.3004 4.86083C16.2649 4.9586 16.2224 5.05637 16.187 5.15415C16.1516 5.25192 16.1091 5.3497 16.0737 5.45446C16.0311 5.55224 15.9957 5.65699 15.9603 5.75477C15.9178 5.85953 15.8824 5.96429 15.8469 6.06905C15.8044 6.17381 15.769 6.27857 15.7336 6.38332C15.6982 6.48808 15.6556 6.59982 15.6202 6.70458C15.5848 6.80934 15.5423 6.92109 15.5069 7.03283C15.4714 7.14457 15.4289 7.25632 15.3935 7.36806C15.3581 7.4798 15.3156 7.59154 15.2801 7.70329C15.2447 7.81503 15.2093 7.93376 15.1739 8.0455C15.1384 8.16423 15.103 8.27597 15.0676 8.3947C15.0322 8.51343 14.9967 8.63215 14.9613 8.75088C14.9259 8.86961 14.8905 8.98833 14.855 9.10706C14.8196 9.23277 14.7842 9.3515 14.7488 9.47023C14.7133 9.59594 14.6779 9.71466 14.6425 9.84038C14.6071 9.96609 14.5716 10.0918 14.5433 10.2175C14.5079 10.3432 14.4725 10.4689 14.4441 10.5946C14.4087 10.7204 14.3804 10.8461 14.3449 10.9788C14.3095 11.1115 14.2812 11.2372 14.2528 11.3699C14.2245 11.5026 14.1891 11.6352 14.1607 11.761C14.1536 11.8029 14.1466 11.8378 14.1324 11.8797C13.9198 11.9286 13.5939 12.0054 13.3105 12.0683L12.2407 10.5108C11.6243 9.63086 10.7954 8.93246 9.84601 8.49946C9.78933 8.47152 9.72557 8.44359 9.66889 8.42264C8.83995 8.06645 7.95434 7.89186 7.04039 7.88487H0.996956C0.62854 7.88487 0.288463 8.08042 0.118425 8.3947C-0.0516134 8.70898 -0.0374435 9.08611 0.153849 9.37943L3.99387 15.2669C3.95136 15.2879 3.90885 15.3088 3.85926 15.3298C3.17911 15.644 2.69025 16.2586 2.54855 16.9849C2.28641 18.284 2.08095 19.8274 2.05261 21.5594C2.04552 21.8947 2.04552 22.2299 2.05261 22.5721C2.05969 22.8934 2.07386 23.2146 2.09512 23.5359C2.11637 23.8432 2.13763 24.1505 2.16597 24.4578C2.19431 24.7511 2.22973 25.0374 2.26515 25.3308C2.27224 25.4076 2.28641 25.4844 2.29349 25.5612C2.29349 25.5612 2.29349 25.5612 2.29349 25.5682C2.32183 25.7638 2.35017 25.9593 2.3856 26.1549C2.39977 26.2247 2.40685 26.3015 2.42102 26.3714C2.42102 26.3784 2.42102 26.3853 2.42811 26.3993C2.42811 26.4203 2.43519 26.4412 2.43519 26.4552C2.51313 26.7415 2.64774 27.1256 2.90988 27.5307C3.26413 28.0824 3.68214 28.4386 3.96553 28.6342C4.00804 28.6551 4.05764 28.6761 4.10015 28.697C4.23476 28.7599 4.36938 28.8227 4.50399 28.8856L4.60317 28.9345C4.76613 29.0113 4.93617 29.0811 5.10621 29.158C5.27624 29.2348 5.45336 29.3046 5.63049 29.3814C5.81469 29.4583 5.9989 29.5351 6.17603 29.6049C6.36732 29.6818 6.55861 29.7586 6.74282 29.8284C6.9412 29.9052 7.13958 29.9821 7.33795 30.0589C7.54342 30.1357 7.74888 30.2125 7.95434 30.2824C8.16689 30.3592 8.37943 30.436 8.59198 30.5059C8.81161 30.5827 9.03125 30.6595 9.25088 30.7293C9.4776 30.8062 9.70431 30.876 9.93103 30.9458C10.1648 31.0227 10.3986 31.0925 10.6324 31.1623C10.8733 31.2322 11.1142 31.302 11.3622 31.3719C11.6102 31.4417 11.8581 31.5115 12.1061 31.5744C12.3612 31.6442 12.6162 31.7071 12.8713 31.77C13.1334 31.8328 13.3956 31.8957 13.6577 31.9585C13.7923 31.9865 13.9269 32.0144 14.0545 32.0493C14.9967 36.3235 16.3854 39.7386 17.5048 42.0922C17.8449 42.8046 18.5038 43.3144 19.2831 43.4681C20.5867 43.7265 22.1242 43.922 23.8529 43.9499C24.193 43.9569 24.533 43.9569 24.8802 43.9499C25.2061 43.943 25.532 43.929 25.8579 43.908C26.1697 43.8871 26.4814 43.8661 26.7931 43.8382C27.0907 43.8103 27.3812 43.7753 27.6787 43.7404C27.9551 43.7055 28.2385 43.6636 28.5148 43.6217C28.7769 43.5798 29.032 43.5379 29.2941 43.482C29.372 43.4681 29.4429 43.4541 29.5137 43.4401C29.5421 43.4331 29.5704 43.4262 29.6058 43.4192C29.8042 43.3703 30.1585 43.2515 30.4631 42.9722C30.5836 42.8605 30.6827 42.7417 30.7536 42.637C30.8032 42.5392 30.8528 42.4414 30.9024 42.3367C30.9165 42.3017 30.9378 42.2668 30.952 42.2319V42.2249C31.0086 42.1132 31.0582 42.0014 31.1149 41.8897C31.1645 41.7849 31.2141 41.6802 31.2637 41.5754C31.285 41.5265 31.3133 41.4776 31.3346 41.4218C31.4125 41.2611 31.4833 41.0935 31.5613 40.9329C31.6392 40.7583 31.7171 40.5907 31.788 40.4161C31.8659 40.2345 31.9439 40.0599 32.0218 39.8783C32.0997 39.6897 32.1777 39.5082 32.2556 39.3196C32.3335 39.124 32.4115 38.9285 32.4894 38.7329C32.5673 38.5304 32.6453 38.3279 32.7232 38.1253C32.8011 37.9158 32.8791 37.7063 32.9499 37.4968C33.0279 37.2803 33.1058 37.0638 33.1766 36.8473C33.2546 36.6238 33.3254 36.4003 33.4034 36.1768C33.4813 35.9464 33.5521 35.7159 33.623 35.4784C33.6938 35.241 33.7647 35.0035 33.8355 34.7661C33.9064 34.5216 33.9772 34.2772 34.041 34.0327C34.1118 33.7813 34.1756 33.5299 34.2394 33.2785C34.3031 33.0201 34.3669 32.7617 34.4307 32.5033C34.4661 32.3636 34.4944 32.2239 34.5299 32.0842C39.0075 31.1204 42.5641 29.6887 44.9589 28.5573C45.5398 28.285 45.9507 27.7612 46.0783 27.1396C46.3546 25.8057 46.5813 24.2063 46.6096 22.3975L46.6167 22.2229C46.6167 22.0553 46.6167 21.8877 46.6167 21.7131C46.6167 21.5455 46.6096 21.3848 46.6096 21.2172C46.6025 21.0566 46.6026 20.896 46.5884 20.7353C46.5813 20.5747 46.5742 20.421 46.56 20.2604C46.553 20.1068 46.5388 19.9531 46.5246 19.7995C46.5104 19.6528 46.4963 19.4992 46.4821 19.3455C46.4679 19.1989 46.4467 19.0522 46.4325 18.9055C46.4183 18.7659 46.3971 18.6192 46.3758 18.4795C46.3546 18.3398 46.3333 18.2071 46.3121 18.0675C46.2908 17.9348 46.2696 17.8021 46.2483 17.6694C46.227 17.5367 46.2058 17.411 46.1775 17.2853C46.1704 17.2294 46.1562 17.1735 46.1491 17.1176C46.1349 17.0478 46.1208 16.978 46.1066 16.9081C46.0924 16.8383 46.0783 16.7684 46.0641 16.6986V16.6916C46.0003 16.4821 45.8799 16.2237 45.6744 15.9793C45.5256 15.8047 45.3627 15.672 45.2139 15.5672H45.2068C45.1431 15.5323 45.0793 15.5044 45.0155 15.4764C44.9447 15.4415 44.8667 15.4066 44.7959 15.3717C44.7534 15.3507 44.7109 15.3298 44.6684 15.3158L48.5084 9.37245ZM30.3427 35.234L30.3072 35.3038C30.2506 35.4295 30.1797 35.5483 30.1089 35.674C30.1089 35.674 30.1089 35.674 30.1018 35.674C29.0816 37.2314 27.3883 38.3279 25.532 38.6701C25.4612 38.6841 25.3903 38.691 25.3195 38.705C25.2628 38.712 25.2132 38.719 25.1565 38.726C25.1353 38.726 25.114 38.7329 25.0927 38.7329C24.944 38.7469 24.7952 38.7609 24.6464 38.7679C24.5685 38.7748 24.4905 38.7748 24.4126 38.7748H24.2001C24.1575 38.7748 24.1221 38.7748 24.0796 38.7748C24.0442 38.7748 24.0017 38.7748 23.9662 38.7679C23.9025 38.7609 23.8387 38.7609 23.7679 38.7539C21.5219 38.5374 19.5098 36.9381 18.2771 35.0315C18.27 35.0245 18.27 35.0245 18.27 35.0175L18.2558 34.9826L1.37246 9.07214H7.00496C7.74179 9.07913 8.49279 9.23277 9.15877 9.51213C9.20837 9.53308 9.25797 9.55404 9.30756 9.57499C10.0586 9.9172 10.7175 10.4759 11.2134 11.1743L13.4451 14.4288C13.5656 14.0796 13.7285 13.6885 13.9694 13.2904C14.0474 13.1717 14.1607 12.9971 14.1749 12.9901C14.4654 12.5641 14.7771 12.2359 15.0534 11.9775C16.1232 10.8949 17.604 9.8753 19.361 9.29563C20.941 8.77882 25.0786 7.81503 29.3154 10.1407C30.6331 10.867 31.7242 11.9844 32.4965 13.1089C32.5036 13.1158 32.5107 13.1298 32.5248 13.1438L32.5319 13.1508C32.8578 13.5977 33.205 14.1495 33.5096 14.799C33.5663 14.9177 33.6159 15.0434 33.6726 15.1691C33.8214 15.5253 33.9347 15.8605 34.0339 16.1818L37.4205 11.1813C37.9164 10.4759 38.5753 9.9172 39.3263 9.57499C39.3759 9.55404 39.4255 9.53308 39.4751 9.51213C40.1482 9.23277 40.8921 9.07913 41.6289 9.07214H47.2685L30.3427 35.234Z" fill="#0B5594"/>
<path d="M29.8187 30.3101C29.6487 30.9457 29.3511 31.4625 29.0181 31.8745C28.3592 32.6847 27.417 33.2154 26.3826 33.4319C24.753 33.7741 21.6498 34.0954 18.6175 32.4961C17.8452 32.091 16.237 31.218 15.075 29.3603C13.0629 26.1547 14.0194 22.6697 14.2248 21.9783C14.7491 23.1795 15.8756 25.2398 18.157 26.7553C18.8796 27.2302 21.8057 28.634 24.5263 28.2219C25.086 28.1381 26.2196 27.7191 26.4463 26.6366C26.6164 25.8404 26.1558 25.0093 25.9787 24.7788C26.3188 24.8277 27.8775 25.0722 28.9827 26.462C29.1457 26.6715 30.3643 28.2568 29.8187 30.3101Z" fill="url(#paint0_linear_858_19181)"/>
<path d="M22.1172 15.874C22.011 15.7134 21.6355 15.7693 21.26 15.9998C20.8916 16.2232 20.6719 16.5445 20.7782 16.7051C20.8845 16.8658 21.26 16.8099 21.6284 16.5864C22.0039 16.349 22.2235 16.0347 22.1172 15.874ZM34.3175 18.0111C34.2324 17.8645 34.1333 17.7178 34.0341 17.5642C34.0057 17.5292 33.9774 17.4873 33.9491 17.4454C33.9207 17.3965 33.8853 17.3477 33.8428 17.2988C33.8286 17.2778 33.8074 17.2499 33.7932 17.2289C33.7153 17.1242 33.6373 17.0124 33.5452 16.9077C33.4815 16.8239 33.4106 16.7401 33.3398 16.6562C33.2264 16.5166 33.113 16.3909 32.9997 16.2721C32.9997 16.2651 32.9997 16.2651 32.9997 16.2582C32.9572 16.1045 32.9076 15.9509 32.858 15.7902C32.8509 15.7763 32.8509 15.7553 32.8438 15.7414C32.8367 15.7344 32.8367 15.7204 32.8367 15.7134C32.8013 15.6087 32.7659 15.5039 32.7234 15.4061C32.7163 15.3852 32.7092 15.3712 32.7021 15.3503V15.3433C32.6525 15.2106 32.5958 15.0849 32.5533 14.9592C32.5533 14.9592 32.5533 14.9522 32.5462 14.9452C32.4683 14.7776 32.3904 14.6169 32.3124 14.4773C31.6606 13.2621 30.5129 11.7954 28.9046 10.9154C24.9725 8.75741 21.1254 9.65136 19.6588 10.1332C18.6456 10.4685 17.7317 10.9574 16.9523 11.5231C16.8815 11.5789 16.8036 11.6278 16.7327 11.6837C16.7115 11.6976 16.6902 11.7116 16.6689 11.7256C16.343 11.97 15.9392 12.3262 15.5424 12.7941C15.5212 12.8221 15.4999 12.843 15.4787 12.871C15.4503 12.8989 15.4291 12.9338 15.4007 12.9687C15.3866 12.9827 15.3724 13.0036 15.3653 13.0176C15.3653 13.0176 15.3653 13.0246 15.3582 13.0246C15.3441 13.0386 15.337 13.0525 15.3228 13.0665C15.2803 13.1224 15.2378 13.1852 15.1882 13.2481C15.174 13.269 15.1599 13.283 15.1528 13.304C15.1315 13.3319 15.1174 13.3598 15.0961 13.3878C15.089 13.3947 15.0819 13.4087 15.0748 13.4157C15.0607 13.4367 15.0465 13.4506 15.0323 13.4716C15.0111 13.5065 14.9898 13.5414 14.9686 13.5763C14.9048 13.6811 14.841 13.7859 14.7702 13.9046C14.7702 13.9116 14.7631 13.9116 14.7631 13.9185C14.7631 13.9255 14.756 13.9255 14.756 13.9325C14.7489 13.9465 14.7418 13.9605 14.7348 13.9744C14.7277 13.9884 14.7206 14.0024 14.7135 14.0163C14.6993 14.0373 14.6923 14.0512 14.6852 14.0722C14.6285 14.1769 14.5789 14.2817 14.5293 14.3865C14.3593 14.7566 14.2388 15.1128 14.1467 15.4271C14.1042 15.5807 14.0688 15.7204 14.0404 15.8601C14.005 16.0347 13.9767 16.1953 13.9554 16.342C13.9554 16.349 13.9554 16.3559 13.9554 16.3699C13.9058 16.8308 13.8987 17.2988 13.9554 17.7737C14.0688 18.8283 14.4372 19.6873 14.8056 20.3228C15.0536 20.1412 15.3512 20.0504 16.1163 19.6454C16.3289 19.5336 16.8602 19.2892 17.087 19.1705C16.9453 18.7864 17.087 18.3533 17.4129 18.0949C17.76 17.8156 18.1284 17.4943 18.511 17.1242C18.8936 16.747 19.2266 16.3699 19.51 16.0137C19.9209 15.4969 20.4381 15.0709 21.0333 14.7846C21.0403 14.7846 21.0403 14.7776 21.0474 14.7776C21.6426 14.4842 22.1881 14.3655 22.5636 14.3096C23.4846 14.135 27.2467 13.4995 30.9734 15.7344C33.8003 17.4315 35.0826 19.8549 35.5361 20.8326C35.3164 20.0574 34.9551 19.0587 34.3175 18.0111ZM34.4875 24.2967C34.0766 22.2015 32.8934 20.8396 32.3195 20.2669C30.0878 18.0321 27.2467 17.8715 26.5666 17.8435C27.0342 17.7527 27.5655 17.6829 28.1394 17.641C29.0038 17.5851 29.7831 17.62 30.442 17.6969C29.6981 17.4385 28.2811 17.0543 26.5453 17.3267C26.4036 17.3477 26.2619 17.3756 26.1273 17.4035C25.2629 17.5851 24.4553 17.9553 23.7184 18.4441C22.4361 19.2962 21.2883 19.6663 20.5586 19.8409C20.5586 19.8409 18.5748 20.3158 17.5333 19.6873C17.4837 19.6593 17.4341 19.6524 17.3349 19.5406C16.924 19.7711 16.5343 20.0155 16.1092 20.26C15.7904 20.4415 15.4149 20.6441 15.0961 20.7907C15.2874 21.0631 15.4574 21.2726 15.5708 21.4053C17.3845 23.5843 19.9634 24.0243 21.2316 24.2408C23.0312 24.5481 24.6041 24.3735 25.7447 24.1151C27.941 24.2338 29.8469 25.5468 30.6262 27.4534C31.5614 29.7721 30.3783 31.8603 30.2224 32.1257C30.7538 31.9162 33.0493 30.9594 34.1262 28.494C34.9339 26.6712 34.6292 25.009 34.4875 24.2967ZM15.2874 20.2181C15.1244 20.26 14.9544 20.3228 14.8127 20.3298C14.9048 20.4904 15.004 20.6371 15.089 20.7628C15.1599 20.679 15.2803 20.5603 15.3724 20.4765C15.4645 20.3927 16.0313 19.9666 16.1092 19.9178C16.0738 19.9387 15.5283 20.1622 15.2874 20.2181Z" fill="url(#paint1_linear_858_19181)"/>
<path d="M14.7703 13.8992C14.7491 13.9411 14.7278 13.976 14.7065 14.0179C14.7207 13.99 14.7349 13.962 14.7561 13.9271C14.7561 13.9131 14.7632 13.9062 14.7703 13.8992Z" fill="white"/>
<path d="M15.1881 13.2417C15.1385 13.3185 15.0818 13.3884 15.0322 13.4652C15.0818 13.3884 15.1385 13.3115 15.1881 13.2417Z" fill="white"/>
<path d="M15.4718 12.8652C15.4222 12.9281 15.3726 12.9979 15.3159 13.0608C15.3726 12.9909 15.4222 12.9211 15.4718 12.8652Z" fill="white"/>
<path d="M63.3833 20.6207C63.1495 21.8917 61.8601 22.9882 60.5494 22.9882H56.929C56.7873 22.9882 56.766 22.9742 56.8581 22.8485L63.0574 12.5193C63.1283 12.4494 63.0432 12.2888 62.9299 12.2888H56.3905C55.4766 12.2888 55.2994 12.219 55.3703 11.793C55.3844 11.7371 55.1719 11.7022 55.1577 11.758L54.4422 14.831C54.428 14.9008 54.6193 14.9357 54.6547 14.8868C55.6608 12.8196 56.9644 12.5891 60.6911 12.5891C60.854 12.5891 60.854 12.6031 60.7832 12.7288L54.4917 23.093C54.4209 23.1838 54.4917 23.3234 54.5839 23.3234C57.2549 23.3234 60.4927 23.3234 63.1637 23.3584C63.27 23.3584 63.3266 23.2536 63.3266 23.1838L63.5817 20.6207C63.5817 20.5438 63.4046 20.5438 63.3833 20.6207Z" fill="#0A7040"/>
<path d="M71.4462 12.0854C68.5414 12.0854 65.1406 13.9711 65.1406 17.8053C65.1406 20.9132 67.3795 23.5251 70.8156 23.5251C74.2164 23.5251 77.107 20.962 77.107 17.6796C77.107 14.8441 74.9745 12.0854 71.4462 12.0854ZM71.4108 23.0921C69.0657 23.0921 67.344 20.6198 67.344 17.1558C67.344 14.2924 68.5414 12.5673 70.7306 12.5673C73.3308 12.5673 74.9036 14.9698 74.9036 18.2034C74.9036 21.3392 73.4016 23.0921 71.4108 23.0921Z" fill="#0A7040"/>
<path d="M85.1693 12.0854C82.2645 12.0854 78.8638 13.9711 78.8638 17.8053C78.8638 20.9132 81.1026 23.5251 84.5459 23.5251C87.9466 23.5251 90.8373 20.962 90.8373 17.6796C90.8302 14.8441 88.6976 12.0854 85.1693 12.0854ZM85.1339 23.0921C82.7888 23.0921 81.0672 20.6198 81.0672 17.1558C81.0672 14.2924 82.2645 12.5673 84.4538 12.5673C87.0539 12.5673 88.6268 14.9698 88.6268 18.2034C88.6268 21.3392 87.1248 23.0921 85.1339 23.0921Z" fill="#0A7040"/>
<path d="M107.728 12.2825C107.119 12.2825 106.793 12.3383 106.134 12.3383C105.234 12.3383 104.752 12.2825 104.129 12.2825C104.058 12.2825 104.058 12.492 104.129 12.492C105.021 12.492 105.418 13.4278 104.936 14.6989L102.627 20.7889L100.48 16.3192L101.139 14.5732C101.677 13.1624 102.322 12.492 103.13 12.492C103.186 12.492 103.186 12.2825 103.13 12.2825C102.591 12.2825 102.322 12.3383 101.734 12.3383C100.657 12.3383 100.926 12.2825 100.572 12.2825C100.501 12.2825 100.501 12.492 100.572 12.492C101.167 12.492 101.167 13.1275 100.629 14.5243L100.182 15.7116L99.396 14.0704C98.7725 12.7644 98.7513 12.499 99.396 12.499C99.4668 12.499 99.4668 12.2895 99.396 12.2895C98.9992 12.2895 98.5741 12.3453 97.228 12.3453C96.477 12.3453 96.477 12.2895 96.1157 12.2895C96.0448 12.2895 96.0448 12.499 96.1157 12.499C96.5479 12.499 96.8879 12.9739 97.2634 13.7561L99.2543 17.9045L98.1278 20.8168L94.9042 14.0704C94.2807 12.7644 94.3303 12.499 95.3151 12.499C95.3859 12.499 95.3859 12.2895 95.3151 12.2895C94.8333 12.2895 94.309 12.3453 92.7149 12.3453C91.8222 12.3453 91.8222 12.2895 91.4042 12.2895C91.3334 12.2895 91.3334 12.499 91.4042 12.499C92.0844 12.499 92.2615 12.7085 92.7645 13.7561L97.3343 23.3101C97.3697 23.4009 97.6956 23.4009 97.731 23.3101L99.5377 18.5261L101.833 23.3101C101.869 23.4009 102.195 23.4009 102.23 23.3101L105.546 14.5872C106.049 13.2951 106.871 12.506 107.749 12.506C107.777 12.492 107.777 12.2825 107.728 12.2825Z" fill="#0A7040"/>
<path d="M112.957 23.1068C111.844 23.1068 111.681 22.9112 111.681 21.8846V13.7413C111.681 12.7356 111.859 12.4842 112.957 12.4842C113.028 12.4842 113.028 12.2747 112.957 12.2747C112.347 12.2747 111.575 12.3305 110.661 12.3305C109.804 12.3305 108.996 12.2747 108.366 12.2747C108.309 12.2747 108.309 12.4842 108.366 12.4842C109.457 12.4842 109.676 12.6937 109.676 13.7064V21.8846C109.676 22.9112 109.464 23.1068 108.366 23.1068C108.309 23.1068 108.309 23.3163 108.366 23.3163C108.989 23.3163 109.797 23.2814 110.661 23.2814C111.575 23.2814 112.326 23.3163 112.957 23.3163C113.028 23.3163 113.028 23.1068 112.957 23.1068Z" fill="#0A7040"/>
<path d="M122.968 20.1045C122.521 21.7667 121.048 22.8212 119.191 22.8212H118.582C117.704 22.8212 117.562 22.6816 117.562 21.8156V13.7281C117.562 12.7225 117.739 12.492 118.837 12.492C118.908 12.492 118.908 12.2825 118.837 12.2825C118.228 12.2825 117.456 12.3383 116.563 12.3383C115.706 12.3383 114.862 12.2825 114.289 12.2825C114.232 12.2825 114.232 12.492 114.289 12.492C115.38 12.492 115.578 12.7015 115.578 13.7142V21.8924C115.578 22.919 115.38 23.1146 114.289 23.1146C114.232 23.1146 114.232 23.3241 114.289 23.3241H122.741C122.939 23.3241 123.01 23.2542 123.01 23.0587C123.01 22.1368 123.102 20.9216 123.173 20.1464C123.166 20.0696 122.989 20.0346 122.968 20.1045Z" fill="#0A7040"/>
<path d="M129.096 12.2461C128.359 12.2461 127.211 12.3369 126.339 12.3369C125.482 12.3369 124.71 12.281 124.079 12.281C124.009 12.281 124.009 12.4905 124.079 12.4905C125.156 12.4905 125.355 12.7001 125.355 13.7127V21.8909C125.355 22.9176 125.142 23.1131 124.044 23.1131C123.987 23.1131 123.987 23.3226 124.044 23.3226C124.667 23.3226 125.475 23.2877 126.339 23.2877C127.289 23.2877 128.578 23.3925 129.351 23.3925C132.56 23.3925 135.259 21.1506 135.259 17.6167C135.259 14.5787 132.808 12.2461 129.096 12.2461ZM129.166 22.9874C127.664 22.9874 127.338 22.5823 127.338 21.6954V13.7476C127.338 12.7908 127.877 12.6372 129.273 12.6372C131.582 12.6372 133.056 15.0048 133.056 18.0078C133.056 21.2344 131.426 22.9874 129.166 22.9874Z" fill="#0A7040"/>
<path d="M126.127 29.6621H125.716L125.858 29.9694L124.76 32.2043H125.164L125.228 32.0855C125.242 32.0576 125.27 32.0297 125.305 32.0017C125.341 31.9738 125.398 31.9459 125.461 31.9249C125.525 31.897 125.603 31.883 125.688 31.8621C125.78 31.8481 125.879 31.8411 125.993 31.8411H126.765L126.928 32.2043H127.339L126.127 29.6621ZM126.127 31.471C125.95 31.471 125.809 31.4849 125.702 31.5129C125.596 31.5408 125.525 31.5757 125.476 31.6106L126.035 30.4164L126.588 31.471H126.127ZM123.393 31.8341C123.378 31.8341 123.364 31.8341 123.35 31.8341C123.322 31.8341 123.293 31.8341 123.258 31.8271C123.223 31.8201 123.194 31.8062 123.159 31.7922C123.123 31.7713 123.088 31.7433 123.052 31.7084C123.017 31.6735 122.975 31.6246 122.932 31.5617L122.479 30.8913L123.315 29.718H122.868L122.224 30.6538C122.153 30.6957 122.068 30.7237 121.99 30.7307C121.905 30.7446 121.827 30.7516 121.749 30.7516H121.579V29.718H121.21V32.2182H121.579V31.1218H121.791C121.855 31.1218 121.912 31.1148 121.976 31.1078C122.039 31.1008 122.096 31.0798 122.16 31.0589L122.649 31.8271C122.705 31.9179 122.762 31.9948 122.819 32.0436C122.875 32.0925 122.925 32.1344 122.975 32.1624C123.024 32.1903 123.081 32.2043 123.13 32.2112C123.187 32.2182 123.237 32.2252 123.3 32.2252H123.435V31.8551C123.421 31.8341 123.407 31.8341 123.393 31.8341ZM119.078 29.704V32.2043H119.439V29.704H119.078ZM116.938 29.704V30.6748C116.882 30.7027 116.825 30.7167 116.761 30.7237C116.697 30.7307 116.641 30.7376 116.591 30.7376C116.534 30.7376 116.464 30.7307 116.386 30.7237C116.308 30.7167 116.23 30.7097 116.145 30.6957C116.067 30.6888 115.989 30.6818 115.918 30.6678C115.847 30.6608 115.798 30.6538 115.762 30.6538C115.705 30.6538 115.656 30.6608 115.599 30.6678C115.542 30.6748 115.493 30.6957 115.443 30.7167V29.69H115.075V32.1903H115.443V31.0868C115.493 31.0589 115.55 31.0449 115.599 31.038C115.656 31.024 115.705 31.024 115.762 31.024C115.798 31.024 115.854 31.031 115.918 31.038C115.989 31.0449 116.06 31.0519 116.145 31.0659C116.223 31.0729 116.308 31.0798 116.386 31.0938C116.464 31.1008 116.534 31.1078 116.591 31.1078C116.641 31.1078 116.697 31.1008 116.761 31.0938C116.825 31.0868 116.882 31.0659 116.931 31.0449V32.2112H117.3V29.711H116.938V29.704ZM112.949 29.704V32.2043H113.311V29.704H112.949ZM109.272 29.704L109.428 30.0742H109.719C109.704 30.1999 109.69 30.3256 109.669 30.4583C109.648 30.584 109.627 30.7097 109.598 30.8354C109.57 30.9611 109.534 31.0799 109.485 31.1916C109.435 31.3033 109.386 31.4151 109.315 31.5268C109.265 31.6037 109.223 31.6595 109.18 31.7014C109.138 31.7433 109.102 31.7783 109.067 31.7992C109.031 31.8202 108.996 31.8341 108.968 31.8411C108.939 31.8481 108.904 31.8481 108.876 31.8481H108.805V32.2182H108.876C108.911 32.2182 108.946 32.2182 108.996 32.2112C109.046 32.2043 109.095 32.1973 109.145 32.1833C109.194 32.1694 109.251 32.1414 109.301 32.1135C109.357 32.0855 109.407 32.0367 109.449 31.9878C109.549 31.869 109.641 31.7294 109.712 31.5827C109.782 31.429 109.839 31.2754 109.889 31.1078C109.938 30.9402 109.974 30.7726 110.009 30.598C110.037 30.4234 110.059 30.2557 110.08 30.0951H110.81V32.2252H111.178V29.725H109.272V29.704ZM107.416 31.8341C107.402 31.8341 107.388 31.8341 107.374 31.8341C107.345 31.8341 107.31 31.8341 107.281 31.8271C107.253 31.8201 107.218 31.8062 107.182 31.7922C107.147 31.7713 107.111 31.7433 107.076 31.7084C107.041 31.6735 106.998 31.6246 106.956 31.5617L106.502 30.8913L107.338 29.718H106.892L106.247 30.6538C106.169 30.6957 106.091 30.7237 106.013 30.7307C105.928 30.7446 105.85 30.7516 105.772 30.7516H105.602V29.718H105.234V32.2182H105.602V31.1218H105.815C105.879 31.1218 105.935 31.1148 105.999 31.1078C106.063 31.1008 106.12 31.0798 106.183 31.0589L106.672 31.8271C106.729 31.9179 106.786 31.9948 106.842 32.0436C106.899 32.0995 106.948 32.1344 106.998 32.1624C107.048 32.1903 107.104 32.2043 107.154 32.2112C107.211 32.2182 107.26 32.2252 107.324 32.2252H107.459V31.8551C107.437 31.8341 107.423 31.8341 107.416 31.8341ZM100.572 29.6621H100.161L100.303 29.9694L99.2047 32.2043H99.6085L99.6723 32.0855C99.6864 32.0576 99.7148 32.0297 99.7502 32.0017C99.7856 31.9738 99.8423 31.9459 99.9061 31.9249C99.9698 31.897 100.048 31.883 100.133 31.8621C100.225 31.8481 100.324 31.8411 100.437 31.8411H101.21L101.373 32.2043H101.791L100.572 29.6621ZM100.572 31.471C100.395 31.471 100.253 31.4849 100.147 31.5129C100.041 31.5408 99.9698 31.5757 99.9202 31.6106L100.48 30.4164L101.033 31.471H100.572ZM97.3697 29.704V30.6748C97.313 30.7027 97.2563 30.7167 97.1996 30.7237C97.1359 30.7307 97.0792 30.7376 97.0296 30.7376C96.9729 30.7376 96.9021 30.7307 96.8241 30.7237C96.7462 30.7167 96.6683 30.7097 96.5832 30.6957C96.5053 30.6888 96.4274 30.6818 96.3565 30.6678C96.2857 30.6608 96.2361 30.6538 96.2006 30.6538C96.144 30.6538 96.0944 30.6608 96.0377 30.6678C95.981 30.6748 95.9314 30.6957 95.8818 30.7167V29.69H95.5134V32.1903H95.8818V31.0868C95.9314 31.0589 95.9881 31.0449 96.0377 31.038C96.0944 31.024 96.144 31.024 96.2006 31.024C96.2361 31.024 96.2927 31.031 96.3565 31.038C96.4274 31.0449 96.4982 31.0519 96.5832 31.0659C96.6612 31.0729 96.7462 31.0798 96.8241 31.0938C96.9021 31.1008 96.9729 31.1078 97.0296 31.1078C97.0792 31.1078 97.1359 31.1008 97.1996 31.0938C97.2634 31.0868 97.3201 31.0659 97.3697 31.0449V32.2112H97.7381V29.711H97.3697V29.704ZM93.9051 30.1161C93.8697 30.0253 93.8201 29.9554 93.7564 29.8926C93.6926 29.8297 93.6147 29.7808 93.5225 29.7529C93.4304 29.718 93.3313 29.704 93.2179 29.704H91.9143V32.2043H92.2827V31.2405C92.3606 31.1986 92.4386 31.1706 92.5236 31.1567C92.6086 31.1427 92.6865 31.1357 92.7715 31.1357H93.2179C93.3313 31.1357 93.4304 31.1218 93.5225 31.0868C93.6147 31.0519 93.6926 31.003 93.7564 30.9402C93.8201 30.8773 93.8697 30.8005 93.9051 30.7097C93.9406 30.6189 93.9547 30.5211 93.9547 30.4094C93.9547 30.3046 93.9335 30.2069 93.9051 30.1161ZM93.2108 30.7726H92.7645C92.6794 30.7726 92.6015 30.7795 92.5165 30.7865C92.4386 30.8005 92.3606 30.8284 92.2827 30.8703V30.0672H93.2179C93.3383 30.0672 93.4304 30.0951 93.4942 30.144C93.558 30.1929 93.5863 30.2837 93.5863 30.4094C93.5863 30.6538 93.4588 30.7726 93.2108 30.7726ZM89.1937 29.6621H88.7827L88.9244 29.9694L87.8263 32.2043H88.2301L88.2939 32.0855C88.3081 32.0576 88.3364 32.0297 88.3718 32.0017C88.4072 31.9738 88.4639 31.9459 88.5277 31.9249C88.5914 31.897 88.6694 31.883 88.7544 31.8621C88.8465 31.8481 88.9457 31.8411 89.0591 31.8411H89.8313L89.9943 32.2043H90.4123L89.1937 29.6621ZM89.1937 31.471C89.0165 31.471 88.8748 31.4849 88.7757 31.5129C88.6694 31.5408 88.5985 31.5757 88.5489 31.6106L89.1086 30.4164L89.6613 31.471H89.1937ZM85.9913 29.704V30.6748C85.9346 30.7027 85.8779 30.7167 85.8213 30.7237C85.7575 30.7307 85.7008 30.7376 85.6512 30.7376C85.5945 30.7376 85.5237 30.7307 85.4457 30.7237C85.3678 30.7167 85.2899 30.7097 85.2049 30.6957C85.1269 30.6888 85.049 30.6818 84.9781 30.6678C84.9073 30.6608 84.8577 30.6538 84.8223 30.6538C84.7656 30.6538 84.716 30.6608 84.6593 30.6678C84.6026 30.6748 84.553 30.6957 84.5035 30.7167L84.5105 29.69H84.1421V32.1903H84.5105V31.0868C84.5601 31.0589 84.6168 31.0449 84.6664 31.038C84.7231 31.024 84.7727 31.024 84.8294 31.024C84.8648 31.024 84.9215 31.031 84.9852 31.038C85.0561 31.0449 85.1269 31.0519 85.2119 31.0659C85.2899 31.0729 85.3749 31.0798 85.4528 31.0938C85.5308 31.1008 85.6016 31.1078 85.6583 31.1078C85.7079 31.1078 85.7646 31.1008 85.8283 31.0938C85.8921 31.0868 85.9488 31.0659 85.9984 31.0449V32.2112H86.3668V29.711H85.9913V29.704ZM82.0025 29.704L80.5146 31.6316V29.704H80.1462V32.2043H80.5146L82.0025 30.2767V32.2043H82.3709V29.704H82.0025ZM78.5309 30.1161C78.4954 30.0253 78.4459 29.9554 78.3821 29.8926C78.3183 29.8297 78.2404 29.7808 78.1483 29.7529C78.0562 29.725 77.957 29.704 77.8436 29.704H76.54V32.2043H76.9084V31.2405C76.9864 31.1986 77.0643 31.1706 77.1493 31.1567C77.2343 31.1427 77.3123 31.1357 77.3973 31.1357H77.8436C77.957 31.1357 78.0562 31.1218 78.1483 31.0868C78.2404 31.0519 78.3183 31.003 78.3821 30.9402C78.4459 30.8773 78.4954 30.8005 78.5309 30.7097C78.5663 30.6189 78.5876 30.5211 78.5876 30.4094C78.5805 30.3046 78.5663 30.2069 78.5309 30.1161ZM77.8366 30.7726H77.3902C77.3052 30.7726 77.2273 30.7795 77.1422 30.7865C77.0643 30.8005 76.9864 30.8284 76.9084 30.8703V30.0672H77.8366C77.957 30.0672 78.0491 30.0951 78.1129 30.144C78.1766 30.1929 78.205 30.2837 78.205 30.4094C78.2121 30.6538 78.0845 30.7726 77.8366 30.7726ZM73.3589 31.8341V31.1986C73.4368 31.1567 73.5148 31.1357 73.5927 31.1218C73.6706 31.1078 73.7556 31.1008 73.8336 31.1008H74.3862V30.7307H73.8336C73.7486 30.7307 73.6706 30.7376 73.5856 30.7446C73.5077 30.7516 73.4297 30.7795 73.3518 30.8284V30.0672H74.7688V29.697H72.9834V32.1973H74.9176V31.8271H73.3589V31.8341ZM69.3347 29.704V30.0742H70.2415V32.2043H70.6029V30.0742H71.4956V29.704H69.3347ZM66.4298 31.8341V31.1986C66.5078 31.1567 66.5857 31.1357 66.6636 31.1218C66.7416 31.1078 66.8266 31.1008 66.9045 31.1008H67.4572V30.7307H66.9116C66.8266 30.7307 66.7487 30.7376 66.6636 30.7446C66.5857 30.7516 66.5078 30.7795 66.4298 30.8284V30.0672H67.8468V29.697H66.0614V32.1973H67.9956V31.8271H66.4298V31.8341ZM64.3965 31.2824C64.3752 31.2125 64.3469 31.1497 64.3185 31.1008C64.2831 31.0449 64.2477 31.003 64.2052 30.9681C64.1627 30.9332 64.1202 30.9053 64.0776 30.8843C64.1556 30.8354 64.2123 30.7726 64.2477 30.6818C64.2831 30.598 64.3044 30.4932 64.3044 30.3884C64.3044 30.2767 64.2831 30.1789 64.2477 30.0951C64.2123 30.0113 64.1556 29.9415 64.0918 29.8786C64.0281 29.8158 63.943 29.7739 63.8509 29.7459C63.7588 29.718 63.6596 29.704 63.5534 29.704H62.271V32.2043H63.5605C63.6667 32.2043 63.773 32.1903 63.8722 32.1693C63.9785 32.1414 64.0706 32.1065 64.1556 32.0506C64.2406 31.9948 64.3044 31.9249 64.354 31.8411C64.4036 31.7573 64.4319 31.6525 64.4319 31.5268C64.4319 31.436 64.4177 31.3522 64.3965 31.2824ZM62.6465 30.0742H63.5605C63.6738 30.0742 63.7588 30.0951 63.8297 30.144C63.9005 30.1929 63.936 30.2767 63.936 30.3954C63.936 30.5142 63.9005 30.598 63.8368 30.6538C63.773 30.7097 63.6809 30.7376 63.5605 30.7376H63.1283C63.0432 30.7376 62.9653 30.7446 62.8803 30.7516C62.8024 30.7656 62.7244 30.7935 62.6465 30.8354V30.0742ZM64.0139 31.6316C63.9855 31.6805 63.9501 31.7154 63.9005 31.7433C63.858 31.7713 63.8084 31.7922 63.7517 31.8062C63.6951 31.8202 63.6455 31.8271 63.5959 31.8271H62.6394V31.1986C62.7173 31.1567 62.7953 31.1287 62.8732 31.1148C62.9582 31.1008 63.0362 31.0938 63.1141 31.0938H63.5463C63.61 31.0938 63.6667 31.1008 63.7305 31.1078C63.7943 31.1218 63.8438 31.1357 63.8934 31.1637C63.943 31.1916 63.9785 31.2265 64.0068 31.2754C64.0351 31.3243 64.0493 31.3802 64.0493 31.457C64.0635 31.5338 64.0422 31.5897 64.0139 31.6316Z" fill="#0B5594"/>
<defs>
<linearGradient id="paint0_linear_858_19181" x1="-0.322962" y1="33.7108" x2="26.788" y2="25.5924" gradientUnits="userSpaceOnUse">
<stop offset="0.0469805" stop-color="#0B5594"/>
<stop offset="0.5901" stop-color="#0A7040"/>
<stop offset="1" stop-color="#DBB14F"/>
</linearGradient>
<linearGradient id="paint1_linear_858_19181" x1="17.1413" y1="7.95783" x2="33.8327" y2="33.1398" gradientUnits="userSpaceOnUse">
<stop offset="0.0469805" stop-color="#0B5594"/>
<stop offset="0.5901" stop-color="#0A7040"/>
<stop offset="1" stop-color="#DBB14F"/>
</linearGradient>
</defs>
</svg>
