<svg width="145" height="47" viewBox="0 0 145 47" fill="none" xmlns="http://www.w3.org/2000/svg">
<path d="M69.4105 22.0075C69.1656 23.3388 67.8151 24.4872 66.4423 24.4872H62.6503C62.5019 24.4872 62.4797 24.4726 62.5761 24.3409L69.0692 13.5223C69.1434 13.4491 69.0543 13.2809 68.9356 13.2809H62.0864C61.1291 13.2809 60.9436 13.2077 61.0178 12.7615C61.0326 12.703 60.81 12.6664 60.7952 12.725L60.0457 15.9435C60.0309 16.0166 60.2312 16.0532 60.2683 16.002C61.3221 13.8368 62.6874 13.5954 66.5907 13.5954C66.7614 13.5954 66.7614 13.61 66.6872 13.7417L60.0977 24.597C60.0234 24.6921 60.0977 24.8384 60.1941 24.8384C62.9917 24.8384 66.3829 24.8384 69.1805 24.8749C69.2918 24.8749 69.3512 24.7652 69.3512 24.6921L69.6183 22.0075C69.6183 21.927 69.4328 21.927 69.4105 22.0075Z" fill="white"/>
<path d="M77.8563 13.0685C74.8138 13.0685 71.252 15.0435 71.252 19.0594C71.252 22.3145 73.5969 25.0502 77.1959 25.0502C80.7578 25.0502 83.7854 22.3657 83.7854 18.9277C83.7854 15.9578 81.5518 13.0685 77.8563 13.0685ZM77.8192 24.5967C75.363 24.5967 73.5598 22.0072 73.5598 18.3791C73.5598 15.38 74.8138 13.5732 77.1068 13.5732C79.8302 13.5732 81.4776 16.0895 81.4776 19.4763C81.4776 22.7607 79.9044 24.5967 77.8192 24.5967Z" fill="white"/>
<path d="M92.2293 13.0684C89.1869 13.0684 85.625 15.0434 85.625 19.0592C85.625 22.3143 87.9699 25.0501 91.5763 25.0501C95.1382 25.0501 98.1658 22.3655 98.1658 18.9276C98.1584 15.9577 95.9248 13.0684 92.2293 13.0684ZM92.1922 24.5966C89.736 24.5966 87.9328 22.0071 87.9328 18.3789C87.9328 15.3799 89.1869 13.5731 91.4799 13.5731C94.2032 13.5731 95.8506 16.0894 95.8506 19.4762C95.8506 22.7605 94.2774 24.5966 92.1922 24.5966Z" fill="white"/>
<path d="M115.857 13.2744C115.219 13.2744 114.877 13.3329 114.187 13.3329C113.245 13.3329 112.74 13.2744 112.087 13.2744C112.013 13.2744 112.013 13.4939 112.087 13.4939C113.022 13.4939 113.438 14.474 112.933 15.8054L110.514 22.1839L108.266 17.5024L108.956 15.6737C109.52 14.1961 110.195 13.4939 111.041 13.4939C111.1 13.4939 111.1 13.2744 111.041 13.2744C110.477 13.2744 110.195 13.3329 109.579 13.3329C108.451 13.3329 108.733 13.2744 108.362 13.2744C108.288 13.2744 108.288 13.4939 108.362 13.4939C108.985 13.4939 108.985 14.1595 108.421 15.6225L107.954 16.866L107.13 15.147C106.477 13.7791 106.455 13.5012 107.13 13.5012C107.204 13.5012 107.204 13.2817 107.13 13.2817C106.715 13.2817 106.269 13.3402 104.86 13.3402C104.073 13.3402 104.073 13.2817 103.694 13.2817C103.62 13.2817 103.62 13.5012 103.694 13.5012C104.147 13.5012 104.503 13.9986 104.897 14.8178L106.982 19.1629L105.802 22.2132L102.426 15.147C101.773 13.7791 101.824 13.5012 102.856 13.5012C102.93 13.5012 102.93 13.2817 102.856 13.2817C102.351 13.2817 101.802 13.3402 100.133 13.3402C99.1976 13.3402 99.1976 13.2817 98.7598 13.2817C98.6856 13.2817 98.6856 13.5012 98.7598 13.5012C99.4721 13.5012 99.6577 13.7206 100.185 14.8178L104.971 24.8246C105.008 24.9197 105.349 24.9197 105.386 24.8246L107.279 19.8139L109.683 24.8246C109.72 24.9197 110.061 24.9197 110.098 24.8246L113.571 15.6883C114.098 14.3351 114.959 13.5085 115.879 13.5085C115.909 13.4939 115.909 13.2744 115.857 13.2744Z" fill="white"/>
<path d="M121.333 24.611C120.168 24.611 119.997 24.4062 119.997 23.3309V14.8017C119.997 13.7484 120.182 13.4851 121.333 13.4851C121.407 13.4851 121.407 13.2656 121.333 13.2656C120.694 13.2656 119.886 13.3241 118.928 13.3241C118.03 13.3241 117.184 13.2656 116.524 13.2656C116.465 13.2656 116.465 13.4851 116.524 13.4851C117.667 13.4851 117.897 13.7045 117.897 14.7652V23.3309C117.897 24.4062 117.674 24.611 116.524 24.611C116.465 24.611 116.465 24.8304 116.524 24.8304C117.177 24.8304 118.023 24.7938 118.928 24.7938C119.886 24.7938 120.672 24.8304 121.333 24.8304C121.407 24.8304 121.407 24.611 121.333 24.611Z" fill="white"/>
<path d="M131.818 21.4671C131.351 23.208 129.807 24.3125 127.863 24.3125H127.225C126.305 24.3125 126.156 24.1662 126.156 23.2592V14.7886C126.156 13.7352 126.342 13.4939 127.492 13.4939C127.566 13.4939 127.566 13.2744 127.492 13.2744C126.854 13.2744 126.045 13.3329 125.11 13.3329C124.212 13.3329 123.329 13.2744 122.728 13.2744C122.669 13.2744 122.669 13.4939 122.728 13.4939C123.871 13.4939 124.079 13.7133 124.079 14.774V23.3397C124.079 24.4149 123.871 24.6198 122.728 24.6198C122.669 24.6198 122.669 24.8392 122.728 24.8392H131.581C131.789 24.8392 131.863 24.7661 131.863 24.5612C131.863 23.5957 131.959 22.3229 132.034 21.5109C132.026 21.4305 131.841 21.3939 131.818 21.4671Z" fill="white"/>
<path d="M138.237 13.2362C137.465 13.2362 136.263 13.3313 135.35 13.3313C134.452 13.3313 133.643 13.2728 132.983 13.2728C132.909 13.2728 132.909 13.4922 132.983 13.4922C134.111 13.4922 134.319 13.7117 134.319 14.7723V23.338C134.319 24.4133 134.096 24.6181 132.946 24.6181C132.887 24.6181 132.887 24.8376 132.946 24.8376C133.599 24.8376 134.445 24.801 135.35 24.801C136.345 24.801 137.695 24.9107 138.504 24.9107C141.865 24.9107 144.693 22.5626 144.693 18.8613C144.693 15.6794 142.125 13.2362 138.237 13.2362ZM138.311 24.4865C136.738 24.4865 136.396 24.0622 136.396 23.1332V14.8089C136.396 13.8068 136.96 13.6458 138.422 13.6458C140.841 13.6458 142.385 16.1256 142.385 19.271C142.385 22.6504 140.678 24.4865 138.311 24.4865Z" fill="white"/>
<path d="M139.955 29.9327H139.46L139.63 30.3027L138.308 32.9937H138.794L138.871 32.8507C138.888 32.8171 138.922 32.7834 138.965 32.7498C139.008 32.7162 139.076 32.6825 139.153 32.6573C139.23 32.6237 139.323 32.6068 139.426 32.5816C139.537 32.5648 139.656 32.5564 139.793 32.5564H140.722L140.919 32.9937H141.413L139.955 29.9327ZM139.955 32.1107C139.741 32.1107 139.571 32.1275 139.443 32.1612C139.315 32.1948 139.23 32.2368 139.17 32.2789L139.844 30.8409L140.509 32.1107H139.955ZM136.662 32.548C136.645 32.548 136.628 32.548 136.611 32.548C136.576 32.548 136.542 32.548 136.5 32.5396C136.457 32.5312 136.423 32.5143 136.38 32.4975C136.338 32.4723 136.295 32.4387 136.252 32.3966C136.21 32.3546 136.158 32.2957 136.107 32.22L135.561 31.4128L136.568 30H136.031L135.254 31.1268C135.169 31.1773 135.067 31.2109 134.973 31.2193C134.87 31.2362 134.777 31.2446 134.683 31.2446H134.478V30H134.034V33.0105H134.478V31.6902H134.734C134.811 31.6902 134.879 31.6818 134.956 31.6734C135.032 31.665 135.101 31.6398 135.177 31.6146L135.766 32.5396C135.834 32.6489 135.903 32.7414 135.971 32.8003C136.039 32.8591 136.099 32.9096 136.158 32.9432C136.218 32.9768 136.286 32.9937 136.346 33.0021C136.414 33.0105 136.474 33.0189 136.551 33.0189H136.713V32.5732C136.696 32.548 136.679 32.548 136.662 32.548ZM131.467 29.9832V32.9937H131.902V29.9832H131.467ZM128.89 29.9832V31.1521C128.822 31.1857 128.754 31.2025 128.677 31.2109C128.6 31.2193 128.532 31.2277 128.472 31.2277C128.404 31.2277 128.319 31.2193 128.225 31.2109C128.131 31.2025 128.037 31.1941 127.935 31.1773C127.841 31.1689 127.747 31.1605 127.662 31.1437C127.577 31.1352 127.517 31.1268 127.474 31.1268C127.406 31.1268 127.346 31.1352 127.278 31.1437C127.21 31.1521 127.15 31.1773 127.09 31.2025V29.9664H126.647V32.9769H127.09V31.6482C127.15 31.6146 127.218 31.5978 127.278 31.5893C127.346 31.5725 127.406 31.5725 127.474 31.5725C127.517 31.5725 127.585 31.5809 127.662 31.5893C127.747 31.5978 127.833 31.6062 127.935 31.623C128.029 31.6314 128.131 31.6398 128.225 31.6566C128.319 31.665 128.404 31.6734 128.472 31.6734C128.532 31.6734 128.6 31.665 128.677 31.6566C128.754 31.6482 128.822 31.623 128.882 31.5978V33.0021H129.325V29.9916H128.89V29.9832ZM124.088 29.9832V32.9937H124.523V29.9832H124.088ZM119.66 29.9832L119.848 30.4289H120.198C120.18 30.5802 120.163 30.7316 120.138 30.8914C120.112 31.0427 120.087 31.1941 120.053 31.3455C120.018 31.4968 119.976 31.6398 119.916 31.7743C119.856 31.9089 119.797 32.0434 119.711 32.178C119.652 32.2705 119.6 32.3378 119.549 32.3882C119.498 32.4387 119.455 32.4807 119.413 32.5059C119.37 32.5312 119.327 32.548 119.293 32.5564C119.259 32.5648 119.217 32.5648 119.182 32.5648H119.097V33.0105H119.182C119.225 33.0105 119.268 33.0105 119.327 33.0021C119.387 32.9937 119.447 32.9853 119.507 32.9684C119.566 32.9516 119.635 32.918 119.694 32.8844C119.762 32.8507 119.822 32.7918 119.873 32.733C119.993 32.59 120.104 32.4218 120.189 32.2453C120.274 32.0602 120.343 31.8753 120.402 31.6734C120.462 31.4716 120.505 31.2698 120.547 31.0596C120.581 30.8493 120.607 30.6475 120.633 30.4541H121.511V33.0189H121.955V30.0084H119.66V29.9832ZM117.425 32.548C117.408 32.548 117.391 32.548 117.374 32.548C117.34 32.548 117.297 32.548 117.263 32.5396C117.229 32.5312 117.186 32.5143 117.144 32.4975C117.101 32.4723 117.058 32.4387 117.016 32.3966C116.973 32.3546 116.922 32.2957 116.871 32.22L116.325 31.4128L117.331 30H116.794L116.017 31.1268C115.924 31.1773 115.83 31.2109 115.736 31.2193C115.634 31.2362 115.54 31.2446 115.446 31.2446H115.241V30H114.798V33.0105H115.241V31.6902H115.497C115.574 31.6902 115.642 31.6818 115.719 31.6734C115.796 31.665 115.864 31.6398 115.941 31.6146L116.529 32.5396C116.598 32.6489 116.666 32.7414 116.734 32.8003C116.802 32.8675 116.862 32.9096 116.922 32.9432C116.981 32.9768 117.05 32.9937 117.109 33.0021C117.178 33.0105 117.237 33.0189 117.314 33.0189H117.476V32.5732C117.451 32.548 117.434 32.548 117.425 32.548ZM109.184 29.9327H108.69L108.86 30.3027L107.538 32.9937H108.024L108.101 32.8507C108.118 32.8171 108.152 32.7834 108.195 32.7498C108.237 32.7162 108.306 32.6825 108.382 32.6573C108.459 32.6237 108.553 32.6068 108.655 32.5816C108.766 32.5648 108.886 32.5564 109.022 32.5564H109.952L110.148 32.9937H110.652L109.184 29.9327ZM109.184 32.1107C108.971 32.1107 108.801 32.1275 108.673 32.1612C108.545 32.1948 108.459 32.2368 108.4 32.2789L109.073 30.8409L109.739 32.1107H109.184ZM105.329 29.9832V31.1521C105.26 31.1857 105.192 31.2025 105.124 31.2109C105.047 31.2193 104.979 31.2277 104.919 31.2277C104.851 31.2277 104.765 31.2193 104.672 31.2109C104.578 31.2025 104.484 31.1941 104.382 31.1773C104.288 31.1689 104.194 31.1605 104.109 31.1437C104.023 31.1352 103.964 31.1268 103.921 31.1268C103.853 31.1268 103.793 31.1352 103.725 31.1437C103.656 31.1521 103.597 31.1773 103.537 31.2025V29.9664H103.093V32.9769H103.537V31.6482C103.597 31.6146 103.665 31.5978 103.725 31.5893C103.793 31.5725 103.853 31.5725 103.921 31.5725C103.964 31.5725 104.032 31.5809 104.109 31.5893C104.194 31.5978 104.279 31.6062 104.382 31.623C104.475 31.6314 104.578 31.6398 104.672 31.6566C104.765 31.665 104.851 31.6734 104.919 31.6734C104.979 31.6734 105.047 31.665 105.124 31.6566C105.201 31.6482 105.269 31.623 105.329 31.5978V33.0021H105.772V29.9916H105.329V29.9832ZM101.157 30.4793C101.114 30.37 101.055 30.2859 100.978 30.2102C100.901 30.1346 100.807 30.0757 100.696 30.0421C100.585 30 100.466 29.9832 100.33 29.9832H98.7599V32.9937H99.2035V31.8332C99.2973 31.7828 99.3911 31.7491 99.4935 31.7323C99.5959 31.7155 99.6897 31.7071 99.7921 31.7071H100.33C100.466 31.7071 100.585 31.6902 100.696 31.6482C100.807 31.6062 100.901 31.5473 100.978 31.4716C101.055 31.3959 101.114 31.3034 101.157 31.1941C101.2 31.0848 101.217 30.9671 101.217 30.8325C101.217 30.7064 101.191 30.5887 101.157 30.4793ZM100.321 31.2698H99.7836C99.6812 31.2698 99.5873 31.2782 99.485 31.2866C99.3911 31.3034 99.2973 31.3371 99.2035 31.3875V30.4205H100.33C100.475 30.4205 100.585 30.4541 100.662 30.513C100.739 30.5718 100.773 30.6812 100.773 30.8325C100.773 31.1268 100.62 31.2698 100.321 31.2698ZM95.4841 29.9327H94.9893L95.1599 30.3027L93.8376 32.9937H94.3239L94.4007 32.8507C94.4177 32.8171 94.4519 32.7834 94.4945 32.7498C94.5372 32.7162 94.6054 32.6825 94.6822 32.6573C94.759 32.6237 94.8528 32.6068 94.9552 32.5816C95.0661 32.5648 95.1855 32.5564 95.322 32.5564H96.2518L96.448 32.9937H96.9514L95.4841 29.9327ZM95.4841 32.1107C95.2708 32.1107 95.1002 32.1275 94.9808 32.1612C94.8528 32.1948 94.7675 32.2368 94.7078 32.2789L95.3817 30.8409L96.0471 32.1107H95.4841ZM91.6282 29.9832V31.1521C91.5599 31.1857 91.4917 31.2025 91.4235 31.2109C91.3467 31.2193 91.2784 31.2277 91.2187 31.2277C91.1505 31.2277 91.0652 31.2193 90.9713 31.2109C90.8775 31.2025 90.7837 31.1941 90.6813 31.1773C90.5874 31.1689 90.4936 31.1605 90.4083 31.1437C90.323 31.1352 90.2633 31.1268 90.2206 31.1268C90.1524 31.1268 90.0927 31.1352 90.0244 31.1437C89.9562 31.1521 89.8965 31.1773 89.8367 31.2025L89.8453 29.9664H89.4017V32.9769H89.8453V31.6482C89.905 31.6146 89.9732 31.5978 90.0329 31.5893C90.1012 31.5725 90.1609 31.5725 90.2292 31.5725C90.2718 31.5725 90.3401 31.5809 90.4168 31.5893C90.5021 31.5978 90.5874 31.6062 90.6898 31.623C90.7837 31.6314 90.886 31.6398 90.9799 31.6566C91.0737 31.665 91.159 31.6734 91.2272 31.6734C91.287 31.6734 91.3552 31.665 91.432 31.6566C91.5088 31.6482 91.577 31.623 91.6367 31.5978V33.0021H92.0803V29.9916H91.6282V29.9832ZM86.8254 29.9832L85.034 32.3041V29.9832H84.5904V32.9937H85.034L86.8254 30.6727V32.9937H87.269V29.9832H86.8254ZM82.6454 30.4793C82.6027 30.37 82.543 30.2859 82.4662 30.2102C82.3894 30.1346 82.2956 30.0757 82.1847 30.0421C82.0738 30.0084 81.9544 29.9832 81.8179 29.9832H80.2482V32.9937H80.6918V31.8332C80.7857 31.7828 80.8795 31.7491 80.9819 31.7323C81.0842 31.7155 81.1781 31.7071 81.2804 31.7071H81.8179C81.9544 31.7071 82.0738 31.6902 82.1847 31.6482C82.2956 31.6062 82.3894 31.5473 82.4662 31.4716C82.543 31.3959 82.6027 31.3034 82.6454 31.1941C82.688 31.0848 82.7136 30.9671 82.7136 30.8325C82.7051 30.7064 82.688 30.5887 82.6454 30.4793ZM81.8093 31.2698H81.2719C81.1695 31.2698 81.0757 31.2782 80.9733 31.2866C80.8795 31.3034 80.7857 31.3371 80.6918 31.3875V30.4205H81.8093C81.9544 30.4205 82.0653 30.4541 82.142 30.513C82.2188 30.5718 82.2529 30.6812 82.2529 30.8325C82.2615 31.1268 82.1079 31.2698 81.8093 31.2698ZM76.4179 32.548V31.7827C76.5118 31.7323 76.6056 31.7071 76.6995 31.6902C76.7933 31.6734 76.8957 31.665 76.9895 31.665H77.6549V31.2193H76.9895C76.8871 31.2193 76.7933 31.2277 76.6909 31.2362C76.5971 31.2446 76.5032 31.2782 76.4094 31.3371V30.4205H78.1156V29.9748H75.9658V32.9853H78.2947V32.5396H76.4179V32.548ZM71.5725 29.9832V30.4289H72.6644V32.9937H73.0995V30.4289H74.1744V29.9832H71.5725ZM68.0749 32.548V31.7827C68.1687 31.7323 68.2626 31.7071 68.3564 31.6902C68.4503 31.6734 68.5526 31.665 68.6465 31.665H69.3119V31.2193H68.655C68.5526 31.2193 68.4588 31.2277 68.3564 31.2362C68.2626 31.2446 68.1687 31.2782 68.0749 31.3371V30.4205H69.7811V29.9748H67.6313V32.9853H69.9602V32.5396H68.0749V32.548ZM65.6266 31.8837C65.601 31.7996 65.5669 31.7239 65.5328 31.665C65.4901 31.5978 65.4474 31.5473 65.3963 31.5053C65.3451 31.4632 65.2939 31.4296 65.2427 31.4043C65.3366 31.3455 65.4048 31.2698 65.4475 31.1605C65.4901 31.0596 65.5157 30.9334 65.5157 30.8073C65.5157 30.6727 65.4901 30.555 65.4475 30.4541C65.4048 30.3532 65.3366 30.2691 65.2598 30.1934C65.183 30.1177 65.0806 30.0673 64.9697 30.0337C64.8588 30 64.7394 29.9832 64.6114 29.9832H63.0674V32.9937H64.62C64.7479 32.9937 64.8759 32.9768 64.9953 32.9516C65.1233 32.918 65.2342 32.8759 65.3365 32.8087C65.4389 32.7414 65.5157 32.6573 65.5754 32.5564C65.6351 32.4555 65.6692 32.3293 65.6692 32.178C65.6692 32.0687 65.6522 31.9678 65.6266 31.8837ZM63.5195 30.4289H64.62C64.7565 30.4289 64.8588 30.4541 64.9441 30.513C65.0294 30.5718 65.0721 30.6727 65.0721 30.8157C65.0721 30.9587 65.0294 31.0596 64.9527 31.1268C64.8759 31.1941 64.765 31.2277 64.62 31.2277H64.0996C63.9972 31.2277 63.9034 31.2362 63.801 31.2446C63.7072 31.2614 63.6133 31.295 63.5195 31.3455V30.4289ZM65.1659 32.3041C65.1318 32.363 65.0892 32.405 65.0294 32.4387C64.9783 32.4723 64.9185 32.4975 64.8503 32.5143C64.7821 32.5312 64.7223 32.5396 64.6626 32.5396H63.511V31.7827C63.6048 31.7323 63.6987 31.6987 63.7925 31.6818C63.8949 31.665 63.9887 31.6566 64.0825 31.6566H64.6029C64.6797 31.6566 64.7479 31.665 64.8247 31.6734C64.9015 31.6903 64.9612 31.7071 65.0209 31.7407C65.0806 31.7743 65.1233 31.8164 65.1574 31.8753C65.1915 31.9341 65.2086 32.0014 65.2086 32.0939C65.2256 32.1864 65.2001 32.2537 65.1659 32.3041Z" fill="white"/>
<path d="M50.8068 9.81654C51.0146 9.50932 51.0294 9.107 50.8513 8.78515C50.6658 8.45598 50.3171 8.25116 49.9312 8.25116H43.6014C42.6516 8.25847 41.724 8.44135 40.8484 8.8144C40.7816 8.84366 40.7222 8.86561 40.6628 8.89487C39.6685 9.34839 38.8003 10.0799 38.1473 11.0089L37.0342 12.6547C36.8932 12.6181 36.7744 12.5889 36.7522 12.5816C36.6112 12.545 36.4702 12.5157 36.3292 12.4865C36.2921 12.4791 36.2624 12.4718 36.2327 12.4645C35.2384 7.9732 33.7839 4.38892 32.6041 1.92381C32.2553 1.19232 31.58 0.672967 30.7786 0.51204C29.4058 0.24139 27.7881 0.0292594 25.9626 0C25.9032 0 25.8365 0 25.7771 0C25.599 0 25.4209 0 25.2354 0C25.0573 0 24.8866 4.46354e-07 24.7085 0.0073153C24.5379 0.0073153 24.3672 0.0146311 24.1891 0.0219459C24.0258 0.0292608 23.8552 0.0365752 23.6845 0.0512049C23.5212 0.0658346 23.358 0.0731495 23.1947 0.0877792C23.0315 0.102409 22.8756 0.109724 22.7124 0.131669C22.5566 0.146298 22.4007 0.168242 22.2449 0.182871C22.0965 0.197501 21.9406 0.219447 21.7922 0.241392C21.6438 0.263336 21.5028 0.277965 21.3544 0.307225C21.2134 0.329169 21.0724 0.351114 20.9314 0.373058C20.7979 0.395003 20.6569 0.416947 20.5233 0.446207C20.4714 0.453522 20.4268 0.460836 20.3749 0.475466C20.3007 0.490095 20.2265 0.504726 20.1523 0.519355C19.9074 0.577874 19.5809 0.694913 19.247 0.943618C18.8462 1.24353 18.631 1.58733 18.5346 1.77751C18.5197 1.80677 18.5049 1.84334 18.4901 1.8726C18.4529 1.95307 18.4158 2.02622 18.3787 2.10668C18.3416 2.18714 18.3045 2.26761 18.2674 2.34807C18.2303 2.42853 18.1858 2.509 18.1487 2.58946C18.1116 2.67724 18.0671 2.7577 18.03 2.84548C17.9929 2.93326 17.9483 3.02104 17.9112 3.1015C17.8741 3.18928 17.8296 3.27706 17.7925 3.36483C17.7554 3.45261 17.7109 3.54771 17.6738 3.63548C17.6293 3.72326 17.5922 3.81836 17.5551 3.91345C17.518 4.00854 17.4734 4.10364 17.4363 4.19873C17.3918 4.29382 17.3547 4.38892 17.3176 4.49132C17.2731 4.59373 17.236 4.68883 17.1914 4.78392C17.1543 4.88633 17.1098 4.98874 17.0727 5.09114C17.0356 5.19355 16.9911 5.29596 16.954 5.39836C16.9169 5.50077 16.8724 5.60318 16.8353 5.71291C16.7907 5.81531 16.7536 5.92504 16.7165 6.02744C16.672 6.13717 16.6349 6.24689 16.5978 6.35661C16.5533 6.46634 16.5162 6.57606 16.4791 6.68578C16.442 6.7955 16.3974 6.91254 16.3603 7.02226C16.3232 7.13199 16.2787 7.24902 16.2416 7.36606C16.2045 7.4831 16.16 7.60014 16.1229 7.71717C16.0858 7.83421 16.0413 7.95125 16.0041 8.06829C15.967 8.18532 15.9299 8.30968 15.8928 8.42672C15.8557 8.55107 15.8186 8.66811 15.7815 8.79246C15.7444 8.91681 15.7073 9.04116 15.6702 9.16551C15.6331 9.28987 15.596 9.41422 15.5589 9.53858C15.5218 9.67024 15.4847 9.7946 15.4476 9.91895C15.4105 10.0506 15.3734 10.175 15.3363 10.3066C15.2992 10.4383 15.2621 10.57 15.2324 10.7016C15.1953 10.8333 15.1582 10.965 15.1285 11.0966C15.0914 11.2283 15.0617 11.36 15.0246 11.499C14.9875 11.6379 14.9578 11.7696 14.9282 11.9086C14.8985 12.0476 14.8614 12.1866 14.8317 12.3182C14.8243 12.3621 14.8168 12.3987 14.802 12.4426C14.5794 12.4938 14.238 12.5742 13.9412 12.6401L12.8207 11.0089C12.1751 10.0872 11.3069 9.3557 10.3125 8.90218C10.2532 8.87292 10.1864 8.84367 10.127 8.82172C9.25881 8.44866 8.33123 8.26579 7.37398 8.25848H1.04419C0.658322 8.25848 0.302131 8.46329 0.124036 8.79246C-0.0540589 9.12163 -0.0392177 9.51663 0.161139 9.82385L4.18311 15.9903C4.13859 16.0122 4.09406 16.0342 4.04212 16.0561C3.32974 16.3853 2.81772 17.029 2.66931 17.7897C2.39474 19.1503 2.17954 20.7669 2.14986 22.581C2.14244 22.9321 2.14244 23.2832 2.14986 23.6416C2.15728 23.9781 2.17213 24.3146 2.19439 24.6511C2.21665 24.9729 2.23891 25.2948 2.26859 25.6166C2.29828 25.9239 2.33538 26.2238 2.37248 26.531C2.3799 26.6115 2.39474 26.6919 2.40216 26.7724C2.40216 26.7724 2.40216 26.7724 2.40216 26.7797C2.43185 26.9845 2.46153 27.1893 2.49863 27.3941C2.51347 27.4673 2.52089 27.5478 2.53574 27.6209C2.53574 27.6282 2.53573 27.6355 2.54315 27.6502C2.54315 27.6721 2.55058 27.694 2.55058 27.7087C2.6322 28.0086 2.7732 28.4109 3.04776 28.8352C3.41879 29.413 3.8566 29.7861 4.15343 29.9909C4.19795 30.0129 4.2499 30.0348 4.29442 30.0567C4.43541 30.1226 4.57641 30.1884 4.7174 30.2543L4.82128 30.3055C4.99196 30.3859 5.17005 30.4591 5.34815 30.5395C5.52624 30.62 5.71176 30.6931 5.89727 30.7736C6.09021 30.8541 6.28314 30.9345 6.46866 31.0077C6.66902 31.0881 6.86937 31.1686 7.06231 31.2418C7.27009 31.3222 7.47786 31.4027 7.68564 31.4831C7.90084 31.5636 8.11603 31.6441 8.33123 31.7172C8.55385 31.7977 8.77647 31.8781 8.99909 31.9513C9.22913 32.0318 9.45917 32.1122 9.68921 32.1854C9.92667 32.2658 10.1641 32.339 10.4016 32.4121C10.6465 32.4926 10.8913 32.5657 11.1362 32.6389C11.3885 32.712 11.6408 32.7852 11.9005 32.8583C12.1603 32.9315 12.42 33.0046 12.6797 33.0705C12.9469 33.1436 13.214 33.2095 13.4811 33.2753C13.7557 33.3411 14.0303 33.407 14.3048 33.4728C14.4458 33.502 14.5868 33.5313 14.7204 33.5679C15.7073 38.0446 17.1618 41.6215 18.3342 44.0866C18.6904 44.8328 19.3805 45.3667 20.1968 45.5277C21.5622 45.7983 23.1725 46.0031 24.9831 46.0324C25.3393 46.0397 25.6955 46.0397 26.0591 46.0324C26.4004 46.0251 26.7418 46.0105 27.0831 45.9885C27.4096 45.9666 27.7361 45.9446 28.0626 45.9154C28.3743 45.8861 28.6786 45.8495 28.9902 45.813C29.2796 45.7764 29.5765 45.7325 29.8659 45.6886C30.1404 45.6447 30.4076 45.6008 30.6821 45.5423C30.7638 45.5277 30.838 45.513 30.9122 45.4984C30.9418 45.4911 30.9715 45.4838 31.0086 45.4765C31.2164 45.4253 31.5874 45.3009 31.9065 45.0083C32.0327 44.8913 32.1366 44.7669 32.2108 44.6572C32.2627 44.5548 32.3147 44.4524 32.3666 44.3427C32.3814 44.3061 32.4037 44.2695 32.4185 44.2329V44.2256C32.4779 44.1086 32.5299 43.9916 32.5892 43.8745C32.6412 43.7648 32.6931 43.6551 32.745 43.5453C32.7673 43.4941 32.797 43.4429 32.8193 43.3844C32.9009 43.2162 32.9751 43.0406 33.0567 42.8724C33.1383 42.6895 33.22 42.514 33.2942 42.3311C33.3758 42.1409 33.4574 41.958 33.5391 41.7678C33.6207 41.5703 33.7023 41.3801 33.7839 41.1826C33.8656 40.9778 33.9472 40.773 34.0288 40.5682C34.1104 40.3561 34.1921 40.1439 34.2737 39.9318C34.3553 39.7124 34.437 39.4929 34.5112 39.2735C34.5928 39.0467 34.6744 38.82 34.7486 38.5932C34.8302 38.3591 34.9045 38.125 34.9861 37.891C35.0677 37.6496 35.1419 37.4082 35.2161 37.1595C35.2903 36.9108 35.3645 36.6621 35.4387 36.4134C35.5129 36.1573 35.5872 35.9013 35.6539 35.6453C35.7281 35.382 35.7949 35.1186 35.8617 34.8553C35.9285 34.5846 35.9953 34.314 36.0621 34.0433C36.0992 33.897 36.1288 33.7508 36.166 33.6045C40.8558 32.595 44.5809 31.0955 47.0891 29.9105C47.6976 29.6252 48.128 29.0766 48.2615 28.4255C48.551 27.0284 48.7884 25.3533 48.8181 23.4587L48.8255 23.2759C48.8255 23.1003 48.8255 22.9248 48.8255 22.7419C48.8255 22.5663 48.8181 22.3981 48.8181 22.2225C48.8107 22.0543 48.8107 21.8861 48.7958 21.7178C48.7884 21.5496 48.781 21.3886 48.7662 21.2204C48.7587 21.0595 48.7439 20.8985 48.729 20.7376C48.7142 20.584 48.6994 20.4231 48.6845 20.2622C48.6697 20.1085 48.6474 19.9549 48.6326 19.8013C48.6177 19.655 48.5955 19.5014 48.5732 19.3551C48.551 19.2088 48.5287 19.0698 48.5064 18.9235C48.4842 18.7846 48.4619 18.6456 48.4396 18.5066C48.4174 18.3676 48.3951 18.2359 48.3654 18.1043C48.358 18.0458 48.3432 17.9872 48.3358 17.9287C48.3209 17.8556 48.3061 17.7824 48.2912 17.7093C48.2764 17.6361 48.2616 17.563 48.2467 17.4898V17.4825C48.1799 17.2631 48.0538 16.9924 47.8386 16.7364C47.6827 16.5535 47.5121 16.4145 47.3562 16.3048H47.3488C47.282 16.2682 47.2152 16.239 47.1485 16.2097C47.0742 16.1732 46.9926 16.1366 46.9184 16.1C46.8739 16.0781 46.8294 16.0561 46.7849 16.0415L50.8068 9.81654ZM31.7804 36.9035L31.7433 36.9766C31.6839 37.1083 31.6097 37.2326 31.5355 37.3643C31.5355 37.3643 31.5355 37.3643 31.5281 37.3643C30.4595 38.9955 28.686 40.1439 26.7418 40.5024C26.6676 40.517 26.5934 40.5243 26.5192 40.5389C26.4598 40.5463 26.4078 40.5536 26.3485 40.5609C26.3262 40.5609 26.304 40.5682 26.2817 40.5682C26.1259 40.5828 25.97 40.5975 25.8142 40.6048C25.7326 40.6121 25.6509 40.6121 25.5693 40.6121H25.3467C25.3022 40.6121 25.2651 40.6121 25.2206 40.6121C25.1834 40.6121 25.1389 40.6121 25.1018 40.6048C25.035 40.5975 24.9682 40.5975 24.894 40.5901C22.5417 40.3634 20.4343 38.6883 19.1431 36.6913C19.1356 36.684 19.1356 36.684 19.1356 36.6767L19.1208 36.6401L1.43749 9.502H7.33687C8.10862 9.50932 8.8952 9.67024 9.59274 9.96284C9.64468 9.98478 9.69663 10.0067 9.74857 10.0287C10.5352 10.3871 11.2253 10.9723 11.7447 11.7038L14.0822 15.1125C14.2084 14.7468 14.379 14.3371 14.6313 13.9202C14.713 13.7958 14.8317 13.6129 14.8465 13.6056C15.1508 13.1594 15.4773 12.8156 15.7667 12.545C16.8872 11.4112 18.4381 10.3432 20.2784 9.73608C21.9332 9.19478 26.2669 8.18533 30.7044 10.6212C32.0846 11.3819 33.2274 12.5523 34.0362 13.73C34.0437 13.7373 34.0511 13.7519 34.0659 13.7666L34.0733 13.7739C34.4147 14.242 34.7783 14.8199 35.0974 15.5002C35.1568 15.6245 35.2087 15.7562 35.2681 15.8879C35.4239 16.2609 35.5426 16.612 35.6465 16.9485L39.1936 11.7111C39.713 10.9723 40.4031 10.3871 41.1897 10.0287C41.2417 10.0067 41.2936 9.98478 41.3455 9.96284C42.0505 9.67024 42.8297 9.50932 43.6014 9.502H49.5082L31.7804 36.9035Z" fill="white"/>
<path d="M31.2307 31.7471C31.0526 32.4128 30.7409 32.9541 30.3922 33.3857C29.7021 34.2342 28.7151 34.7901 27.6317 35.0169C25.925 35.3753 22.6747 35.7118 19.4987 34.0367C18.6899 33.6124 17.0054 32.6981 15.7884 30.7523C13.681 27.3948 14.6827 23.7447 14.8979 23.0205C15.4471 24.2787 16.6269 26.4365 19.0164 28.0239C19.7733 28.5213 22.838 29.9916 25.6875 29.56C26.2737 29.4722 27.461 29.0333 27.6985 27.8995C27.8766 27.0656 27.3942 26.1952 27.2087 25.9538C27.5649 26.005 29.1975 26.261 30.3551 27.7166C30.5257 27.9361 31.8021 29.5966 31.2307 31.7471Z" fill="url(#paint0_linear_819_7381)"/>
<path d="M23.1646 16.6259C23.0532 16.4576 22.66 16.5162 22.2667 16.7575C21.8808 16.9916 21.6507 17.3281 21.7621 17.4963C21.8734 17.6646 22.2667 17.6061 22.6525 17.372C23.0458 17.1233 23.2759 16.7941 23.1646 16.6259ZM35.9428 18.8642C35.8538 18.7106 35.7499 18.557 35.646 18.3961C35.6163 18.3595 35.5867 18.3156 35.557 18.2717C35.5273 18.2205 35.4902 18.1693 35.4457 18.1181C35.4308 18.0962 35.4086 18.0669 35.3937 18.045C35.3121 17.9352 35.2305 17.8182 35.134 17.7085C35.0672 17.6207 34.993 17.5329 34.9188 17.4451C34.8001 17.2988 34.6813 17.1672 34.5626 17.0428C34.5626 17.0355 34.5626 17.0355 34.5626 17.0282C34.5181 16.8673 34.4661 16.7063 34.4142 16.5381C34.4068 16.5235 34.4068 16.5015 34.3994 16.4869C34.3919 16.4796 34.3919 16.4649 34.3919 16.4576C34.3548 16.3479 34.3177 16.2382 34.2732 16.1358C34.2658 16.1138 34.2584 16.0992 34.251 16.0773V16.0699C34.199 15.931 34.1396 15.7993 34.0951 15.6676C34.0951 15.6676 34.0951 15.6603 34.0877 15.653C34.0061 15.4774 33.9244 15.3092 33.8428 15.1629C33.1601 13.8901 31.958 12.354 30.2735 11.4323C26.1551 9.17203 22.1257 10.1083 20.5896 10.6131C19.5285 10.9642 18.5712 11.4762 17.7549 12.0687C17.6807 12.1272 17.5991 12.1784 17.5249 12.237C17.5026 12.2516 17.4804 12.2662 17.4581 12.2808C17.1168 12.5369 16.6938 12.9099 16.2782 13.4C16.256 13.4293 16.2337 13.4512 16.2114 13.4805C16.1818 13.5097 16.1595 13.5463 16.1298 13.5829C16.115 13.5975 16.1001 13.6195 16.0927 13.6341C16.0927 13.6341 16.0927 13.6414 16.0853 13.6414C16.0704 13.656 16.063 13.6707 16.0482 13.6853C16.0037 13.7438 15.9591 13.8097 15.9072 13.8755C15.8924 13.8974 15.8775 13.9121 15.8701 13.934C15.8478 13.9633 15.833 13.9925 15.8107 14.0218C15.8033 14.0291 15.7959 14.0437 15.7885 14.051C15.7736 14.073 15.7588 14.0876 15.7439 14.1096C15.7217 14.1461 15.6994 14.1827 15.6772 14.2193C15.6104 14.329 15.5436 14.4387 15.4694 14.5631C15.4694 14.5704 15.462 14.5704 15.462 14.5777C15.462 14.585 15.4545 14.585 15.4545 14.5923C15.4471 14.607 15.4397 14.6216 15.4323 14.6362C15.4249 14.6509 15.4174 14.6655 15.41 14.6801C15.3952 14.7021 15.3877 14.7167 15.3803 14.7386C15.321 14.8484 15.269 14.9581 15.2171 15.0678C15.039 15.4555 14.9128 15.8286 14.8164 16.1577C14.7718 16.3187 14.7347 16.4649 14.7051 16.6112C14.668 16.7941 14.6383 16.9624 14.616 17.116C14.616 17.1233 14.616 17.1306 14.616 17.1452C14.5641 17.628 14.5566 18.1181 14.616 18.6155C14.7347 19.7201 15.1206 20.6198 15.5065 21.2854C15.7662 21.0953 16.0779 21.0002 16.8793 20.5759C17.1019 20.4589 17.6585 20.2028 17.8959 20.0785C17.7475 19.6762 17.8959 19.2227 18.2373 18.952C18.6009 18.6594 18.9867 18.3229 19.3875 17.9352C19.7882 17.5402 20.1369 17.1452 20.4338 16.7722C20.8642 16.2309 21.4059 15.7847 22.0292 15.4848C22.0366 15.4848 22.0366 15.4774 22.044 15.4774C22.6674 15.1702 23.2388 15.0459 23.6321 14.9873C24.5967 14.8045 28.5371 14.1388 32.4403 16.4796C35.4011 18.2571 36.7443 20.7953 37.2192 21.8194C36.9892 21.0075 36.6107 19.9614 35.9428 18.8642ZM36.1209 25.4476C35.6905 23.2531 34.4513 21.8267 33.8502 21.2269C31.5127 18.8862 28.5371 18.7179 27.8247 18.6887C28.3145 18.5936 28.871 18.5204 29.4721 18.4765C30.3774 18.418 31.1937 18.4546 31.8838 18.5351C31.1046 18.2644 29.6205 17.8621 27.8024 18.1474C27.654 18.1693 27.5056 18.1986 27.3646 18.2278C26.4593 18.418 25.6134 18.8057 24.8416 19.3177C23.4985 20.2102 22.2963 20.5978 21.532 20.7807C21.532 20.7807 19.4542 21.2781 18.3634 20.6198C18.3115 20.5905 18.2595 20.5832 18.1556 20.4662C17.7252 20.7076 17.3171 20.9636 16.8719 21.2196C16.5379 21.4098 16.1447 21.6219 15.8107 21.7755C16.0111 22.0608 16.1892 22.2803 16.3079 22.4192C18.2076 24.7015 20.9087 25.1623 22.237 25.3891C24.1218 25.7109 25.7692 25.5281 26.9639 25.2574C29.2643 25.3818 31.2604 26.757 32.0767 28.7539C33.0562 31.1824 31.817 33.3696 31.6537 33.6475C32.2103 33.4281 34.6146 32.426 35.7425 29.8438C36.5884 27.9346 36.2694 26.1937 36.1209 25.4476ZM16.0111 21.1757C15.8404 21.2196 15.6623 21.2854 15.5139 21.2928C15.6104 21.461 15.7143 21.6146 15.8033 21.7463C15.8775 21.6585 16.0037 21.5341 16.1001 21.4464C16.1966 21.3586 16.7902 20.9124 16.8719 20.8612C16.8348 20.8831 16.2634 21.1172 16.0111 21.1757Z" fill="url(#paint1_linear_819_7381)"/>
<path d="M15.4701 14.5576C15.4478 14.6015 15.4256 14.6381 15.4033 14.682C15.4182 14.6527 15.433 14.6235 15.4553 14.5869C15.4553 14.5722 15.4627 14.5649 15.4701 14.5576Z" fill="white"/>
<path d="M15.9074 13.8682C15.8555 13.9486 15.7961 14.0218 15.7441 14.1022C15.7961 14.0218 15.8555 13.9413 15.9074 13.8682Z" fill="white"/>
<path d="M16.2043 13.4746C16.1523 13.5404 16.1004 13.6136 16.041 13.6794C16.1004 13.6063 16.1523 13.5331 16.2043 13.4746Z" fill="white"/>
<defs>
<linearGradient id="paint0_linear_819_7381" x1="-0.339179" y1="35.3089" x2="28.0564" y2="26.8059" gradientUnits="userSpaceOnUse">
<stop offset="1" stop-color="white"/>
</linearGradient>
<linearGradient id="paint1_linear_819_7381" x1="17.9528" y1="8.33456" x2="35.4351" y2="34.7098" gradientUnits="userSpaceOnUse">
<stop offset="0.5901" stop-color="white"/>
</linearGradient>
</defs>
</svg>
