<svg width="476" height="415" viewBox="0 0 476 415" fill="none" xmlns="http://www.w3.org/2000/svg">
<path d="M52.6656 346.44C51.2886 353.926 43.694 360.384 35.9743 360.384H14.6511C13.8165 360.384 13.6913 360.302 14.2338 359.561L50.7461 298.724C51.1634 298.313 50.6627 297.367 49.995 297.367H11.4797C6.09675 297.367 5.05354 296.956 5.47083 294.447C5.55429 294.118 4.30243 293.912 4.21898 294.241L0.00440822 312.34C-0.0790485 312.751 1.04762 312.957 1.25626 312.669C7.18169 300.493 14.8597 299.136 36.8088 299.136C37.7686 299.136 37.7686 299.218 37.3513 299.958L0.296512 361.001C-0.120772 361.536 0.296507 362.358 0.838976 362.358C16.5706 362.358 35.6404 362.358 51.372 362.564C51.998 362.564 52.3318 361.947 52.3318 361.536L53.834 346.44C53.834 345.987 52.7908 345.987 52.6656 346.44Z" fill="#0A7040"/>
<path d="M100.152 296.172C83.0439 296.172 63.0142 307.278 63.0142 329.86C63.0142 348.165 76.2004 363.549 96.4387 363.549C116.468 363.549 133.493 348.453 133.493 329.12C133.493 312.42 120.933 296.172 100.152 296.172ZM99.9439 360.999C86.1318 360.999 75.9918 346.437 75.9918 326.035C75.9918 309.17 83.0439 299.01 95.9379 299.01C111.252 299.01 120.516 313.16 120.516 332.205C120.516 350.674 111.67 360.999 99.9439 360.999Z" fill="#0A7040"/>
<path d="M180.98 296.172C163.872 296.172 143.842 307.278 143.842 329.86C143.842 348.165 157.028 363.549 177.308 363.549C197.338 363.549 214.363 348.453 214.363 329.12C214.321 312.42 201.761 296.172 180.98 296.172ZM180.772 360.999C166.96 360.999 156.82 346.437 156.82 326.035C156.82 309.17 163.872 299.01 176.766 299.01C192.08 299.01 201.344 313.16 201.344 332.205C201.344 350.674 192.497 360.999 180.772 360.999Z" fill="#0A7040"/>
<path d="M313.844 297.328C310.255 297.328 308.336 297.657 304.455 297.657C299.155 297.657 296.318 297.328 292.646 297.328C292.228 297.328 292.228 298.562 292.646 298.562C297.903 298.562 300.24 304.074 297.403 311.56L283.799 347.429L271.156 321.103L275.036 310.82C278.208 302.511 282.005 298.562 286.762 298.562C287.096 298.562 287.096 297.328 286.762 297.328C283.591 297.328 282.005 297.657 278.541 297.657C272.199 297.657 273.784 297.328 271.698 297.328C271.281 297.328 271.281 298.562 271.698 298.562C275.203 298.562 275.203 302.305 272.032 310.532L269.403 317.525L264.771 307.858C261.099 300.166 260.974 298.603 264.771 298.603C265.188 298.603 265.188 297.369 264.771 297.369C262.434 297.369 259.931 297.698 252.002 297.698C247.579 297.698 247.579 297.369 245.451 297.369C245.034 297.369 245.034 298.603 245.451 298.603C247.996 298.603 249.999 301.4 252.211 306.007L263.937 330.441L257.302 347.593L238.315 307.858C234.643 300.166 234.935 298.603 240.736 298.603C241.153 298.603 241.153 297.369 240.736 297.369C237.898 297.369 234.81 297.698 225.421 297.698C220.163 297.698 220.163 297.369 217.702 297.369C217.284 297.369 217.284 298.603 217.702 298.603C221.707 298.603 222.751 299.837 225.713 306.007L252.628 362.278C252.837 362.813 254.756 362.813 254.965 362.278L265.606 334.102L279.126 362.278C279.334 362.813 281.254 362.813 281.462 362.278L300.991 310.902C303.954 303.293 308.795 298.644 313.969 298.644C314.136 298.562 314.136 297.328 313.844 297.328Z" fill="#0A7040"/>
<path d="M344.639 361.08C338.088 361.08 337.128 359.928 337.128 353.881V305.919C337.128 299.996 338.171 298.515 344.639 298.515C345.057 298.515 345.057 297.281 344.639 297.281C341.051 297.281 336.502 297.61 331.119 297.61C326.07 297.61 321.313 297.281 317.599 297.281C317.265 297.281 317.265 298.515 317.599 298.515C324.025 298.515 325.319 299.749 325.319 305.714V353.881C325.319 359.928 324.067 361.08 317.599 361.08C317.265 361.08 317.265 362.314 317.599 362.314C321.271 362.314 326.028 362.108 331.119 362.108C336.502 362.108 340.925 362.314 344.639 362.314C345.057 362.314 345.057 361.08 344.639 361.08Z" fill="#0A7040"/>
<path d="M403.601 343.398C400.972 353.188 392.293 359.399 381.36 359.399H377.772C372.597 359.399 371.763 358.576 371.763 353.476V305.843C371.763 299.92 372.806 298.562 379.274 298.562C379.691 298.562 379.691 297.328 379.274 297.328C375.685 297.328 371.137 297.657 365.879 297.657C360.83 297.657 355.864 297.328 352.484 297.328C352.15 297.328 352.15 298.562 352.484 298.562C358.91 298.562 360.079 299.796 360.079 305.761V353.928C360.079 359.975 358.91 361.126 352.484 361.126C352.15 361.126 352.15 362.36 352.484 362.36H402.266C403.434 362.36 403.852 361.949 403.852 360.797C403.852 355.368 404.394 348.21 404.811 343.645C404.77 343.192 403.727 342.987 403.601 343.398Z" fill="#0A7040"/>
<path d="M439.697 297.125C435.357 297.125 428.597 297.66 423.464 297.66C418.415 297.66 413.867 297.331 410.153 297.331C409.736 297.331 409.736 298.565 410.153 298.565C416.496 298.565 417.664 299.799 417.664 305.763V353.931C417.664 359.977 416.412 361.129 409.944 361.129C409.61 361.129 409.61 362.363 409.944 362.363C413.616 362.363 418.373 362.157 423.464 362.157C429.056 362.157 436.65 362.774 441.199 362.774C460.102 362.774 476 349.57 476 328.757C476 310.864 461.562 297.125 439.697 297.125ZM440.114 360.389C431.267 360.389 429.348 358.003 429.348 352.779V305.969C429.348 300.333 432.519 299.428 440.74 299.428C454.343 299.428 463.023 313.373 463.023 331.06C463.023 350.064 453.425 360.389 440.114 360.389Z" fill="#0A7040"/>
<path d="M422.212 399.707H419.792L420.626 401.517L414.159 414.68H416.537L416.913 413.98C416.996 413.816 417.163 413.651 417.372 413.487C417.58 413.322 417.914 413.158 418.29 413.034C418.665 412.87 419.124 412.788 419.625 412.664C420.167 412.582 420.752 412.541 421.419 412.541H425.968L426.927 414.68H429.348L422.212 399.707ZM422.212 410.361C421.169 410.361 420.334 410.443 419.708 410.607C419.082 410.772 418.665 410.978 418.373 411.183L421.67 404.149L424.924 410.361H422.212ZM406.105 412.5C406.021 412.5 405.938 412.5 405.855 412.5C405.688 412.5 405.521 412.5 405.312 412.458C405.103 412.417 404.937 412.335 404.728 412.253C404.519 412.129 404.311 411.965 404.102 411.759C403.893 411.554 403.643 411.266 403.393 410.895L400.722 406.947L405.646 400.036H403.017L399.22 405.548C398.802 405.795 398.302 405.959 397.843 406.001C397.342 406.083 396.883 406.124 396.424 406.124H395.422V400.036H393.253V414.762H395.422V408.304H396.674C397.05 408.304 397.384 408.263 397.759 408.222C398.135 408.181 398.469 408.057 398.844 407.934L401.723 412.458C402.057 412.993 402.391 413.446 402.725 413.734C403.059 414.022 403.351 414.268 403.643 414.433C403.935 414.597 404.269 414.68 404.561 414.721C404.895 414.762 405.187 414.803 405.562 414.803H406.355V412.623C406.272 412.5 406.188 412.5 406.105 412.5ZM380.692 399.954V414.68H382.821V399.954H380.692ZM368.09 399.954V405.671C367.757 405.836 367.423 405.918 367.047 405.959C366.672 406.001 366.338 406.042 366.046 406.042C365.712 406.042 365.295 406.001 364.836 405.959C364.377 405.918 363.918 405.877 363.417 405.795C362.958 405.754 362.499 405.713 362.081 405.63C361.664 405.589 361.372 405.548 361.163 405.548C360.83 405.548 360.538 405.589 360.204 405.63C359.87 405.671 359.578 405.795 359.286 405.918V399.872H357.116V414.597H359.286V408.098C359.578 407.934 359.912 407.852 360.204 407.81C360.538 407.728 360.83 407.728 361.163 407.728C361.372 407.728 361.706 407.769 362.081 407.81C362.499 407.852 362.916 407.893 363.417 407.975C363.876 408.016 364.377 408.057 364.836 408.139C365.295 408.181 365.712 408.222 366.046 408.222C366.338 408.222 366.672 408.181 367.047 408.139C367.423 408.098 367.757 407.975 368.049 407.852V414.721H370.219V399.995H368.09V399.954ZM344.597 399.954V414.68H346.725V399.954H344.597ZM322.94 399.954L323.858 402.134H325.569C325.486 402.874 325.402 403.615 325.277 404.396C325.152 405.137 325.027 405.877 324.86 406.618C324.693 407.358 324.484 408.057 324.192 408.715C323.9 409.373 323.608 410.032 323.191 410.69C322.899 411.142 322.648 411.471 322.398 411.718C322.147 411.965 321.939 412.171 321.73 412.294C321.522 412.417 321.313 412.5 321.146 412.541C320.979 412.582 320.77 412.582 320.604 412.582H320.186V414.762H320.604C320.812 414.762 321.021 414.762 321.313 414.721C321.605 414.68 321.897 414.639 322.189 414.556C322.481 414.474 322.815 414.31 323.107 414.145C323.441 413.98 323.733 413.693 323.984 413.405C324.568 412.705 325.11 411.883 325.527 411.019C325.945 410.114 326.279 409.209 326.571 408.222C326.863 407.235 327.071 406.247 327.28 405.219C327.447 404.191 327.572 403.203 327.697 402.257H331.995V414.803H334.165V400.077H322.94V399.954ZM312.007 412.5C311.924 412.5 311.841 412.5 311.757 412.5C311.59 412.5 311.382 412.5 311.215 412.458C311.048 412.417 310.839 412.335 310.63 412.253C310.422 412.129 310.213 411.965 310.005 411.759C309.796 411.554 309.545 411.266 309.295 410.895L306.625 406.947L311.548 400.036H308.92L305.122 405.548C304.663 405.795 304.204 405.959 303.745 406.001C303.245 406.083 302.785 406.124 302.326 406.124H301.325V400.036H299.155V414.762H301.325V408.304H302.577C302.952 408.304 303.286 408.263 303.662 408.222C304.037 408.181 304.371 408.057 304.747 407.934L307.626 412.458C307.96 412.993 308.294 413.446 308.627 413.734C308.961 414.063 309.253 414.268 309.546 414.433C309.838 414.597 310.171 414.68 310.464 414.721C310.797 414.762 311.089 414.803 311.465 414.803H312.258V412.623C312.133 412.5 312.049 412.5 312.007 412.5ZM271.698 399.707H269.278L270.112 401.517L263.644 414.68H266.023L266.398 413.98C266.482 413.816 266.649 413.651 266.857 413.487C267.066 413.322 267.4 413.158 267.775 413.034C268.151 412.87 268.61 412.788 269.111 412.664C269.653 412.582 270.237 412.541 270.905 412.541H275.453L276.413 414.68H278.875L271.698 399.707ZM271.698 410.361C270.655 410.361 269.82 410.443 269.194 410.607C268.568 410.772 268.151 410.978 267.859 411.183L271.155 404.149L274.41 410.361H271.698ZM252.837 399.954V405.671C252.503 405.836 252.169 405.918 251.835 405.959C251.46 406.001 251.126 406.042 250.834 406.042C250.5 406.042 250.083 406.001 249.624 405.959C249.165 405.918 248.706 405.877 248.205 405.795C247.746 405.754 247.287 405.713 246.869 405.63C246.452 405.589 246.16 405.548 245.951 405.548C245.618 405.548 245.326 405.589 244.992 405.63C244.658 405.671 244.366 405.795 244.074 405.918V399.872H241.904V414.597H244.074V408.098C244.366 407.934 244.7 407.852 244.992 407.81C245.326 407.728 245.618 407.728 245.951 407.728C246.16 407.728 246.494 407.769 246.869 407.81C247.287 407.852 247.704 407.893 248.205 407.975C248.664 408.016 249.165 408.057 249.624 408.139C250.083 408.181 250.5 408.222 250.834 408.222C251.126 408.222 251.46 408.181 251.835 408.139C252.211 408.098 252.545 407.975 252.837 407.852V414.721H255.006V399.995H252.837V399.954ZM232.431 402.381C232.223 401.846 231.931 401.435 231.555 401.064C231.18 400.694 230.721 400.406 230.178 400.242C229.636 400.036 229.051 399.954 228.384 399.954H220.706V414.68H222.876V409.003C223.335 408.756 223.794 408.592 224.294 408.51C224.795 408.427 225.254 408.386 225.755 408.386H228.384C229.051 408.386 229.636 408.304 230.178 408.098C230.721 407.893 231.18 407.605 231.555 407.235C231.931 406.864 232.223 406.412 232.431 405.877C232.64 405.342 232.724 404.767 232.724 404.108C232.724 403.491 232.598 402.915 232.431 402.381ZM228.342 406.247H225.713C225.212 406.247 224.753 406.288 224.253 406.33C223.794 406.412 223.335 406.576 222.876 406.823V402.093H228.384C229.093 402.093 229.636 402.257 230.011 402.545C230.387 402.833 230.554 403.368 230.554 404.108C230.554 405.548 229.803 406.247 228.342 406.247ZM204.682 399.707H202.262L203.096 401.517L196.629 414.68H199.007L199.383 413.98C199.466 413.816 199.633 413.651 199.842 413.487C200.05 413.322 200.384 413.158 200.76 413.034C201.135 412.87 201.594 412.788 202.095 412.664C202.637 412.582 203.222 412.541 203.889 412.541H208.438L209.397 414.68H211.859L204.682 399.707ZM204.682 410.361C203.639 410.361 202.804 410.443 202.22 410.607C201.594 410.772 201.177 410.978 200.885 411.183L204.181 404.149L207.436 410.361H204.682ZM185.821 399.954V405.671C185.487 405.836 185.153 405.918 184.819 405.959C184.444 406.001 184.11 406.042 183.818 406.042C183.484 406.042 183.067 406.001 182.608 405.959C182.149 405.918 181.69 405.877 181.189 405.795C180.73 405.754 180.271 405.713 179.854 405.63C179.436 405.589 179.144 405.548 178.936 405.548C178.602 405.548 178.31 405.589 177.976 405.63C177.642 405.671 177.35 405.795 177.058 405.918L177.1 399.872H174.93V414.597H177.1V408.098C177.392 407.934 177.726 407.852 178.018 407.81C178.351 407.728 178.644 407.728 178.977 407.728C179.186 407.728 179.52 407.769 179.895 407.81C180.313 407.852 180.73 407.893 181.231 407.975C181.69 408.016 182.19 408.057 182.65 408.139C183.109 408.181 183.526 408.222 183.86 408.222C184.152 408.222 184.486 408.181 184.861 408.139C185.237 408.098 185.57 407.975 185.863 407.852V414.721H188.032V399.995H185.821V399.954ZM162.328 399.954L153.565 411.307V399.954H151.395V414.68H153.565L162.328 403.327V414.68H164.498V399.954H162.328ZM141.881 402.381C141.672 401.846 141.38 401.435 141.005 401.064C140.629 400.694 140.17 400.406 139.628 400.242C139.085 400.077 138.501 399.954 137.833 399.954H130.155V414.68H132.325V409.003C132.784 408.756 133.243 408.592 133.744 408.51C134.245 408.427 134.704 408.386 135.204 408.386H137.833C138.501 408.386 139.085 408.304 139.628 408.098C140.17 407.893 140.629 407.605 141.005 407.235C141.38 406.864 141.672 406.412 141.881 405.877C142.09 405.342 142.215 404.767 142.215 404.108C142.173 403.491 142.09 402.915 141.881 402.381ZM137.792 406.247H135.163C134.662 406.247 134.203 406.288 133.702 406.33C133.243 406.412 132.784 406.576 132.325 406.823V402.093H137.792C138.501 402.093 139.043 402.257 139.419 402.545C139.794 402.833 139.961 403.368 139.961 404.108C140.003 405.548 139.252 406.247 137.792 406.247ZM111.419 412.5V408.756C111.878 408.51 112.337 408.386 112.796 408.304C113.255 408.222 113.756 408.181 114.215 408.181H117.47V406.001H114.215C113.714 406.001 113.255 406.042 112.754 406.083C112.295 406.124 111.836 406.288 111.377 406.576V402.093H119.723V399.913H109.208V414.639H120.599V412.458H111.419V412.5ZM87.7175 399.954V402.134H93.0587V414.68H95.1868V402.134H100.445V399.954H87.7175ZM70.6088 412.5V408.756C71.0678 408.51 71.5268 408.386 71.9858 408.304C72.4449 408.222 72.9456 408.181 73.4046 408.181H76.6594V406.001H73.4463C72.9456 406.001 72.4866 406.042 71.9858 406.083C71.5268 406.124 71.0678 406.288 70.6088 406.576V402.093H78.9545V399.913H68.4389V414.639H79.8308V412.458H70.6088V412.5ZM58.6328 409.25C58.5076 408.839 58.3407 408.469 58.1738 408.181C57.9651 407.852 57.7565 407.605 57.5061 407.399C57.2557 407.193 57.0054 407.029 56.755 406.905C57.214 406.617 57.5478 406.247 57.7565 405.713C57.9651 405.219 58.0903 404.602 58.0903 403.985C58.0903 403.327 57.9651 402.751 57.7565 402.257C57.5478 401.764 57.214 401.352 56.8385 400.982C56.4629 400.612 55.9621 400.365 55.4197 400.201C54.8772 400.036 54.293 399.954 53.6671 399.954H46.1143V414.68H53.7088C54.3348 414.68 54.9607 414.597 55.5449 414.474C56.1708 414.309 56.7133 414.104 57.214 413.775C57.7147 413.446 58.0903 413.034 58.3824 412.541C58.6745 412.047 58.8414 411.43 58.8414 410.69C58.8414 410.155 58.758 409.661 58.6328 409.25ZM48.3259 402.134H53.7088C54.3765 402.134 54.8772 402.257 55.2945 402.545C55.7118 402.833 55.9204 403.327 55.9204 404.026C55.9204 404.725 55.7118 405.219 55.3362 405.548C54.9607 405.877 54.4182 406.042 53.7088 406.042H51.1634C50.6626 406.042 50.2036 406.083 49.7029 406.124C49.2439 406.206 48.7849 406.371 48.3259 406.618V402.134ZM56.3794 411.307C56.2125 411.595 56.0039 411.8 55.7118 411.965C55.4614 412.129 55.1693 412.253 54.8355 412.335C54.5017 412.417 54.2096 412.458 53.9175 412.458H48.2841V408.756C48.7432 408.51 49.2022 408.345 49.6612 408.263C50.1619 408.181 50.6209 408.139 51.0799 408.139H53.6254C54.0009 408.139 54.3347 408.181 54.7103 408.222C55.0858 408.304 55.378 408.386 55.6701 408.551C55.9622 408.715 56.1708 408.921 56.3377 409.209C56.5046 409.497 56.5881 409.826 56.5881 410.278C56.6715 410.731 56.5463 411.06 56.3794 411.307Z" fill="#0B5594"/>
<path d="M377.646 55.2014C378.815 53.4738 378.898 51.2114 377.897 49.4016C376.853 47.5505 374.892 46.3988 372.722 46.3988H337.128C331.787 46.4399 326.571 47.4683 321.647 49.5661C321.271 49.7306 320.937 49.854 320.604 50.0186C315.012 52.5689 310.13 56.6822 306.458 61.9062L300.198 71.1613C299.406 70.9556 298.738 70.7911 298.613 70.7499C297.82 70.5443 297.027 70.3797 296.234 70.2152C296.026 70.1741 295.859 70.1329 295.692 70.0918C290.1 44.8357 281.921 24.6802 275.287 10.8182C273.325 6.7048 269.528 3.7843 265.021 2.87936C257.302 1.35741 248.205 0.164535 237.94 0C237.606 0 237.23 0 236.896 0C235.895 0 234.893 0 233.85 0C232.849 0 231.889 2.50999e-06 230.888 0.0411362C229.928 0.0411362 228.968 0.0822749 227.967 0.123409C227.049 0.164542 226.089 0.205673 225.129 0.287941C224.211 0.370208 223.293 0.411342 222.375 0.493609C221.457 0.575877 220.581 0.617013 219.663 0.740414C218.786 0.822681 217.91 0.946075 217.034 1.02834C216.199 1.11061 215.323 1.23402 214.488 1.35742C213.654 1.48082 212.861 1.56308 212.026 1.72762C211.233 1.85102 210.441 1.97442 209.648 2.09782C208.897 2.22122 208.104 2.34462 207.353 2.50916C207.061 2.55029 206.81 2.59142 206.518 2.67369C206.101 2.75596 205.684 2.83823 205.266 2.92049C203.889 3.24956 202.053 3.90771 200.175 5.30625C197.922 6.99274 196.712 8.92602 196.17 9.99549C196.086 10.16 196.003 10.3657 195.919 10.5302C195.711 10.9827 195.502 11.394 195.293 11.8465C195.085 12.299 194.876 12.7514 194.667 13.2039C194.459 13.6564 194.208 14.1089 194 14.5613C193.791 15.0549 193.541 15.5074 193.332 16.001C193.123 16.4946 192.873 16.9882 192.664 17.4407C192.456 17.9343 192.205 18.4279 191.997 18.9215C191.788 19.4151 191.538 19.9498 191.329 20.4434C191.079 20.937 190.87 21.4718 190.661 22.0065C190.453 22.5413 190.202 23.076 189.994 23.6107C189.743 24.1455 189.535 24.6802 189.326 25.2561C189.076 25.832 188.867 26.3667 188.617 26.9014C188.408 27.4773 188.158 28.0532 187.949 28.6291C187.74 29.2049 187.49 29.7808 187.281 30.3567C187.073 30.9325 186.822 31.5084 186.614 32.1254C186.363 32.7013 186.155 33.3183 185.946 33.8942C185.696 34.5112 185.487 35.1282 185.278 35.7452C185.028 36.3622 184.819 36.9792 184.611 37.5962C184.402 38.2132 184.152 38.8713 183.943 39.4883C183.734 40.1053 183.484 40.7635 183.275 41.4216C183.067 42.0798 182.816 42.7379 182.608 43.396C182.399 44.0542 182.149 44.7123 181.94 45.3704C181.732 46.0286 181.523 46.7279 181.314 47.386C181.106 48.0853 180.897 48.7434 180.688 49.4427C180.48 50.142 180.271 50.8412 180.062 51.5405C179.854 52.2398 179.645 52.9391 179.436 53.6383C179.228 54.3787 179.019 55.078 178.811 55.7773C178.602 56.5177 178.393 57.217 178.185 57.9574C177.976 58.6978 177.767 59.4382 177.6 60.1786C177.392 60.919 177.183 61.6594 177.016 62.3998C176.808 63.1402 176.641 63.8806 176.432 64.6622C176.223 65.4437 176.056 66.1841 175.89 66.9656C175.723 67.7472 175.514 68.5287 175.347 69.2691C175.305 69.5159 175.264 69.7216 175.18 69.9684C173.928 70.2563 172.009 70.7088 170.34 71.079L164.039 61.9062C160.408 56.7233 155.526 52.61 149.934 50.0597C149.601 49.8952 149.225 49.7306 148.891 49.6072C144.009 47.5094 138.793 46.4811 133.41 46.4399H97.8157C95.6459 46.4399 93.6429 47.5917 92.6414 49.4427C91.6399 51.2937 91.7234 53.5149 92.8501 55.2425L115.467 89.9182C115.216 90.0416 114.966 90.165 114.674 90.2884C110.668 92.1394 107.789 95.7592 106.954 100.037C105.41 107.688 104.2 116.779 104.033 126.98C103.992 128.954 103.992 130.929 104.033 132.944C104.075 134.836 104.158 136.728 104.284 138.62C104.409 140.43 104.534 142.24 104.701 144.05C104.868 145.778 105.076 147.464 105.285 149.192C105.327 149.644 105.41 150.097 105.452 150.549C105.452 150.549 105.452 150.549 105.452 150.59C105.619 151.742 105.786 152.894 105.994 154.046C106.078 154.457 106.12 154.909 106.203 155.321C106.203 155.362 106.203 155.403 106.245 155.485C106.245 155.609 106.287 155.732 106.287 155.814C106.746 157.501 107.538 159.763 109.082 162.149C111.169 165.399 113.631 167.496 115.3 168.648C115.55 168.771 115.842 168.895 116.093 169.018C116.886 169.389 117.678 169.759 118.471 170.129L119.055 170.417C120.015 170.869 121.017 171.281 122.018 171.733C123.02 172.186 124.063 172.597 125.106 173.049C126.191 173.502 127.276 173.954 128.319 174.366C129.446 174.818 130.573 175.271 131.657 175.682C132.826 176.134 133.994 176.587 135.163 177.039C136.373 177.492 137.583 177.944 138.793 178.356C140.045 178.808 141.297 179.261 142.549 179.672C143.842 180.124 145.136 180.577 146.429 180.988C147.765 181.441 149.1 181.852 150.435 182.263C151.812 182.716 153.189 183.127 154.566 183.538C155.985 183.95 157.404 184.361 158.864 184.773C160.325 185.184 161.785 185.595 163.246 185.965C164.748 186.377 166.25 186.747 167.753 187.117C169.296 187.487 170.84 187.858 172.384 188.228C173.177 188.392 173.97 188.557 174.721 188.762C180.271 213.936 188.45 234.051 195.043 247.913C197.046 252.108 200.927 255.111 205.517 256.016C213.195 257.538 222.25 258.69 232.431 258.854C234.434 258.895 236.437 258.895 238.482 258.854C240.402 258.813 242.321 258.731 244.241 258.607C246.077 258.484 247.913 258.361 249.749 258.196C251.501 258.032 253.212 257.826 254.965 257.62C256.592 257.415 258.261 257.168 259.889 256.921C261.433 256.674 262.935 256.427 264.479 256.098C264.938 256.016 265.355 255.934 265.772 255.852C265.939 255.81 266.106 255.769 266.315 255.728C267.483 255.44 269.57 254.741 271.364 253.096C272.073 252.437 272.658 251.738 273.075 251.121C273.367 250.545 273.659 249.969 273.951 249.352C274.035 249.147 274.16 248.941 274.243 248.735V248.694C274.577 248.036 274.869 247.378 275.203 246.72C275.495 246.103 275.787 245.486 276.079 244.869C276.205 244.581 276.371 244.293 276.497 243.964C276.956 243.018 277.373 242.031 277.832 241.085C278.291 240.056 278.75 239.069 279.167 238.041C279.626 236.971 280.085 235.943 280.544 234.873C281.003 233.763 281.462 232.693 281.921 231.583C282.38 230.431 282.839 229.279 283.298 228.127C283.757 226.935 284.216 225.742 284.675 224.549C285.134 223.315 285.593 222.081 286.011 220.847C286.47 219.572 286.929 218.296 287.346 217.021C287.805 215.705 288.222 214.389 288.681 213.072C289.14 211.715 289.558 210.358 289.975 208.959C290.392 207.561 290.81 206.162 291.227 204.763C291.644 203.324 292.061 201.884 292.437 200.444C292.854 198.964 293.23 197.483 293.605 196.002C293.981 194.48 294.356 192.958 294.732 191.436C294.941 190.613 295.107 189.791 295.316 188.968C321.688 183.292 342.636 174.859 356.74 168.196C360.162 166.591 362.582 163.506 363.333 159.846C364.961 151.989 366.296 142.569 366.463 131.916L366.505 130.887C366.505 129.9 366.505 128.913 366.505 127.885C366.505 126.897 366.463 125.951 366.463 124.964C366.421 124.018 366.421 123.072 366.338 122.126C366.296 121.18 366.254 120.275 366.171 119.329C366.129 118.424 366.046 117.519 365.962 116.614C365.879 115.75 365.795 114.845 365.712 113.94C365.628 113.076 365.503 112.213 365.42 111.349C365.336 110.526 365.211 109.662 365.086 108.84C364.961 108.017 364.836 107.236 364.71 106.413C364.585 105.631 364.46 104.85 364.335 104.068C364.21 103.287 364.085 102.546 363.918 101.806C363.876 101.477 363.792 101.148 363.751 100.819C363.667 100.407 363.584 99.996 363.5 99.5847C363.417 99.1733 363.333 98.762 363.25 98.3506V98.3095C362.874 97.0755 362.165 95.5535 360.955 94.1139C360.079 93.0855 359.119 92.304 358.243 91.687H358.201C357.825 91.4813 357.45 91.3168 357.074 91.1523C356.657 90.9466 356.198 90.7409 355.781 90.5352C355.53 90.4118 355.28 90.2884 355.029 90.2062L377.646 55.2014ZM270.655 207.519L270.446 207.931C270.112 208.671 269.695 209.37 269.278 210.111C269.278 210.111 269.278 210.111 269.236 210.111C263.227 219.284 253.254 225.742 242.321 227.757C241.904 227.839 241.487 227.881 241.069 227.963C240.735 228.004 240.443 228.045 240.11 228.086C239.984 228.086 239.859 228.127 239.734 228.127C238.858 228.21 237.981 228.292 237.105 228.333C236.646 228.374 236.187 228.374 235.728 228.374H234.476C234.226 228.374 234.017 228.374 233.767 228.374C233.558 228.374 233.308 228.374 233.099 228.333C232.724 228.292 232.348 228.292 231.931 228.251C218.703 226.976 206.852 217.556 199.591 206.327C199.55 206.285 199.55 206.285 199.55 206.244L199.466 206.039L100.027 53.4327H133.201C137.541 53.4738 141.964 54.3787 145.887 56.0241C146.179 56.1475 146.471 56.2709 146.763 56.3943C151.186 58.4098 155.067 61.7005 157.988 65.8139L171.132 84.9822C171.842 82.9255 172.802 80.622 174.22 78.2774C174.679 77.5781 175.347 76.5498 175.431 76.5086C177.141 73.9995 178.977 72.0662 180.605 70.5443C186.906 64.1685 195.627 58.163 205.976 54.7489C215.281 51.7051 239.65 46.0286 264.604 59.7261C272.366 64.004 278.792 70.5854 283.34 77.2079C283.382 77.2491 283.424 77.3313 283.507 77.4136L283.549 77.4547C285.468 80.0873 287.513 83.3368 289.307 87.1623C289.641 87.8615 289.933 88.602 290.267 89.3424C291.143 91.4402 291.811 93.4146 292.395 95.3067L312.341 65.855C315.262 61.7005 319.143 58.4098 323.566 56.3943C323.858 56.2709 324.15 56.1475 324.443 56.0241C328.407 54.3787 332.788 53.4738 337.128 53.4327H370.344L270.655 207.519Z" fill="#0B5594"/>
<path d="M267.567 178.518C266.565 182.261 264.813 185.305 262.852 187.732C258.971 192.503 253.421 195.629 247.329 196.905C237.731 198.92 219.454 200.812 201.594 191.393C197.046 189.007 187.574 183.865 180.73 172.924C168.879 154.043 174.513 133.518 175.723 129.445C178.811 136.52 185.445 148.655 198.882 157.581C203.138 160.378 220.372 168.646 236.396 166.219C239.692 165.725 246.369 163.257 247.704 156.881C248.706 152.192 245.993 147.297 244.95 145.94C246.953 146.228 256.133 147.668 262.643 155.853C263.603 157.087 270.78 166.424 267.567 178.518Z" fill="url(#paint0_linear_637_21888)"/>
<path d="M222.208 93.4979C221.582 92.5518 219.37 92.8809 217.159 94.2383C214.989 95.5546 213.695 97.4468 214.321 98.3928C214.947 99.3389 217.159 99.0098 219.329 97.6936C221.54 96.295 222.834 94.444 222.208 93.4979ZM294.064 106.085C293.564 105.221 292.979 104.357 292.395 103.452C292.228 103.247 292.061 103 291.894 102.753C291.727 102.465 291.519 102.177 291.268 101.889C291.185 101.766 291.06 101.601 290.976 101.478C290.517 100.861 290.058 100.203 289.516 99.5857C289.14 99.0921 288.723 98.5985 288.306 98.1049C287.638 97.2822 286.97 96.5418 286.303 95.8425C286.303 95.8014 286.303 95.8014 286.303 95.7603C286.052 94.8553 285.76 93.9504 285.468 93.0043C285.426 92.9221 285.427 92.7987 285.385 92.7164C285.343 92.6753 285.343 92.593 285.343 92.5519C285.134 91.9348 284.926 91.3179 284.675 90.742C284.634 90.6186 284.592 90.5363 284.55 90.4129V90.3718C284.258 89.5902 283.924 88.8498 283.674 88.1094C283.674 88.1094 283.674 88.0683 283.632 88.0271C283.173 87.0399 282.714 86.0939 282.255 85.2712C278.416 78.1139 271.656 69.4759 262.184 64.293C239.025 51.5827 216.366 56.8478 207.728 59.6861C201.761 61.6605 196.378 64.5398 191.788 67.8716C191.371 68.2007 190.912 68.4886 190.494 68.8177C190.369 68.9 190.244 68.9823 190.119 69.0645C188.199 70.5042 185.821 72.602 183.484 75.358C183.359 75.5225 183.234 75.6459 183.109 75.8104C182.942 75.975 182.816 76.1807 182.65 76.3863C182.566 76.4686 182.483 76.592 182.441 76.6743C182.441 76.6743 182.441 76.7154 182.399 76.7154C182.316 76.7977 182.274 76.8799 182.19 76.9622C181.94 77.2913 181.69 77.6615 181.398 78.0317C181.314 78.1551 181.231 78.2373 181.189 78.3607C181.064 78.5253 180.98 78.6898 180.855 78.8543C180.813 78.8955 180.772 78.9778 180.73 79.0189C180.647 79.1423 180.563 79.2246 180.48 79.348C180.354 79.5536 180.229 79.7593 180.104 79.965C179.729 80.582 179.353 81.199 178.936 81.8982C178.936 81.9394 178.894 81.9394 178.894 81.9805C178.894 82.0216 178.852 82.0216 178.852 82.0628C178.81 82.145 178.769 82.2273 178.727 82.3096C178.685 82.3919 178.644 82.4741 178.602 82.5564C178.518 82.6798 178.477 82.762 178.435 82.8854C178.101 83.5024 177.809 84.1194 177.517 84.7365C176.515 86.9165 175.806 89.0144 175.264 90.8654C175.013 91.7703 174.805 92.593 174.638 93.4157C174.429 94.444 174.262 95.3901 174.137 96.2539C174.137 96.295 174.137 96.3362 174.137 96.4184C173.845 99.1333 173.803 101.889 174.137 104.686C174.805 110.897 176.974 115.957 179.144 119.7C180.605 118.631 182.357 118.096 186.864 115.71C188.116 115.052 191.246 113.612 192.581 112.913C191.746 110.651 192.581 108.1 194.5 106.578C196.545 104.933 198.715 103.041 200.968 100.861C203.222 98.6396 205.183 96.4184 206.852 94.3206C209.272 91.2767 212.318 88.7676 215.824 87.0811C215.865 87.0811 215.865 87.04 215.907 87.04C219.412 85.3123 222.625 84.6131 224.837 84.284C230.262 83.2557 252.419 79.5125 274.368 92.6753C291.018 102.671 298.571 116.944 301.242 122.703C299.948 118.137 297.82 112.255 294.064 106.085ZM295.066 143.105C292.646 130.765 285.677 122.744 282.297 119.371C269.152 106.208 252.419 105.262 248.413 105.098C251.168 104.563 254.297 104.152 257.677 103.905C262.768 103.576 267.358 103.781 271.239 104.234C266.857 102.712 258.512 100.45 248.288 102.054C247.454 102.177 246.619 102.342 245.826 102.506C240.735 103.576 235.978 105.756 231.639 108.635C224.086 113.653 217.326 115.834 213.028 116.862C213.028 116.862 201.344 119.659 195.21 115.957C194.918 115.792 194.626 115.751 194.041 115.093C191.621 116.451 189.326 117.89 186.822 119.33C184.945 120.399 182.733 121.592 180.855 122.456C181.982 124.06 182.983 125.294 183.651 126.076C194.333 138.91 209.523 141.501 216.992 142.776C227.591 144.586 236.855 143.558 243.573 142.036C256.509 142.735 267.734 150.468 272.324 161.698C277.832 175.354 270.863 187.653 269.945 189.216C273.075 187.982 286.595 182.347 292.938 167.826C297.695 157.091 295.9 147.301 295.066 143.105ZM181.982 119.083C181.022 119.33 180.021 119.7 179.186 119.741C179.729 120.687 180.313 121.551 180.813 122.291C181.231 121.798 181.94 121.099 182.483 120.605C183.025 120.111 186.363 117.602 186.822 117.314C186.614 117.438 183.401 118.754 181.982 119.083Z" fill="url(#paint1_linear_637_21888)"/>
<path d="M178.936 81.8594C178.811 82.1062 178.685 82.3119 178.56 82.5587C178.644 82.3941 178.727 82.2296 178.852 82.0239C178.852 81.9417 178.894 81.9005 178.936 81.8594Z" fill="white"/>
<path d="M181.398 77.9883C181.106 78.4408 180.772 78.8521 180.48 79.3045C180.772 78.8521 181.106 78.3996 181.398 77.9883Z" fill="white"/>
<path d="M183.067 75.7695C182.775 76.1397 182.483 76.5511 182.149 76.9213C182.483 76.5099 182.775 76.0986 183.067 75.7695Z" fill="white"/>
<defs>
<linearGradient id="paint0_linear_637_21888" x1="90.0397" y1="198.547" x2="249.717" y2="150.732" gradientUnits="userSpaceOnUse">
<stop offset="0.0469805" stop-color="#0B5594"/>
<stop offset="0.5901" stop-color="#0A7040"/>
<stop offset="1" stop-color="#DBB14F"/>
</linearGradient>
<linearGradient id="paint1_linear_637_21888" x1="192.901" y1="46.8734" x2="291.209" y2="195.189" gradientUnits="userSpaceOnUse">
<stop offset="0.0469805" stop-color="#0B5594"/>
<stop offset="0.5901" stop-color="#0A7040"/>
<stop offset="1" stop-color="#DBB14F"/>
</linearGradient>
</defs>
</svg>
