<svg width="240" height="77" viewBox="0 0 240 77" fill="none" xmlns="http://www.w3.org/2000/svg">
<path d="M114.84 36.4016C114.435 38.6034 112.201 40.5028 109.931 40.5028H103.659C103.414 40.5028 103.377 40.4786 103.537 40.2609L114.275 22.3677C114.398 22.2467 114.251 21.9685 114.055 21.9685H102.726C101.143 21.9685 100.836 21.8475 100.959 21.1095C100.984 21.0127 100.616 20.9522 100.591 21.049L99.3514 26.3722C99.3268 26.4932 99.6582 26.5537 99.7196 26.469C101.462 22.8879 103.721 22.4887 110.176 22.4887C110.459 22.4887 110.459 22.5129 110.336 22.7307L99.4373 40.6843C99.3146 40.8416 99.4373 41.0835 99.5969 41.0835C104.224 41.0835 109.833 41.0835 114.46 41.144C114.644 41.144 114.742 40.9626 114.742 40.8416L115.184 36.4016C115.184 36.2685 114.877 36.2685 114.84 36.4016Z" fill="white"/>
<path d="M128.807 21.6172C123.775 21.6172 117.884 24.8837 117.884 31.5256C117.884 36.9092 121.762 41.4339 127.715 41.4339C133.606 41.4339 138.613 36.9939 138.613 31.3078C138.613 26.396 134.919 21.6172 128.807 21.6172ZM128.745 40.6839C124.683 40.6839 121.701 36.4011 121.701 30.4004C121.701 25.4402 123.775 22.452 127.567 22.452C132.071 22.452 134.796 26.6137 134.796 32.2152C134.796 37.6472 132.194 40.6839 128.745 40.6839Z" fill="white"/>
<path d="M152.58 21.6172C147.548 21.6172 141.657 24.8837 141.657 31.5256C141.657 36.9092 145.535 41.4339 151.5 41.4339C157.391 41.4339 162.398 36.9939 162.398 31.3078C162.386 26.396 158.692 21.6172 152.58 21.6172ZM152.518 40.6839C148.456 40.6839 145.474 36.4011 145.474 30.4004C145.474 25.4402 147.548 22.452 151.34 22.452C155.844 22.452 158.569 26.6137 158.569 32.2152C158.569 37.6472 155.967 40.6839 152.518 40.6839Z" fill="white"/>
<path d="M191.657 21.957C190.602 21.957 190.037 22.0538 188.896 22.0538C187.337 22.0538 186.503 21.957 185.423 21.957C185.3 21.957 185.3 22.32 185.423 22.32C186.969 22.32 187.656 23.9411 186.822 26.143L182.821 36.6926L179.102 28.9497L180.243 25.9252C181.176 23.4814 182.293 22.32 183.692 22.32C183.79 22.32 183.79 21.957 183.692 21.957C182.759 21.957 182.293 22.0538 181.274 22.0538C179.409 22.0538 179.875 21.957 179.261 21.957C179.139 21.957 179.139 22.32 179.261 22.32C180.292 22.32 180.292 23.4209 179.36 25.8405L178.586 27.8972L177.224 25.0542C176.144 22.7918 176.107 22.3321 177.224 22.3321C177.347 22.3321 177.347 21.9691 177.224 21.9691C176.537 21.9691 175.8 22.0659 173.469 22.0659C172.168 22.0659 172.168 21.9691 171.542 21.9691C171.419 21.9691 171.419 22.3321 171.542 22.3321C172.29 22.3321 172.879 23.1547 173.53 24.5097L176.979 31.696L175.027 36.741L169.443 25.0542C168.363 22.7918 168.449 22.3321 170.155 22.3321C170.278 22.3321 170.278 21.9691 170.155 21.9691C169.32 21.9691 168.412 22.0659 165.651 22.0659C164.104 22.0659 164.104 21.9691 163.38 21.9691C163.257 21.9691 163.257 22.3321 163.38 22.3321C164.558 22.3321 164.865 22.695 165.737 24.5097L173.653 41.06C173.714 41.2173 174.279 41.2173 174.34 41.06L177.47 32.7728L181.446 41.06C181.507 41.2173 182.072 41.2173 182.133 41.06L187.877 25.9494C188.749 23.7113 190.172 22.3442 191.694 22.3442C191.743 22.32 191.743 21.957 191.657 21.957Z" fill="white"/>
<path d="M200.715 40.7076C198.788 40.7076 198.505 40.3688 198.505 38.5904V24.484C198.505 22.7418 198.812 22.3063 200.715 22.3063C200.837 22.3063 200.837 21.9434 200.715 21.9434C199.659 21.9434 198.321 22.0402 196.738 22.0402C195.253 22.0402 193.854 21.9434 192.762 21.9434C192.663 21.9434 192.663 22.3063 192.762 22.3063C194.652 22.3063 195.032 22.6692 195.032 24.4235V38.5904C195.032 40.3688 194.664 40.7076 192.762 40.7076C192.663 40.7076 192.663 41.0705 192.762 41.0705C193.842 41.0705 195.241 41.01 196.738 41.01C198.321 41.01 199.622 41.0705 200.715 41.0705C200.837 41.0705 200.837 40.7076 200.715 40.7076Z" fill="white"/>
<path d="M218.056 35.5069C217.283 38.3863 214.73 40.2131 211.515 40.2131H210.459C208.938 40.2131 208.692 39.9712 208.692 38.471V24.4613C208.692 22.7192 208.999 22.32 210.901 22.32C211.024 22.32 211.024 21.957 210.901 21.957C209.846 21.957 208.508 22.0538 206.962 22.0538C205.477 22.0538 204.016 21.957 203.022 21.957C202.924 21.957 202.924 22.32 203.022 22.32C204.912 22.32 205.256 22.6829 205.256 24.4372V38.6041C205.256 40.3825 204.912 40.7212 203.022 40.7212C202.924 40.7212 202.924 41.0842 203.022 41.0842H217.664C218.007 41.0842 218.13 40.9632 218.13 40.6245C218.13 39.0275 218.29 36.9224 218.412 35.5795C218.4 35.4465 218.093 35.386 218.056 35.5069Z" fill="white"/>
<path d="M228.672 21.8945C227.396 21.8945 225.408 22.0518 223.898 22.0518C222.413 22.0518 221.075 21.955 219.983 21.955C219.86 21.955 219.86 22.318 219.983 22.318C221.849 22.318 222.192 22.6809 222.192 24.4351V38.6021C222.192 40.3805 221.824 40.7192 219.922 40.7192C219.824 40.7192 219.824 41.0822 219.922 41.0822C221.002 41.0822 222.401 41.0217 223.898 41.0217C225.543 41.0217 227.777 41.2032 229.114 41.2032C234.674 41.2032 239.35 37.3196 239.35 31.198C239.35 25.9353 235.104 21.8945 228.672 21.8945ZM228.795 40.5015C226.193 40.5015 225.629 39.7998 225.629 38.2633V24.4956C225.629 22.8382 226.561 22.572 228.979 22.572C232.98 22.572 235.533 26.6733 235.533 31.8755C235.533 37.4648 232.71 40.5015 228.795 40.5015Z" fill="white"/>
<path d="M231.515 49.5078H230.697L230.979 50.1198L228.792 54.5703H229.596L229.723 54.3339C229.751 54.2783 229.808 54.2226 229.878 54.167C229.949 54.1114 230.062 54.0557 230.189 54.014C230.316 53.9584 230.471 53.9305 230.64 53.8888C230.824 53.861 231.021 53.8471 231.247 53.8471H232.785L233.109 54.5703H233.928L231.515 49.5078ZM231.515 53.11C231.162 53.11 230.88 53.1378 230.668 53.1934C230.457 53.2491 230.316 53.3186 230.217 53.3881L231.332 51.0099L232.432 53.11H231.515ZM226.069 53.8332C226.041 53.8332 226.012 53.8332 225.984 53.8332C225.928 53.8332 225.871 53.8332 225.801 53.8193C225.73 53.8054 225.674 53.7776 225.603 53.7497C225.533 53.708 225.462 53.6524 225.392 53.5829C225.321 53.5133 225.236 53.416 225.152 53.2908L224.249 51.9556L225.914 49.6191H225.025L223.741 51.4828C223.6 51.5662 223.43 51.6218 223.275 51.6357C223.106 51.6636 222.951 51.6775 222.796 51.6775H222.457V49.6191H221.723V54.5981H222.457V52.4146H222.88C223.007 52.4146 223.12 52.4007 223.247 52.3868C223.374 52.3729 223.487 52.3311 223.614 52.2894L224.587 53.8193C224.7 54.0001 224.813 54.1531 224.926 54.2504C225.039 54.3478 225.138 54.4312 225.236 54.4869C225.335 54.5425 225.448 54.5703 225.547 54.5842C225.66 54.5981 225.758 54.612 225.885 54.612H226.154V53.8749C226.125 53.8332 226.097 53.8332 226.069 53.8332ZM217.476 49.5913V54.5703H218.196V49.5913H217.476ZM213.216 49.5913V51.5245C213.103 51.5801 212.99 51.6079 212.863 51.6218C212.736 51.6357 212.623 51.6496 212.524 51.6496C212.411 51.6496 212.27 51.6357 212.115 51.6218C211.96 51.6079 211.805 51.594 211.635 51.5662C211.48 51.5523 211.325 51.5384 211.184 51.5106C211.043 51.4967 210.944 51.4828 210.873 51.4828C210.761 51.4828 210.662 51.4967 210.549 51.5106C210.436 51.5245 210.337 51.5662 210.239 51.6079V49.5634H209.505V54.5425H210.239V52.345C210.337 52.2894 210.45 52.2616 210.549 52.2477C210.662 52.2199 210.761 52.2199 210.873 52.2199C210.944 52.2199 211.057 52.2338 211.184 52.2477C211.325 52.2616 211.466 52.2755 211.635 52.3033C211.791 52.3172 211.96 52.3311 212.115 52.3589C212.27 52.3729 212.411 52.3868 212.524 52.3868C212.623 52.3868 212.736 52.3729 212.863 52.3589C212.99 52.345 213.103 52.3033 213.201 52.2616V54.5842H213.935V49.6052H213.216V49.5913ZM205.272 49.5913V54.5703H205.992V49.5913H205.272ZM197.95 49.5913L198.26 50.3284H198.838C198.81 50.5787 198.782 50.8291 198.74 51.0933C198.697 51.3437 198.655 51.594 198.599 51.8444C198.542 52.0947 198.472 52.3311 198.373 52.5537C198.274 52.7762 198.175 52.9987 198.034 53.2213C197.935 53.3742 197.851 53.4855 197.766 53.569C197.681 53.6524 197.611 53.7219 197.54 53.7637C197.47 53.8054 197.399 53.8332 197.343 53.8471C197.286 53.861 197.216 53.861 197.159 53.861H197.018V54.5981H197.159C197.23 54.5981 197.301 54.5981 197.399 54.5842C197.498 54.5703 197.597 54.5564 197.696 54.5286C197.794 54.5008 197.907 54.4452 198.006 54.3895C198.119 54.3339 198.218 54.2365 198.302 54.1392C198.5 53.9027 198.683 53.6246 198.824 53.3325C198.965 53.0265 199.078 52.7206 199.177 52.3868C199.276 52.053 199.346 51.7192 199.417 51.3715C199.473 51.0238 199.516 50.69 199.558 50.3701H201.011V54.612H201.745V49.633H197.95V49.5913ZM194.253 53.8332C194.225 53.8332 194.197 53.8332 194.168 53.8332C194.112 53.8332 194.041 53.8332 193.985 53.8193C193.928 53.8054 193.858 53.7776 193.787 53.7497C193.717 53.708 193.646 53.6524 193.576 53.5829C193.505 53.5133 193.421 53.416 193.336 53.2908L192.433 51.9556L194.098 49.6191H193.209L191.925 51.4828C191.77 51.5662 191.615 51.6218 191.459 51.6357C191.29 51.6636 191.135 51.6775 190.98 51.6775H190.641V49.6191H189.907V54.5981H190.641V52.4146H191.064C191.191 52.4146 191.304 52.4007 191.431 52.3868C191.558 52.3729 191.671 52.3311 191.798 52.2894L192.772 53.8193C192.884 54.0001 192.997 54.1531 193.11 54.2504C193.223 54.3617 193.322 54.4312 193.421 54.4869C193.519 54.5425 193.632 54.5703 193.731 54.5842C193.844 54.5981 193.943 54.612 194.07 54.612H194.338V53.8749C194.295 53.8332 194.267 53.8332 194.253 53.8332ZM180.624 49.5078H179.805L180.087 50.1198L177.901 54.5703H178.705L178.832 54.3339C178.86 54.2783 178.916 54.2226 178.987 54.167C179.058 54.1114 179.17 54.0557 179.297 54.014C179.424 53.9584 179.58 53.9305 179.749 53.8888C179.932 53.861 180.13 53.8471 180.356 53.8471H181.893L182.218 54.5703H183.05L180.624 49.5078ZM180.624 53.11C180.271 53.11 179.989 53.1378 179.777 53.1934C179.565 53.2491 179.424 53.3186 179.326 53.3881L180.44 51.0099L181.541 53.11H180.624ZM174.246 49.5913V51.5245C174.133 51.5801 174.021 51.6079 173.908 51.6218C173.781 51.6357 173.668 51.6496 173.569 51.6496C173.456 51.6496 173.315 51.6357 173.16 51.6218C173.005 51.6079 172.85 51.594 172.68 51.5662C172.525 51.5523 172.37 51.5384 172.229 51.5106C172.088 51.4967 171.989 51.4828 171.918 51.4828C171.805 51.4828 171.707 51.4967 171.594 51.5106C171.481 51.5245 171.382 51.5662 171.283 51.6079V49.5634H170.55V54.5425H171.283V52.345C171.382 52.2894 171.495 52.2616 171.594 52.2477C171.707 52.2199 171.805 52.2199 171.918 52.2199C171.989 52.2199 172.102 52.2338 172.229 52.2477C172.37 52.2616 172.511 52.2755 172.68 52.3033C172.835 52.3172 173.005 52.3311 173.16 52.3589C173.315 52.3729 173.456 52.3868 173.569 52.3868C173.668 52.3868 173.781 52.3729 173.908 52.3589C174.035 52.345 174.148 52.3033 174.246 52.2616V54.5842H174.98V49.6052H174.246V49.5913ZM167.347 50.4118C167.276 50.231 167.178 50.092 167.051 49.9668C166.924 49.8416 166.769 49.7443 166.585 49.6886C166.402 49.6191 166.204 49.5913 165.978 49.5913H163.382V54.5703H164.116V52.651C164.271 52.5676 164.426 52.5119 164.596 52.4841C164.765 52.4563 164.92 52.4424 165.09 52.4424H165.978C166.204 52.4424 166.402 52.4146 166.585 52.345C166.769 52.2755 166.924 52.1782 167.051 52.053C167.178 51.9278 167.276 51.7748 167.347 51.594C167.418 51.4132 167.446 51.2185 167.446 50.996C167.446 50.7874 167.403 50.5926 167.347 50.4118ZM165.964 51.7192H165.075C164.906 51.7192 164.751 51.7331 164.582 51.747C164.426 51.7748 164.271 51.8305 164.116 51.9139V50.3145H165.978C166.218 50.3145 166.402 50.3701 166.529 50.4675C166.656 50.5648 166.712 50.7456 166.712 50.996C166.712 51.4828 166.458 51.7192 165.964 51.7192ZM157.964 49.5078H157.146L157.428 50.1198L155.241 54.5703H156.046L156.173 54.3339C156.201 54.2783 156.257 54.2226 156.328 54.167C156.398 54.1114 156.511 54.0557 156.638 54.014C156.765 53.9584 156.92 53.9305 157.09 53.8888C157.273 53.861 157.471 53.8471 157.696 53.8471H159.234L159.559 54.5703H160.391L157.964 49.5078ZM157.964 53.11C157.612 53.11 157.33 53.1378 157.132 53.1934C156.92 53.2491 156.779 53.3186 156.681 53.3881L157.795 51.0099L158.896 53.11H157.964ZM151.587 49.5913V51.5245C151.474 51.5801 151.361 51.6079 151.249 51.6218C151.122 51.6357 151.009 51.6496 150.91 51.6496C150.797 51.6496 150.656 51.6357 150.501 51.6218C150.346 51.6079 150.19 51.594 150.021 51.5662C149.866 51.5523 149.711 51.5384 149.57 51.5106C149.429 51.4967 149.33 51.4828 149.259 51.4828C149.146 51.4828 149.048 51.4967 148.935 51.5106C148.822 51.5245 148.723 51.5662 148.624 51.6079L148.638 49.5634H147.905V54.5425H148.638V52.345C148.737 52.2894 148.85 52.2616 148.949 52.2477C149.062 52.2199 149.16 52.2199 149.273 52.2199C149.344 52.2199 149.457 52.2338 149.584 52.2477C149.725 52.2616 149.866 52.2755 150.035 52.3033C150.19 52.3172 150.36 52.3311 150.515 52.3589C150.67 52.3729 150.811 52.3868 150.924 52.3868C151.023 52.3868 151.136 52.3729 151.263 52.3589C151.39 52.345 151.503 52.3033 151.601 52.2616V54.5842H152.335V49.6052H151.587V49.5913ZM143.644 49.5913L140.681 53.4299V49.5913H139.947V54.5703H140.681L143.644 50.7317V54.5703H144.377V49.5913H143.644ZM136.73 50.4118C136.66 50.231 136.561 50.092 136.434 49.9668C136.307 49.8416 136.152 49.7443 135.968 49.6886C135.785 49.633 135.588 49.5913 135.362 49.5913H132.766V54.5703H133.499V52.651C133.655 52.5676 133.81 52.5119 133.979 52.4841C134.148 52.4563 134.304 52.4424 134.473 52.4424H135.362C135.588 52.4424 135.785 52.4146 135.968 52.345C136.152 52.2755 136.307 52.1782 136.434 52.053C136.561 51.9278 136.66 51.7748 136.73 51.594C136.801 51.4132 136.843 51.2185 136.843 50.996C136.829 50.7874 136.801 50.5926 136.73 50.4118ZM135.348 51.7192H134.459C134.29 51.7192 134.134 51.7331 133.965 51.747C133.81 51.7748 133.655 51.8305 133.499 51.9139V50.3145H135.348C135.588 50.3145 135.771 50.3701 135.898 50.4675C136.025 50.5648 136.081 50.7456 136.081 50.996C136.095 51.4828 135.842 51.7192 135.348 51.7192ZM126.431 53.8332V52.5676C126.586 52.4841 126.741 52.4424 126.896 52.4146C127.052 52.3868 127.221 52.3729 127.376 52.3729H128.477V51.6357H127.376C127.207 51.6357 127.052 51.6496 126.882 51.6635C126.727 51.6775 126.572 51.7331 126.417 51.8305V50.3145H129.238V49.5774H125.683V54.5564H129.535V53.8193H126.431V53.8332ZM118.417 49.5913V50.3284H120.223V54.5703H120.942V50.3284H122.72V49.5913H118.417ZM112.632 53.8332V52.5676C112.787 52.4841 112.943 52.4424 113.098 52.4146C113.253 52.3868 113.422 52.3729 113.577 52.3729H114.678V51.6357H113.592C113.422 51.6357 113.267 51.6496 113.098 51.6635C112.943 51.6775 112.787 51.7331 112.632 51.8305V50.3145H115.454V49.5774H111.898V54.5564H115.75V53.8193H112.632V53.8332ZM108.583 52.7345C108.54 52.5954 108.484 52.4702 108.428 52.3729C108.357 52.2616 108.287 52.1782 108.202 52.1086C108.117 52.0391 108.033 51.9834 107.948 51.9417C108.103 51.8444 108.216 51.7192 108.287 51.5384C108.357 51.3715 108.399 51.1629 108.399 50.9542C108.399 50.7317 108.357 50.537 108.287 50.3701C108.216 50.2032 108.103 50.0641 107.976 49.939C107.849 49.8138 107.68 49.7304 107.496 49.6747C107.313 49.6191 107.115 49.5913 106.904 49.5913H104.35V54.5703H106.918C107.13 54.5703 107.341 54.5425 107.539 54.5008C107.75 54.4451 107.934 54.3756 108.103 54.2643C108.272 54.1531 108.399 54.014 108.498 53.8471C108.597 53.6802 108.653 53.4716 108.653 53.2213C108.653 53.0404 108.625 52.8736 108.583 52.7345ZM105.098 50.3284H106.918C107.144 50.3284 107.313 50.3701 107.454 50.4675C107.595 50.5648 107.666 50.7317 107.666 50.9681C107.666 51.2046 107.595 51.3715 107.468 51.4828C107.341 51.594 107.158 51.6496 106.918 51.6496H106.057C105.888 51.6496 105.733 51.6636 105.563 51.6775C105.408 51.7053 105.253 51.7609 105.098 51.8444V50.3284ZM107.821 53.4299C107.764 53.5272 107.694 53.5968 107.595 53.6524C107.511 53.708 107.412 53.7498 107.299 53.7776C107.186 53.8054 107.087 53.8193 106.988 53.8193H105.084V52.5676C105.239 52.4841 105.394 52.4285 105.549 52.4007C105.719 52.3729 105.874 52.3589 106.029 52.3589H106.89C107.017 52.3589 107.13 52.3729 107.257 52.3868C107.384 52.4146 107.482 52.4424 107.581 52.498C107.68 52.5537 107.75 52.6232 107.807 52.7206C107.863 52.8179 107.891 52.9292 107.891 53.0822C107.92 53.2352 107.877 53.3464 107.821 53.4299Z" fill="white"/>
<path d="M84.0726 16.2357C84.4162 15.7276 84.4408 15.0622 84.1462 14.5299C83.8394 13.9855 83.2625 13.6467 82.6243 13.6467H72.1554C70.5845 13.6588 69.0504 13.9613 67.6021 14.5783C67.4917 14.6267 67.3935 14.663 67.2953 14.7113C65.6507 15.4614 64.2148 16.6712 63.1347 18.2077L61.2938 20.9298C61.0606 20.8693 60.8642 20.8209 60.8274 20.8088C60.5942 20.7483 60.361 20.6999 60.1278 20.6515C60.0665 20.6394 60.0174 20.6273 59.9683 20.6152C58.3237 13.187 55.9182 7.25889 53.9668 3.18181C53.3899 1.972 52.2731 1.11303 50.9476 0.84687C48.6771 0.399239 46.0016 0.0483926 42.9824 0C42.8842 0 42.7738 0 42.6756 0C42.381 0 42.0865 0 41.7796 0C41.4851 0 41.2028 7.38232e-07 40.9082 0.0120989C40.626 0.0120989 40.3437 0.0241985 40.0491 0.0362966C39.7791 0.0483948 39.4968 0.0604922 39.2146 0.0846885C38.9446 0.108885 38.6746 0.120983 38.4045 0.145179C38.1345 0.169375 37.8768 0.181474 37.6068 0.217769C37.3491 0.241965 37.0913 0.278257 36.8336 0.302454C36.5881 0.32665 36.3304 0.362946 36.0849 0.399241C35.8395 0.435535 35.6063 0.459731 35.3608 0.508123C35.1276 0.544418 34.8945 0.580711 34.6613 0.617006C34.4403 0.6533 34.2072 0.689595 33.9862 0.737987C33.9003 0.750085 33.8267 0.762183 33.7408 0.786379C33.6181 0.810575 33.4953 0.834772 33.3726 0.858969C32.9676 0.955754 32.4276 1.14933 31.8753 1.56066C31.2125 2.05669 30.8566 2.6253 30.6971 2.93985C30.6725 2.98824 30.648 3.04873 30.6234 3.09712C30.5621 3.2302 30.5007 3.35119 30.4393 3.48427C30.378 3.61735 30.3166 3.75042 30.2552 3.8835C30.1939 4.01658 30.1202 4.14966 30.0589 4.28274C29.9975 4.42792 29.9239 4.561 29.8625 4.70618C29.8011 4.85136 29.7275 4.99653 29.6661 5.12961C29.6048 5.27479 29.5311 5.41997 29.4698 5.56514C29.4084 5.71032 29.3348 5.8676 29.2734 6.01278C29.1998 6.15795 29.1384 6.31523 29.077 6.47251C29.0157 6.62978 28.942 6.78706 28.8807 6.94434C28.807 7.10161 28.7457 7.25889 28.6843 7.42826C28.6106 7.59764 28.5493 7.75491 28.4756 7.91219C28.4143 8.08156 28.3406 8.25094 28.2793 8.42031C28.2179 8.58968 28.1443 8.75905 28.0829 8.92843C28.0215 9.0978 27.9479 9.26718 27.8865 9.44865C27.8129 9.61803 27.7515 9.7995 27.6902 9.96887C27.6165 10.1503 27.5552 10.3318 27.4938 10.5133C27.4202 10.6948 27.3588 10.8762 27.2974 11.0577C27.2361 11.2392 27.1624 11.4327 27.1011 11.6142C27.0397 11.7957 26.9661 11.9893 26.9047 12.1828C26.8433 12.3764 26.7697 12.57 26.7083 12.7635C26.647 12.9571 26.5733 13.1507 26.512 13.3442C26.4506 13.5378 26.3892 13.7435 26.3279 13.9371C26.2665 14.1427 26.2051 14.3363 26.1438 14.542C26.0824 14.7476 26.021 14.9533 25.9597 15.159C25.8983 15.3646 25.8369 15.5703 25.7756 15.776C25.7142 15.9937 25.6528 16.1994 25.5915 16.4051C25.5301 16.6228 25.4687 16.8285 25.4074 17.0463C25.346 17.264 25.2846 17.4818 25.2356 17.6996C25.1742 17.9173 25.1128 18.1351 25.0637 18.3529C25.0024 18.5706 24.9533 18.7884 24.8919 19.0183C24.8305 19.2481 24.7815 19.4659 24.7324 19.6958C24.6833 19.9256 24.6219 20.1555 24.5728 20.3733C24.5605 20.4459 24.5483 20.5064 24.5237 20.5789C24.1555 20.6636 23.591 20.7967 23.1 20.9056L21.2468 18.2077C20.1791 16.6833 18.7431 15.4735 17.0985 14.7234C17.0003 14.675 16.8899 14.6267 16.7917 14.5904C15.3558 13.9734 13.8216 13.6709 12.2384 13.6588H1.76949C1.13129 13.6588 0.542178 13.9976 0.247625 14.542C-0.0469283 15.0864 -0.0223822 15.7397 0.30899 16.2478L6.96099 26.4465C6.88735 26.4828 6.81371 26.5191 6.72779 26.5554C5.54958 27.0998 4.70274 28.1645 4.45728 29.4227C4.00318 31.6729 3.64726 34.3466 3.59817 37.347C3.58589 37.9277 3.58589 38.5084 3.59817 39.1012C3.61044 39.6577 3.63499 40.2142 3.67181 40.7707C3.70863 41.3031 3.74545 41.8354 3.79454 42.3677C3.84363 42.8758 3.90499 43.3718 3.96636 43.88C3.97863 44.013 4.00318 44.1461 4.01545 44.2792C4.01545 44.2792 4.01545 44.2792 4.01545 44.2913C4.06455 44.63 4.11364 44.9688 4.175 45.3075C4.19955 45.4285 4.21182 45.5616 4.23637 45.6826C4.23637 45.6947 4.23636 45.7068 4.24864 45.731C4.24864 45.7673 4.26091 45.8036 4.26091 45.8278C4.39592 46.3238 4.62911 46.9892 5.08321 47.6909C5.69686 48.6466 6.42097 49.2636 6.91189 49.6024C6.98553 49.6387 7.07144 49.675 7.14508 49.7113C7.37827 49.8201 7.61146 49.929 7.84465 50.0379L8.01646 50.1226C8.29875 50.2557 8.5933 50.3767 8.88786 50.5097C9.18241 50.6428 9.48923 50.7638 9.79606 50.8969C10.1152 51.03 10.4343 51.163 10.7411 51.284C11.0725 51.4171 11.4038 51.5502 11.7229 51.6712C12.0666 51.8042 12.4102 51.9373 12.7539 52.0704C13.1098 52.2035 13.4657 52.3366 13.8216 52.4575C14.1898 52.5906 14.558 52.7237 14.9262 52.8447C15.3067 52.9778 15.6871 53.1108 16.0676 53.2318C16.4603 53.3649 16.8531 53.4859 17.2458 53.6069C17.6508 53.7399 18.0558 53.8609 18.4608 53.9819C18.8781 54.1029 19.2954 54.2239 19.725 54.3448C20.1545 54.4658 20.5841 54.5868 21.0136 54.6957C21.4555 54.8167 21.8973 54.9256 22.3391 55.0344C22.7932 55.1433 23.2473 55.2522 23.7014 55.3611C23.9346 55.4095 24.1678 55.4579 24.3887 55.5184C26.021 62.9224 28.4266 68.8384 30.3657 72.9155C30.9548 74.1495 32.0962 75.0327 33.4462 75.2988C35.7045 75.7465 38.3677 76.0852 41.3623 76.1336C41.9515 76.1457 42.5406 76.1457 43.1419 76.1336C43.7065 76.1215 44.2711 76.0973 44.8356 76.061C45.3756 76.0247 45.9156 75.9884 46.4557 75.94C46.9711 75.8916 47.4743 75.8311 47.9898 75.7707C48.4684 75.7102 48.9594 75.6376 49.438 75.565C49.8921 75.4924 50.334 75.4198 50.7881 75.323C50.9231 75.2988 51.0458 75.2746 51.1685 75.2504C51.2176 75.2383 51.2667 75.2262 51.3281 75.2141C51.6717 75.1295 52.2854 74.9238 52.8131 74.4399C53.0218 74.2463 53.1936 74.0406 53.3163 73.8592C53.4022 73.6898 53.4881 73.5204 53.574 73.3389C53.5986 73.2784 53.6354 73.2179 53.6599 73.1575V73.1454C53.7581 72.9518 53.844 72.7582 53.9422 72.5646C54.0281 72.3832 54.114 72.2017 54.2 72.0202C54.2368 71.9355 54.2859 71.8509 54.3227 71.7541C54.4577 71.4758 54.5804 71.1855 54.7154 70.9072C54.8504 70.6048 54.9854 70.3144 55.1082 70.0119C55.2432 69.6974 55.3782 69.3949 55.5132 69.0804C55.6482 68.7537 55.7832 68.4392 55.9182 68.1125C56.0532 67.7738 56.1882 67.435 56.3232 67.0963C56.4582 66.7454 56.5932 66.3946 56.7282 66.0437C56.8632 65.6808 56.9982 65.3179 57.1209 64.9549C57.256 64.5799 57.3909 64.2048 57.5137 63.8298C57.6487 63.4427 57.7714 63.0555 57.9064 62.6684C58.0414 62.2691 58.1642 61.8699 58.2869 61.4586C58.4096 61.0472 58.5324 60.6359 58.6551 60.2245C58.7778 59.8011 58.9005 59.3777 59.011 58.9542C59.1337 58.5187 59.2442 58.0832 59.3546 57.6476C59.4651 57.2 59.5756 56.7524 59.686 56.3047C59.7474 56.0628 59.7965 55.8208 59.8578 55.5789C67.6144 53.9093 73.7755 51.4292 77.9238 49.4693C78.9302 48.9975 79.642 48.0901 79.8629 47.0134C80.3416 44.7026 80.7343 41.9322 80.7834 38.7987L80.7957 38.4963C80.7957 38.2059 80.7957 37.9156 80.7957 37.6131C80.7957 37.3228 80.7834 37.0445 80.7834 36.7542C80.7711 36.4759 80.7711 36.1976 80.7466 35.9194C80.7343 35.6411 80.722 35.375 80.6975 35.0967C80.6852 34.8306 80.6607 34.5644 80.6361 34.2982C80.6116 34.0442 80.587 33.778 80.5625 33.5118C80.5379 33.2578 80.5011 33.0037 80.4766 32.7497C80.452 32.5077 80.4152 32.2536 80.3784 32.0117C80.3416 31.7697 80.3047 31.5399 80.2679 31.2979C80.2311 31.068 80.1943 30.8382 80.1575 30.6083C80.1206 30.3784 80.0838 30.1607 80.0347 29.9429C80.0225 29.8461 79.9979 29.7493 79.9856 29.6525C79.9611 29.5316 79.9365 29.4106 79.912 29.2896C79.8875 29.1686 79.8629 29.0476 79.8384 28.9267V28.9146C79.7279 28.5516 79.5193 28.104 79.1633 27.6805C78.9056 27.3781 78.6233 27.1482 78.3656 26.9668H78.3533C78.2429 26.9063 78.1324 26.8579 78.0219 26.8095C77.8992 26.749 77.7642 26.6885 77.6415 26.628C77.5678 26.5917 77.4942 26.5554 77.4206 26.5312L84.0726 16.2357ZM52.6045 61.0351L52.5431 61.1561C52.4449 61.3739 52.3222 61.5795 52.1995 61.7973C52.1995 61.7973 52.1994 61.7973 52.1872 61.7973C50.4199 64.4952 47.4866 66.3946 44.2711 66.9874C44.1483 67.0116 44.0256 67.0237 43.9029 67.0479C43.8047 67.06 43.7188 67.0721 43.6206 67.0842C43.5838 67.0842 43.547 67.0963 43.5101 67.0963C43.2524 67.1205 42.9947 67.1447 42.7369 67.1568C42.6019 67.1689 42.4669 67.1689 42.3319 67.1689H41.9637C41.8901 67.1689 41.8287 67.1689 41.7551 67.1689C41.6937 67.1689 41.6201 67.1689 41.5587 67.1568C41.4483 67.1447 41.3378 67.1447 41.2151 67.1326C37.3245 66.7575 33.839 63.9871 31.7035 60.6843C31.6912 60.6722 31.6912 60.6722 31.6912 60.6601L31.6666 60.5996L2.41996 15.7155H12.177C13.4534 15.7276 14.7544 15.9937 15.908 16.4777C15.9939 16.514 16.0799 16.5503 16.1658 16.5866C17.4667 17.1794 18.6081 18.1472 19.4672 19.357L23.3332 24.9948C23.5419 24.3899 23.8242 23.7124 24.2414 23.0228C24.3764 22.8171 24.5728 22.5146 24.5974 22.5025C25.1006 21.7646 25.6406 21.1959 26.1192 20.7483C27.9724 18.8731 30.5375 17.1068 33.5812 16.1026C36.3181 15.2074 43.4856 13.5378 50.8249 17.5665C53.1077 18.8247 54.9977 20.7604 56.3355 22.7082C56.3477 22.7203 56.36 22.7445 56.3846 22.7687L56.3968 22.7808C56.9614 23.5551 57.5628 24.5108 58.0905 25.636C58.1887 25.8416 58.2746 26.0594 58.3728 26.2772C58.6305 26.8942 58.8269 27.4749 58.9987 28.0314L64.8652 19.3691C65.7244 18.1472 66.8658 17.1794 68.1667 16.5866C68.2526 16.5503 68.3385 16.514 68.4244 16.4777C69.5904 15.9937 70.879 15.7276 72.1554 15.7155H81.9248L52.6045 61.0351Z" fill="white"/>
<path d="M51.6965 52.5073C51.4019 53.6082 50.8865 54.5035 50.3096 55.2173C49.1682 56.6207 47.5359 57.5401 45.7441 57.9152C42.9213 58.508 37.5457 59.0645 32.2928 56.294C30.955 55.5923 28.169 54.0801 26.1563 50.862C22.6707 45.3089 24.3276 39.2719 24.6835 38.0742C25.5917 40.1551 27.5431 43.7241 31.495 46.3493C32.7469 47.172 37.8157 49.6037 42.5285 48.89C43.4981 48.7448 45.4618 48.0189 45.8545 46.1437C46.1491 44.7645 45.3513 43.3248 45.0445 42.9256C45.6336 43.0103 48.3337 43.4337 50.2483 45.8412C50.5306 46.2042 52.6415 48.9504 51.6965 52.5073Z" fill="url(#paint0_linear_637_14394)"/>
<path d="M38.3556 27.4985C38.1715 27.2202 37.5211 27.317 36.8706 27.7162C36.2324 28.1034 35.8519 28.6599 36.036 28.9382C36.2201 29.2164 36.8706 29.1196 37.5088 28.7325C38.1592 28.3211 38.5397 27.7767 38.3556 27.4985ZM59.4898 31.2005C59.3425 30.9464 59.1707 30.6924 58.9989 30.4262C58.9498 30.3657 58.9007 30.2931 58.8516 30.2206C58.8025 30.1359 58.7412 30.0512 58.6675 29.9665C58.643 29.9302 58.6062 29.8818 58.5816 29.8455C58.4466 29.664 58.3116 29.4705 58.1521 29.289C58.0416 29.1438 57.9189 28.9986 57.7961 28.8535C57.5998 28.6115 57.4034 28.3937 57.207 28.1881C57.207 28.176 57.207 28.176 57.207 28.1639C57.1334 27.8977 57.0475 27.6316 56.9616 27.3533C56.9493 27.3291 56.9493 27.2928 56.937 27.2686C56.9247 27.2565 56.9248 27.2323 56.9248 27.2202C56.8634 27.0387 56.802 26.8573 56.7284 26.6879C56.7161 26.6516 56.7038 26.6274 56.6916 26.5911V26.579C56.6056 26.3491 56.5075 26.1314 56.4338 25.9136C56.4338 25.9136 56.4338 25.9015 56.4215 25.8894C56.2865 25.5991 56.1515 25.3208 56.0165 25.0788C54.8874 22.9738 52.8992 20.4332 50.1132 18.9088C43.3017 15.1705 36.6374 16.719 34.0969 17.5538C32.3418 18.1345 30.7586 18.9814 29.4086 19.9613C29.2858 20.0581 29.1508 20.1428 29.0281 20.2396C28.9913 20.2638 28.9545 20.288 28.9176 20.3122C28.3531 20.7356 27.6535 21.3526 26.9662 22.1632C26.9294 22.2116 26.8926 22.2479 26.8558 22.2963C26.8067 22.3447 26.7699 22.4052 26.7208 22.4656C26.6962 22.4898 26.6717 22.5261 26.6594 22.5503C26.6594 22.5503 26.6594 22.5624 26.6471 22.5624C26.6226 22.5866 26.6103 22.6108 26.5858 22.635C26.5121 22.7318 26.4385 22.8407 26.3526 22.9496C26.328 22.9859 26.3035 23.0101 26.2912 23.0464C26.2544 23.0947 26.2298 23.1431 26.193 23.1915C26.1808 23.2036 26.1685 23.2278 26.1562 23.2399C26.1317 23.2762 26.1071 23.3004 26.0826 23.3367C26.0457 23.3972 26.0089 23.4577 25.9721 23.5182C25.8616 23.6997 25.7512 23.8811 25.6285 24.0868C25.6285 24.0989 25.6162 24.0989 25.6162 24.111C25.6162 24.1231 25.6039 24.1231 25.6039 24.1352C25.5916 24.1594 25.5794 24.1836 25.5671 24.2078C25.5548 24.232 25.5426 24.2562 25.5303 24.2804C25.5057 24.3167 25.4935 24.3409 25.4812 24.3772C25.383 24.5586 25.2971 24.7401 25.2112 24.9216C24.9166 25.5628 24.708 26.1798 24.5484 26.7242C24.4748 26.9904 24.4134 27.2323 24.3643 27.4743C24.303 27.7767 24.2539 28.055 24.2171 28.309C24.2171 28.3211 24.2171 28.3332 24.2171 28.3574C24.1312 29.1559 24.1189 29.9665 24.2171 30.7892C24.4134 32.616 25.0516 34.1041 25.6898 35.205C26.1194 34.8904 26.6349 34.7332 27.9603 34.0315C28.3285 33.8379 29.249 33.4145 29.6418 33.2088C29.3963 32.5434 29.6417 31.7933 30.2063 31.3457C30.8077 30.8618 31.4459 30.3052 32.1086 29.664C32.7714 29.0107 33.3482 28.3574 33.8391 27.7404C34.551 26.8452 35.4469 26.1072 36.4778 25.6112C36.4901 25.6112 36.4901 25.5991 36.5024 25.5991C37.5333 25.0909 38.4783 24.8853 39.1288 24.7885C40.7243 24.486 47.2413 23.3851 53.6969 27.2565C58.5939 30.1964 60.8153 34.3944 61.6008 36.0882C61.2203 34.7453 60.5944 33.0152 59.4898 31.2005ZM59.7844 42.0888C59.0725 38.4594 57.0229 36.1003 56.0288 35.1082C52.1628 31.2368 47.2413 30.9585 46.0631 30.9101C46.8731 30.7529 47.7936 30.6319 48.7877 30.5593C50.285 30.4625 51.6351 30.523 52.7765 30.6561C51.4878 30.2085 49.0332 29.5431 46.0263 30.0149C45.7808 30.0512 45.5354 30.0996 45.3022 30.148C43.8049 30.4625 42.4057 31.1037 41.1293 31.9506C38.9079 33.4266 36.9197 34.0678 35.6555 34.3702C35.6555 34.3702 32.2191 35.1929 30.415 34.1041C30.329 34.0557 30.2431 34.0436 30.0713 33.85C29.3595 34.2492 28.6845 34.6727 27.9481 35.0961C27.3958 35.4107 26.7453 35.7615 26.193 36.0156C26.5244 36.4874 26.8189 36.8503 27.0153 37.0802C30.1572 40.8548 34.6246 41.617 36.8215 41.9921C39.9388 42.5244 42.6635 42.2219 44.6394 41.7743C48.4441 41.9799 51.7455 44.2544 53.0956 47.5572C54.7156 51.5738 52.666 55.1911 52.396 55.6508C53.3165 55.2879 57.2929 53.6305 59.1584 49.3598C60.5576 46.2022 60.0298 43.3228 59.7844 42.0888ZM26.5244 35.0235C26.2421 35.0961 25.9476 35.205 25.7021 35.2171C25.8617 35.4953 26.0335 35.7494 26.1807 35.9672C26.3035 35.822 26.5121 35.6163 26.6717 35.4711C26.8312 35.326 27.8131 34.588 27.9481 34.5033C27.8867 34.5396 26.9417 34.9267 26.5244 35.0235Z" fill="url(#paint1_linear_637_14394)"/>
<path d="M25.6285 24.0762C25.5917 24.1488 25.5549 24.2093 25.5181 24.2818C25.5426 24.2334 25.5672 24.1851 25.604 24.1246C25.604 24.1004 25.6163 24.0883 25.6285 24.0762Z" fill="white"/>
<path d="M26.3526 22.9375C26.2666 23.0706 26.1684 23.1916 26.0825 23.3246C26.1684 23.1916 26.2666 23.0585 26.3526 22.9375Z" fill="white"/>
<path d="M26.8433 22.2852C26.7574 22.394 26.6714 22.515 26.5732 22.6239C26.6714 22.5029 26.7574 22.3819 26.8433 22.2852Z" fill="white"/>
<defs>
<linearGradient id="paint0_linear_637_14394" x1="-0.51736" y1="58.3982" x2="46.4465" y2="44.335" gradientUnits="userSpaceOnUse">
<stop offset="1" stop-color="white"/>
</linearGradient>
<linearGradient id="paint1_linear_637_14394" x1="29.7358" y1="13.7854" x2="58.65" y2="57.4077" gradientUnits="userSpaceOnUse">
<stop offset="0.5901" stop-color="white"/>
</linearGradient>
</defs>
</svg>
