<svg width="15" height="18" viewBox="0 0 15 18" fill="none" xmlns="http://www.w3.org/2000/svg">
<path d="M14.004 8.18606C14.004 12.7442 7.82132 16.9984 7.82132 16.9984C7.82132 16.9984 1.63867 12.7442 1.63867 8.18606C1.63867 6.49362 2.29006 4.87049 3.44953 3.67375C4.609 2.47701 6.18158 1.80469 7.82132 1.80469C9.46106 1.80469 11.0336 2.47701 12.1931 3.67375C13.3526 4.87049 14.004 6.49362 14.004 8.18606Z" stroke="#04A427" stroke-width="0.795632" stroke-linecap="round" stroke-linejoin="round"/>
<path d="M7.82167 9.70672C8.63466 9.70672 9.29373 9.02647 9.29373 8.18734C9.29373 7.34822 8.63466 6.66797 7.82167 6.66797C7.00867 6.66797 6.34961 7.34822 6.34961 8.18734C6.34961 9.02647 7.00867 9.70672 7.82167 9.70672Z" fill="#04A427" stroke="#04A427" stroke-width="0.795632" stroke-linecap="round" stroke-linejoin="round"/>
</svg>
