<svg width="18" height="22" viewBox="0 0 18 22" fill="none" xmlns="http://www.w3.org/2000/svg">
<path d="M4.00344 10.152C5.12942 12.3649 6.94351 14.1712 9.15637 15.305L10.8766 13.5847C11.0877 13.3736 11.4005 13.3032 11.6742 13.3971C12.55 13.6864 13.4961 13.8428 14.4657 13.8428C14.8957 13.8428 15.2476 14.1946 15.2476 14.6247V17.3536C15.2476 17.7837 14.8957 18.1356 14.4657 18.1356C7.12335 18.1356 1.17285 12.1851 1.17285 4.84272C1.17285 4.41266 1.52472 4.06079 1.95478 4.06079H4.69154C5.12161 4.06079 5.47347 4.41266 5.47347 4.84272C5.47347 5.82014 5.62986 6.75845 5.91918 7.63422C6.00519 7.90789 5.94263 8.21285 5.72369 8.43179L4.00344 10.152Z" fill="#04A427"/>
</svg>
