<svg width="17" height="21" viewBox="0 0 17 21" fill="none" xmlns="http://www.w3.org/2000/svg">
<path d="M3.21778 9.42444C4.49778 11.94 6.56 13.9933 9.07556 15.2822L11.0311 13.3267C11.2711 13.0867 11.6267 13.0067 11.9378 13.1133C12.9333 13.4422 14.0089 13.62 15.1111 13.62C15.6 13.62 16 14.02 16 14.5089V17.6111C16 18.1 15.6 18.5 15.1111 18.5C6.76444 18.5 0 11.7356 0 3.38889C0 2.9 0.4 2.5 0.888889 2.5H4C4.48889 2.5 4.88889 2.9 4.88889 3.38889C4.88889 4.5 5.06667 5.56667 5.39556 6.56222C5.49333 6.87333 5.42222 7.22 5.17333 7.46889L3.21778 9.42444Z" fill="#F6FFF8"/>
</svg>
