<svg width="14" height="13" viewBox="0 0 14 13" fill="none" xmlns="http://www.w3.org/2000/svg">
<path d="M12.832 5.728C12.8827 5.728 12.9207 5.804 12.946 5.956C12.9967 6.108 13.022 6.27267 13.022 6.45C13.022 6.62733 12.9967 6.80467 12.946 6.982C12.9207 7.134 12.8827 7.21 12.832 7.21H7.322V12.72C7.322 12.7707 7.22067 12.8213 7.018 12.872C6.84067 12.8973 6.65067 12.91 6.448 12.91C6.01733 12.91 5.802 12.872 5.802 12.796V7.21H0.292C0.241333 7.21 0.190667 7.134 0.14 6.982C0.114667 6.80467 0.102 6.61467 0.102 6.412C0.102 6.23467 0.114667 6.08267 0.14 5.956C0.190667 5.804 0.228667 5.728 0.254 5.728H5.802V0.217999C5.802 0.167332 5.878 0.129332 6.03 0.103999C6.20733 0.0533325 6.38467 0.0279991 6.562 0.0279991C6.73933 0.0279991 6.904 0.0533325 7.056 0.103999C7.23333 0.129332 7.322 0.167332 7.322 0.217999V5.728H12.832Z" fill="#04A427"/>
</svg>
