<svg width="60" height="60" viewBox="0 0 60 60" fill="none" xmlns="http://www.w3.org/2000/svg">
<g filter="url(#filter0_d_637_23605)">
<circle cx="28" cy="28" r="28" transform="matrix(-1 0 0 1 58 2)" fill="#F3FFF6"/>
</g>
<path d="M17.6464 30.3536C17.4512 30.1583 17.4512 29.8417 17.6464 29.6464L20.8284 26.4645C21.0237 26.2692 21.3403 26.2692 21.5355 26.4645C21.7308 26.6597 21.7308 26.9763 21.5355 27.1716L18.7071 30L21.5355 32.8284C21.7308 33.0237 21.7308 33.3403 21.5355 33.5355C21.3403 33.7308 21.0237 33.7308 20.8284 33.5355L17.6464 30.3536ZM42 30.5H18V29.5H42V30.5Z" fill="#04A427"/>
<defs>
<filter id="filter0_d_637_23605" x="0" y="0" width="60" height="60" filterUnits="userSpaceOnUse" color-interpolation-filters="sRGB">
<feFlood flood-opacity="0" result="BackgroundImageFix"/>
<feColorMatrix in="SourceAlpha" type="matrix" values="0 0 0 0 0 0 0 0 0 0 0 0 0 0 0 0 0 0 127 0" result="hardAlpha"/>
<feOffset/>
<feGaussianBlur stdDeviation="1"/>
<feComposite in2="hardAlpha" operator="out"/>
<feColorMatrix type="matrix" values="0 0 0 0 0 0 0 0 0 0.443137 0 0 0 0 0.607843 0 0 0 0.15 0"/>
<feBlend mode="normal" in2="BackgroundImageFix" result="effect1_dropShadow_637_23605"/>
<feBlend mode="normal" in="SourceGraphic" in2="effect1_dropShadow_637_23605" result="shape"/>
</filter>
</defs>
</svg>
