<svg width="101" height="90" viewBox="0 0 101 90" fill="none" xmlns="http://www.w3.org/2000/svg">
<path d="M28.2709 47.5761C29.1551 45.5022 30.1252 43.1816 29.709 41.232C29.4247 39.9004 28.2683 38.7077 26.9773 37.935C26.6209 37.7217 26.1903 37.5086 25.6552 37.5257C25.5306 37.5297 25.3873 37.5432 25.3171 37.6541C24.976 38.1929 25.2719 40.0799 25.2855 40.2296C25.6969 44.7493 26.0908 50.001 29.5775 53.3078C30.2547 53.9501 31.9278 55.6031 33.3405 55.4997C34.9033 55.3853 35.1348 52.5339 34.8089 52.0168C33.9117 50.5935 29.3251 54.4471 28.4913 55.1691C28.3419 55.2985 28.2009 55.4328 28.0612 55.5674C27.8335 55.7867 27.8663 55.7703 28.1829 55.5821C30.0176 54.4917 31.7606 53.1619 33.4004 51.9175C36.1882 49.8017 39.153 47.6008 41.5052 45.211C42.0762 44.6309 42.3282 44.2584 42.2152 43.6981C42.1011 43.1325 40.5289 42.5318 40.3267 43.6357C40.162 44.5342 40.3704 45.4347 40.7092 46.1935C40.8922 46.6037 41.5619 47.4972 41.9204 47.0356C42.9327 45.7319 42.8174 43.4323 42.8581 42.2544C42.9217 40.412 42.6884 38.6713 42.4903 36.895C42.396 36.0498 43.6682 38.1642 44.1681 38.8491C46.244 41.6937 48.4681 44.52 49.9961 47.6408C50.6843 49.0465 51.4415 50.5621 48.7212 51.7381C46.2763 52.795 43.1224 53.3678 40.6773 53.3934C35.1202 53.4517 34.1652 50.0318 35.7952 46.1219C37.5803 41.84 40.2723 37.6042 42.2529 33.333C43.7875 30.0236 45.0656 26.7091 45.7525 23.4095C45.9276 22.5682 46.3208 20.2452 45.5683 21.0052C45.1927 21.3847 45.7953 21.7566 45.9502 22.116C47.1258 24.8434 48.3195 27.5636 49.5346 30.2745C49.8575 30.9948 50.1841 31.7135 50.5143 32.4307C50.6707 32.7705 50.8117 33.1175 50.9945 33.4455C51.0253 33.5007 51.0749 33.6242 51.1511 33.5734C51.4721 33.3596 51.5697 31.4156 51.5885 31.3014C51.666 30.8298 51.5494 27.7461 52.62 29.8291C55.9057 36.2221 58.1891 43.1999 60.8312 49.8516C63.3856 56.2825 66.5514 62.776 68.0265 69.6245C68.2532 70.6775 68.5506 71.561 66.8 71.8456C64.7893 72.1724 62.9241 71.746 61.393 71.1737C57.8237 69.8397 56.9889 67.0233 57.3974 63.7235C57.7272 61.0594 58.7338 58.3258 59.4002 55.6352C59.7586 54.188 59.9029 52.796 60.1122 51.3681" stroke="#04A427" stroke-width="0.815773" stroke-linecap="round"/>
<path d="M50.9565 37.4982C50.5724 36.9767 48.5649 34.8855 47.1812 35.9325C46.437 36.4956 45.9954 37.5343 45.72 38.1982C45.1708 39.5219 45.4437 40.774 46.778 41.4173C48.9727 42.4754 50.5213 38.0289 50.5389 38.0326C51.396 38.215 52.089 39.015 52.7624 37.9325C55.8102 33.0331 57.4164 27.4218 57.4621 22.6215C57.476 21.1625 57.1953 18.6843 54.9195 18.4299C53.9717 18.3239 55.8946 19.555 56.4433 20.0786C62.1534 25.5266 67.0281 31.488 72.4329 37.126C73.3172 38.0484 73.9672 37.939 72.0479 38.8193C66.9491 41.1578 61.7991 43.4591 56.5736 45.5271C53.5066 46.7409 49.2438 48.6131 45.9567 48.644C44.2944 48.6596 43.4452 47.8257 43.5314 46.5586C43.7282 43.667 46.0638 40.2015 47.7455 37.3938C49.7385 34.0665 52.0744 30.7999 54.0574 27.4732C54.8314 26.1746 55.4588 24.9074 55.6035 23.6062C55.7447 22.336 55.4501 22.5964 55.737 21.364C56.5356 17.9337 58.6856 11.5317 64.7525 11.1228C66.0028 11.0385 67.1668 11.2497 68.2758 11.455C68.7687 11.5463 69.5296 11.6155 69.8107 11.9486C70.3975 12.6437 69.2245 14.7177 68.9336 15.3569C65.6934 22.4777 61.5288 29.5452 58.4388 36.675C58.0899 37.48 58.8633 37.4511 59.5543 37.7248C63.3459 39.2268 65.8772 42.3392 68.3912 44.8027C70.2964 46.6697 72.1452 48.575 73.925 50.5211C74.0946 50.7066 74.2578 50.8961 74.4241 51.0837C74.6072 51.2902 74.6954 51.528 74.6839 51.1278C74.3186 38.3961 74.3475 25.5642 73.5034 12.9401C73.2644 9.36637 72.8008 5.89351 72.3479 2.38239C72.2302 1.46964 72.5416 2.26248 72.6576 2.49836C74.3986 6.03909 75.145 9.99578 76.6825 13.6221C77.5248 15.609 78.4633 17.3337 80.4792 18.6315C81.3843 19.2142 82.4306 19.6141 83.4122 20.1181C84.0551 20.4483 83.293 22.0406 83.2017 22.5887C82.7834 25.1001 82.8994 27.2899 83.4121 29.5786" stroke="#04A427" stroke-width="0.815773" stroke-linecap="round"/>
<path d="M83.3055 29.649C82.7731 28.3201 83.9586 26.6775 84.767 25.2586C85.1299 24.6216 85.7712 24.1881 86.2531 23.6017C86.3554 23.4773 86.3702 23.3297 86.5428 23.2606" stroke="#04A427" stroke-width="0.815773" stroke-linecap="round"/>
<path d="M19.4098 50.0459C17.9732 48.5564 13.361 50.8494 12.1204 52.2646C8.68115 56.1878 11.6464 60.3414 14.024 62.8208C17.3359 66.2743 22.4414 69.8673 28.7955 70.353C29.8867 70.4364 31.3856 70.5711 32.6034 69.893C33.7603 69.2487 34.0482 68.1706 34.293 67.3382C35.1713 64.3526 34.4044 61.7607 33.2367 59.308C32.5997 57.9701 31.8976 56.474 30.8639 55.3204C30.6042 55.0306 30.4349 55.312 30.1658 55.5611" stroke="#04A427" stroke-width="0.815773" stroke-linecap="round"/>
</svg>
