<svg width="48" height="48" viewBox="0 0 48 48" fill="none" xmlns="http://www.w3.org/2000/svg">
<circle cx="24" cy="24" r="17" fill="white" fill-opacity="0.75" shape-rendering="crispEdges"/>
<path d="M19.303 25.214C19.0807 25.214 18.8918 25.1706 18.7362 25.0839C18.6028 24.9827 18.5361 24.8598 18.5361 24.7153V23.8913C18.5361 23.7467 18.6028 23.6311 18.7362 23.5444C18.8918 23.4432 19.0807 23.3926 19.303 23.3926H29.305C29.5273 23.3926 29.7051 23.4432 29.8385 23.5444C29.9941 23.6311 30.0718 23.7467 30.0718 23.8913V24.7153C30.0718 24.8598 29.9941 24.9827 29.8385 25.0839C29.7051 25.1706 29.5273 25.214 29.305 25.214H19.303Z" fill="#04A427"/>
<path d="M25.215 29.3035C25.215 29.5258 25.1716 29.7147 25.0849 29.8703C24.9837 30.0036 24.8608 30.0703 24.7163 30.0703H23.8923C23.7477 30.0703 23.6321 30.0036 23.5453 29.8703C23.4441 29.7147 23.3936 29.5258 23.3936 29.3035V19.3014C23.3936 19.0792 23.4441 18.9013 23.5453 18.768C23.6321 18.6124 23.7477 18.5346 23.8923 18.5346H24.7163C24.8608 18.5346 24.9837 18.6124 25.0849 18.768C25.1716 18.9013 25.215 19.0792 25.215 19.3014V29.3035Z" fill="#04A427"/>
</svg>
