<svg width="129" height="24" viewBox="0 0 129 24" fill="none" xmlns="http://www.w3.org/2000/svg">
<path d="M11.3698 3.46679C11.6412 2.49048 13.0255 2.49048 13.2968 3.46679L14.5328 7.91427C14.6574 8.36249 15.0746 8.66561 15.5394 8.64557L20.1511 8.44677C21.1635 8.40312 21.5913 9.71967 20.7466 10.2794L16.8988 12.8293C16.511 13.0863 16.3516 13.5767 16.5143 14.0126L18.1285 18.3372C18.4828 19.2865 17.3629 20.1002 16.5695 19.4698L12.9554 16.5983C12.5912 16.3089 12.0755 16.3089 11.7112 16.5983L8.09709 19.4698C7.30372 20.1002 6.1838 19.2865 6.53814 18.3372L8.15233 14.0126C8.31501 13.5767 8.15565 13.0863 7.76787 12.8293L3.92001 10.2794C3.07534 9.71967 3.50311 8.40312 4.51548 8.44677L9.12724 8.64557C9.59202 8.66561 10.0092 8.36249 10.1338 7.91427L11.3698 3.46679Z" fill="#04A427"/>
<path d="M37.3698 3.46679C37.6412 2.49048 39.0255 2.49048 39.2968 3.46679L40.5328 7.91427C40.6574 8.36249 41.0746 8.66561 41.5394 8.64557L46.1511 8.44677C47.1635 8.40312 47.5913 9.71967 46.7466 10.2794L42.8988 12.8293C42.511 13.0863 42.3516 13.5767 42.5143 14.0126L44.1285 18.3372C44.4828 19.2865 43.3629 20.1002 42.5695 19.4698L38.9554 16.5983C38.5912 16.3089 38.0755 16.3089 37.7112 16.5983L34.0971 19.4698C33.3037 20.1002 32.1838 19.2865 32.5381 18.3372L34.1523 14.0126C34.315 13.5767 34.1557 13.0863 33.7679 12.8293L29.92 10.2794C29.0753 9.71967 29.5031 8.40312 30.5155 8.44677L35.1272 8.64557C35.592 8.66561 36.0092 8.36249 36.1338 7.91427L37.3698 3.46679Z" fill="#04A427"/>
<path d="M63.3698 3.46679C63.6412 2.49048 65.0255 2.49048 65.2968 3.46679L66.5328 7.91427C66.6574 8.36249 67.0746 8.66561 67.5394 8.64557L72.1511 8.44677C73.1635 8.40312 73.5913 9.71967 72.7466 10.2794L68.8988 12.8293C68.511 13.0863 68.3516 13.5767 68.5143 14.0126L70.1285 18.3372C70.4828 19.2865 69.3629 20.1002 68.5695 19.4698L64.9554 16.5983C64.5912 16.3089 64.0755 16.3089 63.7112 16.5983L60.0971 19.4698C59.3037 20.1002 58.1838 19.2865 58.5381 18.3372L60.1523 14.0126C60.315 13.5767 60.1557 13.0863 59.7679 12.8293L55.92 10.2794C55.0753 9.71967 55.5031 8.40312 56.5155 8.44677L61.1272 8.64557C61.592 8.66561 62.0092 8.36249 62.1338 7.91427L63.3698 3.46679Z" fill="#04A427"/>
<path d="M89.3698 3.46679C89.6412 2.49048 91.0255 2.49048 91.2968 3.46679L92.5328 7.91427C92.6574 8.36249 93.0746 8.66561 93.5394 8.64557L98.1511 8.44677C99.1635 8.40312 99.5913 9.71967 98.7466 10.2794L94.8988 12.8293C94.511 13.0863 94.3516 13.5767 94.5143 14.0126L96.1285 18.3372C96.4828 19.2865 95.3629 20.1002 94.5695 19.4698L90.9554 16.5983C90.5912 16.3089 90.0755 16.3089 89.7112 16.5983L86.0971 19.4698C85.3037 20.1002 84.1838 19.2865 84.5381 18.3372L86.1523 14.0126C86.315 13.5767 86.1557 13.0863 85.7679 12.8293L81.92 10.2794C81.0753 9.71967 81.5031 8.40312 82.5155 8.44677L87.1272 8.64557C87.592 8.66561 88.0092 8.36249 88.1338 7.91427L89.3698 3.46679Z" fill="#04A427"/>
<path d="M115.37 3.46679C115.641 2.49048 117.025 2.49048 117.297 3.46679L118.533 7.91427C118.657 8.36249 119.075 8.66561 119.539 8.64557L124.151 8.44677C125.164 8.40312 125.591 9.71967 124.747 10.2794L120.899 12.8293C120.511 13.0863 120.352 13.5767 120.514 14.0126L122.128 18.3372C122.483 19.2865 121.363 20.1002 120.57 19.4698L116.955 16.5983C116.591 16.3089 116.075 16.3089 115.711 16.5983L112.097 19.4698C111.304 20.1002 110.184 19.2865 110.538 18.3372L112.152 14.0126C112.315 13.5767 112.156 13.0863 111.768 12.8293L107.92 10.2794C107.075 9.71967 107.503 8.40312 108.515 8.44677L113.127 8.64557C113.592 8.66561 114.009 8.36249 114.134 7.91427L115.37 3.46679Z" fill="#E9E9E9"/>
</svg>
