<svg width="33" height="33" viewBox="0 0 33 33" fill="none" xmlns="http://www.w3.org/2000/svg">
<rect x="1.82422" y="1.19727" width="30" height="30" rx="8" stroke="#04A427" stroke-width="2"/>
<path fill-rule="evenodd" clip-rule="evenodd" d="M24.0861 7.81063C24.332 7.71371 24.6011 7.68028 24.8655 7.71383C25.1299 7.74737 25.3798 7.84667 25.5893 8.00137C25.7988 8.15607 25.9602 8.36054 26.0567 8.59347C26.1532 8.82641 26.1812 9.0793 26.1379 9.32584L23.8811 22.1454C23.6621 23.382 22.2133 24.0911 21.0023 23.4752C19.9893 22.9599 18.4847 22.1659 17.1314 21.3375C16.4547 20.9228 14.382 19.5949 14.6367 18.65C14.8556 17.8421 18.3384 14.8061 20.3286 13.0011C21.1098 12.2919 20.7535 11.8829 19.8311 12.5352C17.5404 14.1547 13.8625 16.6176 12.6466 17.3109C11.5739 17.9222 11.0146 18.0266 10.3459 17.9222C9.12594 17.7321 7.99453 17.4377 7.07109 17.0789C5.82325 16.5943 5.88395 14.9878 7.0701 14.52L24.0861 7.81063Z" fill="#04A427"/>
</svg>
