<svg width="11" height="11" viewBox="0 0 11 11" fill="none" xmlns="http://www.w3.org/2000/svg">
<g clip-path="url(#clip0_637_23931)">
<path d="M5.50008 0.916016C8.03146 0.916016 10.0834 2.96797 10.0834 5.49935C10.0834 8.03072 8.03146 10.0827 5.50008 10.0827C2.96871 10.0827 0.916748 8.03072 0.916748 5.49935C0.916748 2.96797 2.96871 0.916016 5.50008 0.916016ZM5.50008 1.83268C4.52762 1.83268 3.59499 2.21899 2.90736 2.90662C2.21972 3.59426 1.83341 4.52689 1.83341 5.49935C1.83341 6.47181 2.21972 7.40444 2.90736 8.09207C3.59499 8.77971 4.52762 9.16602 5.50008 9.16602C6.47254 9.16602 7.40517 8.77971 8.09281 8.09207C8.78044 7.40444 9.16675 6.47181 9.16675 5.49935C9.16675 4.52689 8.78044 3.59426 8.09281 2.90662C7.40517 2.21899 6.47254 1.83268 5.50008 1.83268ZM5.50008 2.74935C5.61234 2.74936 5.72069 2.79058 5.80459 2.86518C5.88848 2.93977 5.94207 3.04257 5.95521 3.15406L5.95842 3.20768V5.3096L7.19912 6.55031C7.28132 6.63279 7.32905 6.74346 7.3326 6.85986C7.33616 6.97625 7.29527 7.08963 7.21826 7.17698C7.14124 7.26432 7.03387 7.31907 6.91795 7.33012C6.80202 7.34116 6.68624 7.30766 6.59412 7.23643L6.55104 7.19839L5.17604 5.82339C5.10481 5.7521 5.05906 5.65931 5.04587 5.55939L5.04175 5.49935V3.20768C5.04175 3.08612 5.09004 2.96955 5.17599 2.88359C5.26195 2.79764 5.37852 2.74935 5.50008 2.74935Z" fill="#F3FFF6" stroke="#F3FFF6" stroke-width="0.083787"/>
</g>
<defs>
<clipPath id="clip0_637_23931">
<rect width="11" height="11" fill="white"/>
</clipPath>
</defs>
</svg>
