<svg width="29" height="32" viewBox="0 0 29 32" fill="none" xmlns="http://www.w3.org/2000/svg">
<path fill-rule="evenodd" clip-rule="evenodd" d="M15.8072 9.55849C18.1275 8.40991 18.4999 5.35739 17.3621 3.08281C16.1684 0.633218 13.7043 -0.383168 11.4962 0.678482C9.2108 1.77052 8.59413 4.48505 9.74842 6.75812C10.7815 9.01888 13.5233 10.6671 15.8072 9.55849ZM24.5046 5.29229C23.4986 4.86692 22.3711 4.8662 21.3285 5.28469C19.0383 6.21373 18.1115 8.70968 19.12 11.2128C20.0322 13.5747 22.6044 15.3017 24.9885 14.3407C27.3623 13.3774 28.0057 10.2969 27.0333 8.00722C26.5198 6.72648 25.6183 5.76457 24.5046 5.29229ZM8.46992 14.1029C7.67217 14.7192 6.68068 14.9663 5.62779 14.832C1.6971 14.3395 -1.02451 8.95707 2.43501 6.29049C5.78779 3.7337 9.92105 7.21976 9.91834 10.9257C9.92006 12.2264 9.39486 13.3816 8.46992 14.1029ZM13.5295 14.1314C9.7403 16.5478 11.1046 26.6935 12.6234 29.527C14.9707 33.2891 18.9797 31.0161 22.6149 28.7038L22.6212 28.6999C22.9041 28.5174 23.1867 28.3385 23.4664 28.1615C25.859 26.6471 28.0399 25.2666 28.4022 22.8834C28.5082 21.9965 28.2789 21.0901 27.7158 20.1808C25.8818 17.586 17.3442 11.8127 13.5295 14.1314ZM8.35215 17.9506C9.3631 19.0893 9.89413 20.5252 9.80895 21.8972C9.74386 22.9771 9.29111 23.939 8.54119 24.6043C6.61465 26.3041 3.5741 25.5136 1.96004 23.6126C1.04474 22.572 0.579003 21.3402 0.652487 20.1328C0.719976 19.0426 1.21783 18.0266 2.06097 17.2861C3.90932 15.6435 6.55674 15.926 8.35215 17.9506Z" fill="#06631B"/>
</svg>
