<svg width="23" height="30" viewBox="0 0 23 30" fill="none" xmlns="http://www.w3.org/2000/svg">
<path d="M8.87548 2.48035C8.8415 1.69628 9.46298 1.02709 10.264 0.996321C10.8671 0.973152 11.47 0.944596 12.0736 0.911427C12.871 0.867602 13.5479 1.47856 13.5807 2.26405L13.9918 12.1112C14.0108 12.5671 14.1495 13.01 14.3939 13.3953L21.8662 25.1761C22.271 25.8142 22.0963 26.6585 21.4714 27.0835L19.8579 28.1811C19.2043 28.6256 18.3125 28.4413 17.8887 27.7741L13.8185 21.3666C12.8083 19.7762 10.4945 19.7549 9.45518 21.3266L4.93955 28.1552C4.50174 28.8173 3.60165 28.9833 2.95642 28.521L1.31283 27.3435C0.701018 26.9051 0.545237 26.0615 0.960151 25.4336L8.85693 13.4827C9.15909 13.0254 9.30901 12.4843 9.28528 11.9368L8.87548 2.48035Z" fill="white" stroke="#2E2E1F" stroke-width="1.2"/>
</svg>
