<svg width="830" height="266" viewBox="0 0 830 266" fill="none" xmlns="http://www.w3.org/2000/svg">
<g filter="url(#filter0_d_136_621)">
<path d="M395.347 245.211C370.332 245.211 366.667 240.813 366.667 217.725V34.5918C366.667 11.9749 370.651 6.32073 395.347 6.32073C396.94 6.32073 396.94 1.60889 395.347 1.60889C381.645 1.60889 364.277 2.86545 343.723 2.86545C324.444 2.86545 306.28 1.60889 292.1 1.60889C290.825 1.60889 290.825 6.32073 292.1 6.32073C316.637 6.32073 321.576 11.0326 321.576 33.8065V217.725C321.576 240.813 316.796 245.211 292.1 245.211C290.825 245.211 290.825 249.923 292.1 249.923C306.121 249.923 324.285 249.138 343.723 249.138C364.277 249.138 381.167 249.923 395.347 249.923C396.94 249.923 396.94 245.211 395.347 245.211Z" fill="white" opacity="0.5"/>
</g>
<g filter="url(#filter1_d_136_621)">
<path d="M677.381 0.981476C660.81 0.981476 634.999 3.02316 615.401 3.02316C596.122 3.02316 578.755 1.76678 564.574 1.76678C562.981 1.76678 562.981 6.47862 564.574 6.47862C588.792 6.47862 593.254 11.1905 593.254 33.9644V217.883C593.254 240.971 588.474 245.369 563.777 245.369C562.503 245.369 562.503 250.081 563.777 250.081C577.799 250.081 595.962 249.295 615.401 249.295C636.751 249.295 665.75 251.651 683.117 251.651C755.295 251.651 816 201.235 816 121.762C816 53.4398 760.871 0.981476 677.381 0.981476ZM678.974 242.542C645.196 242.542 637.867 233.432 637.867 213.485V34.7497C637.867 13.2323 649.976 9.77687 681.364 9.77687C733.307 9.77687 766.448 63.0207 766.448 130.557C766.448 203.119 729.801 242.542 678.974 242.542Z" fill="white" opacity="0.9"/>
</g>
<g filter="url(#filter2_d_136_621)">
<path d="M616.196 177.955C606.158 215.336 573.017 239.052 531.272 239.052H517.569C497.812 239.052 494.625 235.911 494.625 216.435V34.5581C494.625 11.9412 498.609 6.75827 523.305 6.75827C524.899 6.75827 524.899 2.04643 523.305 2.04643C509.603 2.04643 492.236 3.30281 472.16 3.30281C452.88 3.30281 433.92 2.04643 421.014 2.04643C419.739 2.04643 419.739 6.75827 421.014 6.75827C445.551 6.75827 450.012 11.4701 450.012 34.244V218.163C450.012 241.251 445.551 245.649 421.014 245.649C419.739 245.649 419.739 250.36 421.014 250.36H611.097C615.559 250.36 617.152 248.79 617.152 244.392C617.152 223.66 619.223 196.331 620.816 178.897C620.657 177.17 616.674 176.385 616.196 177.955Z" fill="white" opacity="0.7"/>
</g>
<g filter="url(#filter3_d_136_621)">
<path d="M368.585 0.981705C354.883 0.981705 347.553 2.23808 332.735 2.23808C312.5 2.23808 301.666 0.981705 287.645 0.981705C286.051 0.981705 286.051 5.69355 287.645 5.69355C307.72 5.69355 316.643 26.7397 305.808 55.3249L253.866 192.282L205.589 91.7631L220.406 52.4977C232.516 20.7713 247.015 5.69355 265.179 5.69355C266.453 5.69355 266.453 0.981705 265.179 0.981705C253.069 0.981705 247.015 2.23808 233.79 2.23808C209.572 2.23808 215.626 0.981705 207.66 0.981705C206.066 0.981705 206.066 5.69355 207.66 5.69355C221.044 5.69355 221.044 19.9861 208.934 51.3984L198.896 78.0988L181.211 41.1894C167.189 11.8189 166.711 5.85057 181.211 5.85057C182.804 5.85057 182.804 1.13873 181.211 1.13873C172.288 1.13873 162.728 2.3951 132.455 2.3951C115.566 2.3951 115.566 1.13873 107.44 1.13873C105.847 1.13873 105.847 5.85057 107.44 5.85057C117.159 5.85057 124.807 16.5307 133.252 34.1216L178.024 127.416L152.69 192.911L80.1941 41.1894C66.1728 11.8189 67.2882 5.85057 89.4354 5.85057C91.0287 5.85057 91.0287 1.13873 89.4354 1.13873C78.6008 1.13873 66.8102 2.3951 30.9605 2.3951C10.8846 2.3951 10.8846 1.13873 1.48405 1.13873C-0.109268 1.13873 -0.109268 5.85057 1.48405 5.85057C16.7799 5.85057 20.7633 10.5624 32.0758 34.1216L134.845 248.981C135.642 251.023 142.971 251.023 143.768 248.981L184.397 141.394L236.021 248.981C236.818 251.023 244.147 251.023 244.943 248.981L319.511 52.812C330.824 23.7556 349.306 6.00759 369.063 6.00759C369.701 5.69347 369.7 0.981705 368.585 0.981705Z" fill="white" opacity="0.3"/>
</g>
<defs>
<filter id="filter0_d_136_621" x="291.144" y="1.60889" width="119.249" height="262.164" filterUnits="userSpaceOnUse" color-interpolation-filters="sRGB">
<feFlood flood-opacity="0" result="BackgroundImageFix"/>
<feColorMatrix in="SourceAlpha" type="matrix" values="0 0 0 0 0 0 0 0 0 0 0 0 0 0 0 0 0 0 127 0" result="hardAlpha"/>
<feOffset dx="9.58863" dy="9.58863"/>
<feGaussianBlur stdDeviation="2.13081"/>
<feComposite in2="hardAlpha" operator="out"/>
<feColorMatrix type="matrix" values="0 0 0 0 0.13839 0 0 0 0 0.255833 0 0 0 0 0.0390145 0 0 0 0.4 0"/>
<feBlend mode="normal" in2="BackgroundImageFix" result="effect1_dropShadow_136_621"/>
<feBlend mode="normal" in="SourceGraphic" in2="effect1_dropShadow_136_621" result="shape"/>
</filter>
<filter id="filter1_d_136_621" x="562.821" y="0.981476" width="267.029" height="264.52" filterUnits="userSpaceOnUse" color-interpolation-filters="sRGB">
<feFlood flood-opacity="0" result="BackgroundImageFix"/>
<feColorMatrix in="SourceAlpha" type="matrix" values="0 0 0 0 0 0 0 0 0 0 0 0 0 0 0 0 0 0 127 0" result="hardAlpha"/>
<feOffset dx="9.58863" dy="9.58863"/>
<feGaussianBlur stdDeviation="2.13081"/>
<feComposite in2="hardAlpha" operator="out"/>
<feColorMatrix type="matrix" values="0 0 0 0 0.13839 0 0 0 0 0.255833 0 0 0 0 0.0390145 0 0 0 0.4 0"/>
<feBlend mode="normal" in2="BackgroundImageFix" result="effect1_dropShadow_136_621"/>
<feBlend mode="normal" in="SourceGraphic" in2="effect1_dropShadow_136_621" result="shape"/>
</filter>
<filter id="filter2_d_136_621" x="420.058" y="2.04643" width="214.609" height="262.164" filterUnits="userSpaceOnUse" color-interpolation-filters="sRGB">
<feFlood flood-opacity="0" result="BackgroundImageFix"/>
<feColorMatrix in="SourceAlpha" type="matrix" values="0 0 0 0 0 0 0 0 0 0 0 0 0 0 0 0 0 0 127 0" result="hardAlpha"/>
<feOffset dx="9.58863" dy="9.58863"/>
<feGaussianBlur stdDeviation="2.13081"/>
<feComposite in2="hardAlpha" operator="out"/>
<feColorMatrix type="matrix" values="0 0 0 0 0.13839 0 0 0 0 0.255833 0 0 0 0 0.0390145 0 0 0 0.4 0"/>
<feBlend mode="normal" in2="BackgroundImageFix" result="effect1_dropShadow_136_621"/>
<feBlend mode="normal" in="SourceGraphic" in2="effect1_dropShadow_136_621" result="shape"/>
</filter>
<filter id="filter3_d_136_621" x="0.289062" y="0.981705" width="383.055" height="263.381" filterUnits="userSpaceOnUse" color-interpolation-filters="sRGB">
<feFlood flood-opacity="0" result="BackgroundImageFix"/>
<feColorMatrix in="SourceAlpha" type="matrix" values="0 0 0 0 0 0 0 0 0 0 0 0 0 0 0 0 0 0 127 0" result="hardAlpha"/>
<feOffset dx="9.58863" dy="9.58863"/>
<feGaussianBlur stdDeviation="2.13081"/>
<feComposite in2="hardAlpha" operator="out"/>
<feColorMatrix type="matrix" values="0 0 0 0 0.13839 0 0 0 0 0.255833 0 0 0 0 0.0390145 0 0 0 0.4 0"/>
<feBlend mode="normal" in2="BackgroundImageFix" result="effect1_dropShadow_136_621"/>
<feBlend mode="normal" in="SourceGraphic" in2="effect1_dropShadow_136_621" result="shape"/>
</filter>
</defs>
</svg>
