<svg width="52" height="52" viewBox="0 0 52 52" fill="none" xmlns="http://www.w3.org/2000/svg">
<g filter="url(#filter0_d_858_17078)">
<circle cx="25.6337" cy="26.0986" r="21.0986" fill="white"/>
</g>
<path d="M36.1196 26.0489C36.1196 26.1007 36.1196 26.1596 36.1172 26.2278C36.1149 26.4186 36.1102 26.6329 36.1055 26.8613C36.0866 27.5182 36.0537 28.1729 36.0018 28.7898C35.9312 29.6399 35.8276 30.3487 35.6863 30.8808C35.5372 31.4362 35.245 31.9427 34.8388 32.3497C34.4326 32.7568 33.9267 33.05 33.3716 33.2003C32.7052 33.3792 31.4007 33.4899 29.564 33.5582C28.6903 33.5912 27.7555 33.6124 26.8207 33.6241C26.4934 33.6288 26.1896 33.6312 25.9164 33.6335H25.2241C24.951 33.6312 24.6472 33.6288 24.3199 33.6241C23.3851 33.6124 22.4502 33.5912 21.5766 33.5582C19.7399 33.4876 18.433 33.3769 17.769 33.2003C17.2137 33.0504 16.7076 32.7573 16.3014 32.3502C15.8951 31.9431 15.603 31.4364 15.4543 30.8808C15.3106 30.3487 15.2094 29.6399 15.1387 28.7898C15.0869 28.1729 15.054 27.5182 15.0351 26.8613C15.0281 26.6329 15.0257 26.4186 15.0234 26.2278C15.0234 26.1596 15.021 26.1007 15.021 26.0489V25.917C15.021 25.8652 15.021 25.8063 15.0234 25.7381C15.0257 25.5473 15.0304 25.333 15.0351 25.1046C15.054 24.4477 15.0869 23.793 15.1387 23.1761C15.2094 22.326 15.313 21.6172 15.4543 21.0851C15.7557 19.9571 16.6411 19.067 17.769 18.7656C18.433 18.5867 19.7399 18.476 21.5766 18.4077C22.4502 18.3747 23.3851 18.3535 24.3199 18.3418C24.6472 18.3371 24.951 18.3347 25.2241 18.3324H25.9164C26.1896 18.3347 26.4934 18.3371 26.8207 18.3418C27.7555 18.3535 28.6903 18.3747 29.564 18.4077C31.4007 18.4784 32.7075 18.589 33.3716 18.7656C34.4995 19.067 35.3849 19.9548 35.6863 21.0851C35.83 21.6172 35.9312 22.326 36.0018 23.1761C36.0537 23.793 36.0866 24.4477 36.1055 25.1046C36.1125 25.333 36.1149 25.5473 36.1172 25.7381C36.1172 25.8063 36.1196 25.8652 36.1196 25.917V26.0489ZM34.4242 25.9264C34.4242 25.877 34.4242 25.8228 34.4218 25.7592C34.4195 25.5756 34.4147 25.3731 34.41 25.1541C34.3936 24.5277 34.3606 23.9013 34.3111 23.3197C34.2476 22.5615 34.1581 21.9398 34.0474 21.523C33.9014 20.9791 33.4728 20.5482 32.9312 20.4045C32.4368 20.2727 31.1911 20.1667 29.498 20.1031C28.6409 20.0702 27.7178 20.049 26.7971 20.0372C26.4745 20.0325 26.1755 20.0301 25.907 20.0301H25.2336L24.3435 20.0372C23.4228 20.049 22.502 20.0702 21.6426 20.1031C19.9495 20.1691 18.7015 20.2727 18.2093 20.4045C17.6677 20.5505 17.2392 20.9791 17.0932 21.523C16.9825 21.9398 16.893 22.5615 16.8294 23.3197C16.78 23.9013 16.7494 24.5277 16.7305 25.1541C16.7235 25.3731 16.7211 25.5779 16.7188 25.7592C16.7188 25.8228 16.7164 25.8793 16.7164 25.9264V26.0395C16.7164 26.0889 16.7164 26.1431 16.7188 26.2067C16.7211 26.3903 16.7258 26.5928 16.7305 26.8118C16.747 27.4382 16.78 28.0646 16.8294 28.6462C16.893 29.4044 16.9825 30.0261 17.0932 30.4429C17.2392 30.9868 17.6677 31.4177 18.2093 31.5614C18.7038 31.6932 19.9495 31.7992 21.6426 31.8628C22.4997 31.8957 23.4228 31.9169 24.3435 31.9287C24.6661 31.9334 24.9651 31.9358 25.2336 31.9358H25.907L26.7971 31.9287C27.7178 31.9169 28.6385 31.8957 29.498 31.8628C31.1911 31.7968 32.4391 31.6932 32.9312 31.5614C33.4728 31.4154 33.9014 30.9868 34.0474 30.4429C34.1581 30.0261 34.2476 29.4044 34.3111 28.6462C34.3606 28.0646 34.3912 27.4382 34.41 26.8118C34.4171 26.5928 34.4195 26.388 34.4218 26.2067C34.4218 26.1431 34.4242 26.0866 34.4242 26.0395V25.9264ZM23.4746 22.8276L28.9376 26.0065L23.4746 29.1383V22.8276Z" fill="#04A427"/>
<defs>
<filter id="filter0_d_858_17078" x="0.0140295" y="0.478873" width="51.2395" height="51.2395" filterUnits="userSpaceOnUse" color-interpolation-filters="sRGB">
<feFlood flood-opacity="0" result="BackgroundImageFix"/>
<feColorMatrix in="SourceAlpha" type="matrix" values="0 0 0 0 0 0 0 0 0 0 0 0 0 0 0 0 0 0 127 0" result="hardAlpha"/>
<feOffset/>
<feGaussianBlur stdDeviation="2.26056"/>
<feComposite in2="hardAlpha" operator="out"/>
<feColorMatrix type="matrix" values="0 0 0 0 0.705882 0 0 0 0 0.682353 0 0 0 0 0.654902 0 0 0 0.25 0"/>
<feBlend mode="normal" in2="BackgroundImageFix" result="effect1_dropShadow_858_17078"/>
<feBlend mode="normal" in="SourceGraphic" in2="effect1_dropShadow_858_17078" result="shape"/>
</filter>
</defs>
</svg>
