<svg width="639" height="280" viewBox="0 0 639 280" fill="none" xmlns="http://www.w3.org/2000/svg">
<g filter="url(#filter0_d_136_626)">
<path d="M497.65 8.52342C432.324 8.52342 355.845 50.93 355.845 137.157C355.845 207.049 406.193 265.79 483.629 265.79C560.108 265.79 625.116 208.148 625.116 134.33C624.956 70.5626 576.997 8.52342 497.65 8.52342ZM496.853 256.052C444.115 256.052 405.397 200.452 405.397 122.55C405.397 58.1548 432.324 19.3607 481.557 19.3607C540.032 19.3607 575.404 73.3897 575.404 146.109C575.404 216.63 541.626 256.052 496.853 256.052Z" fill="white" opacity="0.4"/>
</g>
<g filter="url(#filter1_d_136_626)">
<path d="M273.915 8.52342C208.589 8.52342 132.11 50.93 132.11 137.157C132.11 207.049 182.459 265.79 259.735 265.79C336.214 265.79 401.222 208.148 401.222 134.33C401.222 70.5626 353.263 8.52342 273.915 8.52342ZM273.119 256.052C220.38 256.052 181.662 200.452 181.662 122.55C181.662 58.1548 208.589 19.3607 257.823 19.3607C316.298 19.3607 351.669 73.3897 351.669 146.109C351.669 216.63 317.891 256.052 273.119 256.052Z" fill="white" opacity="0.6"/>
</g>
<g filter="url(#filter2_d_136_626)">
<path d="M201.094 199.947C195.836 228.532 166.838 253.191 137.361 253.191H55.9424C52.7558 253.191 52.2778 252.877 54.3491 250.05L193.765 17.756C195.358 16.1854 193.446 12.5731 190.897 12.5731H43.8332C23.2793 12.5731 19.296 11.0025 20.8893 1.4218C21.208 0.165305 16.428 -0.620002 16.1094 0.636489L0.016832 69.7435C-0.301832 71.3141 4.00013 72.0993 4.79679 70.9999C27.422 24.5097 56.7391 19.3266 140.548 19.3266C144.212 19.3266 144.212 19.6408 142.619 22.4679L1.13218 255.547C-0.461145 257.589 1.13216 260.73 3.20347 260.73C63.2717 260.73 136.086 260.73 196.155 261.515C198.545 261.515 199.819 259.159 199.819 257.589L205.555 199.947C205.555 198.22 201.572 198.22 201.094 199.947Z" fill="white" opacity="0.9"/>
</g>
<defs>
<filter id="filter0_d_136_626" x="355.845" y="8.52342" width="283.122" height="271.117" filterUnits="userSpaceOnUse" color-interpolation-filters="sRGB">
<feFlood flood-opacity="0" result="BackgroundImageFix"/>
<feColorMatrix in="SourceAlpha" type="matrix" values="0 0 0 0 0 0 0 0 0 0 0 0 0 0 0 0 0 0 127 0" result="hardAlpha"/>
<feOffset dx="9.58863" dy="9.58863"/>
<feGaussianBlur stdDeviation="2.13081"/>
<feComposite in2="hardAlpha" operator="out"/>
<feColorMatrix type="matrix" values="0 0 0 0 0.13839 0 0 0 0 0.255833 0 0 0 0 0.0390145 0 0 0 0.4 0"/>
<feBlend mode="normal" in2="BackgroundImageFix" result="effect1_dropShadow_136_626"/>
<feBlend mode="normal" in="SourceGraphic" in2="effect1_dropShadow_136_626" result="shape"/>
</filter>
<filter id="filter1_d_136_626" x="132.11" y="8.52342" width="282.962" height="271.117" filterUnits="userSpaceOnUse" color-interpolation-filters="sRGB">
<feFlood flood-opacity="0" result="BackgroundImageFix"/>
<feColorMatrix in="SourceAlpha" type="matrix" values="0 0 0 0 0 0 0 0 0 0 0 0 0 0 0 0 0 0 127 0" result="hardAlpha"/>
<feOffset dx="9.58863" dy="9.58863"/>
<feGaussianBlur stdDeviation="2.13081"/>
<feComposite in2="hardAlpha" operator="out"/>
<feColorMatrix type="matrix" values="0 0 0 0 0.13839 0 0 0 0 0.255833 0 0 0 0 0.0390145 0 0 0 0.4 0"/>
<feBlend mode="normal" in2="BackgroundImageFix" result="effect1_dropShadow_136_626"/>
<feBlend mode="normal" in="SourceGraphic" in2="effect1_dropShadow_136_626" result="shape"/>
</filter>
<filter id="filter2_d_136_626" x="0" y="0" width="219.405" height="275.366" filterUnits="userSpaceOnUse" color-interpolation-filters="sRGB">
<feFlood flood-opacity="0" result="BackgroundImageFix"/>
<feColorMatrix in="SourceAlpha" type="matrix" values="0 0 0 0 0 0 0 0 0 0 0 0 0 0 0 0 0 0 127 0" result="hardAlpha"/>
<feOffset dx="9.58863" dy="9.58863"/>
<feGaussianBlur stdDeviation="2.13081"/>
<feComposite in2="hardAlpha" operator="out"/>
<feColorMatrix type="matrix" values="0 0 0 0 0.13839 0 0 0 0 0.255833 0 0 0 0 0.0390145 0 0 0 0.4 0"/>
<feBlend mode="normal" in2="BackgroundImageFix" result="effect1_dropShadow_136_626"/>
<feBlend mode="normal" in="SourceGraphic" in2="effect1_dropShadow_136_626" result="shape"/>
</filter>
</defs>
</svg>
